<?xml version="1.0" encoding="UTF-8" standalone="no"?>
<!-- Generator: Adobe Illustrator 13.0.0, SVG Export Plug-In . SVG Version: 6.00 Build 14948)  -->

<svg
   xmlns:dc="http://purl.org/dc/elements/1.1/"
   xmlns:cc="http://creativecommons.org/ns#"
   xmlns:rdf="http://www.w3.org/1999/02/22-rdf-syntax-ns#"
   xmlns:svg="http://www.w3.org/2000/svg"
   xmlns="http://www.w3.org/2000/svg"
   xmlns:sodipodi="http://sodipodi.sourceforge.net/DTD/sodipodi-0.dtd"
   xmlns:inkscape="http://www.inkscape.org/namespaces/inkscape"
   version="1.1"
   id="Layer_2"
   x="0px"
   y="0px"
   width="598.189px"
   height="350.26px"
   viewBox="0 0 598.189 350.26"
   enable-background="new 0 0 598.189 350.26"
   xml:space="preserve"
   sodipodi:docname="controller.svg"
   inkscape:version="0.92.3 (2405546, 2018-03-11)"><metadata
   id="metadata7199"><rdf:RDF><cc:Work
       rdf:about=""><dc:format>image/svg+xml</dc:format><dc:type
         rdf:resource="http://purl.org/dc/dcmitype/StillImage" /></cc:Work></rdf:RDF></metadata><defs
   id="defs7197" /><sodipodi:namedview
   pagecolor="#ffffff"
   bordercolor="#666666"
   borderopacity="1"
   objecttolerance="10"
   gridtolerance="10"
   guidetolerance="10"
   inkscape:pageopacity="0"
   inkscape:pageshadow="2"
   inkscape:window-width="1920"
   inkscape:window-height="1017"
   id="namedview7195"
   showgrid="false"
   inkscape:zoom="0.57841248"
   inkscape:cx="-1.7288747"
   inkscape:cy="175.13"
   inkscape:window-x="-4"
   inkscape:window-y="-4"
   inkscape:window-maximized="1"
   inkscape:current-layer="Layer_2" />
<path
   fill="#F4F4F4"
   d="M24.594,331.629V5.63h557v324.999v1H24.594L24.594,331.629z M580.595,330.629v-0.999V330.629  L580.595,330.629z M26.593,329.63h553.002l-0.002-322h-553V329.63L26.593,329.63z"
   id="path7170"
   style="fill:#000000" />
<path
   fill="#F4F4F4"
   d="M55.792,89.38v-8.251h4.474c0.285-1.286,1.13-2.117,1.759-2.614l0,0c0.262-0.222,0.472-0.396,0.636-0.551  l0,0H47.293v-50h64.332v50H95.132c0.169,0.308,0.444,0.511,0.851,0.869l0,0c0.549,0.412,1.393,1.128,1.696,2.297l0,0h4.488v8.251  H55.792L55.792,89.38z M57.792,87.378h42.374v-4.25h-3.373h-1.001V82.13c-0.041-0.973-0.319-1.097-1.068-1.746l0,0  c-0.718-0.535-1.851-1.593-1.809-3.421l0,0v-1.001h16.709V29.963H49.292v45.999h15.875v1.001c0.002,1.672-1.19,2.528-1.857,3.084  l0,0c-0.722,0.643-1.113,0.954-1.144,2.083l0,0v0.999h-4.375V87.378L57.792,87.378z"
   id="path7172"
   style="fill:#000000" />
<rect
   x="53.647"
   y="33.63"
   fill="#F4F4F4"
   width="51.625"
   height="37.625"
   id="rect7174"
   style="fill:#000000" />
<path
   fill="#F4F4F4"
   d="M48.261,137.628c0.002-16.936,13.729-30.665,30.667-30.665l0,0c16.936,0,30.665,13.729,30.665,30.665l0,0  c0,16.938-13.729,30.667-30.665,30.667l0,0C61.99,168.296,48.263,154.566,48.261,137.628L48.261,137.628z M50.261,137.628  c0.029,15.833,12.834,28.64,28.667,28.667l0,0c15.831-0.027,28.638-12.834,28.667-28.667l0,0  c-0.029-15.831-12.836-28.636-28.667-28.665l0,0C63.095,108.993,50.29,121.798,50.261,137.628L50.261,137.628z"
   id="path7176"
   style="fill:#000000" />
<path
   fill="#F4F4F4"
   d="M64.678,114.297c0.417,0.583,0.833,0.75-0.75,2.667s-5,4.583-5.417,5.333s-5.5,2.333-5.25,12.333  c-0.083,2.25-0.667,3.167-0.25,4.333s2.25,3.75,2.5,4.833s0.917,1.667,1.5,2.917s1,2.75,1,2.75s-0.417-0.083,0.667,0.5  s1.583-0.833,1.75,0.917s-1.833,2-1.417,3.833s5,7.667,10.667,9.5s9,0.333,9.417-0.167s0.417-0.833,0.667-1.25  s2.333-1.166,1.583-2.083s-3.417-1.834-5.167-2.417s-2.667-1.416-3.917-3.083s-2.25-0.25-4.083-2s-3.583-2.25-4.5-2.833  s-1.667-0.75-2.5-0.667c-1.583-0.667-2.75-0.834-2.833-1.667s1.167-2.25,0-2.917s-1.667-0.25-1.083-1.25s1.084-1.833,0.417-2  s-1.667,0.917-2.083-0.333s0.417-4.083,0.417-4.083s1-1.334,2.583-0.167s2.083,1.917,2.083,2.917s1.166,3.333,1,0.75  s0.167-2.75,1.583-2.917s1.417-0.583,1.667-1.417s1.083-1.333,1.667-1.25s0.25-0.417,1.5-0.917s1.5-0.833,1.583-0.333  s1.25,0.75,1.667,0.583s0-0.333-0.417-0.75s-0.333-1.75,0.25-2s1.25,0.416,1.333,1.333s1.167,1.417,1.583,1  s-0.333-1.083-0.667-1.833s0.583-1.417-0.083-1.833s-1-1.917-1-3s-2,1.083-1.75-0.583s-0.167-2.333-1.083-0.667  s-2,1.167-1.917,1.917s-1.5,1.5-1.083-0.167s0-2.083-0.25-2.917s1.667-0.917,3.167-1.75s1.75-1.083,2.167-1.75s1.333,0.25,1,1.5  s-1.333,1.416-0.167,2.333s1.167-0.917,1.167-1.25s0.834-0.167,0.417-1.667s-2.5-1.583-0.917-2.583s2.417-1.916,2.583-0.833  s0.75,2.833,0.667,4.917s0.667,3.25,1.417,3.75s0.417-1.417,1.167-2.583s2.5-1.417,2.583-1.917s0-2.083-0.167-2.917  s-0.5-2.083-1.583-2.5s-2.667-0.5-3.167-0.583s-1.666-0.75-3.083,0.167s-1.583,1.75-2.083,1.583s-1.667-0.5-2.25-1  s-0.75-0.75-0.917-1.333s-0.083-1.25,0.25-1.75s1.25-1.333,1-1.917s-1.667-0.083-2.167,0.25S64.678,114.297,64.678,114.297z"
   id="path7178"
   style="fill:#000000" />
<path
   fill="#F4F4F4"
   d="M64.126,130.755c0.136-0.613,0.375-1.156-1.844-0.938c0.719,0.594,0.75,0.719,1.031,0.969  S64.063,131.036,64.126,130.755z"
   id="path7180"
   style="fill:#000000" />
<path
   fill="#F4F4F4"
   d="M63.532,131.286c-0.502-0.039-1.063,0.688-1.344,1.188s0.813-0.031,1.031-0.5s0.75-0.25,0.719,0.156  s-0.281,1.219,0.219,0.813s0.5-0.469,0.688-0.313s0.313-0.281,0.063-0.594S63.938,131.317,63.532,131.286z"
   id="path7182"
   style="fill:#000000" />
<path
   fill="#F4F4F4"
   d="M63.876,133.505c-0.756,0-0.531,0.281-0.063,0.375S65.501,133.505,63.876,133.505z"
   id="path7184"
   style="fill:#000000" />
<path
   fill="#F4F4F4"
   d="M70.532,110.942c-1,0.563-1.375,1.375,0.313,0.688s4.938-1.813,7.75-1.375s4.125,1,4.25,1.188  s-1.25,0.25,0.875,0.75s2.5,0.563,3.25,1.188s0.563,0.625,1.688,1.375s1.438,1.5,1.625,2.375s1.75,2.688,0.75,2.25  s-1.688-1.375-2.25-0.875s-0.688,0.875-0.375,2.5s0.813,2.438,1.313,3.688s1.188,0.875,1.188,0.5s1.125,0.188,1.188,0.438  s1.313,0.188,0.875-0.438s-1.375-1.813-1.813-2.188s-0.875-1.313-0.875-1.938s-0.125-0.25,0.813,0.438s1.75,1.25,2.25,2.25  s0.125,2.063-0.313,2.625s-0.563,0.625-1.125,2.125s-0.063,2.313-0.938,2.688s-0.188,0.625,0.438,1s1.313,0.313,0.75,1.063  s-1.813,0.688-1.875,1.25s0.438,1.5,0.563,2s1.875,1.688,2.438,0.625s0.75-1.813,0.75-2.875s0.125-1.25,0.625-2  s1.313-0.563,1.813-0.5s1.563-0.188,1.75,0.563s-0.188,0.75-0.5,1.063s0.875,0.625,1.125,0.125s0.313-2-0.125-2.375  s-1.25,0-1.875-0.563s0.813-0.688,1.375-0.563s1.438,1.188,1.688,1.188s0.375-1.5-0.125-2.25s-1-2-0.875-3s0.5-1.688,1.125-1.125  s1.125,1.313,0.875,2.188s-0.313,1.5,0.188,2.313s1.688,0.188,1.75-0.375s0.313,1.125,0.25,1.688s-0.563,1.5-1.188,2.625  s0.25,2.063-0.813,2.5s-2.75,0.75-3.063,0.25s0.5-2.25-1.313-0.938s-3.125,3.125-3.75,4s-0.125,0.75-0.938,2.313  s-1.563,2.313-1.625,3.5s0.063,2.938,0.188,3.563s0,1.688,1.375,2.813s1.5,1.125,2.625,1.188s2-0.063,3.563-1.625  s2.125-1.938,2.188-1.25s1.5-1,1.625,0.313s-0.438,1.625,0,2.188s2.375,0.25,2.375,0.25s3.688-7.125,4.063-10.625  s-0.875-6.375-1.625-6.938s-2.375-1.875-2.563-2.375s0.75-0.5,1.813,0s1.438,1.5,1.688,0.813s-0.938-3.438-1.063-4.063  s-1.063-0.875-1.563-1.375s-0.063-1.813,0.438-1.75s-0.125-1.313-0.438-1.625s-1.313-1.563-1.563-1s-0.5,1.563-0.875,1.063  s-1.813-1.563-2.5-1.938s-0.688-1.938-0.688-1.938s1.313,0.875,1.938,1.375s1.5,0.875,1.75,0.125s-1.688-3-1.688-3  s-3.563-5.25-7-6.813s-10.5-4-13.125-4.125s-8.063,0.688-8.563,0.875S70.532,110.942,70.532,110.942z"
   id="path7186"
   style="fill:#000000" />
<g
   id="g7192"
   style="fill:#000000">
	<g
   id="g7190"
   style="fill:#000000">
		<path
   d="m 25.595,305.297 v 26 h 555.334 v -26 z m 533.764,4.635 h 2.607 v 9.905 h -2.607 z m -511.264,5.531 c -1.25,1.75 -4.083,8.5 -4.667,11.667 -1.5,-4.833 1.083,-11.417 1.083,-11.417 -3.083,4.417 -4.333,7.25 -5.083,10.167 -1.583,-2.333 1.75,-8.833 2.083,-9.833 -5.5,2.75 -8.75,5.749 -9.5,6.666 5.583,-7.833 13.667,-12.416 15.25,-13.416 1.583,-1 7.834,9.334 9.667,17 -4.833,-8.334 -8.583,-10.751 -8.833,-10.834 z m 465.75,4.917 h -2.125 l -9.625,5.875 V 309.88 l 9,5.75 h 2.75 z m 23.144,3.224 c 0,0 -3.394,-1.646 -6.785,-0.048 -0.825,-0.437 -1.115,-0.485 -1.115,-0.485 2.376,-2.035 7.27,-1.938 8.82,-0.145 -0.387,0.437 -0.92,0.678 -0.92,0.678 z m 2.887,-2.815 c 0,0 -6.199,-3.012 -12.399,-0.089 -1.506,-0.797 -2.037,-0.886 -2.037,-0.886 4.34,-3.72 13.286,-3.542 16.12,-0.266 -0.708,0.799 -1.684,1.241 -1.684,1.241 z m 1.732,-4.055 c 0,0 -7.884,-3.83 -15.769,-0.113 -1.915,-1.014 -2.591,-1.126 -2.591,-1.126 5.52,-4.73 16.896,-4.506 20.5,-0.338 -0.9,1.014 -2.14,1.577 -2.14,1.577 z m 19.055,10.042 c -3.989,0 -7.224,-3.234 -7.224,-7.224 0,-3.371 2.309,-6.202 5.432,-6.999 l -10e-4,3.039 c -1.506,0.684 -2.553,2.199 -2.553,3.96 0,2.399 1.945,4.345 4.346,4.345 2.399,0 4.345,-1.945 4.345,-4.345 0,-1.713 -0.992,-3.195 -2.432,-3.902 l 0.021,-3.06 c 3.05,0.846 5.289,3.643 5.289,6.962 10e-4,3.99 -3.234,7.224 -7.223,7.224 z"
   id="path7188"
   inkscape:connector-curvature="0"
   style="fill:#000000" />
	</g>
</g>
</svg>