<?xml version="1.0" encoding="UTF-8" standalone="no"?>
<!-- Created with Inkscape (http://www.inkscape.org/) -->

<svg
   xmlns:dc="http://purl.org/dc/elements/1.1/"
   xmlns:cc="http://creativecommons.org/ns#"
   xmlns:rdf="http://www.w3.org/1999/02/22-rdf-syntax-ns#"
   xmlns:svg="http://www.w3.org/2000/svg"
   xmlns="http://www.w3.org/2000/svg"
   xmlns:sodipodi="http://sodipodi.sourceforge.net/DTD/sodipodi-0.dtd"
   xmlns:inkscape="http://www.inkscape.org/namespaces/inkscape"
   version="1.1"
   id="svg2"
   width="612"
   height="216"
   viewBox="0 0 612 216"
   sodipodi:docname="PSXMINI.svg"
   inkscape:version="0.92.3 (2405546, 2018-03-11)">
  <metadata
     id="metadata8">
    <rdf:RDF>
      <cc:Work
         rdf:about="">
        <dc:format>image/svg+xml</dc:format>
        <dc:type
           rdf:resource="http://purl.org/dc/dcmitype/StillImage" />
        <dc:title></dc:title>
      </cc:Work>
    </rdf:RDF>
  </metadata>
  <defs
     id="defs6" />
  <sodipodi:namedview
     pagecolor="#ffffff"
     bordercolor="#666666"
     borderopacity="1"
     objecttolerance="10"
     gridtolerance="10"
     guidetolerance="10"
     inkscape:pageopacity="0"
     inkscape:pageshadow="2"
     inkscape:window-width="1920"
     inkscape:window-height="1017"
     id="namedview4"
     showgrid="false"
     inkscape:zoom="0.56535948"
     inkscape:cx="306"
     inkscape:cy="108"
     inkscape:window-x="-4"
     inkscape:window-y="-4"
     inkscape:window-maximized="1"
     inkscape:current-layer="svg2" />
  <g
     id="g12"
     transform="matrix(1.1040037,0,0,1,-43.375175,-7.0751409)">
    <path
       style="fill:#b2b2b2"
       d="m 269.2,212.8 c -1.87019,-1.87019 -1.69354,-52.14551 0.1887,-53.70763 1.02287,-0.84891 17.29029,-1.07874 61.75,-0.87245 L 391.5,158.5 l 4.94803,2.5 c 8.81803,4.45533 9.00414,5.0336 9.37503,29.13001 0.23438,15.22772 -0.005,21.38441 -0.87245,22.4295 C 404.03848,213.65856 401.06665,214 392.41274,214 382.22232,214 380.96523,213.80355 380.03518,212.06574 379.42563,210.92678 379,202.30683 379,191.10093 c 0,-17.7915 -0.12594,-19.09796 -1.93426,-20.06575 C 376.0019,170.46583 369.48568,170 362.58524,170 H 350.039 L 349.7695,191.75 349.5,213.5 H 337 324.5 L 324.2305,191.75 323.961,170 H 309.4805 295 v 20.8 c 0,14.84444 -0.34359,21.14359 -1.2,22 -0.78919,0.78919 -5,1.2 -12.3,1.2 -7.3,0 -11.51081,-0.41081 -12.3,-1.2 z m 149.25464,-0.0576 c -0.26542,-0.69168 -0.3638,-16.10418 -0.21861,-34.25 L 418.5,145.5 l 11.85817,-0.28267 c 7.8878,-0.18803 12.32419,0.10409 13.25,0.87244 1.89293,1.57099 2.07483,64.82723 0.19183,66.71023 -1.72049,1.72049 -24.68307,1.66829 -25.34536,-0.0576 z M 459.2,212.8 c -1.71703,-1.71703 -1.71703,-64.88297 0,-66.6 0.81967,-0.81967 5.66156,-1.2 15.27704,-1.2 h 14.07704 l 17.97296,23.60771 17.97296,23.60772 0.5,-23.35772 0.5,-23.35771 9.98487,-0.28904 c 8.5244,-0.24677 10.16991,-0.036 11.25,1.44112 1.62307,2.21969 1.83468,62.41519 0.22995,65.41366 -0.92653,1.73124 -2.15983,1.9306 -11.75,1.89937 L 524.5,213.93023 503,203.65312 l -21.5,-10.2771 -0.5,9.06199 c -0.275,4.98409 -0.86406,9.62449 -1.30902,10.31199 -1.09254,1.68807 -18.80968,1.7313 -20.49098,0.05 z m 101.25464,-0.0576 c -0.26542,-0.69168 -0.3638,-16.10418 -0.21861,-34.25 L 560.5,145.5 l 11.85817,-0.28267 c 7.8878,-0.18803 12.32419,0.10409 13.25,0.87244 1.89293,1.57099 2.07483,64.82723 0.19183,66.71023 -1.72049,1.72049 -24.68307,1.66829 -25.34536,-0.0576 z M 138.75,207.34747 c -7.96944,-3.23961 -8.75,-3.79842 -8.75,-6.2642 v -2.7073 l -6.75639,1.14764 c -13.34056,2.26603 -29.906868,-1.54816 -32.978868,-7.59298 -4.040149,-7.94985 -0.431286,-11.15314 22.049368,-19.5714 L 130,165.73645 v -29.75159 c 0,-28.60496 0.0748,-29.77115 1.9402,-30.25897 2.43258,-0.63614 33.90521,6.62569 38.08633,8.78783 4.64605,2.40257 10.88901,8.39828 12.93015,12.41807 6.64638,13.08928 3.92123,33.27234 -5.25851,38.94573 -4.92366,3.04299 -12.44191,3.82348 -16.51941,1.71492 L 158,165.94864 v -19.54006 c 0,-20.15515 -0.72742,-24.70962 -3.56974,-22.3507 -1.1676,0.96902 -1.43026,5.59168 -1.43026,25.17155 0,22.45224 0.1118,23.93818 1.75,23.25879 0.9625,-0.39917 4.9156,-0.95028 8.78466,-1.22468 11.76552,-0.83444 29.13455,3.82609 30.84201,8.27565 1.31529,3.42759 0.60391,7.62937 -1.62667,9.60793 -3.28466,2.91355 -40.84824,21.86134 -43.22806,21.80507 -1.11207,-0.0263 -5.95944,-1.64842 -10.77194,-3.60472 z m 28.75,-21.84275 c 7.87182,-3.56475 7.9279,-3.61567 3.5,-3.17787 -5.71426,0.56497 -18,6.08011 -18,8.0803 0,1.67631 -0.10822,1.71289 14.5,-4.90243 z m -46.75,-0.13907 c 5.0875,-2.008 9.25,-4.21602 9.25,-4.90671 0,-0.80791 -3.57751,0.26441 -10.0306,3.00657 -5.51684,2.3443 -10.31684,4.54859 -10.66667,4.89843 -1.54008,1.54007 2.88594,0.3808 11.44727,-2.99829 z M 43.666667,134.33333 C 43.3,133.96667 43,108.1075 43,76.868517 V 20.070368 l 2.147046,-1.149064 c 2.786086,-1.491069 107.211324,-0.630691 117.025104,0.964189 13.75281,2.235031 22.86863,7.35379 26.7921,15.044424 4.68363,9.180689 5.20298,27.395953 1.09084,38.259758 -2.59715,6.861365 -6.80335,10.824143 -14.57565,13.732134 -9.14752,3.422524 -19.11933,4.285523 -51.25978,4.436218 C 90.051514,91.518229 92.030626,92.001372 92.030626,83.5 c 0,-8.324765 -1.196211,-7.936404 26.181224,-8.5 25.89427,-0.533064 27.29864,-0.797087 30.53815,-5.741205 2.64614,-4.038522 2.54421,-24.587135 -0.14162,-28.549402 -3.43781,-5.071641 -4.17104,-5.18792 -34.85838,-5.528046 L 85,34.862693 V 83.731347 C 85,120.40697 84.700593,132.89941 83.8,133.8 c -1.296604,1.2966 -38.870738,1.79593 -40.133333,0.53333 z m 161.255293,-1.47914 c -1.17437,-2.19433 -0.80274,-11.30537 0.51501,-12.62618 0.39948,-0.4004 20.15208,-0.95301 43.89468,-1.22801 40.8789,-0.47348 43.34798,-0.60607 46.55525,-2.5 4.81132,-2.84113 7.11619,-7.70664 7.09836,-14.9844 -0.0186,-7.599564 -1.47593,-10.512019 -6.49315,-12.976697 C 292.87349,86.761282 289.45936,86.515743 260,85.914447 234.66188,85.397269 226.22618,84.893923 221.7195,83.630308 206.80221,79.447687 201.08985,73.238713 198.86071,58.784261 c -1.36322,-8.839515 0.43611,-17.448426 5.0478,-24.151287 9.4859,-13.787278 26.09302,-16.984286 85.37883,-16.436127 36.91097,0.34128 34.68203,-0.192346 34.68203,8.303153 0,8.526695 2.67975,7.93784 -38.68155,8.5 -32.71962,0.444707 -37.14618,0.695826 -40.0284,2.27081 -1.78232,0.973946 -3.91702,2.803178 -4.74377,4.064962 -2.16376,3.302308 -2.90338,10.510608 -1.58198,15.417897 1.99438,7.406562 2.71503,7.556993 40.06633,8.363555 34.66161,0.748481 40.3079,1.460564 49.76916,6.276652 10.00485,5.092796 13.69673,12.407262 13.68147,27.106124 -0.009,8.29463 -0.40733,10.88914 -2.33806,15.21376 -3.07581,6.8895 -10.16177,13.40618 -17.66315,16.24411 -11.99675,4.53863 -17.91401,4.97013 -68.66424,5.00724 L 206.07037,135 Z M 352.2,133.8 c -0.66,-0.66 -1.2,-1.76356 -1.2,-2.45235 0,-0.68879 10.6875,-13.3214 23.75,-28.07246 13.0625,-14.751052 24.35327,-27.580225 25.0906,-28.509268 1.192,-1.501948 -1.24641,-4.364896 -22,-25.830272 -24.38306,-25.219318 -26.98507,-28.860856 -21.64421,-30.291344 2.93455,-0.785986 38.13269,-0.838991 40.16146,-0.06048 0.83679,0.321105 8.8101,8.660187 17.71847,18.531294 15.59,17.274818 16.26797,17.883273 18.08967,16.234664 1.04094,-0.942042 8.46589,-9.019711 16.49988,-17.950376 8.03399,-8.930664 15.55831,-16.49284 16.7207,-16.804836 2.81856,-0.756527 24.51285,-0.728213 27.36343,0.03571 5.3132,1.423884 3.09654,4.609201 -20.5,29.458254 -12.5125,13.176667 -22.75,24.33239 -22.75,24.790496 0,0.458106 10.35,12.235323 23,26.171594 28.80764,31.736854 28.73341,31.644724 27.44187,34.058004 -0.94491,1.76557 -2.4233,1.88919 -22.22705,1.85867 L 456.5,134.93459 438.06542,112.85948 c -14.62997,-17.519153 -18.65447,-21.783051 -19.5,-20.659998 -0.58598,0.77831 -8.87621,10.726828 -18.42272,22.107818 L 382.7854,135 h -14.6927 c -10.09432,0 -15.06826,-0.37556 -15.8927,-1.2 z"
       id="path26"
       inkscape:connector-curvature="0" />
    <path
       style="fill:#c89e1d"
       d="M 269.57143,212.42857 C 268.22715,211.08429 268,207.26407 268,186 c 0,-21.26407 0.22715,-25.08429 1.57143,-26.42857 1.39195,-1.39195 8.10644,-1.57143 58.7899,-1.57143 81.07037,0 76.9104,-1.75111 77.46073,32.60651 0.28187,17.5975 0.11697,20.3116 -1.32143,21.75 -2.12061,2.12062 -21.60647,2.42582 -23.31662,0.36521 -0.64377,-0.7757 -1.18338,-9.04738 -1.37245,-21.03809 -0.25603,-16.23784 -0.57892,-19.92853 -1.81156,-20.7064 -0.825,-0.52063 -7.4625,-0.9535 -14.75,-0.96192 L 350,170 v 20.8 c 0,14.84444 -0.34359,21.14359 -1.2,22 -0.78239,0.78239 -4.88889,1.2 -11.8,1.2 -6.91111,0 -11.01761,-0.41761 -11.8,-1.2 -0.85641,-0.85641 -1.2,-7.15556 -1.2,-22 V 170 H 309.5 295 v 20.42857 c 0,17.2381 -0.24542,20.67399 -1.57143,22 C 292.2023,213.65484 289.58225,214 281.5,214 c -8.08225,0 -10.7023,-0.34516 -11.92857,-1.57143 z M 419.2,212.8 c -1.71703,-1.71703 -1.71703,-64.88297 0,-66.6 1.93165,-1.93165 22.23678,-1.62037 24.22857,0.37143 C 444.79032,147.93318 445,152.32684 445,179.5 c 0,27.17316 -0.20968,31.56682 -1.57143,32.92857 -1.99179,1.9918 -22.29692,2.30308 -24.22857,0.37143 z m 40,0 c -1.8792,-1.8792 -1.70153,-65.13888 0.18735,-66.70651 0.93726,-0.77785 5.86676,-1.0609 15.19454,-0.87244 l 13.8072,0.27895 18.05546,23.64625 18.05545,23.64625 0.26921,-22.56694 c 0.17414,-14.59708 0.65884,-23.0364 1.37245,-23.89625 1.45114,-1.74852 17.93073,-1.85692 19.65834,-0.12931 1.71703,1.71703 1.71703,64.88297 0,66.6 -0.76815,0.76815 -4.68589,1.2 -10.88649,1.2 h -9.68648 l -20.53706,-9.90835 C 493.39459,198.64206 483.21851,193.88674 482.07646,193.52427 480.07539,192.88915 480,193.20533 480,202.23261 c 0,5.95241 -0.43747,9.80486 -1.2,10.56739 -0.74729,0.74729 -4.44444,1.2 -9.8,1.2 -5.35556,0 -9.05271,-0.45271 -9.8,-1.2 z m 102,0 c -0.88349,-0.88349 -1.2,-9.66667 -1.2,-33.3 0,-23.63333 0.31651,-32.41651 1.2,-33.3 1.93165,-1.93165 22.23678,-1.62037 24.22857,0.37143 C 586.79032,147.93318 587,152.32684 587,179.5 c 0,27.17316 -0.20968,31.56682 -1.57143,32.92857 -1.99179,1.9918 -22.29692,2.30308 -24.22857,0.37143 z m -421.45,-5.45253 c -8.2759,-3.36419 -8.75,-3.7201 -8.75,-6.56877 0,-2.76761 -0.223,-2.96214 -2.75,-2.39879 -1.5125,0.33719 -6.62569,0.90225 -11.36264,1.2557 -7.15208,0.53365 -9.78336,0.28704 -15.51607,-1.45422 -8.093851,-2.45843 -11.03044,-4.84758 -11.94403,-9.71743 -1.120859,-5.9747 1.564217,-7.97414 19.26337,-14.34444 5.94515,-2.13979 13.4091,-4.87895 16.58654,-6.08704 l 5.77717,-2.19651 -0.0912,-29.66798 c -0.0901,-29.29526 -0.0651,-29.67202 1.98499,-29.98914 3.04662,-0.47125 32.7532,6.62814 37.17591,8.88444 6.30209,3.21508 11.38499,8.88592 13.83626,15.43671 1.90347,5.08683 2.17567,7.38817 1.78853,15.12098 -0.50536,10.09394 -2.87433,15.9458 -7.9854,19.72565 -3.06314,2.26532 -12.74871,3.39305 -16.59779,1.93256 l -2.33436,-0.88574 0.12066,-18.44673 c 0.12721,-19.4492 -0.77873,-25.31891 -3.81757,-24.73455 -1.45216,0.27925 -1.66413,3.11213 -1.90125,25.40895 l -0.26687,25.09466 5.2348,-1.35789 c 2.87914,-0.74684 6.59923,-1.34015 8.26687,-1.31847 4.8225,0.0627 19.72479,3.45991 23.25243,5.30077 5.61875,2.93209 6.84528,7.80935 3.02964,12.04733 -2.15801,2.39688 -40.92539,22.66321 -43.16388,22.56467 -0.59736,-0.0263 -5.02362,-1.64842 -9.83612,-3.60472 z m 26.5,-20.62791 c 5.3625,-2.30871 9.75,-4.59759 9.75,-5.08641 0,-1.5057 -7.78859,0.25895 -15.58234,3.53048 -5.65664,2.37445 -7.41766,3.58097 -7.41766,5.08201 0,2.2757 -0.5918,2.43319 13.25,-3.52608 z m -44.54965,-1.32288 c 6.0122,-2.32954 9.29965,-4.13487 9.29965,-5.10699 0,-1.70466 0.46492,-1.83199 -12.73603,3.48811 -8.83437,3.56033 -11.24136,5.2222 -7.56362,5.2222 0.93518,0 5.88518,-1.62149 11,-3.60332 z M 44.2,133.8 c -1.731785,-1.73178 -1.731785,-111.868215 0,-113.6 1.49606,-1.49606 104.30545,-1.65681 115.67486,-0.180866 21.29567,2.764542 29.6321,9.860654 32.24823,27.450269 0.8594,5.778215 0.87016,9.781518 0.042,15.637393 -2.1642,15.303551 -7.37342,21.144372 -22.75531,25.514335 C 164.56386,89.997847 157.3,90.381084 129.05963,90.749984 90.19275,91.257697 92,91.611249 92,83.5 c 0,-7.328446 -0.287998,-7.240405 25.5,-7.795372 24.68044,-0.531131 28.23543,-1.162007 31.15848,-5.529451 C 151.36883,66.125552 151.81002,46.862889 149.30381,42 145.88897,35.374057 143.95246,35.003301 112.75,35.001554 L 85,35 v 48.8 c 0,36.62222 -0.299454,49.09945 -1.2,50 -0.847312,0.84731 -6.666667,1.2 -19.8,1.2 -13.133333,0 -18.952688,-0.35269 -19.8,-1.2 z m 162,0 c -0.66,-0.66 -1.2,-3.79417 -1.2,-6.96482 0,-4.67605 0.36531,-5.96032 1.93426,-6.8 1.24106,-0.66419 16.38248,-1.03718 42.25,-1.04076 23.46801,-0.003 41.80213,-0.41849 43.87259,-0.99367 1.95626,-0.54345 4.88126,-2.37025 6.5,-4.05955 2.69391,-2.81135 2.9726,-3.77587 3.29096,-11.38931 0.66241,-15.841349 0.89297,-15.748562 -41.34781,-16.639934 -35.67562,-0.752834 -39.97641,-1.330402 -49.85249,-6.694865 -5.33479,-2.897736 -9.89023,-8.832247 -11.65443,-15.182571 -1.53082,-5.510294 -1.17948,-17.131186 0.68321,-22.597892 2.353,-6.905671 10.1062,-14.455851 17.8547,-17.387169 11.75212,-4.445917 18.34359,-4.977461 62.18383,-5.014571 39.74334,-0.03364 41.25177,0.03417 42.25,1.899371 1.49012,2.784316 1.27366,9.357023 -0.38283,11.624611 -1.34726,1.844278 -3.25573,1.966077 -38.25,2.44113 -36.15714,0.490839 -36.89908,0.541718 -40.49354,2.776895 C 239.64342,40.385528 238,44.131275 238,51.084124 c 0,6.222921 1.27224,9.392875 4.66105,11.613577 2.44381,1.601442 6.3215,1.878338 34.79463,2.484602 34.31747,0.730704 41.21381,1.575624 50.17539,6.147338 10.43226,5.321975 14.7428,13.282277 14.79164,27.315824 0.0296,8.499535 -0.21376,9.626455 -3.44544,15.955655 -5.55035,10.87029 -13.78033,15.78483 -31.6529,18.90155 C 296.02898,135.47242 208.13086,135.73086 206.2,133.8 Z m 146.37341,-0.36945 c -1.09277,-1.09277 -1.29011,-2.07986 -0.64972,-3.25 0.50585,-0.9243 7.14246,-8.6714 14.74802,-17.21576 7.60556,-8.54437 18.61159,-20.934155 24.45785,-27.532856 L 401.75913,73.434297 377.85873,48.467148 C 360.76695,30.612507 354.03548,22.930251 354.22916,21.5 c 0.25986,-1.918922 1.12216,-2.009965 21.27084,-2.245803 11.55,-0.135192 21.4596,0.08981 22.02133,0.5 0.56173,0.410191 7.71199,8.170803 15.88946,17.245803 8.17748,9.075 15.38453,17.063085 16.01569,17.751299 0.89274,0.97345 4.8721,-2.862592 17.92119,-17.275719 l 16.77365,-18.527018 15.18934,0.275719 c 14.33358,0.260185 15.20554,0.3887 15.47683,2.281084 0.20686,1.442894 -6.19964,8.8173 -22.84094,26.291808 -13.91325,14.609857 -22.92132,24.826202 -22.6086,25.641138 0.28592,0.745082 11.80184,13.743174 25.59095,28.884649 14.92957,16.3938 25.0711,28.32545 25.0711,29.49651 0,1.0816 -0.7118,2.2397 -1.58179,2.57354 C 497.54823,134.72686 487.91954,135 477.02113,135 h -19.8153 l -18.23261,-21.75 c -10.02794,-11.9625 -18.57588,-21.883878 -18.99543,-22.047506 -0.41956,-0.163629 -8.77758,9.286376 -18.57339,20.999996 -9.79581,11.71363 -18.28167,21.62812 -18.85748,22.0322 -0.57581,0.40408 -7.20228,0.74158 -14.72549,0.75 -11.10889,0.0124 -13.97341,-0.27953 -15.24802,-1.55414 z"
       id="path24"
       inkscape:connector-curvature="0" />
    <path
       style="fill:#32877c"
       d="M 269.57143,212.42857 C 268.22715,211.08429 268,207.26407 268,186 c 0,-21.26407 0.22715,-25.08429 1.57143,-26.42857 1.39195,-1.39195 8.10644,-1.57143 58.7899,-1.57143 81.07037,0 76.9104,-1.75111 77.46073,32.60651 0.28187,17.5975 0.11697,20.3116 -1.32143,21.75 -2.12061,2.12062 -21.60647,2.42582 -23.31662,0.36521 -0.64377,-0.7757 -1.18338,-9.04738 -1.37245,-21.03809 -0.25603,-16.23784 -0.57892,-19.92853 -1.81156,-20.7064 -0.825,-0.52063 -7.4625,-0.9535 -14.75,-0.96192 L 350,170 v 20.8 c 0,14.84444 -0.34359,21.14359 -1.2,22 -0.78239,0.78239 -4.88889,1.2 -11.8,1.2 -6.91111,0 -11.01761,-0.41761 -11.8,-1.2 -0.85641,-0.85641 -1.2,-7.15556 -1.2,-22 V 170 H 309.5 295 v 20.42857 c 0,17.2381 -0.24542,20.67399 -1.57143,22 C 292.2023,213.65484 289.58225,214 281.5,214 c -8.08225,0 -10.7023,-0.34516 -11.92857,-1.57143 z M 387.5,161.94263 C 381.56254,160.71451 272,160.76893 272,162 c 0,0.65679 20.50667,0.96053 59.75,0.885 34.40709,-0.0662 58.0534,-0.46593 55.75,-0.94237 z M 419.2,212.8 c -1.71703,-1.71703 -1.71703,-64.88297 0,-66.6 1.93165,-1.93165 22.23678,-1.62037 24.22857,0.37143 C 444.79032,147.93318 445,152.32684 445,179.5 c 0,27.17316 -0.20968,31.56682 -1.57143,32.92857 -1.99179,1.9918 -22.29692,2.30308 -24.22857,0.37143 z M 441,158 v -5 h -10 -10 v 5 5 h 10 10 z m 18.2,54.8 c -1.8792,-1.8792 -1.70153,-65.13888 0.18735,-66.70651 0.93726,-0.77785 5.86676,-1.0609 15.19454,-0.87244 l 13.8072,0.27895 18.05546,23.64625 18.05545,23.64625 0.26921,-22.56694 c 0.17414,-14.59708 0.65884,-23.0364 1.37245,-23.89625 1.45114,-1.74852 17.93073,-1.85692 19.65834,-0.12931 1.71703,1.71703 1.71703,64.88297 0,66.6 -0.76815,0.76815 -4.68589,1.2 -10.88649,1.2 h -9.68648 l -20.53706,-9.90835 C 493.39459,198.64206 483.21851,193.88674 482.07646,193.52427 480.07539,192.88915 480,193.20533 480,202.23261 c 0,5.95241 -0.43747,9.80486 -1.2,10.56739 -0.74729,0.74729 -4.44444,1.2 -9.8,1.2 -5.35556,0 -9.05271,-0.45271 -9.8,-1.2 z M 497,162.35299 c 0,-0.35585 -1.60513,-2.60585 -3.56695,-5 L 489.8661,153 H 476.04004 C 460.79898,153 461,152.91203 461,159.58179 V 163 h 18 c 9.9,0 18,-0.29115 18,-0.64701 z M 544,158 v -5 h -8 -8 v 5 5 h 8 8 z m 17.2,54.8 c -0.88349,-0.88349 -1.2,-9.66667 -1.2,-33.3 0,-23.63333 0.31651,-32.41651 1.2,-33.3 1.93165,-1.93165 22.23678,-1.62037 24.22857,0.37143 C 586.79032,147.93318 587,152.32684 587,179.5 c 0,27.17316 -0.20968,31.56682 -1.57143,32.92857 -1.99179,1.9918 -22.29692,2.30308 -24.22857,0.37143 z M 583,158 v -5 h -10 -10 v 5 5 h 10 10 z m -443.25,49.23543 c -8.51563,-3.47686 -8.75,-3.66111 -8.75,-6.87924 0,-3.10998 -0.14806,-3.2504 -2.48884,-2.36043 -3.57263,1.35831 -14.88796,2.37747 -17.92717,1.61468 C 109.1628,199.25374 108,198.36876 108,197.64382 c 0,-0.96264 1.95502,-1.33835 7.25,-1.39329 3.9875,-0.0414 9.05,-0.67717 11.25,-1.41288 3.36319,-1.12469 4.0473,-1.82037 4.29711,-4.36973 0.26388,-2.69306 -0.11912,-3.18258 -3.42551,-4.37819 l -3.72262,-1.34611 2.92551,-1.23267 c 1.60903,-0.67796 3.26301,-1.04372 3.67551,-0.81279 0.4125,0.23093 0.75,-0.50668 0.75,-1.63914 C 131,179.92656 130.74653,179 130.43673,179 c -0.99026,0 -20.90215,8.2938 -21.80859,9.08382 -1.06224,0.92583 -3.62814,0.0585 -3.62814,-1.22635 0,-0.5107 2.025,-1.79656 4.5,-2.85747 2.475,-1.06091 4.5,-2.13375 4.5,-2.3841 0,-0.25034 -2.3625,-1.22625 -5.25,-2.16868 -2.8875,-0.94244 -5.64971,-1.9436 -6.13824,-2.22482 -0.48853,-0.28122 2.66147,-1.80272 7,-3.38111 4.33853,-1.5784 10.92574,-4.02774 14.63824,-5.44298 l 6.75,-2.57316 v -29.44396 c 0,-24.57011 0.23603,-29.53453 1.42593,-29.99114 1.30295,-0.49999 24.25577,4.25536 32.57407,6.74868 1.925,0.577 5.88454,2.65181 8.79898,4.61069 8.92731,6.00031 12.87294,15.61701 11.94745,29.11958 -0.93516,13.64372 -5.90804,19.88193 -16.62375,20.85359 C 158.81955,168.65685 159,169.02605 159,147.01187 c 0,-19.51424 -0.80489,-24.38822 -3.92828,-23.78763 -1.3706,0.26354 -1.60587,3.5133 -1.83859,25.39688 l -0.26687,25.09466 5.2348,-1.35789 c 2.87914,-0.74684 6.59923,-1.34015 8.26687,-1.31847 4.8225,0.0627 19.72479,3.45991 23.25243,5.30077 5.62142,2.93348 6.84072,7.79391 3.02964,12.07687 -2.07929,2.33674 -41.34818,22.70311 -43.35759,22.48693 -0.49082,-0.0528 -4.82991,-1.70366 -9.64241,-3.66856 z m 19.39127,-3.90883 c 2.70156,-1.47038 4.56245,-3.01676 4.13533,-3.43642 -0.42713,-0.41966 -2.9141,-1.67563 -5.5266,-2.79106 L 153,195.07107 v 5.46447 c 0,3.00545 0.2766,5.46446 0.61467,5.46446 0.33807,0 2.82504,-1.20303 5.5266,-2.6734 z M 166.25,186.71956 c 5.3625,-2.30871 9.75,-4.59759 9.75,-5.08641 0,-1.5057 -7.78859,0.25895 -15.58234,3.53048 -5.65664,2.37445 -7.41766,3.58097 -7.41766,5.08201 0,2.2757 -0.5918,2.43319 13.25,-3.52608 z M 130.66228,171.75 c -0.27741,-0.6875 -0.50439,-0.125 -0.50439,1.25 0,1.375 0.22698,1.9375 0.50439,1.25 0.27741,-0.6875 0.27741,-1.8125 0,-2.5 z M 44.2,133.8 c -1.731785,-1.73178 -1.731785,-111.868215 0,-113.6 1.49606,-1.49606 104.30545,-1.65681 115.67486,-0.180866 21.29567,2.764542 29.6321,9.860654 32.24823,27.450269 0.8594,5.778215 0.87016,9.781518 0.042,15.637393 -2.1642,15.303551 -7.37342,21.144372 -22.75531,25.514335 C 164.56386,89.997847 157.3,90.381084 129.05963,90.749984 90.19275,91.257697 92,91.611249 92,83.5 c 0,-7.328446 -0.287998,-7.240405 25.5,-7.795372 24.68044,-0.531131 28.23543,-1.162007 31.15848,-5.529451 C 151.36883,66.125552 151.81002,46.862889 149.30381,42 145.88897,35.374057 143.95246,35.003301 112.75,35.001554 L 85,35 v 48.8 c 0,36.62222 -0.299454,49.09945 -1.2,50 -0.847312,0.84731 -6.666667,1.2 -19.8,1.2 -13.133333,0 -18.952688,-0.35269 -19.8,-1.2 z m 162,0 c -0.66,-0.66 -1.2,-3.79417 -1.2,-6.96482 0,-4.67605 0.36531,-5.96032 1.93426,-6.8 1.24106,-0.66419 16.38248,-1.03718 42.25,-1.04076 23.46801,-0.003 41.80213,-0.41849 43.87259,-0.99367 1.95626,-0.54345 4.88126,-2.37025 6.5,-4.05955 2.69391,-2.81135 2.9726,-3.77587 3.29096,-11.38931 0.66241,-15.841349 0.89297,-15.748562 -41.34781,-16.639934 -35.67562,-0.752834 -39.97641,-1.330402 -49.85249,-6.694865 -5.33479,-2.897736 -9.89023,-8.832247 -11.65443,-15.182571 -1.53082,-5.510294 -1.17948,-17.131186 0.68321,-22.597892 2.353,-6.905671 10.1062,-14.455851 17.8547,-17.387169 11.75212,-4.445917 18.34359,-4.977461 62.18383,-5.014571 39.74334,-0.03364 41.25177,0.03417 42.25,1.899371 1.49012,2.784316 1.27366,9.357023 -0.38283,11.624611 -1.34726,1.844278 -3.25573,1.966077 -38.25,2.44113 -36.15714,0.490839 -36.89908,0.541718 -40.49354,2.776895 C 239.64342,40.385528 238,44.131275 238,51.084124 c 0,6.222921 1.27224,9.392875 4.66105,11.613577 2.44381,1.601442 6.3215,1.878338 34.79463,2.484602 34.31747,0.730704 41.21381,1.575624 50.17539,6.147338 10.43226,5.321975 14.7428,13.282277 14.79164,27.315824 0.0296,8.499535 -0.21376,9.626455 -3.44544,15.955655 -5.55035,10.87029 -13.78033,15.78483 -31.6529,18.90155 C 296.02898,135.47242 208.13086,135.73086 206.2,133.8 Z m 146.37341,-0.36945 c -1.09277,-1.09277 -1.29011,-2.07986 -0.64972,-3.25 0.50585,-0.9243 7.14246,-8.6714 14.74802,-17.21576 7.60556,-8.54437 18.61159,-20.934155 24.45785,-27.532856 L 401.75913,73.434297 377.85873,48.467148 C 360.76695,30.612507 354.03548,22.930251 354.22916,21.5 c 0.25986,-1.918922 1.12216,-2.009965 21.27084,-2.245803 11.55,-0.135192 21.4596,0.08981 22.02133,0.5 0.56173,0.410191 7.71199,8.170803 15.88946,17.245803 8.17748,9.075 15.38453,17.063085 16.01569,17.751299 0.89274,0.97345 4.8721,-2.862592 17.92119,-17.275719 l 16.77365,-18.527018 15.18934,0.275719 c 14.33358,0.260185 15.20554,0.3887 15.47683,2.281084 0.20686,1.442894 -6.19964,8.8173 -22.84094,26.291808 -13.91325,14.609857 -22.92132,24.826202 -22.6086,25.641138 0.28592,0.745082 11.80184,13.743174 25.59095,28.884649 14.92957,16.3938 25.0711,28.32545 25.0711,29.49651 0,1.0816 -0.7118,2.2397 -1.58179,2.57354 C 497.54823,134.72686 487.91954,135 477.02113,135 h -19.8153 l -18.23261,-21.75 c -10.02794,-11.9625 -18.57588,-21.883878 -18.99543,-22.047506 -0.41956,-0.163629 -8.77758,9.286376 -18.57339,20.999996 -9.79581,11.71363 -18.28167,21.62812 -18.85748,22.0322 -0.57581,0.40408 -7.20228,0.74158 -14.72549,0.75 -11.10889,0.0124 -13.97341,-0.27953 -15.24802,-1.55414 z"
       id="path22"
       inkscape:connector-curvature="0" />
    <path
       style="fill:#3c6091"
       d="M 269.57143,212.42857 C 268.22715,211.08429 268,207.26407 268,186 c 0,-21.26407 0.22715,-25.08429 1.57143,-26.42857 1.39195,-1.39195 8.10644,-1.57143 58.7899,-1.57143 81.07037,0 76.9104,-1.75111 77.46073,32.60651 0.28187,17.5975 0.11697,20.3116 -1.32143,21.75 -2.12061,2.12062 -21.60647,2.42582 -23.31662,0.36521 -0.64377,-0.7757 -1.18338,-9.04738 -1.37245,-21.03809 -0.25603,-16.23784 -0.57892,-19.92853 -1.81156,-20.7064 -0.825,-0.52063 -7.4625,-0.9535 -14.75,-0.96192 L 350,170 v 20.8 c 0,14.84444 -0.34359,21.14359 -1.2,22 -0.78239,0.78239 -4.88889,1.2 -11.8,1.2 -6.91111,0 -11.01761,-0.41761 -11.8,-1.2 -0.85641,-0.85641 -1.2,-7.15556 -1.2,-22 V 170 H 309.5 295 v 20.42857 c 0,17.2381 -0.24542,20.67399 -1.57143,22 C 292.2023,213.65484 289.58225,214 281.5,214 c -8.08225,0 -10.7023,-0.34516 -11.92857,-1.57143 z M 291.23087,188.75 291.5,166.5 309.25,166.22693 327,165.95385 V 188.47693 211 h 10 10 v -22.65182 -22.65182 l 14.91917,0.57338 c 8.20554,0.31535 15.87708,1.08603 17.04787,1.71262 C 382.44748,169.84504 383,173.21287 383,192.5651 V 211 h 9.5 9.5 v -19.95295 c 0,-21.32339 -0.43606,-23.69412 -4.83521,-26.28738 C 391.53965,161.44369 383.29655,161 327.31634,161 H 272 v 25 25 h 9.48087 9.48087 z M 419.2,212.8 c -1.71703,-1.71703 -1.71703,-64.88297 0,-66.6 1.93165,-1.93165 22.23678,-1.62037 24.22857,0.37143 C 444.79032,147.93318 445,152.32684 445,179.5 c 0,27.17316 -0.20968,31.56682 -1.57143,32.92857 -1.99179,1.9918 -22.29692,2.30308 -24.22857,0.37143 z M 441,179.5 V 148 h -10 -10 v 31.5 31.5 h 10 10 z m 18.2,33.3 c -1.8792,-1.8792 -1.70153,-65.13888 0.18735,-66.70651 0.93726,-0.77785 5.86676,-1.0609 15.19454,-0.87244 l 13.8072,0.27895 18.05546,23.64625 18.05545,23.64625 0.26921,-22.56694 c 0.17414,-14.59708 0.65884,-23.0364 1.37245,-23.89625 1.45114,-1.74852 17.93073,-1.85692 19.65834,-0.12931 1.71703,1.71703 1.71703,64.88297 0,66.6 -0.76815,0.76815 -4.68589,1.2 -10.88649,1.2 h -9.68648 l -20.53706,-9.90835 C 493.39459,198.64206 483.21851,193.88674 482.07646,193.52427 480.07539,192.88915 480,193.20533 480,202.23261 c 0,5.95241 -0.43747,9.80486 -1.2,10.56739 -0.74729,0.74729 -4.44444,1.2 -9.8,1.2 -5.35556,0 -9.05271,-0.45271 -9.8,-1.2 z M 477,199.5 c 0,-6.325 0.19069,-11.5 0.42376,-11.5 0.23307,0 11.31178,5.175 24.61935,11.5 L 526.2387,211 H 535.11935 544 V 179.5 148 h -8 -8 v 27.15216 27.15216 l -7.25,-9.46793 C 516.7625,187.62903 507.425,175.41797 500,165.70071 L 486.5,148.03295 473.75,148.01648 461,148 v 31.5 31.5 h 8 8 z m 84.2,13.3 c -0.88349,-0.88349 -1.2,-9.66667 -1.2,-33.3 0,-23.63333 0.31651,-32.41651 1.2,-33.3 1.93165,-1.93165 22.23678,-1.62037 24.22857,0.37143 C 586.79032,147.93318 587,152.32684 587,179.5 c 0,27.17316 -0.20968,31.56682 -1.57143,32.92857 -1.99179,1.9918 -22.29692,2.30308 -24.22857,0.37143 z M 583,179.5 V 148 h -10 -10 v 31.5 31.5 h 10 10 z m -443.25,27.73543 c -8.61082,-3.51572 -8.75,-3.62724 -8.75,-7.01098 0,-2.87817 -0.28514,-3.32288 -1.75,-2.72929 -3.28252,1.33015 -16.01557,2.78049 -18.63626,2.12274 C 109.17618,199.2571 108,198.36876 108,197.64382 c 0,-0.96264 1.95502,-1.33835 7.25,-1.39329 3.9875,-0.0414 9.05,-0.67909 11.25,-1.41715 l 4,-1.34192 0.087,-7.24573 C 130.6348,182.26058 130.34963,179 129.95324,179 c -1.10638,0 -20.31448,8.08161 -21.48678,9.04034 -1.43599,1.17439 -4.24993,-0.66229 -2.9581,-1.93078 0.5454,-0.53555 5.94164,-2.86547 11.99164,-5.17761 6.05,-2.31214 11.58422,-4.66583 12.29826,-5.23042 2.2753,-1.79907 0.93363,-4.95562 -2.61136,-6.14373 l -3.31311,-1.11039 3.56311,-1.28843 3.5631,-1.28844 v -29.46665 c 0,-24.58977 0.236,-29.55722 1.42593,-30.01384 1.30295,-0.49999 24.25577,4.25536 32.57407,6.74868 1.925,0.577 5.88454,2.65181 8.79898,4.61069 8.92731,6.00031 12.87294,15.61701 11.94745,29.11958 -0.93516,13.64372 -5.90804,19.88193 -16.62375,20.85359 C 158.81955,168.65685 159,169.02605 159,147.01187 c 0,-19.51424 -0.80489,-24.38822 -3.92828,-23.78763 -1.3706,0.26354 -1.60587,3.5133 -1.83859,25.39688 l -0.26687,25.09466 5.2348,-1.35789 c 6.72252,-1.7438 9.41793,-1.67235 19.94488,0.5287 10.10889,2.11364 14.96277,4.63773 16.31554,8.48432 1.92118,5.46284 -0.29261,7.27851 -22.96148,18.83223 -11.55,5.88673 -21.45,10.68103 -22,10.65399 -0.55,-0.027 -4.9375,-1.6568 -9.75,-3.6217 z m 30.11237,-9.19934 C 178.18806,193.93094 185,190.25513 185,189.86762 c 0,-0.38751 -3.02832,-1.71232 -6.7296,-2.94403 -6.00407,-1.99802 -6.48923,-2.34673 -4.5,-3.23434 1.22628,-0.54718 2.2296,-1.43363 2.2296,-1.96987 0,-1.51743 -7.1838,-0.0203 -15.25205,3.17854 l -7.24795,2.87362 -0.2888,9.2105 c -0.16256,5.18454 0.1051,9.05914 0.61237,8.86423 0.49564,-0.19045 7.7131,-3.70503 16.0388,-7.81018 z m -11.72718,-15.46134 c 2.32048,-0.9829 2.89926,-1.59443 1.86481,-1.97033 -0.825,-0.2998 -2.7375,-0.99729 -4.25,-1.55 -2.60898,-0.95339 -2.75,-0.85235 -2.75,1.97033 0,3.38598 0.46754,3.5271 5.13519,1.55 z M 44.2,133.8 c -1.731785,-1.73178 -1.731785,-111.868215 0,-113.6 1.49606,-1.49606 104.30545,-1.65681 115.67486,-0.180866 21.29567,2.764542 29.6321,9.860654 32.24823,27.450269 0.8594,5.778215 0.87016,9.781518 0.042,15.637393 -2.1642,15.303551 -7.37342,21.144372 -22.75531,25.514335 C 164.56386,89.997847 157.3,90.381084 129.05963,90.749984 90.19275,91.257697 92,91.611249 92,83.5 c 0,-7.328446 -0.287998,-7.240405 25.5,-7.795372 24.68044,-0.531131 28.23543,-1.162007 31.15848,-5.529451 C 151.36883,66.125552 151.81002,46.862889 149.30381,42 145.88897,35.374057 143.95246,35.003301 112.75,35.001554 L 85,35 v 48.8 c 0,36.62222 -0.299454,49.09945 -1.2,50 -0.847312,0.84731 -6.666667,1.2 -19.8,1.2 -13.133333,0 -18.952688,-0.35269 -19.8,-1.2 z m 162,0 c -0.66,-0.66 -1.2,-3.79417 -1.2,-6.96482 0,-4.67605 0.36531,-5.96032 1.93426,-6.8 1.24106,-0.66419 16.38248,-1.03718 42.25,-1.04076 23.46801,-0.003 41.80213,-0.41849 43.87259,-0.99367 1.95626,-0.54345 4.88126,-2.37025 6.5,-4.05955 2.69391,-2.81135 2.9726,-3.77587 3.29096,-11.38931 0.66241,-15.841349 0.89297,-15.748562 -41.34781,-16.639934 -35.67562,-0.752834 -39.97641,-1.330402 -49.85249,-6.694865 -5.33479,-2.897736 -9.89023,-8.832247 -11.65443,-15.182571 -1.53082,-5.510294 -1.17948,-17.131186 0.68321,-22.597892 2.353,-6.905671 10.1062,-14.455851 17.8547,-17.387169 11.75212,-4.445917 18.34359,-4.977461 62.18383,-5.014571 39.74334,-0.03364 41.25177,0.03417 42.25,1.899371 1.49012,2.784316 1.27366,9.357023 -0.38283,11.624611 -1.34726,1.844278 -3.25573,1.966077 -38.25,2.44113 -36.15714,0.490839 -36.89908,0.541718 -40.49354,2.776895 C 239.64342,40.385528 238,44.131275 238,51.084124 c 0,6.222921 1.27224,9.392875 4.66105,11.613577 2.44381,1.601442 6.3215,1.878338 34.79463,2.484602 34.31747,0.730704 41.21381,1.575624 50.17539,6.147338 10.43226,5.321975 14.7428,13.282277 14.79164,27.315824 0.0296,8.499535 -0.21376,9.626455 -3.44544,15.955655 -5.55035,10.87029 -13.78033,15.78483 -31.6529,18.90155 C 296.02898,135.47242 208.13086,135.73086 206.2,133.8 Z m 146.37341,-0.36945 c -1.09277,-1.09277 -1.29011,-2.07986 -0.64972,-3.25 0.50585,-0.9243 7.14246,-8.6714 14.74802,-17.21576 7.60556,-8.54437 18.61159,-20.934155 24.45785,-27.532856 L 401.75913,73.434297 377.85873,48.467148 C 360.76695,30.612507 354.03548,22.930251 354.22916,21.5 c 0.25986,-1.918922 1.12216,-2.009965 21.27084,-2.245803 11.55,-0.135192 21.4596,0.08981 22.02133,0.5 0.56173,0.410191 7.71199,8.170803 15.88946,17.245803 8.17748,9.075 15.38453,17.063085 16.01569,17.751299 0.89274,0.97345 4.8721,-2.862592 17.92119,-17.275719 l 16.77365,-18.527018 15.18934,0.275719 c 14.33358,0.260185 15.20554,0.3887 15.47683,2.281084 0.20686,1.442894 -6.19964,8.8173 -22.84094,26.291808 -13.91325,14.609857 -22.92132,24.826202 -22.6086,25.641138 0.28592,0.745082 11.80184,13.743174 25.59095,28.884649 14.92957,16.3938 25.0711,28.32545 25.0711,29.49651 0,1.0816 -0.7118,2.2397 -1.58179,2.57354 C 497.54823,134.72686 487.91954,135 477.02113,135 h -19.8153 l -18.23261,-21.75 c -10.02794,-11.9625 -18.57588,-21.883878 -18.99543,-22.047506 -0.41956,-0.163629 -8.77758,9.286376 -18.57339,20.999996 -9.79581,11.71363 -18.28167,21.62812 -18.85748,22.0322 -0.57581,0.40408 -7.20228,0.74158 -14.72549,0.75 -11.10889,0.0124 -13.97341,-0.27953 -15.24802,-1.55414 z"
       id="path20"
       inkscape:connector-curvature="0" />
    <path
       style="fill:#f91116"
       d="m 270.2,212.8 c -1.70814,-1.70814 -1.70814,-51.89186 0,-53.6 1.5002,-1.5002 108.12913,-1.7077 117.16446,-0.22801 3.22545,0.52823 7.79612,1.89552 10.15703,3.03841 6.9496,3.36425 7.47851,5.42872 7.47851,29.19073 0,14.53245 -0.3451,20.74397 -1.2,21.59887 -0.77492,0.77492 -4.77778,1.2 -11.3,1.2 -6.52222,0 -10.52508,-0.42508 -11.3,-1.2 -0.85202,-0.85202 -1.2,-6.90612 -1.2,-20.87756 0,-15.97526 -0.27298,-19.90411 -1.4509,-20.88169 -0.88726,-0.73636 -6.71447,-1.42483 -15,-1.77223 L 350,168.70044 v 21.44978 c 0,15.34983 -0.34126,21.79104 -1.2,22.64978 -0.78239,0.78239 -4.88889,1.2 -11.8,1.2 -6.91111,0 -11.01761,-0.41761 -11.8,-1.2 -0.85822,-0.85822 -1.2,-7.26667 -1.2,-22.5 V 169 h -15 -15 v 21.3 c 0,15.23333 -0.34178,21.64178 -1.2,22.5 -0.77492,0.77492 -4.77778,1.2 -11.3,1.2 -6.52222,0 -10.52508,-0.42508 -11.3,-1.2 z M 291.23087,188.75 291.5,166.5 309.25,166.22693 327,165.95385 V 188.47693 211 h 10 10 v -22.65182 -22.65182 l 14.91917,0.57338 c 8.20554,0.31535 15.87708,1.08603 17.04787,1.71262 C 382.44748,169.84504 383,173.21287 383,192.5651 V 211 h 9.5 9.5 v -19.95295 c 0,-21.32339 -0.43606,-23.69412 -4.83521,-26.28738 C 391.53965,161.44369 383.29655,161 327.31634,161 H 272 v 25 25 h 9.48087 9.48087 z M 419.2,212.8 c -1.71703,-1.71703 -1.71703,-64.88297 0,-66.6 0.78239,-0.78239 4.88889,-1.2 11.8,-1.2 6.91111,0 11.01761,0.41761 11.8,1.2 1.71703,1.71703 1.71703,64.88297 0,66.6 -0.78239,0.78239 -4.88889,1.2 -11.8,1.2 -6.91111,0 -11.01761,-0.41761 -11.8,-1.2 z M 441,179.5 V 148 h -10 -10 v 31.5 31.5 h 10 10 z m 18.57143,32.92857 C 458.20968,211.06682 458,206.67316 458,179.5 c 0,-27.17316 0.20968,-31.56682 1.57143,-32.92857 1.26651,-1.26651 4.08009,-1.57143 14.5,-1.57143 11.08565,0 13.17803,0.25428 14.67857,1.78383 0.9625,0.98111 9.4,11.8317 18.75,24.11241 l 17,22.32858 0.26921,-22.7831 c 0.17435,-14.75493 0.65796,-23.25151 1.37245,-24.11241 1.45114,-1.74852 17.93073,-1.85692 19.65834,-0.12931 1.71703,1.71703 1.71703,64.88297 0,66.6 -0.75964,0.75964 -4.58033,1.2 -10.41149,1.2 h -9.21149 L 503.33851,203.15933 480.5,192.31866 l -0.28855,9.53466 c -0.15871,5.24406 -0.77631,10.12236 -1.37245,10.84067 -1.65908,1.99907 -17.2174,1.78475 -19.26757,-0.26542 z M 477,199.5 c 0,-6.325 0.19069,-11.5 0.42376,-11.5 0.23307,0 11.31178,5.175 24.61935,11.5 L 526.2387,211 H 535.11935 544 V 179.5 148 h -8 -8 v 27.15216 27.15216 l -7.25,-9.46793 C 516.7625,187.62903 507.425,175.41797 500,165.70071 L 486.5,148.03295 473.75,148.01648 461,148 v 31.5 31.5 h 8 8 z m 84.2,13.3 c -0.88349,-0.88349 -1.2,-9.66667 -1.2,-33.3 0,-23.63333 0.31651,-32.41651 1.2,-33.3 0.78239,-0.78239 4.88889,-1.2 11.8,-1.2 6.91111,0 11.01761,0.41761 11.8,1.2 0.88349,0.88349 1.2,9.66667 1.2,33.3 0,23.63333 -0.31651,32.41651 -1.2,33.3 -0.78239,0.78239 -4.88889,1.2 -11.8,1.2 -6.91111,0 -11.01761,-0.41761 -11.8,-1.2 z M 583,179.5 V 148 h -10 -10 v 31.5 31.5 h 10 10 z m -443.25,27.73543 c -8.61082,-3.51572 -8.75,-3.62724 -8.75,-7.01098 0,-2.87817 -0.28514,-3.32288 -1.75,-2.72929 -3.28252,1.33015 -16.01557,2.78049 -18.63626,2.12274 C 109.17618,199.2571 108,198.36876 108,197.64382 c 0,-0.96264 1.95502,-1.33835 7.25,-1.39329 3.9875,-0.0414 9.05,-0.67909 11.25,-1.41715 l 4,-1.34192 0.087,-7.24573 c 0.0552,-4.60205 -0.30962,-7.24678 -1,-7.2486 -1.36826,-0.004 -12.73809,4.72304 -18.23974,7.58262 -2.55126,1.32606 -4.6691,1.83936 -5.49164,1.331 -2.12226,-1.31163 -0.25288,-2.432 11.64441,-6.9788 6.05,-2.31214 11.50128,-4.597 12.11396,-5.07746 0.77244,-0.60575 1.17227,-11.21793 1.30413,-34.61403 0.1046,-18.55725 0.59719,-34.14934 1.09466,-34.64908 0.90061,-0.90472 26.63246,4.37447 34.28591,7.03415 13.5509,4.70913 20.58001,16.72449 19.44777,33.24347 -0.93516,13.64372 -5.90804,19.88193 -16.62375,20.85359 C 158.81955,168.65685 159,169.02605 159,147.01187 c 0,-19.51433 -0.8049,-24.38834 -3.92828,-23.78751 -1.3806,0.26559 -1.6039,3.97909 -1.83638,30.539 -0.14557,16.63015 0.0794,30.23499 0.5,30.23297 0.42056,-0.002 4.13966,-1.33654 8.26466,-2.96558 8.4646,-3.34285 10,-3.60218 10,-1.68904 0,0.73794 -1.88686,1.90703 -4.19301,2.59797 -2.30616,0.69094 -6.58116,2.31241 -9.5,3.60326 L 153,187.88994 v 9.05503 c 0,4.98027 0.17091,9.05503 0.37981,9.05503 0.97262,0 35.44386,-17.46275 37.87019,-19.18462 2.17628,-1.54442 2.75,-1.64842 2.75,-0.49848 0,0.79919 -1.16091,2.21374 -2.5798,3.14343 -4.13072,2.70655 -41.07229,21.54935 -42.04059,21.44366 -0.48379,-0.0528 -4.81711,-1.70366 -9.62961,-3.66856 z M 44.2,133.8 C 43.295404,132.8954 43,118.89388 43,76.922445 c 0,-47.23741 0.218266,-55.8587 1.439847,-56.872523 1.092577,-0.906758 15.262235,-1.095176 58.750003,-0.781216 60.93199,0.439899 65.03881,0.746328 74.46724,5.556353 10.16111,5.183814 13.61421,12.090663 14.15745,28.317616 0.78636,23.488657 -5.52651,32.123319 -26.34165,36.029787 C 160.64108,90.079267 148.52061,90.483996 126,90.490547 L 93.5,90.5 v -7 -7 l 24,-0.51614 c 26.74029,-0.575072 28.76823,-1.021241 31.74845,-6.985007 2.28579,-4.574144 2.47111,-22.340948 0.28754,-27.566961 -2.61544,-6.259633 -5.21902,-6.771586 -36.78599,-7.233389 L 85,33.79254 V 82.824841 C 85,126.06633 84.814411,132.04273 83.428571,133.42857 82.114943,134.7422 78.866667,135 63.628571,135 50.784127,135 45.045559,134.64556 44.2,133.8 Z m 161.93117,-0.14195 c -0.75996,-0.9157 -1.11954,-3.73641 -0.93359,-7.32368 L 205.5,120.5 248,119.94801 c 37.90414,-0.49229 42.95751,-0.74651 46.7308,-2.35089 6.29031,-2.67461 8.60253,-7.04855 8.60253,-16.27311 0,-14.091089 -2.44926,-15.119838 -36.33333,-15.260862 -39.28312,-0.163495 -51.50924,-2.39248 -60.15206,-10.96652 -6.02605,-5.978086 -8.28014,-13.069588 -7.6445,-24.049965 0.91049,-15.728128 9.82743,-25.035772 28.53763,-29.788019 5.87442,-1.492059 12.51701,-1.719461 50.75893,-1.737681 l 44,-0.02096 v 7 7 l -36,0.514688 c -34.11375,0.48772 -36.24516,0.627217 -40.679,2.662363 -5.87007,2.69438 -7.821,6.238579 -7.821,14.208189 0,7.226909 1.14514,10.570972 4.20213,12.271114 1.63892,0.911484 11.18759,1.485767 33.29787,2.002626 21.22288,0.496114 33.5175,1.214917 38.98217,2.279083 19.75046,3.846125 27.67572,12.811862 27.67572,31.309145 0,18.429819 -8.87065,28.536599 -29.65789,33.790709 -6.09198,1.53978 -13.36475,1.82378 -56.06641,2.18936 -42.58829,0.36461 -49.2296,0.22344 -50.30242,-1.06923 z M 353.25,134.33772 c -0.6875,-0.27741 -1.25,-1.40256 -1.25,-2.50033 0,-1.60686 19.19733,-24.09399 48.15355,-56.405529 1.83748,-2.0504 1.64965,-2.280795 -21.90009,-26.862611 C 362.39129,32.011907 354.5,23.064702 354.5,21.637389 c 0,-2.107483 0.2966,-2.141163 21.19825,-2.407126 l 21.19825,-0.269737 16.70625,18.519737 C 422.79119,47.666118 430.43414,56 430.58709,56 c 0.15295,0 7.79212,-8.336405 16.97592,-18.525343 l 16.69783,-18.525344 15.10697,0.275344 c 13.60975,0.248054 15.14111,0.453169 15.45143,2.069607 0.32624,1.699381 -3.76567,6.242289 -38.12522,42.327289 l -8.80598,9.248191 26.05598,28.664136 C 488.27481,117.29915 500,130.73846 500,131.39901 500,134.60918 497.5906,135 477.8,135 c -17.56986,0 -19.99711,-0.19822 -21.55,-1.75987 -0.9625,-0.96793 -9.5798,-11.11563 -19.14955,-22.55045 C 427.5307,99.254858 419.38788,90.2593 419.00529,90.699548 418.6227,91.139797 410.11433,101.2875 400.09781,113.25 L 381.88596,135 368.19298,134.9211 c -7.53114,-0.0434 -14.25548,-0.30592 -14.94298,-0.58333 z"
       id="path18"
       inkscape:connector-curvature="0" />
    <path
       style="fill:#6b100d"
       d="m 270.2,212.8 c -1.70814,-1.70814 -1.70814,-51.89186 0,-53.6 1.5002,-1.5002 108.12913,-1.7077 117.16446,-0.22801 3.22545,0.52823 7.79612,1.89552 10.15703,3.03841 6.9496,3.36425 7.47851,5.42872 7.47851,29.19073 0,14.53245 -0.3451,20.74397 -1.2,21.59887 -0.77492,0.77492 -4.77778,1.2 -11.3,1.2 -6.52222,0 -10.52508,-0.42508 -11.3,-1.2 -0.85202,-0.85202 -1.2,-6.90612 -1.2,-20.87756 0,-15.97526 -0.27298,-19.90411 -1.4509,-20.88169 -0.88726,-0.73636 -6.71447,-1.42483 -15,-1.77223 L 350,168.70044 v 21.44978 c 0,15.34983 -0.34126,21.79104 -1.2,22.64978 -0.78239,0.78239 -4.88889,1.2 -11.8,1.2 -6.91111,0 -11.01761,-0.41761 -11.8,-1.2 -0.85822,-0.85822 -1.2,-7.26667 -1.2,-22.5 V 169 h -15 -15 v 21.3 c 0,15.23333 -0.34178,21.64178 -1.2,22.5 -0.77492,0.77492 -4.77778,1.2 -11.3,1.2 -6.52222,0 -10.52508,-0.42508 -11.3,-1.2 z M 291.23087,188.75 291.5,166.5 309.25,166.22693 327,165.95385 V 188.47693 211 h 10 10 v -22.65182 -22.65182 l 14.91917,0.57338 c 8.20554,0.31535 15.87708,1.08603 17.04787,1.71262 C 382.44748,169.84504 383,173.21287 383,192.5651 V 211 h 9.5 9.5 v -19.95295 c 0,-21.32339 -0.43606,-23.69412 -4.83521,-26.28738 C 391.53965,161.44369 383.29655,161 327.31634,161 H 272 v 25 25 h 9.48087 9.48087 z M 419.2,212.8 c -1.71703,-1.71703 -1.71703,-64.88297 0,-66.6 0.78239,-0.78239 4.88889,-1.2 11.8,-1.2 6.91111,0 11.01761,0.41761 11.8,1.2 1.71703,1.71703 1.71703,64.88297 0,66.6 -0.78239,0.78239 -4.88889,1.2 -11.8,1.2 -6.91111,0 -11.01761,-0.41761 -11.8,-1.2 z M 441,179.5 V 148 h -10 -10 v 31.5 31.5 h 10 10 z m 18.57143,32.92857 C 458.20968,211.06682 458,206.67316 458,179.5 c 0,-27.17316 0.20968,-31.56682 1.57143,-32.92857 1.26651,-1.26651 4.08009,-1.57143 14.5,-1.57143 11.08565,0 13.17803,0.25428 14.67857,1.78383 0.9625,0.98111 9.4,11.8317 18.75,24.11241 l 17,22.32858 0.26921,-22.7831 c 0.17435,-14.75493 0.65796,-23.25151 1.37245,-24.11241 1.45114,-1.74852 17.93073,-1.85692 19.65834,-0.12931 1.71703,1.71703 1.71703,64.88297 0,66.6 -0.75964,0.75964 -4.58033,1.2 -10.41149,1.2 h -9.21149 L 503.33851,203.15933 480.5,192.31866 l -0.28855,9.53466 c -0.15871,5.24406 -0.77631,10.12236 -1.37245,10.84067 -1.65908,1.99907 -17.2174,1.78475 -19.26757,-0.26542 z M 477,199.5 c 0,-6.325 0.19069,-11.5 0.42376,-11.5 0.23307,0 11.31178,5.175 24.61935,11.5 L 526.2387,211 H 535.11935 544 V 179.5 148 h -8 -8 v 27.15216 27.15216 l -7.25,-9.46793 C 516.7625,187.62903 507.425,175.41797 500,165.70071 L 486.5,148.03295 473.75,148.01648 461,148 v 31.5 31.5 h 8 8 z m 84.2,13.3 c -0.88349,-0.88349 -1.2,-9.66667 -1.2,-33.3 0,-23.63333 0.31651,-32.41651 1.2,-33.3 0.78239,-0.78239 4.88889,-1.2 11.8,-1.2 6.91111,0 11.01761,0.41761 11.8,1.2 0.88349,0.88349 1.2,9.66667 1.2,33.3 0,23.63333 -0.31651,32.41651 -1.2,33.3 -0.78239,0.78239 -4.88889,1.2 -11.8,1.2 -6.91111,0 -11.01761,-0.41761 -11.8,-1.2 z M 583,179.5 V 148 h -10 -10 v 31.5 31.5 h 10 10 z M 150,169.13178 c 0,-24.87028 0.39778,-43.04781 0.97525,-44.56668 0.53639,-1.41081 1.75139,-2.5651 2.7,-2.5651 1.34147,0 1.45808,0.26667 0.52475,1.2 -1.35278,1.35278 -1.79281,60.8029 -0.45,60.79633 0.4125,-0.002 4.125,-1.33654 8.25,-2.96558 8.4646,-3.34285 10,-3.60218 10,-1.68904 0,0.73794 -1.88686,1.90703 -4.19301,2.59797 -2.30616,0.69094 -6.58116,2.31241 -9.5,3.60326 L 153,187.88994 v 9.05503 c 0,4.98027 0.17091,9.05503 0.37981,9.05503 0.97262,0 35.44386,-17.46275 37.87019,-19.18462 2.17628,-1.54442 2.75,-1.64842 2.75,-0.49848 0,1.98191 -2.2259,3.32444 -24.5798,14.82512 L 150,211.13336 Z m -40.75,30.26604 c -0.6875,-0.31047 -1.25,-1.26087 -1.25,-2.112 0,-1.21278 0.764,-1.42352 3.53213,-0.97432 3.31226,0.53751 10.44112,-0.24385 16.71787,-1.83235 3.94618,-0.99869 3.68947,1.9977 -0.29,3.38495 -3.5928,1.25246 -16.91462,2.34449 -18.71,1.53372 z m -3.39441,-11.48707 c -2.12226,-1.31163 -0.25288,-2.432 11.64441,-6.9788 6.05,-2.31214 11.5625,-4.6478 12.25,-5.19037 0.91723,-0.72385 1.25,-0.42143 1.25,1.13598 0,1.16734 -0.5625,2.12115 -1.25,2.11957 -1.50354,-0.003 -12.62006,4.57696 -18.40277,7.58262 -2.55126,1.32606 -4.6691,1.83936 -5.49164,1.331 z M 130.15789,185 c 0,-1.375 0.22698,-1.9375 0.50439,-1.25 0.27741,0.6875 0.27741,1.8125 0,2.5 -0.27741,0.6875 -0.50439,0.125 -0.50439,-1.25 z m 0.0371,-16.5 c 0.0204,-1.65 0.2445,-2.20394 0.49804,-1.23097 0.25354,0.97297 0.23687,2.32297 -0.0371,3 -0.27393,0.67703 -0.48137,-0.11903 -0.46099,-1.76903 z m 46.43808,-3.57243 c 4.68816,-5.33554 5.7666,-8.93668 5.81799,-19.42757 0.0269,-5.5 -0.29709,-11.2375 -0.72007,-12.75 -0.57309,-2.04928 -0.41511,-2.75 0.62004,-2.75 2.32002,0 3.98478,8.27074 3.39544,16.869 -0.62577,9.12988 -3.14464,14.88684 -7.97379,18.22436 l -3.27264,2.26178 z M 44.2,133.8 C 43.295404,132.8954 43,118.89388 43,76.922445 c 0,-47.23741 0.218266,-55.8587 1.439847,-56.872523 1.092577,-0.906758 15.262235,-1.095176 58.750003,-0.781216 60.93199,0.439899 65.03881,0.746328 74.46724,5.556353 10.16111,5.183814 13.61421,12.090663 14.15745,28.317616 0.78636,23.488657 -5.52651,32.123319 -26.34165,36.029787 C 160.64108,90.079267 148.52061,90.483996 126,90.490547 L 93.5,90.5 v -7 -7 l 24,-0.51614 c 26.74029,-0.575072 28.76823,-1.021241 31.74845,-6.985007 2.28579,-4.574144 2.47111,-22.340948 0.28754,-27.566961 -2.61544,-6.259633 -5.21902,-6.771586 -36.78599,-7.233389 L 85,33.79254 V 82.824841 C 85,126.06633 84.814411,132.04273 83.428571,133.42857 82.114943,134.7422 78.866667,135 63.628571,135 50.784127,135 45.045559,134.64556 44.2,133.8 Z M 82,81.399939 v -50.60006 l 29.25,0.378276 c 27.49525,0.355582 29.5373,0.509225 34.03899,2.561075 3.93245,1.792397 5.1579,3.0168 6.85166,6.845829 1.78834,4.04283 2.01591,6.232857 1.71102,16.465919 -0.40036,13.437132 -1.47577,15.922242 -8.4162,19.448575 -3.52137,1.789156 -6.32927,2.0359 -26.68547,2.344979 L 96,79.189957 V 83.594979 88 l 26.75,-0.0082 C 168.29386,87.97783 180.03638,85.333888 186.25923,73.692073 188.27393,69.922934 188.5,68.087553 188.5,55.5 188.5,39.658209 187.30002,35.865763 180.51884,30.276138 171.79306,23.083614 161.06518,22.018421 97.25,22.008205 L 46,22 v 55 55 h 18 18 z m 124.13117,52.258111 c -0.75996,-0.9157 -1.11954,-3.73641 -0.93359,-7.32368 L 205.5,120.5 248,119.94801 c 37.90414,-0.49229 42.95751,-0.74651 46.7308,-2.35089 6.29031,-2.67461 8.60253,-7.04855 8.60253,-16.27311 0,-14.091089 -2.44926,-15.119838 -36.33333,-15.260862 -39.28312,-0.163495 -51.50924,-2.39248 -60.15206,-10.96652 -6.02605,-5.978086 -8.28014,-13.069588 -7.6445,-24.049965 0.91049,-15.728128 9.82743,-25.035772 28.53763,-29.788019 5.87442,-1.492059 12.51701,-1.719461 50.75893,-1.737681 l 44,-0.02096 v 7 7 l -36,0.514688 c -34.11375,0.48772 -36.24516,0.627217 -40.679,2.662363 -5.87007,2.69438 -7.821,6.238579 -7.821,14.208189 0,7.226909 1.14514,10.570972 4.20213,12.271114 1.63892,0.911484 11.18759,1.485767 33.29787,2.002626 21.22288,0.496114 33.5175,1.214917 38.98217,2.279083 19.75046,3.846125 27.67572,12.811862 27.67572,31.309145 0,18.429819 -8.87065,28.536599 -29.65789,33.790709 -6.09198,1.53978 -13.36475,1.82378 -56.06641,2.18936 -42.58829,0.36461 -49.2296,0.22344 -50.30242,-1.06923 z m 107.03791,-4.41092 c 13.60827,-3.76875 19.76746,-8.30743 23.86622,-17.58695 2.9729,-6.73057 2.96786,-19.603949 -0.0103,-26.336581 -2.71912,-6.147024 -4.47267,-8.006138 -10.37434,-10.998876 -8.39572,-4.257467 -17.73171,-5.384022 -51.15065,-6.172242 -34.88143,-0.822714 -36.33349,-1.116391 -39.17774,-7.923628 -2.21121,-5.292161 -1.4713,-17.211384 1.29914,-20.928119 5.3734,-7.208766 11.95707,-8.25462 52.1286,-8.280925 L 320,31 v -4.574752 -4.574752 l -43.25,0.394688 c -37.08957,0.338471 -44.09571,0.639136 -49.18741,2.110858 -9.44712,2.730628 -14.08654,5.151128 -18.40763,9.603716 -5.49189,5.659026 -7.52895,12.089363 -6.94197,21.913612 0.7023,11.754473 4.62287,17.954748 13.96672,22.087976 8.04751,3.559794 14.45495,4.223525 47.32029,4.901792 29.44419,0.607661 32.27119,0.819205 35.39547,2.648635 5.97096,3.496311 7.36199,6.34066 7.41048,15.152727 0.0791,14.36578 -4.73662,19.66813 -19.39328,21.35315 -4.62697,0.53194 -24.27517,0.97059 -43.66267,0.97476 L 208,123 v 4.57516 4.57517 l 48.75,-0.38964 c 45.95218,-0.36728 49.19014,-0.51154 56.41908,-2.51356 z m 40.08092,5.09059 c -0.6875,-0.27741 -1.25,-1.40256 -1.25,-2.50033 0,-1.60686 19.19733,-24.09399 48.15355,-56.405529 1.83748,-2.0504 1.64965,-2.280795 -21.90009,-26.862611 C 362.39129,32.011907 354.5,23.064702 354.5,21.637389 c 0,-2.107483 0.2966,-2.141163 21.19825,-2.407126 l 21.19825,-0.269737 16.70625,18.519737 C 422.79119,47.666118 430.43414,56 430.58709,56 c 0.15295,0 7.79212,-8.336405 16.97592,-18.525343 l 16.69783,-18.525344 15.10697,0.275344 c 13.60975,0.248054 15.14111,0.453169 15.45143,2.069607 0.32624,1.699381 -3.76567,6.242289 -38.12522,42.327289 l -8.80598,9.248191 26.05598,28.664136 C 488.27481,117.29915 500,130.73846 500,131.39901 500,134.60918 497.5906,135 477.8,135 c -17.56986,0 -19.99711,-0.19822 -21.55,-1.75987 -0.9625,-0.96793 -9.5798,-11.11563 -19.14955,-22.55045 C 427.5307,99.254858 419.38788,90.2593 419.00529,90.699548 418.6227,91.139797 410.11433,101.2875 400.09781,113.25 L 381.88596,135 368.19298,134.9211 C 360.66184,134.8777 353.9375,134.61518 353.25,134.33777 Z M 399.91351,109 c 10.59972,-12.65 19.56793,-22.985066 19.92936,-22.966814 0.36142,0.01825 9.20713,10.346459 19.65713,22.951574 l 19,22.91838 19.40499,0.0484 19.40499,0.0484 -1.90499,-2.19605 c -1.04775,-1.20783 -13.07713,-14.50659 -26.73196,-29.5528 l -24.82698,-27.356752 7.25572,-7.697199 C 455.09242,60.963739 465.97966,49.5125 475.29564,39.75 L 492.23379,22 478.8669,22.0018 465.5,22.0036 l -17,18.969263 c -9.35,10.433095 -17.45,18.950137 -18,18.926761 -0.55,-0.02338 -8.60112,-8.560343 -17.89138,-18.971036 L 395.71723,22 H 376.2402 356.76317 l 21.36842,22.068135 c 11.75262,12.137474 22.79895,23.754066 24.54738,25.814648 l 3.17897,3.746513 -25.42897,28.648314 C 366.44304,118.03419 355,131.1676 355,131.46297 355,131.75834 360.76929,132 367.82064,132 h 12.82065 z"
       id="path16"
       inkscape:connector-curvature="0" />
    <path
       style="fill:#070404"
       d="m 270.75,212.9199 c -1.59543,-0.92925 -1.75,-3.3083 -1.75,-26.93441 0,-25.07861 0.066,-25.95044 2.04424,-27.00917 1.43464,-0.76779 19.25234,-0.98862 59.75,-0.74053 63.82972,0.39102 64.67555,0.47237 70.74615,6.80414 l 2.95961,3.08694 0.3069,21.65837 c 0.27881,19.67597 0.1469,21.77537 -1.44113,22.93657 -2.13851,1.56372 -18.61467,1.75053 -21.43151,0.24301 C 380.12168,211.99475 380,210.68138 380,192.08726 c 0,-17.22928 -0.21757,-20.02311 -1.65214,-21.21482 -1.16496,-0.96774 -5.58814,-1.47509 -15,-1.72055 L 350,168.80377 v 21.02669 c 0,17.78183 -0.2425,21.26919 -1.57143,22.59811 -2.26795,2.26795 -20.58919,2.26795 -22.85714,0 C 324.24297,211.10011 324,207.62121 324,189.92857 V 169 h -15 -15 v 21.46482 c 0,20.19818 -0.11414,21.5259 -1.93426,22.5 -2.48323,1.32898 -19.01671,1.29414 -21.31574,-0.0449 z M 291.23087,188.75 291.5,166.5 309.25,166.22693 327,165.95385 V 188.47693 211 h 10 10 v -22.65182 -22.65182 l 14.91917,0.57338 c 8.20554,0.31535 15.87708,1.08603 17.04787,1.71262 C 382.44748,169.84504 383,173.21287 383,192.5651 V 211 h 9.5 9.5 v -19.95295 c 0,-12.94517 -0.40523,-20.84232 -1.15379,-22.48524 -0.63956,-1.40368 -3.20227,-3.54167 -5.75,-4.79705 L 390.5,161.5 330.62864,161.21256 c -54.83979,-0.26329 -59.81913,-0.15136 -59.25,1.33179 C 271.72039,163.43492 272,174.70177 272,187.58179 V 211 h 9.48087 9.48087 z m 128.34056,23.67857 C 418.20968,211.06682 418,206.67316 418,179.5 c 0,-27.17316 0.20968,-31.56682 1.57143,-32.92857 1.20789,-1.20789 3.76788,-1.57143 11.06574,-1.57143 5.22187,0 10.36473,0.46583 11.42857,1.03518 1.8513,0.99079 1.93426,2.42605 1.93426,33.46482 0,31.03877 -0.083,32.47403 -1.93426,33.46482 -1.06384,0.56935 -6.2067,1.03518 -11.42857,1.03518 -7.29786,0 -9.85785,-0.36354 -11.06574,-1.57143 z M 441.18438,181.75 c 0.24116,-16.0875 0.24587,-30.2625 0.0105,-31.5 -0.40949,-2.15269 -0.85543,-2.25 -10.31143,-2.25 H 421 v 31.5 31.5 h 9.87295 9.87295 z M 460.75,213.31067 c -1.62249,-0.424 -1.75,-2.8844 -1.75,-33.76736 v -33.31005 l 2.25,-0.60297 c 1.2375,-0.33164 7.5375,-0.60913 14,-0.61664 9.96629,-0.0116 12.01566,0.25715 13.5,1.77018 0.9625,0.98111 9.4,11.83257 18.75,24.11436 l 17,22.33053 0.5,-23.15238 c 0.4127,-19.10997 0.7619,-23.31766 2,-24.09904 2.0259,-1.27858 15.65012,-1.23492 18.06574,0.0579 1.8513,0.99079 1.93426,2.42605 1.93426,33.46482 0,38.09841 1.23759,34.92141 -13.35776,34.29056 L 524.5,213.3954 l -22,-10.53489 -22,-10.53489 -0.27435,9.58719 c -0.21633,7.55985 -0.62681,9.85152 -1.94113,10.83719 -1.59961,1.19962 -13.61886,1.58394 -17.53452,0.56067 z M 477,199.5 c 0,-6.325 0.19069,-11.5 0.42376,-11.5 0.23307,0 11.31178,5.175 24.61935,11.5 L 526.2387,211 h 8.84773 8.84772 l 0.28293,-25.25 c 0.1556,-13.8875 0.14895,-28.0625 -0.0148,-31.5 L 543.90457,148 h -7.93622 -7.93621 L 527.76607,174.86323 527.5,201.72645 512,181.28578 c -8.525,-11.24237 -17.74965,-23.33082 -20.49922,-26.86323 L 486.50156,148 H 473.75078 461 v 31.5 31.5 h 8 8 z m 84.57143,12.92857 C 560.20968,211.06682 560,206.67316 560,179.5 c 0,-27.17316 0.20968,-31.56682 1.57143,-32.92857 1.20789,-1.20789 3.76788,-1.57143 11.06574,-1.57143 5.22187,0 10.36473,0.46583 11.42857,1.03518 1.8513,0.99079 1.93426,2.42605 1.93426,33.46482 0,31.03877 -0.083,32.47403 -1.93426,33.46482 -1.06384,0.56935 -6.2067,1.03518 -11.42857,1.03518 -7.29786,0 -9.85785,-0.36354 -11.06574,-1.57143 z M 583.18438,181.75 c 0.24116,-16.0875 0.24587,-30.2625 0.0105,-31.5 -0.40949,-2.15269 -0.85543,-2.25 -10.31143,-2.25 H 563 v 31.5 31.5 h 9.87295 9.87295 z M 165,201.70571 c 0,-0.71186 4.12546,-3.29936 9.1677,-5.75 5.04223,-2.45064 11.56723,-5.88538 14.5,-7.63275 3.45266,-2.05714 5.3323,-2.71456 5.3323,-1.86501 0,0.72161 -1.0125,1.97433 -2.25,2.78382 C 188.89265,191.11084 166.23242,203 165.5274,203 165.23733,203 165,202.41757 165,201.70571 Z m -12,-15.621 c 0,-1.14076 2.59714,-2.62298 8.52062,-4.86282 C 171.2151,177.55613 172,177.42716 172,179.5 c 0,0.825 -0.5625,1.50757 -1.25,1.51682 -0.6875,0.009 -4.9625,1.52252 -9.5,3.36282 -6.95551,2.82099 -8.25,3.08853 -8.25,1.70507 z m -38,-3.10946 c 0,-0.56361 1.0125,-1.41773 2.25,-1.89804 1.2375,-0.48031 4.6125,-1.81261 7.5,-2.96066 3.70549,-1.47328 5.24904,-1.72392 5.24674,-0.85196 -0.002,0.67948 -3.03929,2.47635 -6.75,3.99306 C 115.79215,184.30462 115,184.46961 115,182.97525 Z M 44.571429,133.42857 C 43.181135,132.03828 43,125.54768 43,77.119701 c 0,-43.411581 0.269728,-55.106317 1.303585,-56.5202 1.23112,-1.683658 4.469169,-1.757287 58.249995,-1.324537 60.53839,0.487124 65.99176,0.901627 75.4684,5.736251 4.75753,2.427111 10.3969,8.765503 12.10733,13.608077 1.8627,5.2737 1.8627,28.487716 0,33.761416 -1.91803,5.430334 -7.29752,11.020232 -12.88767,13.391742 -8.9477,3.795886 -18.05471,4.61864 -51.74164,4.674494 l -32,0.05306 v -7 -7 l 24,-0.5 c 26.61889,-0.55456 28.41059,-0.944202 31.90116,-6.937591 2.66636,-4.578213 2.86941,-21.538819 0.3274,-27.348398 -2.93917,-6.71725 -5.11336,-7.15392 -37.47856,-7.527296 L 84,33.860814 v 49.952962 49.952964 l -2.25,0.60297 c -1.2375,0.33164 -9.755357,0.60913 -18.928571,0.61664 -13.841672,0.0113 -16.94586,-0.25364 -18.25,-1.55778 z M 82,81.94594 V 31.891881 l 30.25,0.304059 c 28.31868,0.284647 30.4712,0.43401 33.71462,2.339445 C 152.12905,38.156856 153.5,41.880076 153.5,55 c 0,9.257185 -0.3676,12.239944 -1.88484,15.294051 C 148.27474,77.018057 146.52921,77.436891 119.5,78 l -24,0.5 v 5 5 l 16.5,0.295653 c 21.34868,0.382534 50.85893,-1.28334 58.5,-3.302364 8.443,-2.230923 12.94273,-5.659029 16.23939,-12.37194 2.55187,-5.196307 2.75957,-6.528694 2.74688,-17.621349 -0.012,-10.45518 -0.31875,-12.67883 -2.38308,-17.27308 C 183.24841,29.647904 177.64428,26.033728 164,23.327356 158.14396,22.165797 144.38951,21.721777 101.25,21.301665 L 46,20.763615 V 76.381808 132 h 18 18 z m 124.69347,51.84645 c -1.46042,-1.08992 -1.7478,-2.49242 -1.5,-7.32031 L 205.5,120.5 248,120 c 40.89895,-0.48116 42.67627,-0.58146 47.179,-2.66236 6.30089,-2.91191 8.26034,-6.69501 8.29461,-16.01431 0.0212,-5.753604 -0.38919,-7.733288 -2.06941,-9.98376 C 297.86779,86.602927 293.4368,85.963827 258,85.079195 228.6085,84.345477 224.84834,84.058064 218.6868,82.074238 206.28787,78.082166 200.31836,70.248739 199.28744,56.617627 197.87361,37.923535 207.58333,26.137492 228.31302,21.385206 235.63856,19.705826 241.02451,19.507901 279.5,19.50417 l 43,-0.0042 v 7 7 l -36,0.5 c -34.22363,0.475328 -36.23088,0.606699 -40.679,2.662363 C 239.95127,39.37501 238,42.923499 238,50.88524 c 0,14.143901 0.20303,14.216421 42.5,15.180293 25.96445,0.591684 34.27919,1.107577 39,2.419783 15.94849,4.433073 22.5,13.16612 22.5,29.992114 0,10.24262 -2.22314,16.77773 -7.69901,22.63188 -5.30834,5.67504 -11.84998,9.02907 -22.30099,11.43415 -6.37711,1.46756 -14.68648,1.79118 -55.5,2.16156 -39.22186,0.35593 -48.33037,0.18903 -49.80653,-0.91263 z m 107.76336,-4.19732 c 16.80008,-4.97912 24.19628,-13.35751 25.30905,-28.67003 0.88918,-12.235744 -3.98801,-22.446903 -12.8907,-26.988718 -8.75991,-4.468974 -13.95059,-5.10334 -47.87518,-5.85094 -35.43291,-0.78084 -38.06481,-1.202273 -41.64651,-6.668642 -1.32806,-2.026878 -1.80884,-4.744978 -1.82778,-10.333526 -0.0317,-9.341518 1.93174,-13.140488 8.45245,-16.354456 4.38533,-2.161475 5.6177,-2.238035 40.82211,-2.536056 L 321.10054,31.885404 320.80027,26.692702 320.5,21.5 l -40,0.03255 c -41.77253,0.034 -49.37355,0.618031 -60.14709,4.621479 -6.63,2.463706 -13.56528,8.601591 -16.50491,14.60723 -1.86292,3.80591 -2.31096,6.335388 -2.27604,12.849689 0.0371,6.924217 0.47396,8.972596 2.98575,14 2.38494,4.773498 3.95748,6.493759 8.30151,9.081357 2.94757,1.75577 7.44757,3.707006 10,4.336079 2.57415,0.634425 19.1137,1.499746 37.14078,1.943141 30.91624,0.760418 35.7815,1.235614 40.94527,3.99918 7.00075,3.746685 6.6312,23.829995 -0.55587,30.209685 -4.62063,4.10155 -6.49088,4.28002 -50.3894,4.80822 l -42.5,0.51139 -0.30718,4.80857 -0.30719,4.80856 50.80719,-0.37831 c 44.92497,-0.33451 51.49683,-0.58271 56.76401,-2.14376 z M 353.75,133.9199 c -0.9625,-0.5606 -1.75,-1.68251 -1.75,-2.49312 0,-0.81062 10.64816,-13.50076 23.66258,-28.20031 13.01443,-14.69956 24.306,-27.482846 25.0924,-28.407307 C 402.04452,73.303224 399.81351,70.68162 378.0138,48.096557 361.62805,31.1205 353.95285,22.482305 354.18447,21.277393 c 0.31254,-1.62591 2.14029,-1.800362 21.44543,-2.046893 l 21.10377,-0.2695 16.7664,18.553911 c 16.32003,18.059948 16.81831,18.506936 18.71613,16.789434 1.07235,-0.970463 8.75469,-9.322171 17.07188,-18.559352 l 15.12216,-16.794875 15.03227,0.274941 c 13.3126,0.243488 15.07017,0.472401 15.36359,2.001012 0.21682,1.129515 -7.72797,10.217046 -22.98738,26.293793 C 458.99342,61.032111 448.5,72.441758 448.5,72.874636 c 0,0.432878 11.41008,13.350672 25.35574,28.706204 13.94566,15.35554 25.60627,28.54673 25.91248,29.31377 0.30621,0.76703 -0.27738,2.00453 -1.29687,2.75 -2.55516,1.86837 -39.34422,1.96152 -41.62521,0.10539 -0.84487,-0.6875 -9.54525,-10.83813 -19.33417,-22.55696 C 427.72304,99.474209 419.3884,90.249209 418.99055,90.693038 418.59269,91.136867 410.96499,100.275 402.04011,111 c -8.92489,10.725 -17.33509,20.5125 -18.68935,21.75 -2.28702,2.08984 -3.36589,2.24784 -15.15652,2.21959 -6.98183,-0.0167 -13.48174,-0.48908 -14.44424,-1.04969 z m 44.75,-22.45776 c 9.35,-11.2263 17.94057,-21.577543 19.09016,-23.002758 l 2.09016,-2.591299 19.30769,23.065957 L 458.29571,132 h 19.928 19.928 L 484.70288,117.25 C 456.49066,86.308283 445.02674,73.476942 445.0136,72.826594 445.00612,72.456221 455.575,60.997288 468.5,47.362298 481.425,33.727309 492,22.217841 492,21.785704 492,21.353567 486.17027,21 479.04505,21 H 466.0901 l -13.79505,15.23948 c -7.58728,8.381715 -15.60112,17.188509 -17.80855,19.570655 l -4.01349,4.331174 -15.16137,-16.820655 C 406.97289,34.069294 398.97325,25.2625 397.53467,23.75 L 394.91906,21 H 375.95953 C 365.53179,21 357,21.359184 357,21.798187 c 0,0.439003 10.78555,12.026503 23.96789,25.75 13.18234,13.723497 23.98234,25.304637 24,25.735866 0.0245,0.597076 -29.56577,34.490877 -49.29633,56.465947 l -2.02019,2.25 13.92432,-0.0632 13.92431,-0.0632 z"
       id="path14"
       inkscape:connector-curvature="0" />
  </g>
</svg>
