<?xml version="1.0" encoding="UTF-8" standalone="no"?>
<!-- Created with Inkscape (http://www.inkscape.org/) -->

<svg
   xmlns:dc="http://purl.org/dc/elements/1.1/"
   xmlns:cc="http://creativecommons.org/ns#"
   xmlns:rdf="http://www.w3.org/1999/02/22-rdf-syntax-ns#"
   xmlns:svg="http://www.w3.org/2000/svg"
   xmlns="http://www.w3.org/2000/svg"
   xmlns:sodipodi="http://sodipodi.sourceforge.net/DTD/sodipodi-0.dtd"
   xmlns:inkscape="http://www.inkscape.org/namespaces/inkscape"
   version="1.1"
   id="svg2"
   width="612"
   height="216"
   viewBox="0 0 612 216"
   sodipodi:docname="snes.svg"
   inkscape:version="0.92.3 (2405546, 2018-03-11)">
  <metadata
     id="metadata8">
    <rdf:RDF>
      <cc:Work
         rdf:about="">
        <dc:format>image/svg+xml</dc:format>
        <dc:type
           rdf:resource="http://purl.org/dc/dcmitype/StillImage" />
        <dc:title></dc:title>
      </cc:Work>
    </rdf:RDF>
  </metadata>
  <defs
     id="defs6" />
  <sodipodi:namedview
     pagecolor="#ffffff"
     bordercolor="#666666"
     borderopacity="1"
     objecttolerance="10"
     gridtolerance="10"
     guidetolerance="10"
     inkscape:pageopacity="0"
     inkscape:pageshadow="2"
     inkscape:window-width="1920"
     inkscape:window-height="1017"
     id="namedview4"
     showgrid="false"
     inkscape:zoom="0.56535948"
     inkscape:cx="306"
     inkscape:cy="108"
     inkscape:window-x="-4"
     inkscape:window-y="-4"
     inkscape:window-maximized="1"
     inkscape:current-layer="g12" />
  <g
     id="g12"
     transform="translate(-5.768786,-7.9999971)">
    <path
       style="fill:#f7f91b"
       d="M 330.69945,213.36611 C 330.31475,212.98142 330,211.85274 330,210.85795 c 0,-1.55456 20.48627,-55.27311 24.07794,-63.13653 l 1.26913,-2.77858 12.57647,0.27858 L 380.5,145.5 l -0.35006,18 c -0.22028,11.32657 2.9e-4,17.62925 0.59494,17 0.51975,-0.55 6.50501,-8.7625 13.30056,-18.25 L 406.401,145 h 13.23211 c 12.02956,0 13.28585,0.16931 13.82342,1.86302 0.55781,1.75752 -22.41813,62.95671 -24.74879,65.92137 -0.72585,0.9233 -3.6785,1.20444 -10.5026,1 -12.03892,-0.36066 -12.51055,-0.90965 -8.87137,-10.32632 2.98235,-7.71703 2.83519,-7.63994 -3.89773,2.04193 -2.67735,3.85 -5.33324,7.33954 -5.90197,7.75454 -0.56874,0.41499 -5.08407,0.63999 -10.03407,0.5 l -9,-0.25454 -0.32249,-10.5 -0.32249,-10.5 -4.17751,10.5 -4.17751,10.5 -10.05055,0.28278 c -5.52781,0.15553 -10.36531,-0.032 -10.75,-0.41667 z m 84.96722,-0.0328 C 415.3,212.96667 415,211.85274 415,210.85795 c 0,-1.5513 20.48316,-55.26642 24.06492,-63.10795 1.25108,-2.73899 1.29706,-2.75 11.48861,-2.75 8.51119,0 10.3371,0.2726 10.85433,1.62049 0.51231,1.33505 -21.17288,59.3349 -24.52884,65.60557 -0.80989,1.51329 -2.38905,1.77394 -10.74754,1.77394 -5.38898,0 -10.09815,-0.3 -10.46481,-0.66667 z m 28,0 c -1.53574,-1.53574 0.0193,-6.35225 11.73058,-36.33333 l 12.30459,-31.5 10.60156,-0.28335 10.60155,-0.28335 0.99051,3.78335 c 0.54478,2.08084 1.92863,8.70832 3.07524,14.72773 1.1466,6.01941 2.24322,11.10287 2.43692,11.29657 0.1937,0.19371 0.66086,-0.87767 1.03813,-2.38084 0.37727,-1.50316 2.72656,-8.27412 5.22065,-15.04657 L 506.2011,145 h 10.33206 c 9.41717,0 10.38768,0.17523 10.96016,1.97895 0.40856,1.28726 -3.62732,12.90896 -11.54676,33.25 -6.69618,17.19908 -12.62859,31.83355 -13.18316,32.52105 -0.68399,0.84796 -4.19317,1.25 -10.9106,1.25 -11.76756,0 -10.60456,1.49591 -13.95833,-17.95403 -1.26442,-7.3329 -2.46982,-12.70556 -2.67866,-11.93925 -1.25983,4.62266 -9.67111,27.60549 -10.48291,28.64328 -1.03998,1.32951 -19.80057,1.849 -21.06623,0.58333 z m 65,0 C 508.3,212.96667 508,211.85274 508,210.85795 c 0,-1.5513 20.48316,-55.26642 24.06492,-63.10795 1.25108,-2.73899 1.29706,-2.75 11.48861,-2.75 8.51119,0 10.3371,0.2726 10.85433,1.62049 0.51231,1.33505 -21.17288,59.3349 -24.52884,65.60557 -0.80989,1.51329 -2.38905,1.77394 -10.74754,1.77394 -5.38898,0 -10.09815,-0.3 -10.46481,-0.66667 z M 43.010941,133.04009 c -5.673161,-1.95816 -9.570337,-5.4364 -10.574651,-9.43791 -0.629568,-2.5084 9.972216,-32.543817 11.943604,-33.836867 0.616058,-0.404078 7.702506,-0.741578 15.747661,-0.75 11.989896,-0.01255 14.858957,0.263508 15.910827,1.530934 1.069988,1.289257 0.526225,3.533 -3.271671,13.500003 L 68.211768,116 h 11.702986 c 7.860728,0 12.217,-0.41039 13.268601,-1.25 2.281041,-1.8212 7.138075,-15.359305 6.138759,-17.110686 C 98.869951,96.846861 90.85,89.5743 81.5,81.478068 72.15,73.381836 63.451428,65.287489 62.16984,63.49063 c -4.08019,-5.720659 -3.92533,-9.892098 0.840367,-22.636706 2.335116,-6.244658 5.396043,-12.590127 6.802059,-14.101042 1.406016,-1.510914 5.060945,-3.760914 8.122064,-5 C 83.299453,19.581178 84.635036,19.5 115,19.5 c 30.11994,0 31.70369,0.09416 36.14917,2.149166 6.43671,2.975495 8.85083,5.64188 8.85083,9.775718 0,3.216041 -9.12906,28.603204 -11.26431,31.325116 -1.53432,1.955877 -31.07197,1.754659 -32.71316,-0.222851 -0.98956,-1.192347 -0.3654,-3.668191 3.27728,-13 L 123.79944,38 112.14972,38.01531 c -6.40735,0.0084 -12.196345,0.362668 -12.864441,0.787213 -0.668097,0.424546 -2.386156,3.884116 -3.817909,7.687935 -2.015868,5.355667 -2.374566,7.417805 -1.589863,9.140042 0.55733,1.223205 8.851953,8.520796 18.432493,16.21687 9.58054,7.696074 18.36828,15.19946 19.5283,16.674192 4.15936,5.287761 3.90152,8.430589 -1.89744,23.128338 -6.17949,15.66221 -8.35334,18.16167 -18.52928,21.30469 -6.01959,1.85927 -9.18358,2.04244 -34.766915,2.01276 -24.971038,-0.029 -28.763618,-0.24628 -33.633724,-1.92726 z M 139.15781,133.25 c -0.68148,-1.30687 4.56676,-15.67701 20.72616,-56.75 11.9013,-30.25 21.99768,-55.5625 22.43639,-56.25 1.1355,-1.779392 32.0022,-1.779392 33.45608,0 1.20722,1.477505 5.36533,21.644665 9.22666,44.75 1.5166,9.075 3.01155,15.825 3.32212,15 0.31058,-0.825 3.08268,-9.06468 6.16025,-18.310401 6.39169,-19.20216 14.06148,-39.438784 15.69223,-41.403717 0.85725,-1.032917 4.7432,-1.272188 17.21474,-1.059971 L 283.5,19.5 283.70723,22 c 0.11398,1.375 -9.56977,27.25 -21.51944,57.5 l -21.72668,55 H 223.48056 206.5 l -2.68883,-13 c -1.47886,-7.15 -3.89217,-20.2 -5.36293,-29 -1.47076,-8.8 -2.88691,-16.675 -3.147,-17.5 -0.26009,-0.825 -3.29792,6.825 -6.75074,17 -7.57573,22.32472 -14.16587,39.83162 -15.68113,41.6574 -0.84659,1.02008 -4.91993,1.3426 -16.95663,1.3426 -14.07367,0 -15.94425,-0.19538 -16.75493,-1.75 z m 116.007,0.0131 c -0.69073,-1.32434 4.4652,-15.44974 20.71916,-56.76308 11.9013,-30.25 21.99768,-55.5625 22.43639,-56.25 0.61244,-0.959721 8.66802,-1.25 34.68897,-1.25 39.50594,0 37.34562,-0.645419 33.35213,9.964292 -1.35254,3.59338 -2.90827,6.983933 -3.45717,7.534563 -0.54913,0.550863 -8.88267,1.226028 -18.52857,1.501145 l -17.53058,0.5 -5.295,13.726399 -5.295,13.7264 16.60967,0.2736 c 19.43412,0.320127 18.94819,-0.04207 14.64802,10.918343 -1.47926,3.770392 -2.7623,6.931054 -2.8512,7.023693 -0.0889,0.09264 -8.23171,0.430139 -18.09514,0.75 L 308.63298,85.5 302.81649,100.45529 C 299.61742,108.68069 297,115.51223 297,115.63647 c 0,0.12425 7.16373,0.36937 15.91941,0.54472 8.75568,0.17534 16.27014,0.67077 16.69881,1.10095 0.92477,0.92803 -0.90539,8.23712 -3.37723,13.48768 l -1.75609,3.73018 -34.20027,0.26308 c -31.80876,0.24468 -34.26457,0.13979 -35.11982,-1.5 z m 94.84613,-0.22299 c -5.67316,-1.95816 -9.57034,-5.4364 -10.57465,-9.43791 -0.62957,-2.5084 9.97222,-32.543817 11.9436,-33.836867 0.61606,-0.404078 7.70251,-0.741578 15.74767,-0.75 11.98989,-0.01255 14.85895,0.263508 15.91082,1.530934 1.06999,1.289257 0.52623,3.533 -3.27167,13.500003 L 375.21177,116 h 11.70298 c 7.86073,0 12.217,-0.41039 13.26861,-1.25 2.28104,-1.8212 7.13807,-15.359305 6.13875,-17.110686 C 405.86995,96.846861 397.85,89.5743 388.5,81.478068 379.15,73.381836 370.45143,65.287489 369.16984,63.49063 c -4.08019,-5.720659 -3.92533,-9.892098 0.84037,-22.636706 2.33511,-6.244658 5.39604,-12.590127 6.80206,-14.101042 1.40601,-1.510914 5.06094,-3.760914 8.12206,-5 C 390.29945,19.581178 391.63504,19.5 422,19.5 c 30.11994,0 31.70369,0.09416 36.14917,2.149166 6.43671,2.975495 8.85083,5.64188 8.85083,9.775718 0,3.216041 -9.12906,28.603204 -11.26431,31.325116 -1.53432,1.955877 -31.07197,1.754659 -32.71316,-0.222851 -0.98956,-1.192347 -0.3654,-3.668191 3.27728,-13 L 430.79944,38 419.14972,38.01531 c -6.40735,0.0084 -12.19634,0.362668 -12.86444,0.787213 -0.6681,0.424546 -2.38616,3.884116 -3.81791,7.687935 -2.01587,5.355667 -2.37457,7.417805 -1.58986,9.140042 0.55733,1.223205 8.85195,8.520796 18.43249,16.21687 9.58054,7.696074 18.36828,15.19946 19.5283,16.674192 4.15936,5.287761 3.90152,8.430589 -1.89744,23.128338 -6.17949,15.66221 -8.35334,18.16167 -18.52928,21.30469 -6.01959,1.85927 -9.18358,2.04244 -34.76692,2.01276 -24.97103,-0.029 -28.76361,-0.24628 -33.63372,-1.92726 z m 188.54688,-26.48055 c -8.25247,-3.04796 -11.88564,-7.88173 -9.98537,-13.285108 0.66462,-1.88983 2.7392,-3.636235 6.76577,-5.695501 4.79798,-2.453778 7.33238,-3.042851 14.58279,-3.389498 23.3799,-1.117807 36.12404,12.445638 19.76291,21.033447 -3.46651,1.81953 -6.15582,2.24724 -15.68392,2.49438 -8.2314,0.2135 -12.62047,-0.11555 -15.44218,-1.15772 z M 581,88.467881 c 0,-3.609125 -2.65617,-9.488068 -5.80305,-12.84398 -3.25315,-3.469243 -9.63454,-6.57188 -13.57862,-6.601939 -2.79061,-0.02127 -2.86441,-0.150615 -2.33556,-4.093469 0.7541,-5.622279 4.7926,-11.302314 10.35264,-14.560717 9.74652,-5.71184 22.85866,-2.622709 29.13698,6.864471 2.37996,3.59636 2.72761,5.107807 2.72761,11.858582 0,6.971811 -0.29727,8.165675 -3.00619,12.073029 C 596.52478,84.003996 593.6166,86.448772 590.0645,88.25 583.14833,91.7571 581,91.808739 581,88.467881 Z M 495.009,84.039434 C 489.04949,81.982448 484,77.309924 484,73.852301 c 0,-3.120966 6.11202,-8.336544 11.65529,-9.945822 5.88835,-1.709461 18.29649,-1.738444 24.10784,-0.05631 C 525.77604,65.590645 531,70.403332 531,74.202382 c 0,9.187886 -21.13541,14.96461 -35.991,9.837052 z m 42.51656,-18.754879 c -1.88828,-10.065393 -8.79059,-16.930441 -18.93595,-18.833722 -3.79576,-0.712089 -3.8143,-0.738965 -3.2764,-4.749306 1.87989,-14.015672 20.07236,-21.971347 32.94257,-14.405985 15.98757,9.397806 13.45913,33.954272 -4.13523,40.161926 -5.84513,2.06228 -5.79752,2.077966 -6.59499,-2.172913 z"
       id="path26"
       inkscape:connector-curvature="0" />
    <path
       style="fill:#696969"
       d="M 330.69945,213.36611 C 330.31475,212.98142 330,211.85274 330,210.85795 c 0,-1.55456 20.48627,-55.27311 24.07794,-63.13653 l 1.26913,-2.77858 12.57647,0.27858 L 380.5,145.5 l -0.35006,18 c -0.22028,11.32657 2.9e-4,17.62925 0.59494,17 0.51975,-0.55 6.50501,-8.7625 13.30056,-18.25 L 406.401,145 h 13.23211 c 12.02956,0 13.28585,0.16931 13.82342,1.86302 0.55781,1.75752 -22.41813,62.95671 -24.74879,65.92137 -0.72585,0.9233 -3.6785,1.20444 -10.5026,1 -12.03892,-0.36066 -12.51055,-0.90965 -8.87137,-10.32632 2.98235,-7.71703 2.83519,-7.63994 -3.89773,2.04193 -2.67735,3.85 -5.33324,7.33954 -5.90197,7.75454 -0.56874,0.41499 -5.08407,0.63999 -10.03407,0.5 l -9,-0.25454 -0.32249,-10.5 -0.32249,-10.5 -4.17751,10.5 -4.17751,10.5 -10.05055,0.28278 c -5.52781,0.15553 -10.36531,-0.032 -10.75,-0.41667 z m 84.96722,-0.0328 C 415.3,212.96667 415,211.85274 415,210.85795 c 0,-1.5513 20.48316,-55.26642 24.06492,-63.10795 1.25108,-2.73899 1.29706,-2.75 11.48861,-2.75 8.51119,0 10.3371,0.2726 10.85433,1.62049 0.51231,1.33505 -21.17288,59.3349 -24.52884,65.60557 -0.80989,1.51329 -2.38905,1.77394 -10.74754,1.77394 -5.38898,0 -10.09815,-0.3 -10.46481,-0.66667 z m 28,0 c -1.53574,-1.53574 0.0193,-6.35225 11.73058,-36.33333 l 12.30459,-31.5 10.60156,-0.28335 10.60155,-0.28335 0.99051,3.78335 c 0.54478,2.08084 1.92863,8.70832 3.07524,14.72773 1.1466,6.01941 2.24322,11.10287 2.43692,11.29657 0.1937,0.19371 0.66086,-0.87767 1.03813,-2.38084 0.37727,-1.50316 2.72656,-8.27412 5.22065,-15.04657 L 506.2011,145 h 10.33206 c 9.41717,0 10.38768,0.17523 10.96016,1.97895 0.40856,1.28726 -3.62732,12.90896 -11.54676,33.25 -6.69618,17.19908 -12.62859,31.83355 -13.18316,32.52105 -0.68399,0.84796 -4.19317,1.25 -10.9106,1.25 -11.76756,0 -10.60456,1.49591 -13.95833,-17.95403 -1.26442,-7.3329 -2.46982,-12.70556 -2.67866,-11.93925 -1.25983,4.62266 -9.67111,27.60549 -10.48291,28.64328 -1.03998,1.32951 -19.80057,1.849 -21.06623,0.58333 z m 65,0 C 508.3,212.96667 508,211.85274 508,210.85795 c 0,-1.5513 20.48316,-55.26642 24.06492,-63.10795 1.25108,-2.73899 1.29706,-2.75 11.48861,-2.75 8.51119,0 10.3371,0.2726 10.85433,1.62049 0.51231,1.33505 -21.17288,59.3349 -24.52884,65.60557 -0.80989,1.51329 -2.38905,1.77394 -10.74754,1.77394 -5.38898,0 -10.09815,-0.3 -10.46481,-0.66667 z M 43.010941,133.04009 c -5.673161,-1.95816 -9.570337,-5.4364 -10.574651,-9.43791 -0.629568,-2.5084 9.972216,-32.543817 11.943604,-33.836867 0.616058,-0.404078 7.702506,-0.741578 15.747661,-0.75 11.989896,-0.01255 14.858957,0.263508 15.910827,1.530934 1.069988,1.289257 0.526225,3.533 -3.271671,13.500003 L 68.211768,116 h 11.702986 c 7.860728,0 12.217,-0.41039 13.268601,-1.25 2.281041,-1.8212 7.138075,-15.359305 6.138759,-17.110686 C 98.869951,96.846861 90.85,89.5743 81.5,81.478068 72.15,73.381836 63.451428,65.287489 62.16984,63.49063 c -4.08019,-5.720659 -3.92533,-9.892098 0.840367,-22.636706 2.335116,-6.244658 5.396043,-12.590127 6.802059,-14.101042 1.406016,-1.510914 5.060945,-3.760914 8.122064,-5 C 83.299453,19.581178 84.635036,19.5 115,19.5 c 30.11994,0 31.70369,0.09416 36.14917,2.149166 6.43671,2.975495 8.85083,5.64188 8.85083,9.775718 0,3.216041 -9.12906,28.603204 -11.26431,31.325116 -1.53432,1.955877 -31.07197,1.754659 -32.71316,-0.222851 -0.98956,-1.192347 -0.3654,-3.668191 3.27728,-13 L 123.79944,38 112.14972,38.01531 c -6.40735,0.0084 -12.196345,0.362668 -12.864441,0.787213 -0.668097,0.424546 -2.386156,3.884116 -3.817909,7.687935 -2.015868,5.355667 -2.374566,7.417805 -1.589863,9.140042 0.55733,1.223205 8.851953,8.520796 18.432493,16.21687 9.58054,7.696074 18.36828,15.19946 19.5283,16.674192 4.15936,5.287761 3.90152,8.430589 -1.89744,23.128338 -6.17949,15.66221 -8.35334,18.16167 -18.52928,21.30469 -6.01959,1.85927 -9.18358,2.04244 -34.766915,2.01276 -24.971038,-0.029 -28.763618,-0.24628 -33.633724,-1.92726 z M 139.15781,133.25 c -0.68148,-1.30687 4.56676,-15.67701 20.72616,-56.75 11.9013,-30.25 21.99768,-55.5625 22.43639,-56.25 1.1355,-1.779392 32.0022,-1.779392 33.45608,0 1.20722,1.477505 5.36533,21.644665 9.22666,44.75 1.5166,9.075 3.01155,15.825 3.32212,15 0.31058,-0.825 3.08268,-9.06468 6.16025,-18.310401 6.39169,-19.20216 14.06148,-39.438784 15.69223,-41.403717 0.85725,-1.032917 4.7432,-1.272188 17.21474,-1.059971 L 283.5,19.5 283.70723,22 c 0.11398,1.375 -9.56977,27.25 -21.51944,57.5 l -21.72668,55 H 223.48056 206.5 l -2.68883,-13 c -1.47886,-7.15 -3.89217,-20.2 -5.36293,-29 -1.47076,-8.8 -2.88691,-16.675 -3.147,-17.5 -0.26009,-0.825 -3.29792,6.825 -6.75074,17 -7.57573,22.32472 -14.16587,39.83162 -15.68113,41.6574 -0.84659,1.02008 -4.91993,1.3426 -16.95663,1.3426 -14.07367,0 -15.94425,-0.19538 -16.75493,-1.75 z m 116.007,0.0131 c -0.69073,-1.32434 4.4652,-15.44974 20.71916,-56.76308 11.9013,-30.25 21.99768,-55.5625 22.43639,-56.25 0.61244,-0.959721 8.66802,-1.25 34.68897,-1.25 39.50594,0 37.34562,-0.645419 33.35213,9.964292 -1.35254,3.59338 -2.90827,6.983933 -3.45717,7.534563 -0.54913,0.550863 -8.88267,1.226028 -18.52857,1.501145 l -17.53058,0.5 -5.295,13.726399 -5.295,13.7264 16.60967,0.2736 c 19.43412,0.320127 18.94819,-0.04207 14.64802,10.918343 -1.47926,3.770392 -2.7623,6.931054 -2.8512,7.023693 -0.0889,0.09264 -8.23171,0.430139 -18.09514,0.75 L 308.63298,85.5 302.81649,100.45529 C 299.61742,108.68069 297,115.51223 297,115.63647 c 0,0.12425 7.16373,0.36937 15.91941,0.54472 8.75568,0.17534 16.27014,0.67077 16.69881,1.10095 0.92477,0.92803 -0.90539,8.23712 -3.37723,13.48768 l -1.75609,3.73018 -34.20027,0.26308 c -31.80876,0.24468 -34.26457,0.13979 -35.11982,-1.5 z m 94.84613,-0.22299 c -5.67316,-1.95816 -9.57034,-5.4364 -10.57465,-9.43791 -0.62957,-2.5084 9.97222,-32.543817 11.9436,-33.836867 0.61606,-0.404078 7.70251,-0.741578 15.74767,-0.75 11.98989,-0.01255 14.85895,0.263508 15.91082,1.530934 1.06999,1.289257 0.52623,3.533 -3.27167,13.500003 L 375.21177,116 h 11.70298 c 7.86073,0 12.217,-0.41039 13.26861,-1.25 2.28104,-1.8212 7.13807,-15.359305 6.13875,-17.110686 C 405.86995,96.846861 397.85,89.5743 388.5,81.478068 379.15,73.381836 370.45143,65.287489 369.16984,63.49063 c -4.08019,-5.720659 -3.92533,-9.892098 0.84037,-22.636706 2.33511,-6.244658 5.39604,-12.590127 6.80206,-14.101042 1.40601,-1.510914 5.06094,-3.760914 8.12206,-5 C 390.29945,19.581178 391.63504,19.5 422,19.5 c 30.11994,0 31.70369,0.09416 36.14917,2.149166 6.43671,2.975495 8.85083,5.64188 8.85083,9.775718 0,3.216041 -9.12906,28.603204 -11.26431,31.325116 -1.53432,1.955877 -31.07197,1.754659 -32.71316,-0.222851 -0.98956,-1.192347 -0.3654,-3.668191 3.27728,-13 L 430.79944,38 419.14972,38.01531 c -6.40735,0.0084 -12.19634,0.362668 -12.86444,0.787213 -0.6681,0.424546 -2.38616,3.884116 -3.81791,7.687935 -2.01587,5.355667 -2.37457,7.417805 -1.58986,9.140042 0.55733,1.223205 8.85195,8.520796 18.43249,16.21687 9.58054,7.696074 18.36828,15.19946 19.5283,16.674192 4.15936,5.287761 3.90152,8.430589 -1.89744,23.128338 -6.17949,15.66221 -8.35334,18.16167 -18.52928,21.30469 -6.01959,1.85927 -9.18358,2.04244 -34.76692,2.01276 -24.97103,-0.029 -28.76361,-0.24628 -33.63372,-1.92726 z M 581,88.467881 c 0,-3.609125 -2.65617,-9.488068 -5.80305,-12.84398 -3.25315,-3.469243 -9.63454,-6.57188 -13.57862,-6.601939 -2.79061,-0.02127 -2.86441,-0.150615 -2.33556,-4.093469 0.7541,-5.622279 4.7926,-11.302314 10.35264,-14.560717 9.74652,-5.71184 22.85866,-2.622709 29.13698,6.864471 2.37996,3.59636 2.72761,5.107807 2.72761,11.858582 0,6.971811 -0.29727,8.165675 -3.00619,12.073029 C 596.52478,84.003996 593.6166,86.448772 590.0645,88.25 583.14833,91.7571 581,91.808739 581,88.467881 Z M 495.009,84.039434 C 489.04949,81.982448 484,77.309924 484,73.852301 c 0,-3.120966 6.11202,-8.336544 11.65529,-9.945822 5.88835,-1.709461 18.29649,-1.738444 24.10784,-0.05631 C 525.77604,65.590645 531,70.403332 531,74.202382 c 0,9.187886 -21.13541,14.96461 -35.991,9.837052 z m 42.51656,-18.754879 c -1.88828,-10.065393 -8.79059,-16.930441 -18.93595,-18.833722 -3.79576,-0.712089 -3.8143,-0.738965 -3.2764,-4.749306 1.87989,-14.015672 20.07236,-21.971347 32.94257,-14.405985 15.98757,9.397806 13.45913,33.954272 -4.13523,40.161926 -5.84513,2.06228 -5.79752,2.077966 -6.59499,-2.172913 z"
       id="path24"
       inkscape:connector-curvature="0" />
    <path
       style="fill:#2ed226"
       d="m 331.49056,212.61676 c -1.80968,-1.32327 -1.35514,-2.76484 10.4841,-33.25 6.80669,-17.52672 12.80205,-32.42926 13.32301,-33.11676 0.65991,-0.87086 4.38754,-1.25 12.28959,-1.25 9.81025,0 11.45774,0.23639 12.19641,1.75 0.46972,0.9625 0.48709,9.175 0.0386,18.25 -0.44848,9.075 -0.69767,16.85788 -0.55375,17.29528 0.14392,0.43741 6.34653,-7.66259 13.78357,-18 L 406.574,145.5 h 12.963 c 12.47732,0 12.97442,0.08 13.26768,2.1365 0.16757,1.17507 -5.18164,16.32622 -11.88714,33.66923 -9.93907,25.70627 -12.58222,31.63752 -14.30468,32.09985 -1.16207,0.31191 -5.28935,0.57326 -9.17173,0.58077 -7.9669,0.0154 -11.25196,-1.49274 -10.00179,-4.59174 3.09834,-7.6804 5.46904,-14.39461 5.08254,-14.39461 -0.25351,0 -2.76681,3.41717 -5.58511,7.59371 -7.6646,11.35844 -7.7362,11.40883 -16.18677,11.39098 -3.9875,-0.008 -7.88767,-0.41894 -8.66705,-0.91226 -1.10716,-0.7008 -1.38419,-3.48571 -1.26681,-12.73469 L 360.96637,188.5 356.44751,200 c -2.48537,6.325 -5.26381,12.0625 -6.17431,12.75 -2.32127,1.75274 -16.3394,1.6533 -18.78264,-0.13324 z m 85,0 c -1.80968,-1.32327 -1.35514,-2.76484 10.4841,-33.25 6.80669,-17.52672 12.81489,-32.44474 13.35156,-33.15115 0.70373,-0.92633 3.65175,-1.20511 10.57477,-1 8.78144,0.26017 9.62383,0.4577 9.89036,2.31922 0.39864,2.78412 -23.39661,63.65532 -25.49336,65.21517 -2.35479,1.75182 -16.3652,1.65256 -18.80743,-0.13324 z m 27.99813,-0.001 c -1.81231,-1.3252 -1.36395,-2.7521 10.44791,-33.25 6.78781,-17.52597 12.78401,-32.42789 13.32489,-33.11539 0.66209,-0.84159 4.05435,-1.25 10.38239,-1.25 11.16616,0 10.32889,-1.00329 13.3524,16 1.1247,6.325 2.28348,12.56931 2.57505,13.87624 0.39469,1.76908 1.63112,-0.78606 4.83903,-10 2.36988,-6.80693 5.02409,-14.06374 5.89823,-16.12624 l 1.58936,-3.75 h 9.51584 c 8.03931,0 9.66117,0.27154 10.45243,1.75003 0.70274,1.31309 -2.16855,9.73039 -11.50001,33.71273 -6.84012,17.57949 -12.98325,32.31008 -13.6514,32.73466 -2.03093,1.29056 -17.16596,0.93286 -18.931,-0.44742 -1.06129,-0.82994 -2.47503,-6.09999 -4.20699,-15.68253 -1.4347,-7.93789 -2.77236,-14.59634 -2.97258,-14.79657 -0.20023,-0.20022 -0.64741,0.76496 -0.99374,2.14484 -1.78939,7.12952 -9.17226,26.14602 -10.77179,27.74555 -1.47099,1.47099 -3.40037,1.83871 -9.64758,1.83871 -5.07361,0 -8.47214,-0.485 -9.70244,-1.38461 z m 65.00187,0.001 c -1.80968,-1.32327 -1.35514,-2.76484 10.4841,-33.25 6.80669,-17.52672 12.81489,-32.44474 13.35156,-33.15115 0.70373,-0.92633 3.65175,-1.20511 10.57477,-1 8.78144,0.26017 9.62383,0.4577 9.89036,2.31922 0.39864,2.78412 -23.39661,63.65532 -25.49336,65.21517 -2.35479,1.75182 -16.3652,1.65256 -18.80743,-0.13324 z M 47.3264,133.95562 C 38.703299,132.25058 33,127.67243 33,122.45555 c 0,-1.74203 2.430994,-9.64467 5.402209,-17.56144 L 43.804419,90.5 h 15.84779 c 18.979967,0 18.28421,-0.806217 12.371688,14.33583 -2.21971,5.68471 -3.781592,10.74721 -3.47085,11.25 0.791128,1.28007 20.843101,1.14643 23.706004,-0.158 3.161208,-1.44034 9.149739,-16.694242 7.394771,-18.83587 C 99.01922,96.317538 90.766533,88.992631 81.314519,80.814388 71.862504,72.636145 63.125004,64.320295 61.897852,62.334721 58.737868,57.22176 59.114588,52.162503 63.523696,40.5 c 4.847098,-12.821025 5.632815,-13.946533 11.82465,-16.938345 7.527903,-3.637382 15.549017,-4.545656 40.217994,-4.554101 29.00254,-0.0099 38.71375,1.911704 43.0417,8.51699 2.09607,3.19901 1.71274,4.986581 -4.65956,21.728997 -4.05608,10.656808 -5.62455,13.693124 -7.30662,14.144453 -3.7128,0.996205 -26.68445,0.649579 -28.7076,-0.433178 -2.64433,-1.415204 -2.50801,-2.351545 2.04232,-14.027687 2.18712,-5.612145 3.73556,-10.593876 3.44098,-11.070514 -0.83802,-1.355951 -20.57111,-1.01845 -23.27778,0.398127 -2.456052,1.285411 -7.158768,11.298738 -7.117544,15.155132 0.03189,2.983177 2.170903,5.220821 13.977764,14.622282 24.99032,19.899066 26.98244,21.979332 26.99341,28.187746 0.006,3.263558 -5.13599,17.861208 -9.70547,27.554198 -2.02041,4.2858 -8.31346,7.90263 -16.92437,9.727 -7.6196,1.61435 -52.442473,1.94622 -60.03717,0.44452 z m 93.33948,-0.0828 c -1.25819,-0.7315 -1.65717,-1.77139 -1.2706,-3.3116 1.69341,-6.74709 42.84127,-109.260711 44.27774,-110.31122 1.77872,-1.300811 25.65351,-1.805526 30.01996,-0.634624 1.76635,0.473661 2.49827,1.9303 3.76221,7.487429 2.2017,9.680145 8.48144,45.222759 9.22466,52.210589 l 0.61831,5.813395 7.22919,-21.813395 C 243.76605,35.436478 249.66743,20.341598 251.62023,19.592239 252.46907,19.266507 259.34076,19 266.89066,19 c 9.94719,0 14.23558,0.371824 15.57375,1.350321 1.74564,1.27644 0.6591,4.381409 -19.85879,56.75 C 250.66761,107.57014 240.16161,133.0625 239.25895,133.75 238.12524,134.61347 233.25222,135 223.5,135 c -9.78578,0 -14.60202,-0.38356 -15.69601,-1.25 -1.60459,-1.27085 -6.79015,-26.17598 -10.67089,-51.25 -1.02149,-6.6 -2.1234,-11.325 -2.44869,-10.5 -0.32528,0.825 -2.63129,7.8 -5.12445,15.5 -6.60853,20.41007 -16.2171,45.66678 -17.74088,46.63297 -1.94084,1.23065 -28.97739,1.00487 -31.1532,-0.26015 z m 116,0 c -1.25819,-0.7315 -1.65717,-1.77139 -1.2706,-3.3116 C 257.08869,123.81413 298.23655,21.300509 299.67302,20.25 300.95509,19.312396 309.28407,19 333,19 c 37.41499,0 36.51685,-0.217984 33.60356,8.155801 -3.6206,10.406821 -2.19375,9.760514 -22.23405,10.071157 L 326.75494,37.5 321.37747,51.493111 C 318.41986,59.189322 316,65.601822 316,65.743111 316,65.8844 322.88899,66 331.30887,66 c 20.01982,0 20.11332,0.05892 16.04856,10.112463 L 344.37057,83.5 326.46918,84 l -17.90138,0.5 -6.20932,16 -6.20932,16 16.15127,0.27585 c 8.88321,0.15172 16.55715,0.68173 17.05321,1.17779 0.53592,0.53592 -0.20547,3.93826 -1.8269,8.38394 -2.01598,5.52748 -3.29021,7.63262 -4.87779,8.05856 -4.0238,1.07956 -64.0449,0.60353 -65.98307,-0.52332 z m 97.66052,0.0828 C 345.7033,132.25058 340,127.67243 340,122.45555 c 0,-1.74203 2.43099,-9.64467 5.40221,-17.56144 L 350.80442,90.5 h 15.84779 c 18.97997,0 18.28421,-0.806217 12.37169,14.33583 -2.21971,5.68471 -3.7816,10.74721 -3.47085,11.25 0.79112,1.28007 20.8431,1.14643 23.706,-0.158 3.16121,-1.44034 9.14974,-16.694242 7.39477,-18.83587 -0.6346,-0.774422 -8.88729,-8.099329 -18.3393,-16.277572 C 378.8625,72.636145 370.125,64.320295 368.89785,62.334721 365.73787,57.22176 366.11459,52.162503 370.5237,40.5 c 4.84709,-12.821025 5.63281,-13.946533 11.82465,-16.938345 7.5279,-3.637382 15.54901,-4.545656 40.21799,-4.554101 29.00254,-0.0099 38.71375,1.911704 43.0417,8.51699 2.09607,3.19901 1.71274,4.986581 -4.65956,21.728997 -4.05608,10.656808 -5.62455,13.693124 -7.30662,14.144453 -3.7128,0.996205 -26.68445,0.649579 -28.7076,-0.433178 -2.64433,-1.415204 -2.50801,-2.351545 2.04232,-14.027687 2.18712,-5.612145 3.73556,-10.593876 3.44098,-11.070514 -0.83802,-1.355951 -20.57111,-1.01845 -23.27778,0.398127 -2.45605,1.285411 -7.15877,11.298738 -7.11754,15.155132 0.0319,2.983177 2.1709,5.220821 13.97776,14.622282 24.99032,19.899066 26.98244,21.979332 26.99341,28.187746 0.006,3.263558 -5.13599,17.861208 -9.70547,27.554198 -2.02041,4.2858 -8.31346,7.90263 -16.92437,9.727 -7.6196,1.61435 -52.44247,1.94622 -60.03717,0.44452 z M 581.64846,90.315125 C 581.29181,89.958473 581,88.59874 581,87.293495 581,79.346837 569.98893,69 561.53212,69 c -2.09792,0 -2.53051,-0.471561 -2.52274,-2.75 0.0135,-3.953331 5.34781,-12.690029 9.19989,-15.067833 11.67258,-7.205234 25.56989,-3.464664 31.39995,8.451542 5.08215,10.387536 1.72903,22.236334 -7.83683,27.692721 -4.71348,2.688583 -9.12246,3.990162 -10.12393,2.988695 z M 496.66747,84.630521 C 491.0096,83.03444 487.09485,80.357712 485,76.652841 c -2.24655,-3.973164 0.0798,-7.443518 7.46107,-11.130114 5.35569,-2.674912 6.87903,-2.968504 15,-2.890933 17.25625,0.164831 27.81522,7.817927 22.08122,16.004362 -3.95818,5.651097 -22.26122,8.988456 -32.87482,5.994365 z m 40.8715,-19.399868 C 536.02693,56.280972 529.02506,48.851882 520.12426,46.75338 L 514.80805,45.5 l 0.51041,-3.821507 c 1.4281,-10.692416 13.53096,-18.977876 25.17173,-17.232235 13.5076,2.02559 22.24472,17.652517 16.96098,30.335861 -2.38719,5.730344 -8.18547,11.061496 -13.86523,12.748202 C 540.86402,68.338644 538.53323,69 538.4064,69 c -0.12683,0 -0.51718,-1.696206 -0.86743,-3.769347 z"
       id="path22"
       inkscape:connector-curvature="0" />
    <path
       style="fill:#0c14fe"
       d="m 331.49056,212.61676 c -1.80968,-1.32327 -1.35514,-2.76484 10.4841,-33.25 6.80669,-17.52672 12.80205,-32.42926 13.32301,-33.11676 0.65991,-0.87086 4.38754,-1.25 12.28959,-1.25 9.81025,0 11.45774,0.23639 12.19641,1.75 0.46972,0.9625 0.48709,9.175 0.0386,18.25 -0.44848,9.075 -0.69767,16.85788 -0.55375,17.29528 0.14392,0.43741 6.34653,-7.66259 13.78357,-18 L 406.574,145.5 h 12.963 c 12.47732,0 12.97442,0.08 13.26768,2.1365 0.16757,1.17507 -5.18164,16.32622 -11.88714,33.66923 -9.93907,25.70627 -12.58222,31.63752 -14.30468,32.09985 -1.16207,0.31191 -5.28935,0.57326 -9.17173,0.58077 -7.9669,0.0154 -11.25196,-1.49274 -10.00179,-4.59174 3.09834,-7.6804 5.46904,-14.39461 5.08254,-14.39461 -0.25351,0 -2.76681,3.41717 -5.58511,7.59371 -7.6646,11.35844 -7.7362,11.40883 -16.18677,11.39098 -3.9875,-0.008 -7.88767,-0.41894 -8.66705,-0.91226 -1.10716,-0.7008 -1.38419,-3.48571 -1.26681,-12.73469 L 360.96637,188.5 356.44751,200 c -2.48537,6.325 -5.26381,12.0625 -6.17431,12.75 -2.32127,1.75274 -16.3394,1.6533 -18.78264,-0.13324 z m 85,0 c -1.80968,-1.32327 -1.35514,-2.76484 10.4841,-33.25 6.80669,-17.52672 12.81489,-32.44474 13.35156,-33.15115 0.70373,-0.92633 3.65175,-1.20511 10.57477,-1 8.78144,0.26017 9.62383,0.4577 9.89036,2.31922 0.39864,2.78412 -23.39661,63.65532 -25.49336,65.21517 -2.35479,1.75182 -16.3652,1.65256 -18.80743,-0.13324 z m 27.99813,-0.001 c -1.81231,-1.3252 -1.36395,-2.7521 10.44791,-33.25 6.78781,-17.52597 12.78401,-32.42789 13.32489,-33.11539 0.66209,-0.84159 4.05435,-1.25 10.38239,-1.25 11.16616,0 10.32889,-1.00329 13.3524,16 1.1247,6.325 2.28348,12.56931 2.57505,13.87624 0.39469,1.76908 1.63112,-0.78606 4.83903,-10 2.36988,-6.80693 5.02409,-14.06374 5.89823,-16.12624 l 1.58936,-3.75 h 9.51584 c 8.03931,0 9.66117,0.27154 10.45243,1.75003 0.70274,1.31309 -2.16855,9.73039 -11.50001,33.71273 -6.84012,17.57949 -12.98325,32.31008 -13.6514,32.73466 -2.03093,1.29056 -17.16596,0.93286 -18.931,-0.44742 -1.06129,-0.82994 -2.47503,-6.09999 -4.20699,-15.68253 -1.4347,-7.93789 -2.77236,-14.59634 -2.97258,-14.79657 -0.20023,-0.20022 -0.64741,0.76496 -0.99374,2.14484 -1.78939,7.12952 -9.17226,26.14602 -10.77179,27.74555 -1.47099,1.47099 -3.40037,1.83871 -9.64758,1.83871 -5.07361,0 -8.47214,-0.485 -9.70244,-1.38461 z m 65.00187,0.001 c -1.80968,-1.32327 -1.35514,-2.76484 10.4841,-33.25 6.80669,-17.52672 12.81489,-32.44474 13.35156,-33.15115 0.70373,-0.92633 3.65175,-1.20511 10.57477,-1 8.78144,0.26017 9.62383,0.4577 9.89036,2.31922 0.39864,2.78412 -23.39661,63.65532 -25.49336,65.21517 -2.35479,1.75182 -16.3652,1.65256 -18.80743,-0.13324 z M 47.3264,133.95562 C 38.703299,132.25058 33,127.67243 33,122.45555 c 0,-1.74203 2.430994,-9.64467 5.402209,-17.56144 L 43.804419,90.5 h 15.84779 c 18.979967,0 18.28421,-0.806217 12.371688,14.33583 -2.21971,5.68471 -3.781592,10.74721 -3.47085,11.25 0.791128,1.28007 20.843101,1.14643 23.706004,-0.158 3.161208,-1.44034 9.149739,-16.694242 7.394771,-18.83587 C 99.01922,96.317538 90.766533,88.992631 81.314519,80.814388 71.862504,72.636145 63.125004,64.320295 61.897852,62.334721 58.737868,57.22176 59.114588,52.162503 63.523696,40.5 c 4.847098,-12.821025 5.632815,-13.946533 11.82465,-16.938345 7.527903,-3.637382 15.549017,-4.545656 40.217994,-4.554101 29.00254,-0.0099 38.71375,1.911704 43.0417,8.51699 2.09607,3.19901 1.71274,4.986581 -4.65956,21.728997 -4.05608,10.656808 -5.62455,13.693124 -7.30662,14.144453 -3.7128,0.996205 -26.68445,0.649579 -28.7076,-0.433178 -2.64433,-1.415204 -2.50801,-2.351545 2.04232,-14.027687 2.18712,-5.612145 3.73556,-10.593876 3.44098,-11.070514 -0.83802,-1.355951 -20.57111,-1.01845 -23.27778,0.398127 -2.456052,1.285411 -7.158768,11.298738 -7.117544,15.155132 0.03189,2.983177 2.170903,5.220821 13.977764,14.622282 24.99032,19.899066 26.98244,21.979332 26.99341,28.187746 0.006,3.263558 -5.13599,17.861208 -9.70547,27.554198 -2.02041,4.2858 -8.31346,7.90263 -16.92437,9.727 -7.6196,1.61435 -52.442473,1.94622 -60.03717,0.44452 z m 93.33948,-0.0828 c -1.25819,-0.7315 -1.65717,-1.77139 -1.2706,-3.3116 1.69341,-6.74709 42.84127,-109.260711 44.27774,-110.31122 1.77872,-1.300811 25.65351,-1.805526 30.01996,-0.634624 1.76635,0.473661 2.49827,1.9303 3.76221,7.487429 2.2017,9.680145 8.48144,45.222759 9.22466,52.210589 l 0.61831,5.813395 7.22919,-21.813395 C 243.76605,35.436478 249.66743,20.341598 251.62023,19.592239 252.46907,19.266507 259.34076,19 266.89066,19 c 9.94719,0 14.23558,0.371824 15.57375,1.350321 1.74564,1.27644 0.6591,4.381409 -19.85879,56.75 C 250.66761,107.57014 240.16161,133.0625 239.25895,133.75 238.12524,134.61347 233.25222,135 223.5,135 c -9.78578,0 -14.60202,-0.38356 -15.69601,-1.25 -1.60459,-1.27085 -6.79015,-26.17598 -10.67089,-51.25 -1.02149,-6.6 -2.1234,-11.325 -2.44869,-10.5 -0.32528,0.825 -2.63129,7.8 -5.12445,15.5 -6.60853,20.41007 -16.2171,45.66678 -17.74088,46.63297 -1.94084,1.23065 -28.97739,1.00487 -31.1532,-0.26015 z m 116,0 c -1.25819,-0.7315 -1.65717,-1.77139 -1.2706,-3.3116 C 257.08869,123.81413 298.23655,21.300509 299.67302,20.25 300.95509,19.312396 309.28407,19 333,19 c 37.41499,0 36.51685,-0.217984 33.60356,8.155801 -3.6206,10.406821 -2.19375,9.760514 -22.23405,10.071157 L 326.75494,37.5 321.37747,51.493111 C 318.41986,59.189322 316,65.601822 316,65.743111 316,65.8844 322.88899,66 331.30887,66 c 20.01982,0 20.11332,0.05892 16.04856,10.112463 L 344.37057,83.5 326.46918,84 l -17.90138,0.5 -6.20932,16 -6.20932,16 16.15127,0.27585 c 8.88321,0.15172 16.55715,0.68173 17.05321,1.17779 0.53592,0.53592 -0.20547,3.93826 -1.8269,8.38394 -2.01598,5.52748 -3.29021,7.63262 -4.87779,8.05856 -4.0238,1.07956 -64.0449,0.60353 -65.98307,-0.52332 z m 97.66052,0.0828 C 345.7033,132.25058 340,127.67243 340,122.45555 c 0,-1.74203 2.43099,-9.64467 5.40221,-17.56144 L 350.80442,90.5 h 15.84779 c 18.97997,0 18.28421,-0.806217 12.37169,14.33583 -2.21971,5.68471 -3.7816,10.74721 -3.47085,11.25 0.79112,1.28007 20.8431,1.14643 23.706,-0.158 3.16121,-1.44034 9.14974,-16.694242 7.39477,-18.83587 -0.6346,-0.774422 -8.88729,-8.099329 -18.3393,-16.277572 C 378.8625,72.636145 370.125,64.320295 368.89785,62.334721 365.73787,57.22176 366.11459,52.162503 370.5237,40.5 c 4.84709,-12.821025 5.63281,-13.946533 11.82465,-16.938345 7.5279,-3.637382 15.54901,-4.545656 40.21799,-4.554101 29.00254,-0.0099 38.71375,1.911704 43.0417,8.51699 2.09607,3.19901 1.71274,4.986581 -4.65956,21.728997 -4.05608,10.656808 -5.62455,13.693124 -7.30662,14.144453 -3.7128,0.996205 -26.68445,0.649579 -28.7076,-0.433178 -2.64433,-1.415204 -2.50801,-2.351545 2.04232,-14.027687 2.18712,-5.612145 3.73556,-10.593876 3.44098,-11.070514 -0.83802,-1.355951 -20.57111,-1.01845 -23.27778,0.398127 -2.45605,1.285411 -7.15877,11.298738 -7.11754,15.155132 0.0319,2.983177 2.1709,5.220821 13.97776,14.622282 24.99032,19.899066 26.98244,21.979332 26.99341,28.187746 0.006,3.263558 -5.13599,17.861208 -9.70547,27.554198 -2.02041,4.2858 -8.31346,7.90263 -16.92437,9.727 -7.6196,1.61435 -52.44247,1.94622 -60.03717,0.44452 z M 581.64846,90.315125 C 581.29181,89.958473 581,88.59874 581,87.293495 581,79.346837 569.98893,69 561.53212,69 c -2.09792,0 -2.53051,-0.471561 -2.52274,-2.75 0.0135,-3.953331 5.34781,-12.690029 9.19989,-15.067833 11.67258,-7.205234 25.56989,-3.464664 31.39995,8.451542 5.08215,10.387536 1.72903,22.236334 -7.83683,27.692721 -4.71348,2.688583 -9.12246,3.990162 -10.12393,2.988695 z M 537.53897,65.230653 C 536.02693,56.280972 529.02506,48.851882 520.12426,46.75338 L 514.80805,45.5 l 0.51041,-3.821507 c 1.4281,-10.692416 13.53096,-18.977876 25.17173,-17.232235 13.5076,2.02559 22.24472,17.652517 16.96098,30.335861 -2.38719,5.730344 -8.18547,11.061496 -13.86523,12.748202 C 540.86402,68.338644 538.53323,69 538.4064,69 c -0.12683,0 -0.51718,-1.696206 -0.86743,-3.769347 z"
       id="path20"
       inkscape:connector-curvature="0" />
    <path
       style="fill:#f70d17"
       d="m 331.49056,212.61676 c -1.80968,-1.32327 -1.35514,-2.76484 10.4841,-33.25 6.80669,-17.52672 12.80205,-32.42926 13.32301,-33.11676 0.65991,-0.87086 4.38754,-1.25 12.28959,-1.25 9.81025,0 11.45774,0.23639 12.19641,1.75 0.46972,0.9625 0.48709,9.175 0.0386,18.25 -0.44848,9.075 -0.69767,16.85788 -0.55375,17.29528 0.14392,0.43741 6.34653,-7.66259 13.78357,-18 L 406.574,145.5 h 12.963 c 12.47732,0 12.97442,0.08 13.26768,2.1365 0.16757,1.17507 -5.18164,16.32622 -11.88714,33.66923 -9.93907,25.70627 -12.58222,31.63752 -14.30468,32.09985 -1.16207,0.31191 -5.28935,0.57326 -9.17173,0.58077 -7.9669,0.0154 -11.25196,-1.49274 -10.00179,-4.59174 3.09834,-7.6804 5.46904,-14.39461 5.08254,-14.39461 -0.25351,0 -2.76681,3.41717 -5.58511,7.59371 -7.6646,11.35844 -7.7362,11.40883 -16.18677,11.39098 -3.9875,-0.008 -7.88767,-0.41894 -8.66705,-0.91226 -1.10716,-0.7008 -1.38419,-3.48571 -1.26681,-12.73469 L 360.96637,188.5 356.44751,200 c -2.48537,6.325 -5.26381,12.0625 -6.17431,12.75 -2.32127,1.75274 -16.3394,1.6533 -18.78264,-0.13324 z m 85,0 c -1.80968,-1.32327 -1.35514,-2.76484 10.4841,-33.25 6.80669,-17.52672 12.81489,-32.44474 13.35156,-33.15115 0.70373,-0.92633 3.65175,-1.20511 10.57477,-1 8.78144,0.26017 9.62383,0.4577 9.89036,2.31922 0.39864,2.78412 -23.39661,63.65532 -25.49336,65.21517 -2.35479,1.75182 -16.3652,1.65256 -18.80743,-0.13324 z m 27.99813,-0.001 c -1.81231,-1.3252 -1.36395,-2.7521 10.44791,-33.25 6.78781,-17.52597 12.78401,-32.42789 13.32489,-33.11539 0.66209,-0.84159 4.05435,-1.25 10.38239,-1.25 11.16616,0 10.32889,-1.00329 13.3524,16 1.1247,6.325 2.28348,12.56931 2.57505,13.87624 0.39469,1.76908 1.63112,-0.78606 4.83903,-10 2.36988,-6.80693 5.02409,-14.06374 5.89823,-16.12624 l 1.58936,-3.75 h 9.51584 c 8.03931,0 9.66117,0.27154 10.45243,1.75003 0.70274,1.31309 -2.16855,9.73039 -11.50001,33.71273 -6.84012,17.57949 -12.98325,32.31008 -13.6514,32.73466 -2.03093,1.29056 -17.16596,0.93286 -18.931,-0.44742 -1.06129,-0.82994 -2.47503,-6.09999 -4.20699,-15.68253 -1.4347,-7.93789 -2.77236,-14.59634 -2.97258,-14.79657 -0.20023,-0.20022 -0.64741,0.76496 -0.99374,2.14484 -1.78939,7.12952 -9.17226,26.14602 -10.77179,27.74555 -1.47099,1.47099 -3.40037,1.83871 -9.64758,1.83871 -5.07361,0 -8.47214,-0.485 -9.70244,-1.38461 z m 65.00187,0.001 c -1.80968,-1.32327 -1.35514,-2.76484 10.4841,-33.25 6.80669,-17.52672 12.81489,-32.44474 13.35156,-33.15115 0.70373,-0.92633 3.65175,-1.20511 10.57477,-1 8.78144,0.26017 9.62383,0.4577 9.89036,2.31922 0.39864,2.78412 -23.39661,63.65532 -25.49336,65.21517 -2.35479,1.75182 -16.3652,1.65256 -18.80743,-0.13324 z M 47.3264,133.95562 C 38.703299,132.25058 33,127.67243 33,122.45555 c 0,-1.74203 2.430994,-9.64467 5.402209,-17.56144 L 43.804419,90.5 h 15.84779 c 18.979967,0 18.28421,-0.806217 12.371688,14.33583 -2.21971,5.68471 -3.781592,10.74721 -3.47085,11.25 0.791128,1.28007 20.843101,1.14643 23.706004,-0.158 3.161208,-1.44034 9.149739,-16.694242 7.394771,-18.83587 C 99.01922,96.317538 90.766533,88.992631 81.314519,80.814388 71.862504,72.636145 63.125004,64.320295 61.897852,62.334721 58.737868,57.22176 59.114588,52.162503 63.523696,40.5 c 4.847098,-12.821025 5.632815,-13.946533 11.82465,-16.938345 7.527903,-3.637382 15.549017,-4.545656 40.217994,-4.554101 29.00254,-0.0099 38.71375,1.911704 43.0417,8.51699 2.09607,3.19901 1.71274,4.986581 -4.65956,21.728997 -4.05608,10.656808 -5.62455,13.693124 -7.30662,14.144453 -3.7128,0.996205 -26.68445,0.649579 -28.7076,-0.433178 -2.64433,-1.415204 -2.50801,-2.351545 2.04232,-14.027687 2.18712,-5.612145 3.73556,-10.593876 3.44098,-11.070514 -0.83802,-1.355951 -20.57111,-1.01845 -23.27778,0.398127 -2.456052,1.285411 -7.158768,11.298738 -7.117544,15.155132 0.03189,2.983177 2.170903,5.220821 13.977764,14.622282 24.99032,19.899066 26.98244,21.979332 26.99341,28.187746 0.006,3.263558 -5.13599,17.861208 -9.70547,27.554198 -2.02041,4.2858 -8.31346,7.90263 -16.92437,9.727 -7.6196,1.61435 -52.442473,1.94622 -60.03717,0.44452 z m 93.33948,-0.0828 c -1.25819,-0.7315 -1.65717,-1.77139 -1.2706,-3.3116 1.69341,-6.74709 42.84127,-109.260711 44.27774,-110.31122 1.77872,-1.300811 25.65351,-1.805526 30.01996,-0.634624 1.76635,0.473661 2.49827,1.9303 3.76221,7.487429 2.2017,9.680145 8.48144,45.222759 9.22466,52.210589 l 0.61831,5.813395 7.22919,-21.813395 C 243.76605,35.436478 249.66743,20.341598 251.62023,19.592239 252.46907,19.266507 259.34076,19 266.89066,19 c 9.94719,0 14.23558,0.371824 15.57375,1.350321 1.74564,1.27644 0.6591,4.381409 -19.85879,56.75 C 250.66761,107.57014 240.16161,133.0625 239.25895,133.75 238.12524,134.61347 233.25222,135 223.5,135 c -9.78578,0 -14.60202,-0.38356 -15.69601,-1.25 -1.60459,-1.27085 -6.79015,-26.17598 -10.67089,-51.25 -1.02149,-6.6 -2.1234,-11.325 -2.44869,-10.5 -0.32528,0.825 -2.63129,7.8 -5.12445,15.5 -6.60853,20.41007 -16.2171,45.66678 -17.74088,46.63297 -1.94084,1.23065 -28.97739,1.00487 -31.1532,-0.26015 z m 116,0 c -1.25819,-0.7315 -1.65717,-1.77139 -1.2706,-3.3116 C 257.08869,123.81413 298.23655,21.300509 299.67302,20.25 300.95509,19.312396 309.28407,19 333,19 c 37.41499,0 36.51685,-0.217984 33.60356,8.155801 -3.6206,10.406821 -2.19375,9.760514 -22.23405,10.071157 L 326.75494,37.5 321.37747,51.493111 C 318.41986,59.189322 316,65.601822 316,65.743111 316,65.8844 322.88899,66 331.30887,66 c 20.01982,0 20.11332,0.05892 16.04856,10.112463 L 344.37057,83.5 326.46918,84 l -17.90138,0.5 -6.20932,16 -6.20932,16 16.15127,0.27585 c 8.88321,0.15172 16.55715,0.68173 17.05321,1.17779 0.53592,0.53592 -0.20547,3.93826 -1.8269,8.38394 -2.01598,5.52748 -3.29021,7.63262 -4.87779,8.05856 -4.0238,1.07956 -64.0449,0.60353 -65.98307,-0.52332 z m 97.66052,0.0828 C 345.7033,132.25058 340,127.67243 340,122.45555 c 0,-1.74203 2.43099,-9.64467 5.40221,-17.56144 L 350.80442,90.5 h 15.84779 c 18.97997,0 18.28421,-0.806217 12.37169,14.33583 -2.21971,5.68471 -3.7816,10.74721 -3.47085,11.25 0.79112,1.28007 20.8431,1.14643 23.706,-0.158 3.16121,-1.44034 9.14974,-16.694242 7.39477,-18.83587 -0.6346,-0.774422 -8.88729,-8.099329 -18.3393,-16.277572 C 378.8625,72.636145 370.125,64.320295 368.89785,62.334721 365.73787,57.22176 366.11459,52.162503 370.5237,40.5 c 4.84709,-12.821025 5.63281,-13.946533 11.82465,-16.938345 7.5279,-3.637382 15.54901,-4.545656 40.21799,-4.554101 29.00254,-0.0099 38.71375,1.911704 43.0417,8.51699 2.09607,3.19901 1.71274,4.986581 -4.65956,21.728997 -4.05608,10.656808 -5.62455,13.693124 -7.30662,14.144453 -3.7128,0.996205 -26.68445,0.649579 -28.7076,-0.433178 -2.64433,-1.415204 -2.50801,-2.351545 2.04232,-14.027687 2.18712,-5.612145 3.73556,-10.593876 3.44098,-11.070514 -0.83802,-1.355951 -20.57111,-1.01845 -23.27778,0.398127 -2.45605,1.285411 -7.15877,11.298738 -7.11754,15.155132 0.0319,2.983177 2.1709,5.220821 13.97776,14.622282 24.99032,19.899066 26.98244,21.979332 26.99341,28.187746 0.006,3.263558 -5.13599,17.861208 -9.70547,27.554198 -2.02041,4.2858 -8.31346,7.90263 -16.92437,9.727 -7.6196,1.61435 -52.44247,1.94622 -60.03717,0.44452 z M 581.64846,90.315125 C 581.29181,89.958473 581,88.59874 581,87.293495 581,79.346837 569.98893,69 561.53212,69 c -2.09792,0 -2.53051,-0.471561 -2.52274,-2.75 0.0135,-3.953331 5.34781,-12.690029 9.19989,-15.067833 11.67258,-7.205234 25.56989,-3.464664 31.39995,8.451542 5.08215,10.387536 1.72903,22.236334 -7.83683,27.692721 -4.71348,2.688583 -9.12246,3.990162 -10.12393,2.988695 z"
       id="path18"
       inkscape:connector-curvature="0" />
    <path
       style="fill:#6b0509"
       d="m 331.49056,212.61676 c -1.80968,-1.32327 -1.35514,-2.76484 10.4841,-33.25 6.80669,-17.52672 12.80205,-32.42926 13.32301,-33.11676 0.65991,-0.87086 4.38754,-1.25 12.28959,-1.25 9.81025,0 11.45774,0.23639 12.19641,1.75 0.46972,0.9625 0.48709,9.175 0.0386,18.25 -0.44848,9.075 -0.69767,16.85788 -0.55375,17.29528 0.14392,0.43741 6.34653,-7.66259 13.78357,-18 L 406.574,145.5 h 12.963 c 12.47732,0 12.97442,0.08 13.26768,2.1365 0.16757,1.17507 -5.18164,16.32622 -11.88714,33.66923 -9.93907,25.70627 -12.58222,31.63752 -14.30468,32.09985 -1.16207,0.31191 -5.28935,0.57326 -9.17173,0.58077 -7.9669,0.0154 -11.25196,-1.49274 -10.00179,-4.59174 3.09834,-7.6804 5.46904,-14.39461 5.08254,-14.39461 -0.25351,0 -2.76681,3.41717 -5.58511,7.59371 -7.6646,11.35844 -7.7362,11.40883 -16.18677,11.39098 -3.9875,-0.008 -7.88767,-0.41894 -8.66705,-0.91226 -1.10716,-0.7008 -1.38419,-3.48571 -1.26681,-12.73469 L 360.96637,188.5 356.44751,200 c -2.48537,6.325 -5.26381,12.0625 -6.17431,12.75 -2.32127,1.75274 -16.3394,1.6533 -18.78264,-0.13324 z M 356.07509,192.5 c 3.79073,-9.9 7.12799,-18.45 7.41611,-19 0.28812,-0.55 0.31793,7.6625 0.0662,18.25 L 363.09977,211 h 7.24608 7.24608 l 12.85305,-18.51763 c 7.06918,-10.1847 12.99669,-18.37401 13.17223,-18.19846 0.17555,0.17554 -2.7628,8.39598 -6.52967,18.26763 L 390.2387,210.5 l 7.53578,0.29486 c 4.14468,0.16217 7.88016,-0.0628 8.30107,-0.5 0.42091,-0.43717 6.14263,-14.63236 12.71493,-31.54486 L 430.74012,148 h -11.20721 -11.2072 l -15.78055,22 c -8.6793,12.1 -16.00354,22 -16.27609,22 -0.53717,0 0.42057,-26.28526 1.35725,-37.25 l 0.57663,-6.75 h -10.4213 -10.4213 l -11.93019,30.61387 c -6.56161,16.83764 -12.08649,31.03154 -12.27753,31.54202 -0.20134,0.53801 3.0947,0.8054 7.84142,0.63613 l 8.18875,-0.29202 6.89226,-18 z m 60.41547,20.11676 c -1.80968,-1.32327 -1.35514,-2.76484 10.4841,-33.25 6.80669,-17.52672 12.81489,-32.44474 13.35156,-33.15115 0.70373,-0.92633 3.65175,-1.20511 10.57477,-1 8.78144,0.26017 9.62383,0.4577 9.89036,2.31922 0.39864,2.78412 -23.39661,63.65532 -25.49336,65.21517 -2.35479,1.75182 -16.3652,1.65256 -18.80743,-0.13324 z M 446.08582,180 c 6.5361,-16.775 11.89066,-30.8375 11.899,-31.25 0.008,-0.4125 -3.50374,-0.75 -7.80463,-0.75 h -7.81981 l -11.93019,30.61387 c -6.56161,16.83764 -12.08649,31.03154 -12.27753,31.54202 -0.20135,0.53805 3.09839,0.80541 7.85099,0.63613 L 434.20198,210.5 Z m -1.59713,32.61539 c -1.81231,-1.3252 -1.36395,-2.7521 10.44791,-33.25 6.78781,-17.52597 12.78401,-32.42789 13.32489,-33.11539 0.66209,-0.84159 4.05435,-1.25 10.38239,-1.25 11.16616,0 10.32889,-1.00329 13.3524,16 1.1247,6.325 2.28348,12.56931 2.57505,13.87624 0.39469,1.76908 1.63112,-0.78606 4.83903,-10 2.36988,-6.80693 5.02409,-14.06374 5.89823,-16.12624 l 1.58936,-3.75 h 9.51584 c 8.03931,0 9.66117,0.27154 10.45243,1.75003 0.70274,1.31309 -2.16855,9.73039 -11.50001,33.71273 -6.84012,17.57949 -12.98325,32.31008 -13.6514,32.73466 -2.03093,1.29056 -17.16596,0.93286 -18.931,-0.44742 -1.06129,-0.82994 -2.47503,-6.09999 -4.20699,-15.68253 -1.4347,-7.93789 -2.77236,-14.59634 -2.97258,-14.79657 -0.20023,-0.20022 -0.64741,0.76496 -0.99374,2.14484 -1.78939,7.12952 -9.17226,26.14602 -10.77179,27.74555 -1.47099,1.47099 -3.40037,1.83871 -9.64758,1.83871 -5.07361,0 -8.47214,-0.485 -9.70244,-1.38461 z M 466.22253,200 c 2.15149,-5.775 5.40328,-15.64299 7.22619,-21.92887 l 3.3144,-11.42888 0.6801,5.42888 c 0.77152,6.15861 4.06311,25.79686 5.64495,33.67887 l 1.05363,5.25 8.1791,-0.008 8.1791,-0.008 10.34369,-26.74177 c 5.68904,-14.70797 11.19402,-28.87926 12.2333,-31.49176 l 1.8896,-4.75 h -8.35427 -8.35427 l -6.62903,19.90905 c -3.64596,10.94997 -6.6427,20.96247 -6.65943,22.25 -0.0583,4.49195 -1.67551,-0.40625 -2.33769,-7.08059 -0.3504,-3.53185 -1.84287,-12.86935 -3.31659,-20.75 L 486.63581,148 h -8.16417 -8.16417 l -11.76018,30.25 c -6.4681,16.6375 -11.99275,30.8316 -12.27701,31.54243 -0.40291,1.00756 1.30792,1.22798 7.76181,1 L 462.31072,210.5 Z m 43.26803,12.61676 c -1.80968,-1.32327 -1.35514,-2.76484 10.4841,-33.25 6.80669,-17.52672 12.81489,-32.44474 13.35156,-33.15115 0.70373,-0.92633 3.65175,-1.20511 10.57477,-1 8.78144,0.26017 9.62383,0.4577 9.89036,2.31922 0.39864,2.78412 -23.39661,63.65532 -25.49336,65.21517 -2.35479,1.75182 -16.3652,1.65256 -18.80743,-0.13324 z M 539.08582,180 c 6.5361,-16.775 11.89066,-30.8375 11.899,-31.25 0.008,-0.4125 -3.50374,-0.75 -7.80463,-0.75 h -7.81981 l -11.93019,30.61387 c -6.56161,16.83764 -12.08649,31.03154 -12.27753,31.54202 -0.20135,0.53805 3.09839,0.80541 7.85099,0.63613 L 527.20198,210.5 Z M 47.3264,133.95562 C 38.703299,132.25058 33,127.67243 33,122.45555 c 0,-1.74203 2.430994,-9.64467 5.402209,-17.56144 L 43.804419,90.5 h 15.84779 c 18.979967,0 18.28421,-0.806217 12.371688,14.33583 -2.21971,5.68471 -3.781592,10.74721 -3.47085,11.25 0.791128,1.28007 20.843101,1.14643 23.706004,-0.158 3.161208,-1.44034 9.149739,-16.694242 7.394771,-18.83587 C 99.01922,96.317538 90.766533,88.992631 81.314519,80.814388 71.862504,72.636145 63.125004,64.320295 61.897852,62.334721 58.737868,57.22176 59.114588,52.162503 63.523696,40.5 c 4.847098,-12.821025 5.632815,-13.946533 11.82465,-16.938345 7.527903,-3.637382 15.549017,-4.545656 40.217994,-4.554101 29.00254,-0.0099 38.71375,1.911704 43.0417,8.51699 2.09607,3.19901 1.71274,4.986581 -4.65956,21.728997 -4.05608,10.656808 -5.62455,13.693124 -7.30662,14.144453 -3.7128,0.996205 -26.68445,0.649579 -28.7076,-0.433178 -2.64433,-1.415204 -2.50801,-2.351545 2.04232,-14.027687 2.18712,-5.612145 3.73556,-10.593876 3.44098,-11.070514 -0.83802,-1.355951 -20.57111,-1.01845 -23.27778,0.398127 -2.456052,1.285411 -7.158768,11.298738 -7.117544,15.155132 0.03189,2.983177 2.170903,5.220821 13.977764,14.622282 24.99032,19.899066 26.98244,21.979332 26.99341,28.187746 0.006,3.263558 -5.13599,17.861208 -9.70547,27.554198 -2.02041,4.2858 -8.31346,7.90263 -16.92437,9.727 -7.6196,1.61435 -52.442473,1.94622 -60.03717,0.44452 z M 111.5,129.62146 c 2.75,-0.99962 6.23383,-2.97906 7.74184,-4.39876 3.65245,-3.43852 13.07285,-27.120691 12.18901,-30.642211 -0.787,-3.135627 -6.16207,-8.144839 -24.50397,-22.836087 C 88.500043,56.985129 87.996975,56.024509 92.631642,44.447319 96.353785,35.149572 97.65463,34.5 112.55233,34.5 c 16.61194,0 16.36225,-0.317292 10.83999,13.774785 C 120.97654,54.43953 119,59.824645 119,60.241707 119,60.658768 125.09099,61 132.53554,61 h 13.53553 l 1.7857,-4.25 c 0.98214,-2.3375 3.5326,-8.904163 5.66769,-14.592584 4.86416,-12.959328 4.39341,-14.477236 -5.54264,-17.872012 -6.00425,-2.051429 -8.33857,-2.217205 -31.6826,-2.25 -14.97591,-0.02104 -27.350863,0.420322 -30.499999,1.087803 -6.129211,1.29913 -11.55668,3.842864 -14.026328,6.573827 C 69.93084,31.733997 62,51.953168 62,54.612403 c 0,4.434922 4.182799,9.216515 20.087775,22.963462 9.271362,8.0134 17.978955,15.903159 19.350205,17.532797 l 2.49318,2.962979 -2.58669,7.214179 C 96.271794,119.43334 95.446118,119.98463 79.3151,119.99442 69.411058,120.00044 65,118.93419 65,116.53417 65,115.70074 66.8,110.28536 69,104.5 71.2,98.714636 73,93.535397 73,92.990579 73,92.385988 67.803016,92 59.662749,92 H 46.325498 l -5.162749,13.84673 C 38.323237,113.46244 36,120.809 36,122.17242 c 0,1.36342 1.112052,3.52367 2.471227,4.80055 4.65456,4.37273 9.822647,4.98134 40.028773,4.7139 24.15005,-0.21383 28.68749,-0.49782 33,-2.06541 z m 29.16588,4.25136 c -1.25819,-0.7315 -1.65717,-1.77139 -1.2706,-3.3116 1.69341,-6.74709 42.84127,-109.260711 44.27774,-110.31122 1.77872,-1.300811 25.65351,-1.805526 30.01996,-0.634624 1.76635,0.473661 2.49827,1.9303 3.76221,7.487429 2.2017,9.680145 8.48144,45.222759 9.22466,52.210589 l 0.61831,5.813395 7.22919,-21.813395 C 243.76605,35.436478 249.66743,20.341598 251.62023,19.592239 252.46907,19.266507 259.34076,19 266.89066,19 c 9.94719,0 14.23558,0.371824 15.57375,1.350321 1.74564,1.27644 0.6591,4.381409 -19.85879,56.75 C 250.66761,107.57014 240.16161,133.0625 239.25895,133.75 238.12524,134.61347 233.25222,135 223.5,135 c -9.78578,0 -14.60202,-0.38356 -15.69601,-1.25 -1.60459,-1.27085 -6.79015,-26.17598 -10.67089,-51.25 -1.02149,-6.6 -2.1234,-11.325 -2.44869,-10.5 -0.32528,0.825 -2.63129,7.8 -5.12445,15.5 -6.60853,20.41007 -16.2171,45.66678 -17.74088,46.63297 -1.94084,1.23065 -28.97739,1.00487 -31.1532,-0.26015 z m 37.58797,-22.71607 c 7.63327,-20.786209 14.46212,-42.154215 16.92446,-52.957988 L 196.47715,52.5 196.78959,57 c 0.65303,9.405157 4.34942,33.294854 8.3166,53.75 l 4.12134,21.25 h 14.27765 14.27766 l 1.71573,-4.25 c 2.7845,-6.89741 36.49283,-92.684466 39.09656,-99.5 L 280.98281,22 h -14.36313 -14.36314 l -7.02597,19.25 c -8.63029,23.645602 -13.26655,38.224712 -16.30421,51.269973 L 226.60245,102.5 225.32965,91 C 223.7846,77.040056 222.0706,66.449773 217.27367,41.224389 L 213.60816,21.948778 199.16184,22.224389 184.71552,22.5 l -20.85481,53 c -11.47015,29.15 -21.11146,53.7875 -21.42515,54.75 -0.52534,1.61193 0.56321,1.75 13.79687,1.75 h 14.36721 z m 78.41203,22.71607 c -1.25819,-0.7315 -1.65717,-1.77139 -1.2706,-3.3116 C 257.08869,123.81413 298.23655,21.300509 299.67302,20.25 300.95509,19.312396 309.28407,19 333,19 c 37.41499,0 36.51685,-0.217984 33.60356,8.155801 -3.6206,10.406821 -2.19375,9.760514 -22.23405,10.071157 L 326.75494,37.5 321.37747,51.493111 C 318.41986,59.189322 316,65.601822 316,65.743111 316,65.8844 322.88899,66 331.30887,66 c 20.01982,0 20.11332,0.05892 16.04856,10.112463 L 344.37057,83.5 326.46918,84 l -17.90138,0.5 -6.20932,16 -6.20932,16 16.15127,0.27585 c 8.88321,0.15172 16.55715,0.68173 17.05321,1.17779 0.53592,0.53592 -0.20547,3.93826 -1.8269,8.38394 -2.01598,5.52748 -3.29021,7.63262 -4.87779,8.05856 -4.0238,1.07956 -64.0449,0.60353 -65.98307,-0.52332 z M 324.60752,125.75 326.83441,120 h -17.48459 c -16.20236,0 -17.44282,-0.12834 -16.9149,-1.75 0.31334,-0.9625 3.62135,-9.625 7.35113,-19.25 l 6.78144,-17.5 17.78161,-0.27334 17.7816,-0.273341 2.43465,-5.505173 C 345.90441,72.420301 347,69.730804 347,69.471487 347,69.212169 339.125,69 329.5,69 c -9.625,0 -17.49501,-0.3375 -17.4889,-0.75 0.006,-0.4125 2.8793,-8.175 6.38489,-17.25 l 6.37378,-16.5 18.05162,-0.272313 18.05161,-0.272313 2.0635,-5.5152 C 364.07142,25.406815 365,22.710622 365,22.448634 365,22.186647 350.53641,22.091028 332.8587,22.236147 L 300.7174,22.5 l -20.85575,53 c -11.47066,29.15 -21.1144,53.79378 -21.43052,54.76395 -0.54229,1.66431 1.24756,1.74904 31.68737,1.5 L 322.38063,131.5 Z m 29.71888,8.20562 C 345.7033,132.25058 340,127.67243 340,122.45555 c 0,-1.74203 2.43099,-9.64467 5.40221,-17.56144 L 350.80442,90.5 h 15.84779 c 18.97997,0 18.28421,-0.806217 12.37169,14.33583 -2.21971,5.68471 -3.7816,10.74721 -3.47085,11.25 0.79112,1.28007 20.8431,1.14643 23.706,-0.158 3.16121,-1.44034 9.14974,-16.694242 7.39477,-18.83587 -0.6346,-0.774422 -8.88729,-8.099329 -18.3393,-16.277572 C 378.8625,72.636145 370.125,64.320295 368.89785,62.334721 365.73787,57.22176 366.11459,52.162503 370.5237,40.5 c 4.84709,-12.821025 5.63281,-13.946533 11.82465,-16.938345 7.5279,-3.637382 15.54901,-4.545656 40.21799,-4.554101 29.00254,-0.0099 38.71375,1.911704 43.0417,8.51699 2.09607,3.19901 1.71274,4.986581 -4.65956,21.728997 -4.05608,10.656808 -5.62455,13.693124 -7.30662,14.144453 -3.7128,0.996205 -26.68445,0.649579 -28.7076,-0.433178 -2.64433,-1.415204 -2.50801,-2.351545 2.04232,-14.027687 2.18712,-5.612145 3.73556,-10.593876 3.44098,-11.070514 -0.83802,-1.355951 -20.57111,-1.01845 -23.27778,0.398127 -2.45605,1.285411 -7.15877,11.298738 -7.11754,15.155132 0.0319,2.983177 2.1709,5.220821 13.97776,14.622282 24.99032,19.899066 26.98244,21.979332 26.99341,28.187746 0.006,3.263558 -5.13599,17.861208 -9.70547,27.554198 -2.02041,4.2858 -8.31346,7.90263 -16.92437,9.727 -7.6196,1.61435 -52.44247,1.94622 -60.03717,0.44452 z M 418.5,129.62146 c 2.75,-0.99962 6.23383,-2.97906 7.74184,-4.39876 3.65245,-3.43852 13.07285,-27.120691 12.18901,-30.642211 -0.787,-3.135627 -6.16207,-8.144839 -24.50397,-22.836087 C 395.50004,56.985129 394.99697,56.024509 399.63164,44.447319 403.35379,35.149572 404.65463,34.5 419.55233,34.5 c 16.61194,0 16.36225,-0.317292 10.83999,13.774785 C 427.97654,54.43953 426,59.824645 426,60.241707 426,60.658768 432.09099,61 439.53554,61 h 13.53553 l 1.7857,-4.25 c 0.98214,-2.3375 3.5326,-8.904163 5.66769,-14.592584 4.86416,-12.959328 4.39341,-14.477236 -5.54264,-17.872012 -6.00425,-2.051429 -8.33857,-2.217205 -31.6826,-2.25 -14.97591,-0.02104 -27.35086,0.420322 -30.5,1.087803 -6.12921,1.29913 -11.55668,3.842864 -14.02633,6.573827 C 376.93084,31.733997 369,51.953168 369,54.612403 c 0,4.434922 4.1828,9.216515 20.08777,22.963462 9.27137,8.0134 17.97896,15.903159 19.35021,17.532797 l 2.49318,2.962979 -2.58669,7.214179 c -5.07268,14.14752 -5.89835,14.69881 -22.02937,14.7086 -9.90404,0.006 -14.3151,-1.06023 -14.3151,-3.46025 0,-0.83343 1.8,-6.24881 4,-12.03417 2.2,-5.785364 4,-10.964603 4,-11.509421 C 380,92.385988 374.80302,92 366.66275,92 H 353.3255 l -5.16275,13.84673 C 345.32324,113.46244 343,120.809 343,122.17242 c 0,1.36342 1.11205,3.52367 2.47123,4.80055 4.65456,4.37273 9.82264,4.98134 40.02877,4.7139 24.15005,-0.21383 28.68749,-0.49782 33,-2.06541 z"
       id="path16"
       inkscape:connector-curvature="0" />
    <path
       style="fill:#060203"
       d="m 331.49056,212.61676 c -1.80968,-1.32327 -1.35514,-2.76484 10.4841,-33.25 6.80669,-17.52672 12.80205,-32.42926 13.32301,-33.11676 0.65991,-0.87086 4.38754,-1.25 12.28959,-1.25 9.81025,0 11.45774,0.23639 12.19641,1.75 0.46972,0.9625 0.48709,9.175 0.0386,18.25 -0.44848,9.075 -0.69767,16.85788 -0.55375,17.29528 0.14392,0.43741 6.34653,-7.66259 13.78357,-18 L 406.574,145.5 h 12.963 c 12.47732,0 12.97442,0.08 13.26768,2.1365 0.16757,1.17507 -5.18164,16.32622 -11.88714,33.66923 -9.93907,25.70627 -12.58222,31.63752 -14.30468,32.09985 -1.16207,0.31191 -5.28935,0.57326 -9.17173,0.58077 -7.9669,0.0154 -11.25196,-1.49274 -10.00179,-4.59174 3.09834,-7.6804 5.46904,-14.39461 5.08254,-14.39461 -0.25351,0 -2.76681,3.41717 -5.58511,7.59371 -7.6646,11.35844 -7.7362,11.40883 -16.18677,11.39098 -3.9875,-0.008 -7.88767,-0.41894 -8.66705,-0.91226 -1.10716,-0.7008 -1.38419,-3.48571 -1.26681,-12.73469 L 360.96637,188.5 356.44751,200 c -2.48537,6.325 -5.26381,12.0625 -6.17431,12.75 -2.32127,1.75274 -16.3394,1.6533 -18.78264,-0.13324 z m 25.11244,-20.18956 7.06194,-18.5728 -0.46649,18.61728 -0.46649,18.61727 7.80042,-0.29447 7.80043,-0.29448 11.88005,-16.96313 c 6.53404,-9.32972 12.12183,-17.20472 12.41732,-17.5 0.2955,-0.29528 -0.42003,1.89206 -1.59005,4.86075 C 396.42922,192.59682 390,209.75439 390,210.36024 390,210.71211 393.76075,211 398.35721,211 h 8.35721 l 12.14928,-31.25 c 6.68211,-17.1875 12.14636,-31.5875 12.14279,-32 -0.004,-0.4125 -4.96089,-0.75 -11.01628,-0.75 -9.25486,0 -11.24576,0.27894 -12.49024,1.75 -0.81424,0.9625 -8.28305,11.2 -16.59735,22.75 -13.60103,18.8942 -15.05976,20.59889 -14.54716,17 0.31335,-2.2 0.86635,-12.4375 1.22888,-22.75 L 378.24349,147 h -9.9993 c -6.80841,0 -10.31304,0.39889 -10.98248,1.25 C 356.14786,149.66614 333,208.65561 333,210.07799 333,210.5851 336.72174,211 341.27052,211 h 8.27053 z m 59.88756,20.18956 c -1.80968,-1.32327 -1.35514,-2.76484 10.4841,-33.25 6.80669,-17.52672 12.81489,-32.44474 13.35156,-33.15115 0.70373,-0.92633 3.65175,-1.20511 10.57477,-1 8.78144,0.26017 9.62383,0.4577 9.89036,2.31922 0.39864,2.78412 -23.39661,63.65532 -25.49336,65.21517 -2.35479,1.75182 -16.3652,1.65256 -18.80743,-0.13324 z M 446.65471,179.75 c 6.67898,-17.1875 11.93743,-31.5875 11.68543,-32 -0.79859,-1.30724 -15.00442,-0.86548 -16.07843,0.5 C 441.14786,149.66614 418,208.65561 418,210.07799 418,210.5851 421.715,211 426.25555,211 h 8.25556 z m -2.16602,32.86539 c -1.81231,-1.3252 -1.36395,-2.7521 10.44791,-33.25 6.78781,-17.52597 12.78401,-32.42789 13.32489,-33.11539 0.66209,-0.84159 4.05435,-1.25 10.38239,-1.25 11.16616,0 10.32889,-1.00329 13.3524,16 1.1247,6.325 2.28348,12.56931 2.57505,13.87624 0.39469,1.76908 1.63112,-0.78606 4.83903,-10 2.36988,-6.80693 5.02409,-14.06374 5.89823,-16.12624 l 1.58936,-3.75 h 9.51584 c 8.03931,0 9.66117,0.27154 10.45243,1.75003 0.70274,1.31309 -2.16855,9.73039 -11.50001,33.71273 -6.84012,17.57949 -12.98325,32.31008 -13.6514,32.73466 -2.03093,1.29056 -17.16596,0.93286 -18.931,-0.44742 -1.06129,-0.82994 -2.47503,-6.09999 -4.20699,-15.68253 -1.4347,-7.93789 -2.77236,-14.59634 -2.97258,-14.79657 -0.20023,-0.20022 -0.64741,0.76496 -0.99374,2.14484 -1.78939,7.12952 -9.17226,26.14602 -10.77179,27.74555 -1.47099,1.47099 -3.40037,1.83871 -9.64758,1.83871 -5.07361,0 -8.47214,-0.485 -9.70244,-1.38461 z M 466.7788,199.75 c 5.11751,-14.44027 9.19665,-27.38725 9.31068,-29.55162 0.0492,-0.93411 1.15218,4.82662 2.45103,12.80162 1.29884,7.975 2.96525,17.425 3.70312,21 l 1.34159,6.5 8.58395,0.28713 8.58396,0.28714 1.72384,-4.28714 C 508.86703,190.89534 525,148.76503 525,147.96955 525,147.42464 521.51163,147 517.03518,147 c -6.99433,0 -8.09789,0.24865 -9.05697,2.04071 -1.82649,3.41284 -9.92333,26.81388 -11.86747,34.29871 l -1.82641,7.0316 -1.19269,-8.43551 c -1.85339,-13.10842 -5.04018,-30.19947 -6.09452,-32.68551 -0.86714,-2.04462 -1.62961,-2.25 -8.35324,-2.25 -4.71261,0 -7.76655,0.45384 -8.41133,1.25 C 469.13336,149.60724 446,208.66772 446,210.11676 446,210.60254 449.77818,211 454.39595,211 h 8.39595 z m 42.71176,12.86676 c -1.80968,-1.32327 -1.35514,-2.76484 10.4841,-33.25 6.80669,-17.52672 12.81489,-32.44474 13.35156,-33.15115 0.70373,-0.92633 3.65175,-1.20511 10.57477,-1 8.78144,0.26017 9.62383,0.4577 9.89036,2.31922 0.39864,2.78412 -23.39661,63.65532 -25.49336,65.21517 -2.35479,1.75182 -16.3652,1.65256 -18.80743,-0.13324 z M 539.65471,179.75 c 6.67898,-17.1875 11.93743,-31.5875 11.68543,-32 -0.79859,-1.30724 -15.00442,-0.86548 -16.07843,0.5 C 534.14786,149.66614 511,208.65561 511,210.07799 511,210.5851 514.715,211 519.25555,211 h 8.25556 z M 47.3264,133.95562 C 38.703299,132.25058 33,127.67243 33,122.45555 c 0,-1.74203 2.430994,-9.64467 5.402209,-17.56144 L 43.804419,90.5 h 15.84779 c 18.979967,0 18.28421,-0.806217 12.371688,14.33583 -2.21971,5.68471 -3.781592,10.74721 -3.47085,11.25 0.791128,1.28007 20.843101,1.14643 23.706004,-0.158 3.161208,-1.44034 9.149739,-16.694242 7.394771,-18.83587 C 99.01922,96.317538 90.766533,88.992631 81.314519,80.814388 71.862504,72.636145 63.125004,64.320295 61.897852,62.334721 58.737868,57.22176 59.114588,52.162503 63.523696,40.5 c 4.847098,-12.821025 5.632815,-13.946533 11.82465,-16.938345 7.527903,-3.637382 15.549017,-4.545656 40.217994,-4.554101 29.00254,-0.0099 38.71375,1.911704 43.0417,8.51699 2.09607,3.19901 1.71274,4.986581 -4.65956,21.728997 -4.05608,10.656808 -5.62455,13.693124 -7.30662,14.144453 -3.7128,0.996205 -26.68445,0.649579 -28.7076,-0.433178 -2.64433,-1.415204 -2.50801,-2.351545 2.04232,-14.027687 2.18712,-5.612145 3.73556,-10.593876 3.44098,-11.070514 -0.83802,-1.355951 -20.57111,-1.01845 -23.27778,0.398127 -2.456052,1.285411 -7.158768,11.298738 -7.117544,15.155132 0.03189,2.983177 2.170903,5.220821 13.977764,14.622282 24.99032,19.899066 26.98244,21.979332 26.99341,28.187746 0.006,3.263558 -5.13599,17.861208 -9.70547,27.554198 -2.02041,4.2858 -8.31346,7.90263 -16.92437,9.727 -7.6196,1.61435 -52.442473,1.94622 -60.03717,0.44452 z m 62.7421,-3.5519 c 9.2629,-2.7223 11.05595,-4.76064 16.80849,-19.10795 C 129.69874,104.2581 132.0034,97.6 131.99846,96.5 131.98039,92.478685 128.14848,88.488756 111,74.635616 98.811117,64.789011 92.955635,59.385212 91.70633,56.830232 c -1.786965,-3.654561 -1.782244,-3.697901 1.263084,-11.594699 2.269784,-5.885745 3.709131,-8.223669 5.590723,-9.080979 3.001443,-1.367549 25.270703,-1.54742 27.366523,-0.221043 1.1828,0.748554 0.63962,2.925299 -3.17776,12.734687 L 118.14449,60.5 l 14.06612,0.278301 c 7.73637,0.153065 14.24946,0.09496 14.47354,-0.129116 0.22408,-0.224078 2.88484,-6.848652 5.91281,-14.721273 5.49467,-14.285991 5.50176,-14.318836 3.63968,-16.870885 C 155.2105,27.650662 152.59997,25.6 150.43547,24.5 146.74718,22.625618 144.52151,22.5 115,22.5 84.105418,22.5 83.400467,22.545021 78.321303,24.84247 75.47302,26.130829 72.412951,27.9912 71.521151,28.976629 69.29808,31.433094 62,50.841539 62,54.297087 c 0,5.96401 2.640481,8.886959 26.774997,29.639277 7.301248,6.278055 13.516843,12.378233 13.812433,13.555951 0.69991,2.788665 -5.059352,17.483775 -7.743378,19.757685 -1.732074,1.46742 -4.127131,1.75 -14.832391,1.75 -9.580577,0 -13.050108,-0.3414 -13.902072,-1.36795 -0.87403,-1.05314 -0.09674,-4.05511 3.377555,-13.04443 C 71.969215,98.165556 74,92.693779 74,92.428114 74,92.162449 67.630475,92.069942 59.8455,92.222543 L 45.691,92.5 40.283091,106.93328 c -5.848929,15.61032 -6.00416,17.72554 -1.530703,20.85774 5.31875,3.72406 8.261408,4.04974 37.316111,4.13003 23.396111,0.0647 29.551881,-0.21006 34.000001,-1.51733 z m 30.59738,3.4691 c -1.25819,-0.7315 -1.65717,-1.77139 -1.2706,-3.3116 1.69341,-6.74709 42.84127,-109.260711 44.27774,-110.31122 1.77872,-1.300811 25.65351,-1.805526 30.01996,-0.634624 1.76635,0.473661 2.49827,1.9303 3.76221,7.487429 2.2017,9.680145 8.48144,45.222759 9.22466,52.210589 l 0.61831,5.813395 7.22919,-21.813395 C 243.76605,35.436478 249.66743,20.341598 251.62023,19.592239 252.46907,19.266507 259.34076,19 266.89066,19 c 9.94719,0 14.23558,0.371824 15.57375,1.350321 1.74564,1.27644 0.6591,4.381409 -19.85879,56.75 C 250.66761,107.57014 240.16161,133.0625 239.25895,133.75 238.12524,134.61347 233.25222,135 223.5,135 c -9.78578,0 -14.60202,-0.38356 -15.69601,-1.25 -1.60459,-1.27085 -6.79015,-26.17598 -10.67089,-51.25 -1.02149,-6.6 -2.1234,-11.325 -2.44869,-10.5 -0.32528,0.825 -2.63129,7.8 -5.12445,15.5 -6.60853,20.41007 -16.2171,45.66678 -17.74088,46.63297 -1.94084,1.23065 -28.97739,1.00487 -31.1532,-0.26015 z M 176.10591,118.5 c 6.48106,-17.16137 17.68409,-51.334523 18.49828,-56.426185 0.93158,-5.825816 2.00312,-4.222931 2.77072,4.144641 0.76873,8.379998 4.48893,30.987276 8.43876,51.281544 l 2.72479,14 14.98077,0.25943 14.98077,0.25943 21,-53.623452 c 11.55,-29.492899 21.14785,-54.259375 21.32856,-55.036613 0.27386,-1.177878 -2.12163,-1.367012 -14.38776,-1.135978 L 251.72449,22.5 247.35607,34 C 240.93565,50.90192 232.42022,76.494784 230.02004,86.102884 228.86632,90.721298 227.65536,95.175 227.32903,96 227.00269,96.825 225.94589,91.425 224.98058,84 223.18561,70.193368 218.0738,40.849091 215.35596,28.75 L 213.83969,22 h -14.7392 -14.7392 l -16.184,41.25 c -8.9012,22.6875 -18.62219,47.44903 -21.60219,55.02562 l -5.4182,13.77563 15.01976,-0.27563 15.01975,-0.27562 z m 80.55997,15.37282 c -1.25819,-0.7315 -1.65717,-1.77139 -1.2706,-3.3116 C 257.08869,123.81413 298.23655,21.300509 299.67302,20.25 300.95509,19.312396 309.28407,19 333,19 c 37.41499,0 36.51685,-0.217984 33.60356,8.155801 -3.6206,10.406821 -2.19375,9.760514 -22.23405,10.071157 L 326.75494,37.5 321.37747,51.493111 C 318.41986,59.189322 316,65.601822 316,65.743111 316,65.8844 322.88899,66 331.30887,66 c 20.01982,0 20.11332,0.05892 16.04856,10.112463 L 344.37057,83.5 326.46918,84 l -17.90138,0.5 -6.20932,16 -6.20932,16 16.15127,0.27585 c 8.88321,0.15172 16.55715,0.68173 17.05321,1.17779 0.53592,0.53592 -0.20547,3.93826 -1.8269,8.38394 -2.01598,5.52748 -3.29021,7.63262 -4.87779,8.05856 -4.0238,1.07956 -64.0449,0.60353 -65.98307,-0.52332 z m 68.19534,-7.4618 C 326.03755,123.33707 327,120.41207 327,119.91102 327,119.39872 319.55968,119 310,119 c -9.35,0 -16.98635,-0.3375 -16.96967,-0.75 0.0167,-0.4125 3.09868,-8.625 6.84888,-18.25 l 6.81856,-17.5 17.71647,-0.27334 17.71646,-0.273341 2.43465,-5.505173 C 345.90441,73.420301 347,70.505804 347,69.971487 347,69.379865 340.16061,69 329.50859,69 h -17.4914 l 2.38274,-6.25 c 1.31051,-3.4375 4.26109,-11.077462 6.55686,-16.977694 L 325.1309,35.044611 343.17101,34.772306 361.21112,34.5 363.55979,28.25 365.90847,22 h -32.77359 -32.77359 l -16.184,41.25 c -8.9012,22.6875 -18.61766,47.4375 -21.59212,55 L 257.17704,132 h 32.7727 32.77269 z m 29.46518,7.5446 C 345.7033,132.25058 340,127.67243 340,122.45555 c 0,-1.74203 2.43099,-9.64467 5.40221,-17.56144 L 350.80442,90.5 h 15.84779 c 18.97997,0 18.28421,-0.806217 12.37169,14.33583 -2.21971,5.68471 -3.7816,10.74721 -3.47085,11.25 0.79112,1.28007 20.8431,1.14643 23.706,-0.158 3.16121,-1.44034 9.14974,-16.694242 7.39477,-18.83587 -0.6346,-0.774422 -8.88729,-8.099329 -18.3393,-16.277572 C 378.8625,72.636145 370.125,64.320295 368.89785,62.334721 365.73787,57.22176 366.11459,52.162503 370.5237,40.5 c 4.84709,-12.821025 5.63281,-13.946533 11.82465,-16.938345 7.5279,-3.637382 15.54901,-4.545656 40.21799,-4.554101 29.00254,-0.0099 38.71375,1.911704 43.0417,8.51699 2.09607,3.19901 1.71274,4.986581 -4.65956,21.728997 -4.05608,10.656808 -5.62455,13.693124 -7.30662,14.144453 -3.7128,0.996205 -26.68445,0.649579 -28.7076,-0.433178 -2.64433,-1.415204 -2.50801,-2.351545 2.04232,-14.027687 2.18712,-5.612145 3.73556,-10.593876 3.44098,-11.070514 -0.83802,-1.355951 -20.57111,-1.01845 -23.27778,0.398127 -2.45605,1.285411 -7.15877,11.298738 -7.11754,15.155132 0.0319,2.983177 2.1709,5.220821 13.97776,14.622282 24.99032,19.899066 26.98244,21.979332 26.99341,28.187746 0.006,3.263558 -5.13599,17.861208 -9.70547,27.554198 -2.02041,4.2858 -8.31346,7.90263 -16.92437,9.727 -7.6196,1.61435 -52.44247,1.94622 -60.03717,0.44452 z m 62.7421,-3.5519 c 9.2629,-2.7223 11.05595,-4.76064 16.80849,-19.10795 C 436.69874,104.2581 439.0034,97.6 438.99846,96.5 438.98039,92.478685 435.14848,88.488756 418,74.635616 405.81112,64.789011 399.95563,59.385212 398.70633,56.830232 c -1.78696,-3.654561 -1.78224,-3.697901 1.26308,-11.594699 2.26979,-5.885745 3.70913,-8.223669 5.59073,-9.080979 3.00144,-1.367549 25.2707,-1.54742 27.36652,-0.221043 1.1828,0.748554 0.63962,2.925299 -3.17776,12.734687 L 425.14449,60.5 l 14.06612,0.278301 c 7.73637,0.153065 14.24946,0.09496 14.47354,-0.129116 0.22408,-0.224078 2.88484,-6.848652 5.91281,-14.721273 5.49467,-14.285991 5.50176,-14.318836 3.63968,-16.870885 C 462.2105,27.650662 459.59997,25.6 457.43547,24.5 c -3.68829,-1.874382 -5.91396,-2 -35.43547,-2 -30.89458,0 -31.59953,0.04502 -36.6787,2.34247 -2.84828,1.288359 -5.90835,3.14873 -6.80015,4.134159 C 376.29808,31.433094 369,50.841539 369,54.297087 c 0,5.96401 2.64048,8.886959 26.775,29.639277 7.30125,6.278055 13.51684,12.378233 13.81243,13.555951 0.69991,2.788665 -5.05935,17.483775 -7.74338,19.757685 -1.73207,1.46742 -4.12713,1.75 -14.83239,1.75 -9.58058,0 -13.05011,-0.3414 -13.90207,-1.36795 -0.87403,-1.05314 -0.0967,-4.05511 3.37755,-13.04443 C 378.96921,98.165556 381,92.693779 381,92.428114 c 0,-0.265665 -6.36953,-0.358172 -14.1545,-0.205571 L 352.691,92.5 l -5.40791,14.43328 c -5.84893,15.61032 -6.00416,17.72554 -1.5307,20.85774 5.31875,3.72406 8.26141,4.04974 37.31611,4.13003 23.39611,0.0647 29.55188,-0.21006 34,-1.51733 z"
       id="path14"
       inkscape:connector-curvature="0" />
  </g>
</svg>
