<?xml version="1.0" encoding="UTF-8" standalone="no"?>
<!-- Created with Inkscape (http://www.inkscape.org/) -->

<svg
   xmlns:dc="http://purl.org/dc/elements/1.1/"
   xmlns:cc="http://creativecommons.org/ns#"
   xmlns:rdf="http://www.w3.org/1999/02/22-rdf-syntax-ns#"
   xmlns:svg="http://www.w3.org/2000/svg"
   xmlns="http://www.w3.org/2000/svg"
   xmlns:sodipodi="http://sodipodi.sourceforge.net/DTD/sodipodi-0.dtd"
   xmlns:inkscape="http://www.inkscape.org/namespaces/inkscape"
   version="1.1"
   id="svg2"
   width="864"
   height="216"
   viewBox="0 0 864 216"
   sodipodi:docname="plus.svg"
   inkscape:version="0.92.3 (2405546, 2018-03-11)">
  <metadata
     id="metadata8">
    <rdf:RDF>
      <cc:Work
         rdf:about="">
        <dc:format>image/svg+xml</dc:format>
        <dc:type
           rdf:resource="http://purl.org/dc/dcmitype/StillImage" />
        <dc:title></dc:title>
      </cc:Work>
    </rdf:RDF>
  </metadata>
  <defs
     id="defs6" />
  <sodipodi:namedview
     pagecolor="#ffffff"
     bordercolor="#666666"
     borderopacity="1"
     objecttolerance="10"
     gridtolerance="10"
     guidetolerance="10"
     inkscape:pageopacity="0"
     inkscape:pageshadow="2"
     inkscape:window-width="1920"
     inkscape:window-height="1018"
     id="namedview4"
     showgrid="false"
     inkscape:zoom="0.43981481"
     inkscape:cx="432"
     inkscape:cy="108"
     inkscape:window-x="-8"
     inkscape:window-y="-8"
     inkscape:window-maximized="1"
     inkscape:current-layer="svg2" />
  <g
     id="g12"
     transform="translate(-2.2736847,-2.2736842)">
    <path
       style="fill:#a6afd5"
       d="m 98.27066,188.03618 c -10.27434,-4.66401 -12.381829,-21.34133 -3.66413,-28.99557 4.527764,-3.97543 9.01247,-5.02846 21.44347,-5.03503 11.46316,-0.006 12.95,0.58629 12.95,5.15924 C 129,163.10646 126.54598,164 115.72073,164 104.54999,164 103,164.99595 103,172.17375 c 0,5.46718 1.84097,7.45737 7.77612,8.40644 3.8534,0.61618 4.22388,0.4888 4.22388,-1.45238 C 115,177.51999 114.38382,177 112.47856,177 c -3.26802,0 -5.2102,-3.76441 -3.54626,-6.87351 1.02914,-1.92295 1.98589,-2.12649 9.99589,-2.12649 7.15469,0 8.97454,0.30414 9.46482,1.58179 0.7884,2.05454 0.7884,16.78188 0,18.83642 -0.97138,2.53138 -24.35778,2.23478 -30.12235,-0.38203 z m 38.49191,0.39843 C 133.74241,186.79589 131,182.28253 131,178.95079 c 0,-3.85985 3.05265,-8.74789 6.4784,-10.37352 2.23385,-1.06003 6.17106,-1.57727 12.00606,-1.57727 6.50002,0 8.5781,-0.31418 8.26798,-1.25 -0.28416,-0.85751 -3.37177,-1.32815 -9.83333,-1.4989 C 134.36953,163.89305 134,163.75364 134,159 c 0,-5.03062 1.03511,-5.33009 16.7837,-4.85565 18.00687,0.54246 20.48053,2.89546 21.06734,20.03968 0.20332,5.94024 0.0864,11.92893 -0.25973,13.3082 L 170.9619,190 155.23095,189.96 c -11.95834,-0.0304 -16.38744,-0.39624 -18.46838,-1.52535 z M 158,179 c 0,-1.79487 -0.66667,-2 -6.5,-2 -4.75,0 -6.5,0.35897 -6.5,1.33333 0,2.2514 1.11604,2.66667 7.16667,2.66667 5.16666,0 5.83333,-0.22857 5.83333,-2 z m 18.66667,10.33333 C 176.3,188.96667 176,181.10024 176,171.85239 V 155.0381 l 2.3788,-0.59704 c 1.30833,-0.32837 11.17663,-0.44944 21.92955,-0.26905 17.90788,0.30043 19.78776,0.50203 22.3712,2.39907 5.30547,3.89586 6.37877,7.58751 6.08483,20.92892 l -0.26438,12 h -6 -6 L 216,177.71231 c -0.51816,-12.21591 -1.07184,-13.66044 -5.25,-13.697 -1.56538,-0.0137 -1.75,1.18925 -1.75,11.4029 0,6.28002 -0.27314,12.13002 -0.60699,13 C 207.94403,189.58825 206.39134,190 202.42819,190 195.46236,190 195,189.07043 195,175.06574 V 164 h -3 -3 v 11.41821 c 0,6.28002 -0.27314,12.13002 -0.60699,13 -0.44635,1.16319 -1.99008,1.58179 -5.83333,1.58179 -2.87449,0 -5.52635,-0.3 -5.89301,-0.66667 z m 63.60778,-1.42652 c -13.722,-6.7923 -11.38136,-28.72801 3.5066,-32.8628 2.04542,-0.56807 8.09062,-1.03537 13.43377,-1.03843 8.58456,-0.005 9.83525,0.21946 10.75,1.92868 C 271.05042,161.69977 268.06897,164 257.51036,164 248.94926,164 246,164.53987 246,166.10699 246,166.59814 250.73465,167 256.52144,167 c 10.25245,0 10.55056,0.0639 11.66051,2.5 0.85211,1.87016 0.85211,3.12984 0,5 -1.11078,2.4379 -1.40251,2.5 -11.74384,2.5 -7.91176,0 -10.5013,0.31043 -10.1973,1.22242 0.59999,1.79997 4.31113,2.56597 12.97401,2.6779 6.78889,0.0877 7.8514,0.3549 8.85288,2.22617 0.82611,1.54361 0.84163,2.7771 0.0566,4.5 -1.0451,2.29374 -1.46027,2.37348 -12.35288,2.37272 -9.42148,-6.6e-4 -11.96497,-0.34408 -15.49699,-2.0924 z m 32.15431,-0.33464 c -0.33514,-1.3353 -0.31772,-3.34666 0.0387,-4.46968 0.59901,-1.88731 1.57092,-2.06308 12.8403,-2.32217 C 295.35406,180.54934 297.5,180.23599 297.5,179 c 0,-1.19144 -1.95421,-1.60737 -9.5,-2.02198 -11.18959,-0.6148 -14.39069,-2.21229 -16.14126,-8.05518 -1.60708,-5.36393 0.42326,-10.53534 5.12566,-13.05547 2.89694,-1.55254 5.70714,-1.86737 16.66821,-1.86737 7.2511,0 13.89562,0.27314 14.7656,0.60699 2.18077,0.83684 2.18077,7.94918 0,8.78602 C 307.54823,163.72686 301.92323,164 295.91821,164 286.8798,164 285,164.25826 285,165.5 c 0,1.18283 1.42727,1.50504 6.75,1.52386 9.21212,0.0326 14.32614,1.38012 17,4.47955 4.18297,4.84874 2.33542,14.76975 -3.22206,17.3019 C 303.869,189.56118 297.4205,190 287.972,190 h -14.9339 z m 61.84569,0.33464 c -13.722,-6.7923 -11.38136,-28.72801 3.5066,-32.8628 2.04542,-0.56807 8.09062,-1.03537 13.43377,-1.03843 8.58456,-0.005 9.83525,0.21946 10.75,1.92868 C 365.05042,161.69977 362.06897,164 351.51036,164 342.94926,164 340,164.53987 340,166.10699 340,166.59814 344.73465,167 350.52144,167 c 10.25245,0 10.55056,0.0639 11.66051,2.5 0.85211,1.87016 0.85211,3.12984 0,5 -1.11078,2.4379 -1.40251,2.5 -11.74384,2.5 -7.91176,0 -10.5013,0.31043 -10.1973,1.22242 0.59999,1.79997 4.31113,2.56597 12.97401,2.6779 6.78889,0.0877 7.8514,0.3549 8.85288,2.22617 0.82611,1.54361 0.84163,2.7771 0.0566,4.5 -1.0451,2.29374 -1.46027,2.37348 -12.35288,2.37272 -9.42148,-6.6e-4 -11.96497,-0.34408 -15.49699,-2.0924 z m 44.15431,-0.33464 c -0.33514,-1.3353 -0.31772,-3.34666 0.0387,-4.46968 0.59901,-1.88731 1.57092,-2.06308 12.8403,-2.32217 C 401.35406,180.54934 403.5,180.23599 403.5,179 c 0,-1.19144 -1.95421,-1.60737 -9.5,-2.02198 -11.18959,-0.6148 -14.39069,-2.21229 -16.14126,-8.05518 -1.60708,-5.36393 0.42326,-10.53534 5.12566,-13.05547 2.89694,-1.55254 5.70714,-1.86737 16.66821,-1.86737 7.2511,0 13.89562,0.27314 14.7656,0.60699 2.18077,0.83684 2.18077,7.94918 0,8.78602 C 413.54823,163.72686 407.92323,164 401.91821,164 392.8798,164 391,164.25826 391,165.5 c 0,1.18283 1.42727,1.50504 6.75,1.52386 9.21212,0.0326 14.32614,1.38012 17,4.47955 4.18297,4.84874 2.33542,14.76975 -3.22206,17.3019 C 409.869,189.56118 403.4205,190 393.972,190 h -14.9339 z m 53.25504,0.97902 c -4.98311,-1.7772 -7.55201,-4.14907 -9.80307,-9.05119 -2.4598,-5.3567 -2.3458,-10.15397 0.36927,-15.53811 2.90213,-5.7551 8.32642,-8.81082 17.0936,-9.62952 15.40226,-1.43828 25.6564,5.58411 25.6564,17.57041 0,7.61964 -3.45789,12.95703 -10.5,16.20718 -4.84916,2.23803 -17.11313,2.4752 -22.8162,0.44123 z m 14.4512,-8.57202 c 4.28479,-1.19016 6.42808,-5.13901 5.37978,-9.91188 C 450.62861,166.03258 447.53406,164 442.27749,164 436.51594,164 434,166.53646 434,172.34501 c 0,5.38959 1.62803,7.12617 8,8.53341 0.275,0.0607 2.13575,-0.34393 4.135,-0.89925 z m 21.77462,7.85195 c -1.4967,-2.79661 -0.7194,-20.41874 1.05161,-23.84093 C 472.77027,156.62985 479.22506,154 493.4815,154 503.42943,154 505,154.70423 505,159.16482 505,163.03797 502.55038,164 492.68819,164 c -6.28521,0 -8.76149,0.3834 -9.68819,1.5 -1.09303,1.31702 0.0265,1.5 9.17756,1.5 11.24274,0 12.82244,0.61599 12.82244,5 0,4.40954 -1.5588,5 -13.2,5 H 481 v 4.91821 c 0,7.55172 -0.43103,8.08179 -6.57181,8.08179 -4.47343,0 -5.54942,-0.35801 -6.51857,-2.16888 z m 52.69737,0.58709 C 520.27314,187.54823 520,181.69823 520,175.41821 V 164 h -5.3 c -5.91018,0 -7.7,-1.16222 -7.7,-5 0,-4.71868 1.13776,-5 20.22144,-5 h 17.82144 l 1.13907,2.5 c 0.85211,1.87016 0.85211,3.12984 0,5 -1.01481,2.22728 -1.7414,2.5 -6.66051,2.5 H 534 v 11.06574 C 534,189.07043 533.53764,190 526.57181,190 c -3.96315,0 -5.51584,-0.41175 -5.96482,-1.58179 z m 40.58643,-0.12386 c -2.54495,-4.93995 -11.31943,-30.40469 -11.0199,-31.98127 0.26547,-1.39728 1.44955,-1.88371 5.16317,-2.12104 5.89497,-0.37675 7.08135,0.53657 9.26806,7.13492 0.9429,2.84517 2.38012,6.74804 3.19383,8.67304 l 1.47947,3.5 2.82866,-8.3586 c 1.55576,-4.59723 3.3483,-8.98473 3.98342,-9.75 0.7233,-0.87152 3.1554,-1.3914 6.50926,-1.3914 6.38638,0 7.1463,0.86089 10.44142,11.8287 1.21099,4.03078 2.54133,6.95578 2.95632,6.5 0.41498,-0.45579 1.95938,-4.50226 3.432,-8.99217 1.47261,-4.4899 3.3653,-8.4274 4.20596,-8.75 2.79136,-1.07114 9.10343,-0.60653 10.23185,0.75314 0.84419,1.01719 -0.29566,5.12328 -4.7352,17.05764 -3.21586,8.64488 -6.29429,16.16524 -6.84095,16.7119 -0.54666,0.54666 -3.83751,0.85822 -7.31299,0.69236 l -6.31906,-0.30157 -2.9127,-8.75 c -1.60199,-4.8125 -3.21786,-8.75 -3.59083,-8.75 -0.37297,0 -2.02297,3.9375 -3.66667,8.75 l -2.98854,8.75 -6.69108,0.29435 c -5.60975,0.24678 -6.84048,0.004 -7.6155,-1.5 z m 62.56915,0.14026 C 620.74241,186.79589 618,182.28253 618,178.95079 c 0,-3.85985 3.05265,-8.74789 6.4784,-10.37352 2.23385,-1.06003 6.17106,-1.57727 12.00606,-1.57727 6.50002,0 8.5781,-0.31418 8.26798,-1.25 -0.28416,-0.85751 -3.37177,-1.32815 -9.83333,-1.4989 C 621.36953,163.89305 621,163.75364 621,159 c 0,-5.03062 1.03511,-5.33009 16.7837,-4.85565 18.00687,0.54246 20.48053,2.89546 21.06734,20.03968 0.20332,5.94024 0.0864,11.92893 -0.25973,13.3082 L 657.9619,190 642.23095,189.96 c -11.95834,-0.0304 -16.38744,-0.39624 -18.46838,-1.52535 z M 645,179 c 0,-1.79487 -0.66667,-2 -6.5,-2 -4.75,0 -6.5,0.35897 -6.5,1.33333 0,2.2514 1.11604,2.66667 7.16667,2.66667 5.16666,0 5.83333,-0.22857 5.83333,-2 z m 17.66667,10.33333 C 662.3,188.96667 662,181.13981 662,171.94032 c 0,-14.32975 0.22664,-16.81331 1.58179,-17.33333 3.24748,-1.24618 27.40218,-0.64053 30.78243,0.77183 8.12108,3.3932 10.39524,13.40873 4.55499,20.06041 l -3.08079,3.50882 3.19092,4.44328 c 1.75501,2.4438 2.8898,4.93048 2.52177,5.52597 -0.36803,0.59548 -3.47153,1.0827 -6.89667,1.0827 h -6.22753 l -3.73285,-5 c -3.02117,-4.04674 -4.3011,-5 -6.71345,-5 C 675.25445,180 675,180.29181 675,183.41821 675,189.30945 674.32429,190 668.55968,190 c -2.87449,0 -5.52635,-0.3 -5.89301,-0.66667 z M 687.5,167 c 0,-2.36824 -0.32939,-2.51569 -6.25,-2.79772 L 675,163.90457 V 167 v 3.09543 l 6.25,-0.29771 c 5.92061,-0.28203 6.25,-0.42948 6.25,-2.79772 z m 26.77445,20.90681 c -13.722,-6.7923 -11.38136,-28.72801 3.5066,-32.8628 2.04542,-0.56807 8.09062,-1.03537 13.43377,-1.03843 8.58456,-0.005 9.83525,0.21946 10.75,1.92868 C 745.05042,161.69977 742.06897,164 731.51036,164 722.94926,164 720,164.53987 720,166.10699 720,166.59814 724.73465,167 730.52144,167 c 10.25245,0 10.55056,0.0639 11.66051,2.5 0.85211,1.87016 0.85211,3.12984 0,5 -1.11078,2.4379 -1.40251,2.5 -11.74384,2.5 -7.91176,0 -10.5013,0.31043 -10.1973,1.22242 0.59999,1.79997 4.31113,2.56597 12.97401,2.6779 6.78889,0.0877 7.8514,0.3549 8.85288,2.22617 0.82611,1.54361 0.84163,2.7771 0.0566,4.5 -1.0451,2.29374 -1.46027,2.37348 -12.35288,2.37272 -9.42148,-6.6e-4 -11.96497,-0.34408 -15.49699,-2.0924 z m 32.15431,-0.33464 c -0.33514,-1.3353 -0.31772,-3.34666 0.0387,-4.46968 0.59901,-1.88731 1.57092,-2.06308 12.8403,-2.32217 C 769.35406,180.54934 771.5,180.23599 771.5,179 c 0,-1.19144 -1.95421,-1.60737 -9.5,-2.02198 -11.18959,-0.6148 -14.39069,-2.21229 -16.14126,-8.05518 -1.60708,-5.36393 0.42326,-10.53534 5.12566,-13.05547 2.89694,-1.55254 5.70714,-1.86737 16.66821,-1.86737 7.2511,0 13.89562,0.27314 14.7656,0.60699 C 783.47518,155.01259 784,156.47013 784,159 c 0,2.52987 -0.52482,3.98741 -1.58179,4.39301 C 781.54823,163.72686 775.92323,164 769.91821,164 760.8798,164 759,164.25826 759,165.5 c 0,1.18283 1.42727,1.50504 6.75,1.52386 9.21212,0.0326 14.32614,1.38012 17,4.47955 4.18297,4.84874 2.33542,14.76975 -3.22206,17.3019 C 777.869,189.56118 771.4205,190 761.972,190 H 747.0381 Z M 53.985445,118.46172 C 52.697589,115.0744 52.6853,30.046192 53.972373,28.010462 c 0.788711,-1.247486 5.553703,-1.549704 29.322647,-1.859778 49.35372,-0.643838 61.16313,2.251129 69.16623,16.95545 2.27029,4.17127 2.98963,6.969189 3.33772,12.982184 0.61925,10.697174 -1.51868,16.761829 -8.29924,23.542387 C 139.4018,87.728638 133.87068,89.129907 107,89.891015 L 85.5,90.5 l -0.5,15 -0.5,15 -14.764555,0.27682 -14.764556,0.27681 z M 118.93695,66.132186 c 3.39193,-2.44118 4.56651,-6.508417 3.19835,-11.074945 C 120.38732,49.223016 118.0132,48.5 100.6037,48.5 H 85.5 l -0.289728,9.41643 c -0.159351,5.179036 0.134034,9.679036 0.651967,10 0.517932,0.320963 7.62331,0.445435 15.789731,0.276602 12.22635,-0.252767 15.27832,-0.616646 17.28498,-2.060846 z M 202.5,119.33928 c -8.86907,-1.89756 -19.42886,-7.41126 -24.10331,-12.58531 -14.68722,-16.256999 -14.68722,-49.250941 0,-65.507937 4.82994,-5.346164 15.35181,-10.715331 24.81115,-12.660794 11.31858,-2.327844 60.29216,-2.330607 61.18517,-0.0035 0.33385,0.870032 0.60699,5.112889 0.60699,9.42862 0,11.440199 0.98503,10.984761 -23.82143,11.014087 C 229.80536,49.037891 218.475,49.509992 216,50.073559 204.49094,52.694216 199.59266,59.814246 199.53962,74 c -0.0266,7.101575 0.37887,9.322365 2.4643,13.498555 C 206.93546,97.37426 212.56763,99 241.84922,99 c 14.80616,0 21.09455,0.343772 21.95078,1.2 1.62069,1.62069 1.62069,17.97931 0,19.6 -1.87184,1.87184 -52.16448,1.49385 -61.3,-0.46072 z m 130.5,0.0719 C 322.1476,116.51153 313.56891,108.90547 310.77722,99.70795 309.84848,96.648102 309.5,86.223397 309.5,61.5 v -34 h 15.5 15.5 l 0.5,32 c 0.36379,23.282441 0.84677,32.60671 1.77292,34.227082 2.5974,4.544373 4.0445,4.746628 37.72708,5.272918 l 32,0.5 v 10.5 10.5 l -37,0.19034 c -29.8476,0.15354 -38.06319,-0.0937 -42.5,-1.27919 z m 93.04934,-0.31896 C 424.4675,116.13649 424.61062,29.789376 426.2,28.2 c 1.8693,-1.869302 29.44074,-1.663839 30.50031,0.227289 0.43983,0.785009 0.57469,21.822509 0.29969,46.75 L 456.5,120.5 l -14.70066,0.27645 c -13.73207,0.25824 -14.7698,0.14726 -15.75,-1.68426 z m 45,0 C 470.36255,117.80892 470,101.94884 470,73.188186 c 0,-36.731631 0.23294,-44.13662 1.41939,-45.121288 1.04919,-0.870747 11.2864,-1.096112 39.25,-0.864063 37.26291,0.309218 37.92054,0.350008 43.82324,2.718175 8.16728,3.276718 16.49039,11.596176 19.09725,19.088867 C 575.32054,53.984194 575.5,57.600402 575.5,87.5 v 33 l -14.92385,0.27773 c -11.26889,0.20971 -15.12242,-0.0352 -15.73468,-1 C 544.3955,119.07498 544.02304,105.45 544.01376,89.5 543.99485,56.987867 543.70743,55.432024 537,51.534018 533.89006,49.726683 531.77259,49.5 518,49.5 H 502.5 L 502,85 l -0.5,35.5 -14.70066,0.27645 c -13.73207,0.25824 -14.7698,0.14726 -15.75,-1.68426 z M 613.5,118.12628 c -3.3,-0.95913 -7.05231,-2.31706 -8.33847,-3.01761 -4.47543,-2.4377 -10.33205,-8.51166 -12.6858,-13.15656 C 588.59412,94.292122 587.90336,86.764886 588.21289,55.5 L 588.5,26.5 H 604 619.5 L 620,57 c 0.43711,26.663726 0.72224,30.906654 2.26693,33.733073 3.16758,5.79596 6.40494,6.759095 22.73307,6.763243 L 659.5,97.5 660,62 l 0.5,-35.5 15.22445,-0.275908 c 15.11462,-0.273919 15.22843,-0.259492 15.77758,2 C 691.80626,29.475841 691.93026,50.525 691.77759,75 l -0.27759,44.5 -36,0.18508 c -31.63741,0.16266 -36.7271,-0.0262 -42,-1.5588 z m 91.51881,0.12372 c 0.0104,-0.9625 8.33535,-11.30664 18.5,-22.986976 C 733.68347,83.582687 742,73.561533 742,72.993794 742,72.426054 733.9,62.429652 724,50.779567 714.1,39.129482 706,28.788135 706,27.798797 706,26.138342 707.29399,26 722.82517,26 h 16.82517 l 10.74601,13.484974 c 5.9103,7.416736 11.14694,13.732764 11.63697,14.035617 0.49003,0.302854 6.12745,-5.776318 12.52761,-13.509271 l 11.63664,-14.059915 16.06893,0.274297 c 10.64437,0.1817 16.19329,0.648415 16.43729,1.382525 0.2026,0.609525 -7.98971,10.905492 -18.20512,22.879925 -16.40442,19.229142 -18.41245,21.960894 -17.19454,23.391773 0.75842,0.891041 9.32525,10.911826 19.03741,22.26841 C 812.05369,107.50492 820,117.51742 820,118.39833 820,119.80588 817.89019,120 802.59178,120 H 785.18357 L 774,106 c -6.15096,-7.7 -11.55096,-14 -12,-14 -0.44904,0 -5.84904,6.3 -12,14 l -11.18357,14 h -16.90821 c -15.44357,0 -16.90659,-0.15159 -16.88941,-1.75 z"
       id="path26"
       inkscape:connector-curvature="0" />
    <path
       style="fill:#999a9e"
       d="m 102.64596,188.89356 c -8.856059,-2.0808 -13.146158,-8.30164 -12.441677,-18.04099 0.452106,-6.2503 2.275218,-9.62624 7.177439,-13.29078 C 99.853199,155.71429 101.56171,155.5 113.81993,155.5 H 127.5 v 3.5 3.5 l -10.84199,0.5 c -9.87696,0.4555 -11.01182,0.71013 -12.75,2.86078 -2.80264,3.46772 -2.53844,9.5997 0.54654,12.68467 1.89691,1.89692 3.503,2.45455 7.06955,2.45455 4.2103,0 4.58698,-0.19675 4.29545,-2.24357 -0.22896,-1.60751 -1.17006,-2.38897 -3.31955,-2.75643 -3.32516,-0.56845 -4.59906,-3.97079 -2.45432,-6.55504 1.23433,-1.48728 13.09811,-2.09449 16.37253,-0.83797 2.33743,0.89695 2.33743,19.88907 0,20.78602 -2.34803,0.90102 -19.33027,0.54423 -23.77225,-0.49945 z m 36.66695,0.004 c -6.39719,-1.85086 -9.19959,-9.3484 -5.88791,-15.75249 2.06603,-3.99526 5.54393,-5.14503 15.56304,-5.14503 9.04299,0 11.20746,-0.85459 8.97561,-3.5438 C 157.04194,163.3456 154.1895,163 145.94494,163 c -9.93191,0 -10.86174,-0.16249 -11.44494,-2 -0.34913,-1.1 -0.3388,-2.93253 0.0229,-4.07229 0.63172,-1.99036 1.22679,-2.05955 15.05099,-1.75 l 14.39327,0.32229 3.2664,3.26639 3.2664,3.26639 0.33225,13.12376 c 0.25637,10.12644 0.028,13.31664 -1,13.96829 -1.77664,1.12625 -26.47686,0.94228 -30.51934,-0.22731 z M 158.81955,178.75 c -0.28797,-2.02768 -0.95178,-2.2798 -6.71798,-2.55157 -6.658,-0.3138 -8.78703,0.57291 -7.76574,3.23435 0.46791,1.21936 2.17753,1.56722 7.70234,1.56722 6.79194,0 7.08703,-0.0979 6.78138,-2.25 z M 177.2,188.8 c -1.26456,-1.26456 -1.77748,-29.13153 -0.59301,-32.21821 0.52539,-1.36915 3.2855,-1.58179 20.53212,-1.58179 29.43871,0 30.18995,0.49544 30.69314,20.24191 0.36774,14.43078 0.25382,14.71631 -5.88225,14.74278 -5.43826,0.0234 -5.95,-1.10852 -5.95,-13.16164 0,-10.22027 -0.12186,-10.85679 -2.3591,-12.32268 -1.2975,-0.85016 -3.0975,-1.26239 -4,-0.91607 C 208.2429,164.12077 208,166.03269 208,176.5 208,189.98216 207.992,190 201.61821,190 196.46972,190 196,188.81016 196,175.76862 196,162.95967 195.62776,162.12366 190.49776,163.41121 188.00242,164.0375 188,164.05012 188,176.41206 188,189.99123 187.99588,190 181.61821,190 179.8482,190 177.86,189.46 177.2,188.8 Z m 68.70509,0.26763 c -9.62099,-1.87975 -14.23571,-7.89163 -13.66856,-17.80686 0.38094,-6.65977 2.07705,-9.9111 7.1463,-13.69898 C 241.8304,155.7329 243.57428,155.5 254.82104,155.5 H 267.5 v 3.5 3.5 l -9.5,0.54565 c -10.14266,0.58256 -13,1.35813 -13,3.52859 0,1.04965 2.5689,1.42482 11.25,1.64301 L 267.5,168.5 v 3.5 3.5 l -11.25,0.28275 C 247.28549,176.00806 245,176.35643 245,177.49757 245,179.9726 248.58877,181 257.23426,181 266.04998,181 268,181.81509 268,185.5 c 0,3.69548 -1.93316,4.50667 -10.45,4.385 -4.4275,-0.0632 -9.66771,-0.43107 -11.64491,-0.81737 z m 28.34491,0.31661 c -1.84908,-0.81494 -1.58341,-7.04232 0.33179,-7.77725 C 275.45177,181.27314 281.07677,181 287.08179,181 297.12764,181 298,180.84875 298,179.10699 298,176.54391 296.13605,176 287.35247,176 276.53005,176 272.06484,172.99536 272.02224,165.68426 271.96946,156.62692 275.37438,155 294.38295,155 c 13.60402,0 14.52077,0.12129 15.11705,2 0.34913,1.1 0.35346,2.88636 0.01,3.96968 -0.57013,1.79632 -1.69832,1.99436 -12.81739,2.25 C 285.26011,163.48252 284.5,163.62469 284.5,165.5 c 0,1.82552 0.83333,2.04362 9.55226,2.5 11.0097,0.57629 14.14783,2.04621 15.93605,7.46458 1.51228,4.58225 -0.0712,9.68149 -3.78883,12.20129 -2.25084,1.52561 -5.02618,1.86622 -16.69948,2.04948 -7.7,0.12089 -14.5625,-0.0281 -15.25,-0.33111 z m 65.65509,-0.31661 c -9.62099,-1.87975 -14.23571,-7.89163 -13.66856,-17.80686 0.38094,-6.65977 2.07705,-9.9111 7.1463,-13.69898 C 335.8304,155.7329 337.57428,155.5 348.82104,155.5 H 361.5 v 3.5 3.5 l -9.5,0.54565 c -10.14266,0.58256 -13,1.35813 -13,3.52859 0,1.04965 2.5689,1.42482 11.25,1.64301 L 361.5,168.5 v 3.5 3.5 l -11.25,0.28275 C 341.28549,176.00806 339,176.35643 339,177.49757 339,179.9726 342.58877,181 351.23426,181 360.04998,181 362,181.81509 362,185.5 c 0,3.69548 -1.93316,4.50667 -10.45,4.385 -4.4275,-0.0632 -9.66771,-0.43107 -11.64491,-0.81737 z m 40.34491,0.31661 c -1.84908,-0.81494 -1.58341,-7.04232 0.33179,-7.77725 C 381.45177,181.27314 387.07677,181 393.08179,181 403.12764,181 404,180.84875 404,179.10699 404,176.54391 402.13605,176 393.35247,176 382.53005,176 378.06484,172.99536 378.02224,165.68426 377.96946,156.62692 381.37438,155 400.38295,155 c 13.60402,0 14.52077,0.12129 15.11705,2 0.34913,1.1 0.35346,2.88636 0.01,3.96968 -0.57013,1.79632 -1.69832,1.99436 -12.81739,2.25 C 391.26011,163.48252 390.5,163.62469 390.5,165.5 c 0,1.82552 0.83333,2.04362 9.55226,2.5 11.0097,0.57629 14.14783,2.04621 15.93605,7.46458 1.51228,4.58225 -0.0712,9.68149 -3.78883,12.20129 -2.25084,1.52561 -5.02618,1.86622 -16.69948,2.04948 -7.7,0.12089 -14.5625,-0.0281 -15.25,-0.33111 z m 54.75151,-0.43394 c -5.29675,-1.09603 -8.62575,-3.3574 -11.83911,-8.04225 -1.97942,-2.88584 -2.27872,-4.36408 -1.9533,-9.64728 0.43389,-7.04413 2.44596,-10.55092 7.89543,-13.76077 2.7848,-1.6403 5.19396,-2 13.39547,-2 11.35129,0 15.23917,1.50532 19.2466,7.45195 2.91127,4.32003 3.09661,13.0064 0.38541,18.06365 -3.50889,6.54521 -16.07901,10.22152 -27.1305,7.9347 z m 14.36363,-10.02288 C 451.46528,177.27545 452,176.00149 452,172.64993 c 0,-5.36822 -2.1437,-8.39866 -6.52217,-9.22007 C 438.01314,162.02948 433,165.49091 433,172.04545 c 0,5.71528 3.37136,8.95455 9.31969,8.95455 2.94788,0 5.28441,-0.68734 7.04545,-2.07258 z m 19.64621,9.58626 c -0.86747,-1.04524 -1.12222,-4.73859 -0.85843,-12.44544 0.4338,-12.67397 1.57473,-15.08807 8.90562,-18.84347 3.95456,-2.0258 5.64735,-2.24505 15.44146,-2 l 11,0.27523 v 3.5 3.5 l -9.71889,0.5 c -7.3635,0.37882 -10.13298,0.91521 -11.42754,2.21326 -2.34846,2.35479 -1.09074,2.69566 11.14643,3.02093 l 10,0.26581 v 3.5 3.5 l -11.5,0.5 -11.5,0.5 -0.30665,5.97599 c -0.16865,3.2868 -0.84365,6.31741 -1.5,6.73469 -2.06435,1.31245 -8.39237,0.8569 -9.682,-0.697 z m 53.27112,0.68206 c -0.82354,-0.52329 -1.30893,-4.80596 -1.5,-13.23469 L 520.5,163.5 l -6,-0.5 -6,-0.5 v -3.5 -3.5 h 18.5 18.5 v 3.5 3.5 l -6,0.5 -6,0.5 -0.28336,11.93773 c -0.15909,6.70254 -0.76097,12.51322 -1.37244,13.25 -1.18024,1.4221 -7.58743,1.76251 -9.56173,0.50801 z M 562.83966,188.75 c -1.8719,-1.51685 -13.10848,-31.50603 -12.29693,-32.81914 0.85885,-1.38964 10.06032,-1.12701 11.1814,0.31914 0.53296,0.6875 2.24095,4.9625 3.79552,9.5 1.55458,4.5375 3.16167,8.25 3.57131,8.25 0.40964,0 1.96683,-3.7125 3.46042,-8.25 1.49359,-4.5375 3.16065,-8.8125 3.70456,-9.5 0.56645,-0.71597 3.23408,-1.25 6.24406,-1.25 2.99096,0 5.69656,0.53856 6.27972,1.25 0.56354,0.6875 2.10684,4.82107 3.42956,9.1857 1.32272,4.36464 2.85085,8.08434 3.39584,8.26601 0.545,0.18166 2.02646,-2.9394 3.29213,-6.93571 3.3703,-10.64157 4.28456,-11.766 9.56679,-11.766 2.42986,0 4.69955,0.45568 5.04376,1.01263 0.88843,1.43749 -10.25109,31.22891 -12.24106,32.73737 -1.71059,1.29669 -7.96425,1.68704 -10.63127,0.66361 -0.84673,-0.32492 -2.92649,-4.78386 -4.66425,-10 C 584.24634,174.23613 582.51493,170 582.12365,170 c -0.39128,0 -1.95503,3.81872 -3.47501,8.48605 -1.51998,4.66733 -3.44488,9.16733 -4.27755,10 -1.84369,1.84369 -9.36933,2.01595 -11.53143,0.26395 z m 63.47325,0.14752 c -6.39719,-1.85086 -9.19959,-9.3484 -5.88791,-15.75249 2.06603,-3.99526 5.54393,-5.14503 15.56304,-5.14503 9.04299,0 11.20746,-0.85459 8.97561,-3.5438 C 644.04194,163.3456 641.1895,163 632.94494,163 c -9.93191,0 -10.86174,-0.16249 -11.44494,-2 -0.34913,-1.1 -0.3388,-2.93253 0.0229,-4.07229 0.63172,-1.99036 1.22679,-2.05955 15.05099,-1.75 l 14.39327,0.32229 3.2664,3.26639 3.2664,3.26639 0.33225,13.12376 c 0.25637,10.12644 0.028,13.31664 -1,13.96829 -1.77664,1.12625 -26.47686,0.94228 -30.51934,-0.22731 z M 645.81955,178.75 c -0.28797,-2.02768 -0.95178,-2.2798 -6.71798,-2.55157 -6.658,-0.3138 -8.78703,0.57291 -7.76574,3.23435 0.46791,1.21936 2.17753,1.56722 7.70234,1.56722 6.79194,0 7.08703,-0.0979 6.78138,-2.25 z M 663.2,188.8 c -1.4017,-1.4017 -1.69649,-30.46863 -0.33085,-32.62252 0.65155,-1.02763 4.30994,-1.25061 16.4071,-1 14.83248,0.30727 15.68907,0.43585 18.11714,2.71957 5.53973,5.21038 5.52018,12.4524 -0.0493,18.26569 l -2.60543,2.71948 3.23016,4.07842 c 4.20745,5.31233 3.53367,7.03936 -2.74631,7.03936 -5.40073,0 -6.44757,-0.63732 -11.17588,-6.80391 -2.81259,-3.66813 -3.76145,-4.25901 -6.42335,-4 -2.93217,0.28531 -3.14279,0.57826 -3.44219,4.78748 -0.1754,2.46597 -0.8504,4.82158 -1.5,5.23469 -1.86078,1.18336 -8.15724,0.90559 -9.48109,-0.41826 z m 25.19091,-20.05 c 0.79904,-1.27253 0.79768,-2.22747 -0.005,-3.5 -0.86353,-1.36897 -2.4954,-1.75 -7.49489,-1.75 -5.92589,0 -6.41496,0.16904 -6.72009,2.32273 -0.64985,4.58674 0.3422,5.29569 6.96216,4.97532 4.55576,-0.22047 6.44501,-0.75358 7.25783,-2.04805 z m 31.51418,20.31763 c -9.62099,-1.87975 -14.23571,-7.89163 -13.66856,-17.80686 0.38094,-6.65977 2.07705,-9.9111 7.1463,-13.69898 C 715.8304,155.7329 717.57428,155.5 728.82104,155.5 H 741.5 v 3.5 3.5 l -9.5,0.54565 c -10.14266,0.58256 -13,1.35813 -13,3.52859 0,1.04965 2.5689,1.42482 11.25,1.64301 L 741.5,168.5 v 3.5 3.5 l -11.25,0.28275 C 721.28549,176.00806 719,176.35643 719,177.49757 719,179.9726 722.58877,181 731.23426,181 740.04998,181 742,181.81509 742,185.5 c 0,3.69548 -1.93316,4.50667 -10.45,4.385 -4.4275,-0.0632 -9.66771,-0.43107 -11.64491,-0.81737 z m 28.34491,0.31661 c -1.84908,-0.81494 -1.58341,-7.04232 0.33179,-7.77725 C 749.45177,181.27314 755.07677,181 761.08179,181 771.12764,181 772,180.84875 772,179.10699 772,176.54391 770.13605,176 761.35247,176 750.53005,176 746.06484,172.99536 746.02224,165.68426 745.96946,156.62692 749.37438,155 768.38295,155 c 13.60402,0 14.52077,0.12129 15.11705,2 0.34913,1.1 0.35346,2.88636 0.01,3.96968 -0.57013,1.79632 -1.69832,1.99436 -12.81739,2.25 C 759.26011,163.48252 758.5,163.62469 758.5,165.5 c 0,1.82552 0.83333,2.04362 9.55226,2.5 11.0097,0.57629 14.14783,2.04621 15.93605,7.46458 1.51228,4.58225 -0.0712,9.68149 -3.78883,12.20129 -2.25084,1.52561 -5.02618,1.86622 -16.69948,2.04948 -7.7,0.12089 -14.5625,-0.0281 -15.25,-0.33111 z M 54.61725,118.44495 C 54.277763,117.56026 54,97.099787 54,72.97723 c 0,-33.989215 0.281297,-44.041256 1.25,-44.668213 2.035902,-1.317664 60.08022,-1.584286 69.69304,-0.32013 13.95093,1.834647 22.22032,6.7875 27.34282,16.37666 1.83222,3.429864 2.20908,5.753433 2.21138,13.634453 0.003,8.760226 -0.2374,9.92829 -3.08138,15 -2.00823,3.581317 -4.74638,6.630514 -7.84905,8.740675 -8.14291,5.53809 -12.74478,6.422597 -37.06681,7.124465 l -22,0.63486 -0.5,15 -0.5,15 -14.13275,0.27674 c -12.22816,0.23945 -14.215932,0.06 -14.75,-1.33179 z M 118.5,67.135056 c 1.87779,-1.082629 3.51459,-3.208225 4.37564,-5.682345 1.19952,-3.446642 1.17212,-4.437434 -0.21401,-7.7387 -2.4726,-5.888868 -5.84045,-6.821307 -23.443062,-6.490564 L 84.5,47.5 84.212553,57.352416 c -0.158096,5.418828 0.140083,10.368828 0.66262,11 0.659387,0.796471 5.489693,1.050395 15.787447,0.829929 11.82329,-0.253126 15.44681,-0.669016 17.83738,-2.047289 z m 86.84669,51.770184 c -19.65016,-3.28293 -32.05475,-14.6018 -35.90374,-32.761259 -4.8914,-23.07753 3.65275,-44.709658 20.80404,-52.671809 10.37262,-4.815285 16.90768,-5.557423 46.25301,-5.252617 l 27,0.280445 0.28866,8.139908 C 264.20886,48.488777 265.22765,48 240.11007,48 212.24266,48 206.28249,49.873224 200.73316,60.375791 197.60662,66.293009 197.57633,81.660246 200.67969,87.5 206.2136,97.913459 210.22616,99.180695 240,99.918032 l 23.5,0.581968 0.29862,7.48822 c 0.16424,4.11853 0.0432,8.50603 -0.26905,9.75 L 262.9619,120 236.73095,119.8831 c -14.42702,-0.0643 -28.54994,-0.50434 -31.38426,-0.97786 z M 333,118.41122 C 321.26002,115.2743 313.25417,107.36939 311.05208,96.740036 310.36832,93.439564 310.06523,79.840484 310.23325,60 L 310.5,28.5 325.25,28.223267 340,27.946534 l 0.0147,31.276733 c 0.0159,33.628812 0.11195,34.320273 5.30632,38.180334 2.68809,1.997584 4.31428,2.119967 34.5,2.596399 l 31.67894,0.5 v 9.5 9.5 l -36.5,0.19041 c -29.40956,0.15343 -37.56842,-0.0951 -42,-1.27919 z M 426.45781,118.75 C 426.19413,118.0625 426.09576,97.475 426.2392,73 L 426.5,28.5 h 15 c 13.65079,0 14.9925,0.157407 14.91667,1.75 -0.0458,0.9625 -0.15834,21.55 -0.25,45.75 L 456,120 h -14.53138 c -10.70276,0 -14.6577,-0.32934 -15.01081,-1.25 z m 45,0 C 471.19413,118.0625 471.09576,97.475 471.2392,73 L 471.5,28.5 h 39 39 l 6.12611,2.830967 c 7.5908,3.507819 12.43397,8.380336 16.07163,16.169033 l 2.80226,6 v 33 33 H 560 545.5 L 545,89 C 544.47945,57.246482 544.37027,56.471545 539.84182,52.388523 535.91863,48.851227 531.38291,48 516.45777,48 c -12.06599,0 -14.3366,0.241848 -14.85078,1.581787 -0.33385,0.869984 -0.60699,17.069984 -0.60699,36 V 120 h -14.53138 c -10.70276,0 -14.6577,-0.32934 -15.01081,-1.25 z M 615.5,117.60519 c -11.39177,-2.81956 -18.04739,-7.91036 -22.70486,-17.36668 L 589.5,93.548219 V 60.524109 27.5 l 14.69651,-0.276427 14.69652,-0.276426 0.30348,30.955154 c 0.28867,29.443501 0.40431,31.092928 2.36802,33.776427 3.86032,5.27528 8.51726,6.711709 23.19317,7.153911 9.57956,0.288643 13.67172,0.05587 14.75,-0.839029 C 660.77844,96.938986 661,91.589342 661,61.960889 661,40.130806 661.36515,27.042468 661.98003,26.833333 662.51905,26.65 669.15655,26.725 676.73003,27 L 690.5,27.5 V 73 118.5 l -35,0.17137 c -24.97335,0.12227 -36.43238,-0.18316 -40,-1.06618 z m 90.50811,0.14481 c 0.004,-0.6875 8.32945,-10.8156 18.5,-22.506893 C 734.67865,83.551815 743,73.490834 743,72.885371 743,71.846242 735.26948,62.42476 715.60661,39.5 710.88918,34 707.02284,28.9375 707.01474,28.25 c -0.0112,-0.950668 3.87658,-1.242049 16.23526,-1.216796 l 16.25,0.0332 11,13.963613 c 6.05,7.679987 11.50674,13.852545 12.12608,13.716796 0.61934,-0.13575 6.15313,-6.434317 12.29731,-13.996817 L 786.09461,27 h 15.9527 C 810.9998,27 818,27.400546 818,27.9128 c 0,0.502041 -3.7125,5.152221 -8.25,10.333734 -10.14057,11.579833 -27.16325,31.835754 -28.08608,33.420663 -0.39944,0.686028 7.15623,10.301031 18.32824,23.323662 C 810.44647,107.17692 819,117.56418 819,118.07366 c 0,0.5319 -7.13222,0.92293 -16.75,0.91834 l -16.75,-0.008 -11,-13.94616 C 768.45,97.36746 762.825,91.091332 762,91.090892 761.175,91.090451 756.27748,96.449395 751.11662,102.99966 737.00719,120.9076 740.48319,119 721.96104,119 c -12.10649,0 -15.95908,-0.30187 -15.95293,-1.25 z"
       id="path24"
       inkscape:connector-curvature="0" />
    <path
       style="fill:#7683bd"
       d="m 100.74052,187.58674 c -7.742685,-2.79595 -10.115931,-6.9371 -9.564843,-16.69 0.312649,-5.53312 0.844192,-7.29168 2.85426,-9.44306 C 98.513424,156.655 100.96597,156 114.45034,156 H 127 v 3 3 h -8.53212 c -13.65297,0 -18.45054,3.35373 -17.08071,11.94022 0.85011,5.32876 3.64878,7.46498 9.84706,7.51623 4.95628,0.041 5.26577,-0.10281 5.26577,-2.44663 0,-1.98472 -0.60894,-2.59566 -3,-3.00982 -2.54862,-0.44146 -3,-0.96954 -3,-3.50982 V 169.5 h 8 8 v 9.5 9.5 l -11,0.22216 c -7.27459,0.14692 -12.27324,-0.23762 -14.75948,-1.13542 z m 37.58822,-0.0305 C 134.4513,185.85246 133,183.32828 133,178.28825 c 0,-7.71243 4.52948,-10.27277 18.19098,-10.28267 4.23004,-0.003 7.92813,-0.38929 8.21797,-0.85826 0.28984,-0.46897 -0.0958,-1.70647 -0.85699,-2.75 C 157.38553,162.79824 155.46501,162.42141 146.33399,162 135.57773,161.50359 135.5,161.48206 135.5,159 v -2.5 l 13.82132,-0.27868 13.82131,-0.27869 3.45908,3.45908 3.45908,3.45908 -0.28039,12.81961 -0.2804,12.8196 -14,0.22488 c -10.20205,0.16387 -14.86031,-0.15316 -17.17126,-1.16862 z m 21.36179,-7.19218 c 1.23987,-3.23104 -1.08991,-4.849 -7.42837,-5.15878 -7.00787,-0.3425 -10.04899,1.45597 -8.22499,4.86415 0.86966,1.62499 2.14054,1.93055 8.0294,1.93055 5.5547,0 7.12554,-0.33707 7.62396,-1.63592 z m 17.77241,7.39993 c -0.28532,-0.74353 -0.39371,-8.08211 -0.24085,-16.30794 L 177.5,156.5 198,156.2539 c 22.01001,-0.26423 23.66245,0.03 27.23995,4.85023 1.49127,2.00931 2.05892,4.89399 2.48515,12.6291 0.30382,5.51374 0.25035,11.22844 -0.11882,12.69934 -0.62411,2.48667 -1.00231,2.65306 -5.38875,2.3709 L 217.5,188.5 217.21403,177.53899 C 216.89646,165.36687 215.86272,163 210.86406,163 c -3.50358,0 -3.78784,1.03573 -4.11675,15 L 206.5,188.5 H 202 197.5 L 197,176 l -0.5,-12.5 -4.21692,-0.30588 c -5.1164,-0.37113 -5.18246,-0.19446 -5.53577,14.80588 l -0.24731,10.5 -4.25915,0.30794 c -2.88538,0.20862 -4.42647,-0.12809 -4.77791,-1.04393 z m 66.32842,0.26424 c -4.26385,-1.31154 -8.41479,-4.70492 -9.77643,-7.99221 -0.74411,-1.79643 -1.08243,-5.63505 -0.83673,-9.49364 0.32694,-5.1345 0.92149,-7.02963 2.86714,-9.13897 C 240.07285,157.03707 243.89653,156 255.96788,156 H 267 v 3 3 h -7.85078 c -8.64134,0 -13.6611,1.2856 -14.60291,3.73993 -0.99732,2.59897 1.37064,3.22857 12.20369,3.24476 L 267,169 v 3 3 h -9.91821 C 246.481,175 244,175.4712 244,177.48454 c 0,2.81862 3.43991,4.02239 12.90341,4.51546 l 9.59659,0.5 v 3 3 l -10,0.18071 c -5.5,0.0994 -11.21889,-0.19422 -12.70864,-0.65246 z m 30.59268,-0.46984 c -0.30425,-0.79287 -0.39762,-2.25537 -0.20749,-3.25 0.30402,-1.59042 1.79088,-1.86868 12.33457,-2.30841 11.98814,-0.49997 11.98888,-0.50015 11.98888,-3 0,-2.3012 -0.39761,-2.51917 -5,-2.74102 C 276.45662,175.43741 273,173.62328 273,165.5 c 0,-3.55411 0.56023,-5.15114 2.4807,-7.0716 2.45184,-2.45185 2.65828,-2.47749 17.75,-2.20455 L 308.5,156.5 v 2.5 c 0,2.48346 -0.0661,2.50164 -10,2.74808 -11.741,0.29126 -14.08159,0.71917 -14.84721,2.71435 -1.22643,3.19602 2.10967,4.53757 11.28378,4.53757 7.34168,0 9.22265,0.3374 11.39139,2.04333 5.42728,4.2691 4.27562,13.97088 -1.96811,16.57968 -4.78417,1.99895 -29.20414,1.94633 -29.97581,-0.0646 z m 63.40732,0.46984 c -4.26385,-1.31154 -8.41479,-4.70492 -9.77643,-7.99221 -0.74411,-1.79643 -1.08243,-5.63505 -0.83673,-9.49364 0.32694,-5.1345 0.92149,-7.02963 2.86714,-9.13897 C 334.07285,157.03707 337.89653,156 349.96788,156 H 361 v 3 3 h -7.85078 c -8.64134,0 -13.6611,1.2856 -14.60291,3.73993 -0.99732,2.59897 1.37064,3.22857 12.20369,3.24476 L 361,169 v 3 3 h -9.91821 C 340.481,175 338,175.4712 338,177.48454 c 0,2.81862 3.43991,4.02239 12.90341,4.51546 l 9.59659,0.5 v 3 3 l -10,0.18071 c -5.5,0.0994 -11.21889,-0.19422 -12.70864,-0.65246 z m 42.59268,-0.46984 c -0.30425,-0.79287 -0.39762,-2.25537 -0.20749,-3.25 0.30402,-1.59042 1.79088,-1.86868 12.33457,-2.30841 11.98814,-0.49997 11.98888,-0.50015 11.98888,-3 0,-2.3012 -0.39761,-2.51917 -5,-2.74102 C 382.45662,175.43741 379,173.62328 379,165.5 c 0,-3.55411 0.56023,-5.15114 2.4807,-7.0716 2.45184,-2.45185 2.65828,-2.47749 17.75,-2.20455 L 414.5,156.5 v 2.5 c 0,2.48346 -0.0661,2.50164 -10,2.74808 -11.741,0.29126 -14.08159,0.71917 -14.84721,2.71435 -1.22643,3.19602 2.10967,4.53757 11.28378,4.53757 7.34168,0 9.22265,0.3374 11.39139,2.04333 5.42728,4.2691 4.27562,13.97088 -1.96811,16.57968 -4.78417,1.99895 -29.20414,1.94633 -29.97581,-0.0646 z M 434.5,188.12987 c -4.17885,-1.09008 -6.59956,-2.51815 -9.47006,-5.58675 -2.01737,-2.15658 -2.53113,-3.86868 -2.80324,-9.34182 -0.42074,-8.46226 1.74179,-12.41513 8.40436,-15.3623 6.37061,-2.81802 21.82297,-2.38822 25.98622,0.72279 5.19946,3.88533 6.85038,7.0822 6.83699,13.23922 -0.0237,10.88472 -6.0895,16.26538 -18.95427,16.8133 -3.85,0.16397 -8.35,-0.054 -10,-0.48444 z m 16.217,-9.58726 c 2.69365,-3.13155 3.05356,-8.99747 0.75352,-12.28124 -2.11693,-3.02234 -7.91644,-4.48766 -12.68231,-3.20434 -7.99023,2.15154 -9.15417,13.81051 -1.7685,17.71467 3.9358,2.08051 10.97581,0.93482 13.69729,-2.22909 z m 18.68171,9.05404 c -0.32064,-0.83559 -0.42902,-6.23015 -0.24085,-11.98792 0.28331,-8.66851 0.69828,-10.9536 2.41322,-13.2887 3.7286,-5.07693 7.68815,-6.31675 20.17892,-6.31848 L 503,156 v 2.88072 2.88072 l -9.51928,0.41634 c -8.20214,0.35874 -9.82794,0.72571 -11.75,2.6522 -3.29821,3.30581 -1.09472,4.13661 11.01928,4.15471 L 503,169 v 3 3 l -10.25,0.0153 c -5.6375,0.008 -10.91795,0.43765 -11.73434,0.95385 -0.91457,0.57828 -1.68227,3.16336 -2,6.73468 L 478.5,188.5 l -4.25915,0.30794 c -3.09424,0.22372 -4.4186,-0.10758 -4.84214,-1.21129 z m 53.31501,0.78374 C 522.32117,187.98784 522,182.59881 522,176.40476 522,163.04286 521.41565,162 513.92857,162 509.11905,162 509,161.92754 509,159 v -3 h 18 18 v 3 c 0,2.96142 -0.0692,3 -5.37756,3 -3.21818,0 -5.81488,0.52694 -6.46664,1.31227 -0.61147,0.73678 -1.21335,6.54746 -1.37244,13.25 L 531.5,188.5 l -4.03628,0.29705 c -2.21995,0.16338 -4.35745,-0.0241 -4.75,-0.41666 z m 39.90579,-0.18702 c -0.83173,-1.34576 -11.60557,-30.56537 -11.61305,-31.49563 -0.004,-0.44124 2.35604,-0.66624 5.24354,-0.5 l 5.25,0.30226 3.01408,8.71408 c 1.65775,4.79275 3.51059,9.21059 4.11743,9.81743 0.80446,0.80446 2.01965,-1.55611 4.48592,-8.71408 L 576.5,156.5 h 6 6 l 3.00461,9.32794 c 1.65253,5.13036 3.45253,9.34092 4,9.35678 0.54746,0.0159 2.57039,-4.1817 4.49539,-9.32793 l 3.5,-9.35679 4.75,-0.30479 c 2.87019,-0.18417 4.75,0.11459 4.75,0.75492 0,1.30308 -9.51552,27.27609 -11.02892,30.10392 -0.93484,1.74675 -1.90424,1.99901 -6.70213,1.74404 l -5.6092,-0.29809 -3.14334,-9.43782 c -1.72884,-5.1908 -3.61164,-9.59392 -4.184,-9.78471 -0.57236,-0.19079 -2.58757,4.05623 -4.47825,9.43782 l -3.43758,9.78471 -5.62006,0.29727 c -3.09103,0.1635 -5.87069,-0.10826 -6.17701,-0.6039 z m 62.70923,-0.63711 C 621.4513,185.85246 620,183.32828 620,178.28825 c 0,-7.71243 4.52948,-10.27277 18.19098,-10.28267 4.23004,-0.003 7.92813,-0.38929 8.21797,-0.85826 0.28984,-0.46897 -0.0958,-1.70647 -0.85699,-2.75 C 644.38553,162.79824 642.46501,162.42141 633.33399,162 622.57773,161.50359 622.5,161.48206 622.5,159 v -2.5 l 13.82132,-0.27868 13.82131,-0.27869 3.45908,3.45908 3.45908,3.45908 -0.28039,12.81961 -0.2804,12.8196 -14,0.22488 c -10.20205,0.16387 -14.86031,-0.15316 -17.17126,-1.16862 z m 21.36179,-7.19218 c 1.23987,-3.23104 -1.08991,-4.849 -7.42837,-5.15878 -7.00787,-0.3425 -10.04899,1.45597 -8.22499,4.86415 0.86966,1.62499 2.14054,1.93055 8.0294,1.93055 5.5547,0 7.12554,-0.33707 7.62396,-1.63592 z m 16.77241,7.39993 c -0.28532,-0.74353 -0.39371,-8.08211 -0.24085,-16.30794 L 663.5,156.5 l 15.20534,-0.27581 15.20534,-0.2758 3.29466,2.94378 c 2.8988,2.59008 3.29466,3.54771 3.29466,7.97026 0,4.31965 -0.45846,5.4995 -3.26022,8.39018 l -3.26022,3.3637 2.9824,3.94184 c 4.27862,5.65506 3.98379,6.44185 -2.41392,6.44185 -5.33354,0 -5.51899,-0.0974 -8.53772,-4.48501 -5.97483,-8.68411 -11.79854,-8.84172 -12.9318,-0.34999 -0.57139,4.28158 -0.631,4.33879 -4.83767,4.64294 -2.88538,0.20862 -4.42647,-0.12809 -4.77791,-1.04393 z M 688,170 c 1.1,-1.1 2,-2.45 2,-3 0,-2.78806 -4.11421,-5 -9.3,-5 -5.91018,0 -7.7,1.16222 -7.7,5 0,3.83778 1.78982,5 7.7,5 3.96667,0 5.80314,-0.50314 7.3,-2 z m 29.79136,18.02825 c -4.26385,-1.31154 -8.41479,-4.70492 -9.77643,-7.99221 -0.74411,-1.79643 -1.08243,-5.63505 -0.83673,-9.49364 0.32694,-5.1345 0.92149,-7.02963 2.86714,-9.13897 C 714.07285,157.03707 717.89653,156 729.96788,156 H 741 v 3 3 h -7.85078 c -8.64134,0 -13.6611,1.2856 -14.60291,3.73993 -0.99732,2.59897 1.37064,3.22857 12.20369,3.24476 L 741,169 v 3 3 h -9.91821 C 720.481,175 718,175.4712 718,177.48454 c 0,2.81862 3.43991,4.02239 12.90341,4.51546 l 9.59659,0.5 v 3 3 l -10,0.18071 c -5.5,0.0994 -11.21889,-0.19422 -12.70864,-0.65246 z m 30.59268,-0.46984 c -0.30425,-0.79287 -0.39762,-2.25537 -0.20749,-3.25 0.30402,-1.59042 1.79088,-1.86868 12.33457,-2.30841 11.98814,-0.49997 11.98888,-0.50015 11.98888,-3 0,-2.3012 -0.39761,-2.51917 -5,-2.74102 C 750.45662,175.43741 747,173.62328 747,165.5 c 0,-3.55411 0.56023,-5.15114 2.4807,-7.0716 2.45184,-2.45185 2.65828,-2.47749 17.75,-2.20455 L 782.5,156.5 v 2.5 c 0,2.48346 -0.0661,2.50164 -10,2.74808 -11.741,0.29126 -14.08159,0.71917 -14.84721,2.71435 -1.22643,3.19602 2.10967,4.53757 11.28378,4.53757 7.34168,0 9.22265,0.3374 11.39139,2.04333 5.42728,4.2691 4.27562,13.97088 -1.96811,16.57968 -4.78417,1.99895 -29.20414,1.94633 -29.97581,-0.0646 z M 55.468693,118.77835 C 55.19903,118.07526 55.095757,97.475 55.239198,73 L 55.5,28.5 93,28.514144 c 37.04527,0.01397 37.57131,0.04272 43.38083,2.370798 6.90898,2.768673 12.89821,7.85908 15.93882,13.546844 1.79419,3.356209 2.17531,5.730872 2.17759,13.568214 0.003,8.760226 -0.2374,9.92829 -3.08138,15 -2.00823,3.581317 -4.74638,6.630514 -7.84905,8.740675 -8.14291,5.53809 -12.74478,6.422597 -37.06681,7.124465 l -22,0.63486 -0.5,15 -0.5,15 -13.770505,0.27835 c -10.463324,0.21151 -13.888256,-0.0287 -14.260802,-1 z M 116.10009,68.988811 c 1.98005,-0.55002 4.38069,-1.862583 5.33475,-2.916807 2.57646,-2.846963 3.11146,-9.114898 1.10858,-12.988034 -2.71297,-5.246305 -6.42161,-6.178125 -23.324852,-5.860523 L 84.5,47.5 84.212553,57.352416 c -0.186886,6.405603 0.118334,10.341352 0.872444,11.25 1.404383,1.692177 25.245083,1.989191 31.015093,0.386395 z m 89.2466,49.916429 c -11.8497,-1.97972 -22.79689,-8.04405 -28.48617,-15.78027 -5.17437,-7.03604 -7.08911,-13.428639 -7.63511,-25.490743 -0.57707,-12.748478 0.66425,-19.63784 5.02749,-27.902569 3.78612,-7.171586 9.13246,-12.081155 17.33668,-15.920375 9.87451,-4.62084 18.78725,-5.737007 46.12524,-5.776395 C 265.68156,27.994594 264,27.33388 264,38.36283 264,48.248164 264.61518,48 240.11007,48 c -27.86741,0 -33.82758,1.873224 -39.37691,12.375791 -3.12654,5.917218 -3.15683,21.284455 -0.0535,27.124209 3.31586,6.239645 8.42323,10.106709 15.82031,11.978422 1.65,0.417506 12.5397,0.692638 24.19933,0.611408 C 265.24745,99.918797 264,99.369366 264,110.35247 c 0,10.5165 2.44733,9.6639 -27.35699,9.53063 -14.37865,-0.0643 -28.462,-0.50434 -31.29632,-0.97786 z M 333,118.41122 c -10.54275,-2.81702 -17.74761,-9.10677 -21.06135,-18.38627 -0.87827,-2.459432 -1.38582,-13.518538 -1.67908,-36.5858 -0.35869,-28.213033 -0.20495,-33.239588 1.04843,-34.279802 1.03362,-0.857828 5.42724,-1.136059 14.83037,-0.939151 L 339.5,28.5 340,60.646747 c 0.67285,43.260063 -2.64799,39.984063 40.06922,39.528213 25.09598,-0.267811 29.7542,-0.0926 30.79201,1.15783 0.80643,0.97169 1.12336,4.31547 0.93078,9.82029 L 411.5,119.5 375,119.69041 c -29.40956,0.15343 -37.56842,-0.0951 -42,-1.27919 z m 94.65548,0.83878 c -1.06525,-1.72723 -1.1382,-89.167163 -0.0753,-90.230146 0.69579,-0.695829 5.85596,-0.980551 14.5,-0.800062 L 455.5,28.5 455.76009,74.25 456.02018,120 H 442.0691 c -7.67308,0 -14.15922,-0.3375 -14.41362,-0.75 z m 45,0 c -0.25441,-0.4125 -0.61846,-20.639972 -0.80902,-44.949939 -0.24803,-31.642588 -0.0291,-44.517325 0.77063,-45.317091 0.79495,-0.794996 11.75315,-1.019405 38,-0.77819 35.80323,0.329041 37.05218,0.406646 42.66522,2.65103 9.16601,3.665043 13.74391,7.700254 17.71769,15.617352 l 3.5,6.973163 V 86.473162 119.5 l -13.92285,0.27934 c -10.46753,0.21002 -14.12432,-0.0382 -14.73468,-1 -0.44652,-0.70363 -0.81874,-14.00629 -0.82716,-29.561459 -0.0164,-30.262004 -0.33835,-32.570617 -5.13643,-36.829358 C 535.88772,48.845993 531.37274,48 516.45777,48 c -12.06599,0 -14.3366,0.241848 -14.85078,1.581787 -0.33385,0.869984 -0.60699,17.069984 -0.60699,36 V 120 h -13.94098 c -7.66754,0 -14.14914,-0.3375 -14.40354,-0.75 z M 615.5,117.60519 C 600.1904,113.81594 592.2618,105.06386 590.03924,89.5 c -0.54979,-3.85 -1.00854,-18.9824 -1.01943,-33.627555 -0.016,-21.515628 0.24673,-26.848763 1.36856,-27.779803 0.93508,-0.776045 5.75087,-1.060893 14.75,-0.872445 L 618.5,27.5 619,58.17901 c 0.56729,34.807715 0.41816,34.172352 9.05854,38.593734 4.08946,2.092621 5.551,2.251127 18.44146,2 L 660.5,98.5 661,63 l 0.5,-35.5 13.60492,-0.277275 c 10.66518,-0.217362 13.85461,0.02359 14.7605,1.115113 0.84467,1.017767 1.08549,13.334146 0.89508,45.777275 L 690.5,118.5 l -35,0.17137 c -24.97335,0.12227 -36.43238,-0.18316 -40,-1.06618 z m 91.10842,0.57023 c -0.28029,-0.45352 7.81256,-10.44421 17.98412,-22.20154 11.27618,-13.034165 18.37934,-22.047611 18.2006,-23.095387 C 742.63191,71.933359 735.525,62.937835 727,52.88844 708.27595,30.816259 706.76394,28.836062 707.82455,27.77545 c 0.45617,-0.456173 7.75653,-0.704766 16.22302,-0.552428 L 739.44119,27.5 750.4706,41.206116 c 6.06617,7.538363 11.5565,13.725863 12.20072,13.75 C 763.31555,54.980252 769.05682,48.7 775.42971,41 l 11.58706,-14 h 14.99161 C 813.60868,27 817,27.29279 817,28.294301 c 0,0.711866 -7.67305,10.274366 -17.05122,21.25 -9.37817,10.975635 -17.47699,20.71142 -17.99739,21.635079 -0.76183,1.35219 2.75506,5.993716 18.05122,23.823663 C 810.45117,107.1824 819,117.56418 819,118.07366 c 0,0.5319 -7.13222,0.92293 -16.75,0.91834 l -16.75,-0.008 -11,-13.94616 C 768.45,97.36746 762.825,91.091332 762,91.090892 761.175,91.090451 756.27748,96.449395 751.11662,102.99966 737.0245,120.88563 740.39458,119 722.52006,119 c -8.47111,0 -15.63135,-0.37106 -15.91164,-0.82458 z"
       id="path22"
       inkscape:connector-curvature="0" />
    <path
       style="fill:#585a62"
       d="m 100.74052,187.58674 c -7.742685,-2.79595 -10.115931,-6.9371 -9.564843,-16.69 0.312649,-5.53312 0.844192,-7.29168 2.85426,-9.44306 C 98.513424,156.655 100.96597,156 114.45034,156 H 127 v 3 3 h -8.53212 c -13.65297,0 -18.45054,3.35373 -17.08071,11.94022 0.85011,5.32876 3.64878,7.46498 9.84706,7.51623 4.95628,0.041 5.26577,-0.10281 5.26577,-2.44663 0,-1.98472 -0.60894,-2.59566 -3,-3.00982 -2.54862,-0.44146 -3,-0.96954 -3,-3.50982 V 169.5 h 8 8 v 9.5 9.5 l -11,0.22216 c -7.27459,0.14692 -12.27324,-0.23762 -14.75948,-1.13542 z m 37.58822,-0.0305 C 134.4513,185.85246 133,183.32828 133,178.28825 c 0,-7.71243 4.52948,-10.27277 18.19098,-10.28267 4.23004,-0.003 7.92813,-0.38929 8.21797,-0.85826 0.28984,-0.46897 -0.0958,-1.70647 -0.85699,-2.75 C 157.38553,162.79824 155.46501,162.42141 146.33399,162 135.57773,161.50359 135.5,161.48206 135.5,159 v -2.5 l 13.82132,-0.27868 13.82131,-0.27869 3.45908,3.45908 3.45908,3.45908 -0.28039,12.81961 -0.2804,12.8196 -14,0.22488 c -10.20205,0.16387 -14.86031,-0.15316 -17.17126,-1.16862 z m 21.36179,-7.19218 c 1.23987,-3.23104 -1.08991,-4.849 -7.42837,-5.15878 -7.00787,-0.3425 -10.04899,1.45597 -8.22499,4.86415 0.86966,1.62499 2.14054,1.93055 8.0294,1.93055 5.5547,0 7.12554,-0.33707 7.62396,-1.63592 z m 17.77241,7.39993 c -0.28532,-0.74353 -0.39371,-8.08211 -0.24085,-16.30794 L 177.5,156.5 198,156.2539 c 22.01001,-0.26423 23.66245,0.03 27.23995,4.85023 1.49127,2.00931 2.05892,4.89399 2.48515,12.6291 0.30382,5.51374 0.25035,11.22844 -0.11882,12.69934 -0.62411,2.48667 -1.00231,2.65306 -5.38875,2.3709 L 217.5,188.5 217.21403,177.53899 C 216.89646,165.36687 215.86272,163 210.86406,163 c -3.50358,0 -3.78784,1.03573 -4.11675,15 L 206.5,188.5 H 202 197.5 L 197,176 l -0.5,-12.5 -4.21692,-0.30588 c -5.1164,-0.37113 -5.18246,-0.19446 -5.53577,14.80588 l -0.24731,10.5 -4.25915,0.30794 c -2.88538,0.20862 -4.42647,-0.12809 -4.77791,-1.04393 z m 66.32842,0.26424 c -4.26385,-1.31154 -8.41479,-4.70492 -9.77643,-7.99221 -0.74411,-1.79643 -1.08243,-5.63505 -0.83673,-9.49364 0.32694,-5.1345 0.92149,-7.02963 2.86714,-9.13897 C 240.07285,157.03707 243.89653,156 255.96788,156 H 267 v 3 3 h -7.85078 c -8.64134,0 -13.6611,1.2856 -14.60291,3.73993 -0.99732,2.59897 1.37064,3.22857 12.20369,3.24476 L 267,169 v 3 3 h -9.91821 C 246.481,175 244,175.4712 244,177.48454 c 0,2.81862 3.43991,4.02239 12.90341,4.51546 l 9.59659,0.5 v 3 3 l -10,0.18071 c -5.5,0.0994 -11.21889,-0.19422 -12.70864,-0.65246 z m 30.59268,-0.46984 c -0.30425,-0.79287 -0.39762,-2.25537 -0.20749,-3.25 0.30402,-1.59042 1.79088,-1.86868 12.33457,-2.30841 11.98814,-0.49997 11.98888,-0.50015 11.98888,-3 0,-2.3012 -0.39761,-2.51917 -5,-2.74102 C 276.45662,175.43741 273,173.62328 273,165.5 c 0,-3.55411 0.56023,-5.15114 2.4807,-7.0716 2.45184,-2.45185 2.65828,-2.47749 17.75,-2.20455 L 308.5,156.5 v 2.5 c 0,2.48346 -0.0661,2.50164 -10,2.74808 -11.741,0.29126 -14.08159,0.71917 -14.84721,2.71435 -1.22643,3.19602 2.10967,4.53757 11.28378,4.53757 7.34168,0 9.22265,0.3374 11.39139,2.04333 5.42728,4.2691 4.27562,13.97088 -1.96811,16.57968 -4.78417,1.99895 -29.20414,1.94633 -29.97581,-0.0646 z m 63.40732,0.46984 c -4.26385,-1.31154 -8.41479,-4.70492 -9.77643,-7.99221 -0.74411,-1.79643 -1.08243,-5.63505 -0.83673,-9.49364 0.32694,-5.1345 0.92149,-7.02963 2.86714,-9.13897 C 334.07285,157.03707 337.89653,156 349.96788,156 H 361 v 3 3 h -7.85078 c -8.64134,0 -13.6611,1.2856 -14.60291,3.73993 -0.99732,2.59897 1.37064,3.22857 12.20369,3.24476 L 361,169 v 3 3 h -9.91821 C 340.481,175 338,175.4712 338,177.48454 c 0,2.81862 3.43991,4.02239 12.90341,4.51546 l 9.59659,0.5 v 3 3 l -10,0.18071 c -5.5,0.0994 -11.21889,-0.19422 -12.70864,-0.65246 z m 42.59268,-0.46984 c -0.30425,-0.79287 -0.39762,-2.25537 -0.20749,-3.25 0.30402,-1.59042 1.79088,-1.86868 12.33457,-2.30841 11.98814,-0.49997 11.98888,-0.50015 11.98888,-3 0,-2.3012 -0.39761,-2.51917 -5,-2.74102 C 382.45662,175.43741 379,173.62328 379,165.5 c 0,-3.55411 0.56023,-5.15114 2.4807,-7.0716 2.45184,-2.45185 2.65828,-2.47749 17.75,-2.20455 L 414.5,156.5 v 2.5 c 0,2.48346 -0.0661,2.50164 -10,2.74808 -11.741,0.29126 -14.08159,0.71917 -14.84721,2.71435 -1.22643,3.19602 2.10967,4.53757 11.28378,4.53757 7.34168,0 9.22265,0.3374 11.39139,2.04333 5.42728,4.2691 4.27562,13.97088 -1.96811,16.57968 -4.78417,1.99895 -29.20414,1.94633 -29.97581,-0.0646 z M 434.5,188.12987 c -4.17885,-1.09008 -6.59956,-2.51815 -9.47006,-5.58675 -2.01737,-2.15658 -2.53113,-3.86868 -2.80324,-9.34182 -0.42074,-8.46226 1.74179,-12.41513 8.40436,-15.3623 6.37061,-2.81802 21.82297,-2.38822 25.98622,0.72279 5.19946,3.88533 6.85038,7.0822 6.83699,13.23922 -0.0237,10.88472 -6.0895,16.26538 -18.95427,16.8133 -3.85,0.16397 -8.35,-0.054 -10,-0.48444 z m 16.217,-9.58726 c 2.69365,-3.13155 3.05356,-8.99747 0.75352,-12.28124 -2.11693,-3.02234 -7.91644,-4.48766 -12.68231,-3.20434 -7.99023,2.15154 -9.15417,13.81051 -1.7685,17.71467 3.9358,2.08051 10.97581,0.93482 13.69729,-2.22909 z m 18.68171,9.05404 c -0.32064,-0.83559 -0.42902,-6.23015 -0.24085,-11.98792 0.28331,-8.66851 0.69828,-10.9536 2.41322,-13.2887 3.7286,-5.07693 7.68815,-6.31675 20.17892,-6.31848 L 503,156 v 2.88072 2.88072 l -9.51928,0.41634 c -8.20214,0.35874 -9.82794,0.72571 -11.75,2.6522 -3.29821,3.30581 -1.09472,4.13661 11.01928,4.15471 L 503,169 v 3 3 l -10.25,0.0153 c -5.6375,0.008 -10.91795,0.43765 -11.73434,0.95385 -0.91457,0.57828 -1.68227,3.16336 -2,6.73468 L 478.5,188.5 l -4.25915,0.30794 c -3.09424,0.22372 -4.4186,-0.10758 -4.84214,-1.21129 z m 53.31501,0.78374 C 522.32117,187.98784 522,182.59881 522,176.40476 522,163.04286 521.41565,162 513.92857,162 509.11905,162 509,161.92754 509,159 v -3 h 18 18 v 3 c 0,2.96142 -0.0692,3 -5.37756,3 -3.21818,0 -5.81488,0.52694 -6.46664,1.31227 -0.61147,0.73678 -1.21335,6.54746 -1.37244,13.25 L 531.5,188.5 l -4.03628,0.29705 c -2.21995,0.16338 -4.35745,-0.0241 -4.75,-0.41666 z m 39.90579,-0.18702 c -0.83173,-1.34576 -11.60557,-30.56537 -11.61305,-31.49563 -0.004,-0.44124 2.35604,-0.66624 5.24354,-0.5 l 5.25,0.30226 3.01408,8.71408 c 1.65775,4.79275 3.51059,9.21059 4.11743,9.81743 0.80446,0.80446 2.01965,-1.55611 4.48592,-8.71408 L 576.5,156.5 h 6 6 l 3.00461,9.32794 c 1.65253,5.13036 3.45253,9.34092 4,9.35678 0.54746,0.0159 2.57039,-4.1817 4.49539,-9.32793 l 3.5,-9.35679 4.75,-0.30479 c 2.87019,-0.18417 4.75,0.11459 4.75,0.75492 0,1.30308 -9.51552,27.27609 -11.02892,30.10392 -0.93484,1.74675 -1.90424,1.99901 -6.70213,1.74404 l -5.6092,-0.29809 -3.14334,-9.43782 c -1.72884,-5.1908 -3.61164,-9.59392 -4.184,-9.78471 -0.57236,-0.19079 -2.58757,4.05623 -4.47825,9.43782 l -3.43758,9.78471 -5.62006,0.29727 c -3.09103,0.1635 -5.87069,-0.10826 -6.17701,-0.6039 z m 62.70923,-0.63711 C 621.4513,185.85246 620,183.32828 620,178.28825 c 0,-7.71243 4.52948,-10.27277 18.19098,-10.28267 4.23004,-0.003 7.92813,-0.38929 8.21797,-0.85826 0.28984,-0.46897 -0.0958,-1.70647 -0.85699,-2.75 C 644.38553,162.79824 642.46501,162.42141 633.33399,162 622.57773,161.50359 622.5,161.48206 622.5,159 v -2.5 l 13.82132,-0.27868 13.82131,-0.27869 3.45908,3.45908 3.45908,3.45908 -0.28039,12.81961 -0.2804,12.8196 -14,0.22488 c -10.20205,0.16387 -14.86031,-0.15316 -17.17126,-1.16862 z m 21.36179,-7.19218 c 1.23987,-3.23104 -1.08991,-4.849 -7.42837,-5.15878 -7.00787,-0.3425 -10.04899,1.45597 -8.22499,4.86415 0.86966,1.62499 2.14054,1.93055 8.0294,1.93055 5.5547,0 7.12554,-0.33707 7.62396,-1.63592 z m 16.77241,7.39993 c -0.28532,-0.74353 -0.39371,-8.08211 -0.24085,-16.30794 L 663.5,156.5 l 15.20534,-0.27581 15.20534,-0.2758 3.29466,2.94378 c 2.8988,2.59008 3.29466,3.54771 3.29466,7.97026 0,4.31965 -0.45846,5.4995 -3.26022,8.39018 l -3.26022,3.3637 2.9824,3.94184 c 4.27862,5.65506 3.98379,6.44185 -2.41392,6.44185 -5.33354,0 -5.51899,-0.0974 -8.53772,-4.48501 -5.97483,-8.68411 -11.79854,-8.84172 -12.9318,-0.34999 -0.57139,4.28158 -0.631,4.33879 -4.83767,4.64294 -2.88538,0.20862 -4.42647,-0.12809 -4.77791,-1.04393 z M 688,170 c 1.1,-1.1 2,-2.45 2,-3 0,-2.78806 -4.11421,-5 -9.3,-5 -5.91018,0 -7.7,1.16222 -7.7,5 0,3.83778 1.78982,5 7.7,5 3.96667,0 5.80314,-0.50314 7.3,-2 z m 29.79136,18.02825 c -4.26385,-1.31154 -8.41479,-4.70492 -9.77643,-7.99221 -0.74411,-1.79643 -1.08243,-5.63505 -0.83673,-9.49364 0.32694,-5.1345 0.92149,-7.02963 2.86714,-9.13897 C 714.07285,157.03707 717.89653,156 729.96788,156 H 741 v 3 3 h -7.85078 c -8.64134,0 -13.6611,1.2856 -14.60291,3.73993 -0.99732,2.59897 1.37064,3.22857 12.20369,3.24476 L 741,169 v 3 3 h -9.91821 C 720.481,175 718,175.4712 718,177.48454 c 0,2.81862 3.43991,4.02239 12.90341,4.51546 l 9.59659,0.5 v 3 3 l -10,0.18071 c -5.5,0.0994 -11.21889,-0.19422 -12.70864,-0.65246 z m 30.59268,-0.46984 c -0.30425,-0.79287 -0.39762,-2.25537 -0.20749,-3.25 0.30402,-1.59042 1.79088,-1.86868 12.33457,-2.30841 11.98814,-0.49997 11.98888,-0.50015 11.98888,-3 0,-2.3012 -0.39761,-2.51917 -5,-2.74102 C 750.45662,175.43741 747,173.62328 747,165.5 c 0,-3.55411 0.56023,-5.15114 2.4807,-7.0716 2.45184,-2.45185 2.65828,-2.47749 17.75,-2.20455 L 782.5,156.5 v 2.5 c 0,2.48346 -0.0661,2.50164 -10,2.74808 -11.741,0.29126 -14.08159,0.71917 -14.84721,2.71435 -1.22643,3.19602 2.10967,4.53757 11.28378,4.53757 7.34168,0 9.22265,0.3374 11.39139,2.04333 5.42728,4.2691 4.27562,13.97088 -1.96811,16.57968 -4.78417,1.99895 -29.20414,1.94633 -29.97581,-0.0646 z M 427.98252,119.16667 C 427.3587,118.95503 427,102.44208 427,73.935719 V 29.038104 l 2.25,-0.558653 c 1.2375,-0.307259 7.65,-0.428332 14.25,-0.269052 11.71642,0.282757 11.99831,0.342773 11.92857,2.539601 -0.0393,1.2375 -0.15178,21.574983 -0.25,45.194406 L 455,118.88881 l -13.01748,0.3056 c -7.15962,0.16807 -13.45962,0.15559 -14,-0.0277 z m 45,0 C 472.35874,118.95504 472,102.47243 472,74.023655 c 0,-39.938074 0.17197,-44.875668 1.58179,-45.416666 2.58228,-0.990915 64.41335,-0.678089 70.73898,0.357895 7.04425,1.153676 16.15291,5.175937 20.02248,8.841652 3.68452,3.490424 7.11861,10.329593 8.53237,16.992685 0.6871,3.238298 1.12438,16.752938 1.12438,34.75 V 119 h -13.93402 -13.93402 l -0.31598,-30.25 c -0.35416,-33.905408 -0.47085,-34.507305 -7.54174,-38.903457 -3.46744,-2.155797 -5.05785,-2.374066 -19.56503,-2.685131 -11.32935,-0.242925 -16.20308,0.0036 -17.25,0.872445 C 500.23139,49.052856 500,54.766619 500,84.066851 v 34.821959 l -13.01748,0.3056 c -7.15962,0.16807 -13.45962,0.15559 -14,-0.0277 z M 55.468945,117.77917 C 55.199077,117.07562 55.095663,96.7 55.239138,72.5 L 55.5,28.5 l 37,0.02659 c 36.52821,0.02625 37.07651,0.05678 43,2.39424 8.21935,3.243422 14.75959,9.830753 16.88908,17.01067 5.07566,17.113441 -2.13768,32.059364 -17.88908,37.065884 -5.99004,1.90391 -10.17416,2.317095 -29,2.863769 L 83.5,88.5 l -0.5,15 -0.5,15 -13.270193,0.27917 c -10.062209,0.21168 -13.388809,-0.0301 -13.760862,-1 z M 116.19635,68.97302 C 121.52455,67.501048 124,63.878653 124,57.553703 124,51.920747 121.98128,48.70378 117.33887,46.938739 115.98088,46.422433 107.97224,46 99.541889,46 86.487329,46 84.123952,46.234602 83.606989,47.581787 82.627057,50.135449 82.911631,68.51137 83.947194,69.55 85.17508,70.781522 111.3448,70.313311 116.19635,68.97302 Z m 90.67363,48.95599 C 180.82315,114.10246 167.70283,97.292411 169.24674,69.725295 170.09063,54.657289 175.36935,43.997789 185.29563,37.317219 196.62334,29.693468 208.52852,27.744745 241,28.199138 L 262.5,28.5 262.13836,37 c -0.19891,4.675 -0.53528,8.686378 -0.74751,8.914173 -0.21222,0.227795 -10.84948,0.685183 -23.63836,1.016417 -21.5951,0.559318 -23.5894,0.767004 -27.97915,2.913736 -5.99587,2.932174 -9.31884,6.886116 -11.24868,13.384596 -3.29197,11.085273 -0.99458,24.705487 5.14368,30.494615 6.03103,5.687994 11.80012,6.731153 35.83166,6.479023 11.55,-0.12118 21.51971,0.12129 22.15492,0.53881 0.79935,0.52542 0.98686,3.45296 0.60904,9.50888 L 261.71809,119 237.10904,118.87806 c -13.53497,-0.0671 -27.14255,-0.49414 -30.23906,-0.94905 z m 128.53673,0.0466 c -10.55347,-2.10849 -19.06019,-8.76077 -22.3099,-17.44639 -1.80475,-4.823631 -1.99342,-8.133563 -2.1649,-37.97872 -0.11376,-19.800849 0.1904,-33.072802 0.77126,-33.653664 0.54366,-0.543654 6.55508,-0.837323 13.87797,-0.677964 L 338.5,28.5 l 0.5,32 c 0.44766,28.650328 0.68829,32.277277 2.29875,34.648872 3.44498,5.073148 5.70023,5.379918 36.91007,5.020668 15.78984,-0.181751 29.64434,-0.0335 30.78777,0.32938 1.92574,0.6112 2.05775,1.29886 1.79119,9.33046 L 410.5,118.5 375,118.6467 c -19.525,0.0807 -37.34198,-0.22131 -39.59329,-0.6711 z M 707,117.8573 c 0,-1.36793 5.56226,-8.04898 26.69655,-32.066292 C 739.36345,79.351062 744,73.472618 744,72.727798 744,71.982978 735.8748,61.837327 725.944,50.181908 716.0132,38.526488 708.16476,28.542433 708.50302,27.995118 708.86511,27.409242 715.06091,27 723.5688,27 c 12.55204,0 14.63838,0.229938 15.87861,1.75 0.7853,0.9625 5.96001,7.375 11.49935,14.25 5.53934,6.875 10.6825,12.5 11.42925,12.5 0.74676,0 6.49943,-6.3 12.78372,-14 l 11.42599,-14 14.37864,-0.278503 c 15.37319,-0.297766 18.3723,0.450078 14.36704,3.582495 -2.4673,1.929615 -34.26467,39.06371 -35.01277,40.889159 -0.26894,0.656233 7.53685,10.55846 17.3462,22.00495 9.80934,11.446489 18.45277,21.597069 19.20761,22.556849 C 818.16592,117.89959 817.3184,118 802.14337,118 H 786.04185 L 774.38798,103.4663 C 763.87326,90.35324 762.55684,89.058076 760.92051,90.216298 759.92302,90.922334 754.3463,97.4625 748.52779,104.75 l -10.57911,13.25 -11.72434,0.011 c -6.44839,0.006 -13.41184,0.28993 -15.47434,0.63084 -2.84743,0.47065 -3.75,0.28182 -3.75,-0.78455 z m -91.5,-1.25654 c -8.8544,-2.19968 -15.99914,-6.73442 -19.90166,-12.63152 -4.93147,-7.451952 -5.45898,-11.591902 -5.67097,-44.506435 -0.11994,-18.622408 0.18093,-30.971109 0.76893,-31.559108 0.55212,-0.552122 6.5008,-0.845525 13.88484,-0.684835 L 617.5,27.5 618,58 c 0.56629,34.543439 0.71713,35.232378 8.54388,39.021242 C 630.06663,98.726577 632.7296,99 645.81572,99 c 11.38428,0 15.22955,-0.312824 15.36517,-1.25 0.0995,-0.6875 0.212,-16.775 0.25,-35.75 l 0.0691,-34.5 h 14 14 v 45 45 l -34.5,0.17145 c -24.65236,0.12251 -35.92719,-0.18311 -39.5,-1.07069 z"
       id="path20"
       inkscape:connector-curvature="0" />
    <path
       style="fill:#0e29a3"
       d="m 101.5,186.8981 c -6.645653,-2.04139 -9.504818,-6.37316 -9.485258,-14.37061 0.01756,-7.17919 1.356771,-10.18734 5.89771,-13.24747 C 100.9807,157.21232 102.44603,157 113.64788,157 125.07911,157 126,157.14044 126,158.88369 c 0,1.692 -1.01307,1.92439 -9.95514,2.28355 -8.80104,0.35349 -10.2484,0.67534 -12.48469,2.77624 -5.274862,4.95547 -4.116771,15.09036 2.0172,17.65329 4.38096,1.83048 9.85652,1.79028 11.41185,-0.0838 2.02746,-2.44294 0.43563,-6.33116 -2.74166,-6.6968 -1.96655,-0.22631 -2.83839,-0.95576 -3.06711,-2.56619 -0.30724,-2.16331 -0.0279,-2.25 7.25,-2.25 H 126 v 9 9 l -10.75,-0.0902 c -5.9125,-0.0496 -12.1,-0.50487 -13.75,-1.01171 z m 36.89966,-0.32604 C 134.85772,185.03016 134,183.37707 134,178.09253 c 0,-2.71813 0.69726,-4.39894 2.54486,-6.13467 2.26481,-2.12768 3.66787,-2.43514 12.75,-2.79397 10.33692,-0.40841 11.82958,-0.97203 10.99782,-4.15269 C 159.53314,162.10672 155.43873,161 145.45295,161 136.66667,161 136,160.85895 136,159 c 0,-1.90179 0.66667,-2 13.57692,-2 h 13.57693 l 2.92307,2.92308 c 2.92088,2.92088 2.92308,2.93252 2.92308,15.5 V 188 l -13.75,-0.0391 c -9.26476,-0.0264 -14.76133,-0.4794 -16.85034,-1.3888 z M 159.8,181.8 c 0.66,-0.66 1.2,-2.145 1.2,-3.3 0,-3.45607 -2.01827,-4.5 -8.7,-4.5 -5.00428,0 -6.71884,0.41884 -8.33647,2.03647 -1.93885,1.93885 -1.8878,2.86581 0.31461,5.71353 1.26816,1.63972 13.89147,1.68039 15.52186,0.05 z M 178,172.5 V 157 h 19.9349 c 10.9642,0 21.06566,0.42991 22.4477,0.95537 4.84894,1.84356 5.95862,5.12855 6.04158,17.88493 L 226.5,187.5 222.25,187.8075 218,188.115 V 177.0575 C 218,164.38111 216.83243,162 210.61663,162 c -4.26397,0 -4.58496,1.06346 -4.60298,15.25 L 206,188 h -4 -4 v -11.41821 c 0,-6.28002 -0.27314,-12.13002 -0.60699,-13 C 196.95675,162.4449 195.44259,162 192.00964,162 c -5.85696,0 -5.977,0.30532 -5.99599,15.25 L 186,188 h -4 -4 z m 65.3516,14.40755 c -1.73161,-0.50164 -4.54411,-2.50172 -6.25,-4.44461 -2.75854,-3.14181 -3.10119,-4.21997 -3.09786,-9.74774 C 234.01114,160.40363 238.65988,157 255.46788,157 265.33333,157 266,157.1266 266,159 c 0,1.82782 -0.66718,2.00013 -7.75,2.00155 -8.55044,0.002 -14.48591,2.11657 -15.09546,5.37862 -0.55384,2.96396 1.62724,3.58813 12.59546,3.60452 9.57823,0.0143 10.25,0.14639 10.25,2.01531 0,1.86557 -0.66667,2 -9.91821,2 C 244.97206,174 243,174.44501 243,176.952 c 0,3.92595 3.70023,5.52935 13.603,5.89453 9.16004,0.33779 9.397,0.40714 9.397,2.75 0,2.37979 -0.0961,2.40258 -9.75,2.31328 -5.3625,-0.0496 -11.16678,-0.50062 -12.8984,-1.00226 z M 275,185.60551 v -2.54204 l 11.6432,-0.28173 c 9.80801,-0.23733 11.81685,-0.55757 12.74489,-2.03174 1.92775,-3.06219 -0.42312,-5.21704 -5.99052,-5.49102 C 277.05919,174.45493 274,172.91584 274,165.5 c 0,-3.26133 0.57448,-4.9573 2.18856,-6.46104 1.99826,-1.86166 3.47649,-2.03896 17,-2.03896 14.14477,0 14.81144,0.09 14.81144,2 0,1.87879 -0.66667,2 -11,2 -9.66667,0 -11.24242,0.24242 -13,2 -2.55648,2.55648 -2.51691,3.52453 0.22251,5.4433 1.52824,1.07042 4.57393,1.56097 9.75,1.57035 9.73141,0.0177 11.7948,0.63569 13.56754,4.06379 2.10313,4.06702 1.80356,7.41116 -0.95105,10.6168 -2.40888,2.80328 -2.4239,2.80605 -17,3.12953 L 275,188.14755 Z m 62.3516,1.30204 c -1.73161,-0.50164 -4.54411,-2.50172 -6.25,-4.44461 -2.75854,-3.14181 -3.10119,-4.21997 -3.09786,-9.74774 C 328.01114,160.40363 332.65988,157 349.46788,157 359.33333,157 360,157.1266 360,159 c 0,1.82782 -0.66718,2.00013 -7.75,2.00155 -8.55044,0.002 -14.48591,2.11657 -15.09546,5.37862 -0.55384,2.96396 1.62724,3.58813 12.59546,3.60452 9.57823,0.0143 10.25,0.14639 10.25,2.01531 0,1.86557 -0.66667,2 -9.91821,2 C 338.97206,174 337,174.44501 337,176.952 c 0,3.92595 3.70023,5.52935 13.603,5.89453 9.16004,0.33779 9.397,0.40714 9.397,2.75 0,2.37979 -0.0961,2.40258 -9.75,2.31328 -5.3625,-0.0496 -11.16678,-0.50062 -12.8984,-1.00226 z M 381,185.60551 v -2.54204 l 11.6432,-0.28173 c 9.80801,-0.23733 11.81685,-0.55757 12.74489,-2.03174 1.92775,-3.06219 -0.42312,-5.21704 -5.99052,-5.49102 C 383.05919,174.45493 380,172.91584 380,165.5 c 0,-3.26133 0.57448,-4.9573 2.18856,-6.46104 1.99826,-1.86166 3.47649,-2.03896 17,-2.03896 14.14477,0 14.81144,0.09 14.81144,2 0,1.87879 -0.66667,2 -11,2 -9.66667,0 -11.24242,0.24242 -13,2 -2.55648,2.55648 -2.51691,3.52453 0.22251,5.4433 1.52824,1.07042 4.57393,1.56097 9.75,1.57035 9.73141,0.0177 11.7948,0.63569 13.56754,4.06379 2.10313,4.06702 1.80356,7.41116 -0.95105,10.6168 -2.40888,2.80328 -2.4239,2.80605 -17,3.12953 L 381,188.14755 Z m 53.5,1.52436 c -7.94198,-2.07172 -11.49044,-6.67991 -11.49626,-14.92953 -0.008,-10.96329 5.43739,-15.14036 19.7861,-15.17838 13.93912,-0.0369 19.67683,4.36841 19.67683,15.10762 0,6.54004 -1.98643,10.08844 -7.43303,13.27778 -3.58168,2.09731 -15.3215,3.08213 -20.53364,1.72251 z m 13.38116,-5.23829 C 451.57931,180.6024 454,176.56436 454,171.68452 c 0,-7.07308 -7.39704,-11.73178 -15.26408,-9.61341 -5.04472,1.3584 -8.02651,5.91064 -7.37319,11.25651 0.96229,7.87396 8.01251,11.52914 16.51843,8.56396 z M 470.00155,177.75 c 0.003,-17.63314 3.19038,-20.74584 21.24845,-20.74845 10.08385,-0.001 10.75,0.12238 10.75,1.99845 0,1.80192 -0.66853,2.00055 -6.75,2.00558 -8.52058,0.007 -13.90548,1.48216 -15.36485,4.20901 -1.93058,3.60734 1.09891,4.78541 12.30598,4.78541 9.1422,0 9.80887,0.13593 9.80887,2 0,1.87215 -0.66667,2 -10.42857,2 C 478.96428,174 478,174.60902 478,182.57143 V 188 h -4 -4 l 0.002,-10.25 z M 523,176.07143 C 523,161.97131 522.47982,161 514.92857,161 510.66667,161 510,160.72947 510,159 c 0,-1.92157 0.66667,-2 17,-2 16.33333,0 17,0.0784 17,2 0,1.70797 -0.66667,2 -4.56574,2 C 531.18281,161 531,161.31505 531,175.53518 V 188 h -4 -4 z M 558.21561,174.25 c -2.77964,-7.5625 -5.36342,-14.5375 -5.74174,-15.5 -0.59321,-1.50922 -0.0691,-1.75 3.80961,-1.75 h 4.49746 l 3.35953,9.74541 c 4.536,13.15816 5.66052,13.1927 9.74777,0.29941 L 577.0725,157 h 5.32994 5.32995 l 3.17005,10 c 3.24035,10.22174 5.26332,12.47771 6.94958,7.75 0.44138,-1.2375 2.0509,-5.7375 3.5767,-10 l 2.77419,-7.75 h 3.89854 c 2.1442,0 3.89855,0.18642 3.89855,0.41427 0,0.38619 -8.94068,24.90679 -10.53153,28.88364 -0.58547,1.46356 -1.67222,1.74251 -5.84384,1.5 L 590.5,187.5 587,177.5 c -2.19781,-6.27945 -4.02425,-10 -4.90907,-10 -0.87183,0 -2.44436,3.0811 -4.12446,8.08119 C 573.8429,187.85315 573.72622,188 568.09956,188 h -4.83007 z m 67.18405,12.32206 C 621.85772,185.03016 621,183.37707 621,178.09253 c 0,-2.71813 0.69726,-4.39894 2.54486,-6.13467 2.26481,-2.12768 3.66787,-2.43514 12.75,-2.79397 10.33692,-0.40841 11.82958,-0.97203 10.99782,-4.15269 C 646.53314,162.10672 642.43873,161 632.45295,161 623.66667,161 623,160.85895 623,159 c 0,-1.90179 0.66667,-2 13.57692,-2 h 13.57693 l 2.92307,2.92308 c 2.92088,2.92088 2.92308,2.93252 2.92308,15.5 V 188 l -13.75,-0.0391 c -9.26476,-0.0264 -14.76133,-0.4794 -16.85034,-1.3888 z M 646.8,181.8 c 0.66,-0.66 1.2,-2.145 1.2,-3.3 0,-3.45607 -2.01827,-4.5 -8.7,-4.5 -5.00428,0 -6.71884,0.41884 -8.33647,2.03647 -1.93885,1.93885 -1.8878,2.86581 0.31461,5.71353 1.26816,1.63972 13.89147,1.68039 15.52186,0.05 z M 664,172.5 V 157 h 14.94424 c 14.35583,0 15.0547,0.095 17.75,2.41342 2.40473,2.06846 2.80576,3.15611 2.80576,7.6096 0,4.70088 -0.32884,5.47072 -3.44981,8.07622 l -3.44981,2.88003 3.19981,4.5396 c 1.7599,2.49678 3.19981,4.75145 3.19981,5.01037 0,0.25892 -1.985,0.47076 -4.41111,0.47076 -4.51645,0 -6.17126,-1.22274 -10.58889,-7.82414 -0.89856,-1.34274 -2.93383,-2.46995 -5.07597,-2.81128 C 674.23616,176.61763 672,178.78365 672,184.07143 672,187.9881 671.98788,188 668,188 h -4 z m 24.63538,-2.04447 c 1.50087,-1.50087 2.30251,-3.17499 1.95454,-4.08179 C 690.26547,165.52822 690,164.49546 690,164.07873 690,162.53838 684.74744,161 679.48813,161 673.71925,161 672,162.37758 672,167 c 0,4.75616 1.67517,6 8.08064,6 5.10563,0 6.39325,-0.38298 8.55474,-2.54447 z m 28.71622,16.45202 c -1.73161,-0.50164 -4.54411,-2.50172 -6.25,-4.44461 -2.75854,-3.14181 -3.10119,-4.21997 -3.09786,-9.74774 C 708.01114,160.40363 712.65988,157 729.46788,157 739.33333,157 740,157.1266 740,159 c 0,1.82782 -0.66718,2.00013 -7.75,2.00155 -8.55044,0.002 -14.48591,2.11657 -15.09546,5.37862 -0.55384,2.96396 1.62724,3.58813 12.59546,3.60452 9.57823,0.0143 10.25,0.14639 10.25,2.01531 0,1.86557 -0.66667,2 -9.91821,2 C 718.97206,174 717,174.44501 717,176.952 c 0,3.92595 3.70023,5.52935 13.603,5.89453 9.16004,0.33779 9.397,0.40714 9.397,2.75 0,2.37979 -0.0961,2.40258 -9.75,2.31328 -5.3625,-0.0496 -11.16678,-0.50062 -12.8984,-1.00226 z M 749,185.60551 v -2.54204 l 11.6432,-0.28173 c 9.80801,-0.23733 11.81685,-0.55757 12.74489,-2.03174 1.92775,-3.06219 -0.42312,-5.21704 -5.99052,-5.49102 C 751.05919,174.45493 748,172.91584 748,165.5 c 0,-3.26133 0.57448,-4.9573 2.18856,-6.46104 1.99826,-1.86166 3.47649,-2.03896 17,-2.03896 14.14477,0 14.81144,0.09 14.81144,2 0,1.87879 -0.66667,2 -11,2 -9.66667,0 -11.24242,0.24242 -13,2 -2.55648,2.55648 -2.51691,3.52453 0.22251,5.4433 1.52824,1.07042 4.57393,1.56097 9.75,1.57035 9.73141,0.0177 11.7948,0.63569 13.56754,4.06379 2.10313,4.06702 1.80356,7.41116 -0.95105,10.6168 -2.40888,2.80328 -2.4239,2.80605 -17,3.12953 L 749,188.14755 Z M 57.25,118.35286 C 56.276559,117.94828 56,108.00625 56,73.416667 V 29 h 33.316341 c 19.761789,0 35.714059,0.443242 39.209789,1.089464 19.7361,3.648415 29.4566,19.119079 23.86295,37.979035 -2.36805,7.984258 -8.75065,14.024271 -17.88908,16.928886 -5.99004,1.90391 -10.17416,2.317095 -29,2.863769 L 83.5,88.5 l -0.5,15 -0.5,15 -12,0.18619 c -6.6,0.10241 -12.5625,-0.0476 -13.25,-0.33333 z m 58.93572,-48.387693 c 7.69115,-2.136154 11.21755,-11.08817 7.10822,-18.044717 C 120.30167,46.85494 116.89544,46 99.70586,46 86.50178,46 84.124339,46.233594 83.606989,47.581787 82.462714,50.563719 82.942576,68.542576 84.2,69.8 c 1.512424,1.512424 26.66729,1.642317 31.98572,0.165167 z m 90.68426,47.963843 C 189.50207,115.37748 178.47946,107.35558 172.81491,93.144822 170.87134,88.268952 170.56483,85.660997 170.56483,74 c 0,-11.597236 0.31203,-14.281945 2.2138,-19.047851 5.78781,-14.504428 16.91395,-22.272994 35.62704,-24.875746 C 212.66215,29.484381 226.46216,29 239.07236,29 H 262 v 8.357544 8.357543 l -6.14669,0.642457 C 252.47263,46.710895 242.6543,47 234.03481,47 c -18.62076,0 -24.11017,1.245242 -29.92423,6.788144 -6.59707,6.289396 -8.9853,19.535984 -5.58592,30.982934 2.56831,8.648444 8.66602,14.006105 18.02185,15.834622 2.17442,0.42497 13.17849,0.80004 24.45349,0.83349 l 20.5,0.0608 0.28893,8.75 0.28894,8.75 -24.78894,-0.12194 c -13.63391,-0.0671 -27.32244,-0.49414 -30.41895,-0.94905 z m 128.53673,0.0466 c -10.57807,-2.11341 -18.0704,-7.95425 -21.55446,-16.80332 -2.14633,-5.451426 -2.2356,-6.957156 -2.29277,-38.67228 l -0.0595,-33 h 13.5 13.5 l 0.5,31.5 c 0.55038,34.673987 0.46604,34.212419 7,38.306796 3.40419,2.133164 4.33495,2.193204 34,2.193204 h 30.5 v 8.5 8.5 l -35.5,0.1467 c -19.525,0.0807 -37.34198,-0.22131 -39.59329,-0.6711 z M 428.2397,74.25 428.5,29.5 441.75,29.220975 455,28.94195 V 73.970975 119 h -13.5103 -13.51029 z m 45,0 L 473.5,29.5 506,29.213684 c 41.57481,-0.366262 48.4102,0.741474 57.99209,9.398131 C 572.97338,46.725873 574,51.951084 574,89.549221 V 119 h -13.36277 -13.36277 l -0.73837,-29.738091 c -0.83025,-33.438525 -1.15692,-34.998128 -8.255,-39.411137 -3.47577,-2.160951 -5.05617,-2.378112 -19.57188,-2.68936 -11.32935,-0.242925 -16.20308,0.0036 -17.25,0.872445 C 500.23131,49.052923 500,54.773486 500,84.122445 V 119 H 486.4897 472.97941 Z M 615.5,116.59747 C 600.06767,112.75351 592.88851,103.90402 590.93396,86.315816 590.39513,81.467117 590.07706,66.475 590.22714,53 L 590.5,28.5 h 13.5 13.5 l 0.5,30 c 0.48467,29.080459 0.57012,30.112768 2.78771,33.679048 1.35374,2.177061 4.05739,4.535736 6.62246,5.777464 3.90493,1.890345 5.80994,2.070898 19.21229,1.820952 L 661.5,99.5 662,64 l 0.5,-35.5 13.18444,-0.278569 13.18445,-0.278568 0.609,4.278568 C 689.81284,34.574644 689.95484,54.725 689.79345,77 L 689.5,117.5 655,117.67145 c -24.7059,0.12277 -35.91944,-0.18212 -39.5,-1.07398 z m 92.51612,0.65253 c 0.009,-0.4125 8.35346,-10.36158 18.54354,-22.109075 l 18.52742,-21.359074 -1.64432,-2.509559 C 742.53838,69.892035 735.42857,61.278619 727.64319,52.131367 713.83014,35.902036 709,29.804325 709,28.59563 709,28.268033 715.46769,28 723.37264,28 h 14.37264 l 3.87736,4.255188 c 2.13255,2.340353 7.38826,8.601186 11.67935,13.912962 4.2911,5.311777 8.40101,9.887639 9.13314,10.168583 0.82496,0.316569 5.78403,-4.973958 13.04129,-13.912962 L 787.18657,28 h 14.4419 c 13.45308,0 14.3762,0.11982 13.48231,1.75 -0.52777,0.9625 -8.46105,10.525 -17.62951,21.25 -9.16846,10.725 -16.89581,20.049956 -17.17189,20.722125 -0.27608,0.672169 7.86637,10.986012 18.09433,22.919651 C 808.63167,106.57542 817,116.71296 817,117.16965 817,117.62634 810.03442,118 801.52093,118 H 786.04185 L 774.38798,103.4663 C 763.87326,90.35324 762.55684,89.058076 760.92051,90.216298 759.92302,90.922334 754.3463,97.4625 748.52779,104.75 L 737.94868,118 h -14.97434 c -8.23589,0 -14.96708,-0.3375 -14.95822,-0.75 z"
       id="path18"
       inkscape:connector-curvature="0" />
    <path
       style="fill:#0c1b60"
       d="m 101.5,186.8981 c -6.645653,-2.04139 -9.504818,-6.37316 -9.485258,-14.37061 0.01756,-7.17919 1.356771,-10.18734 5.89771,-13.24747 C 100.9807,157.21232 102.44603,157 113.64788,157 125.07911,157 126,157.14044 126,158.88369 c 0,1.692 -1.01307,1.92439 -9.95514,2.28355 -8.80104,0.35349 -10.2484,0.67534 -12.48469,2.77624 -5.274862,4.95547 -4.116771,15.09036 2.0172,17.65329 4.38096,1.83048 9.85652,1.79028 11.41185,-0.0838 2.02746,-2.44294 0.43563,-6.33116 -2.74166,-6.6968 -1.96655,-0.22631 -2.83839,-0.95576 -3.06711,-2.56619 -0.30724,-2.16331 -0.0279,-2.25 7.25,-2.25 H 126 v 9 9 l -10.75,-0.0902 c -5.9125,-0.0496 -12.1,-0.50487 -13.75,-1.01171 z m 36.89966,-0.32604 C 134.85772,185.03016 134,183.37707 134,178.09253 c 0,-2.71813 0.69726,-4.39894 2.54486,-6.13467 2.26481,-2.12768 3.66787,-2.43514 12.75,-2.79397 10.33692,-0.40841 11.82958,-0.97203 10.99782,-4.15269 C 159.53314,162.10672 155.43873,161 145.45295,161 136.66667,161 136,160.85895 136,159 c 0,-1.90179 0.66667,-2 13.57692,-2 h 13.57693 l 2.92307,2.92308 c 2.92088,2.92088 2.92308,2.93252 2.92308,15.5 V 188 l -13.75,-0.0391 c -9.26476,-0.0264 -14.76133,-0.4794 -16.85034,-1.3888 z M 159.8,181.8 c 0.66,-0.66 1.2,-2.145 1.2,-3.3 0,-3.45607 -2.01827,-4.5 -8.7,-4.5 -5.00428,0 -6.71884,0.41884 -8.33647,2.03647 -1.93885,1.93885 -1.8878,2.86581 0.31461,5.71353 1.26816,1.63972 13.89147,1.68039 15.52186,0.05 z M 178,172.5 V 157 h 19.9349 c 10.9642,0 21.06566,0.42991 22.4477,0.95537 4.84894,1.84356 5.95862,5.12855 6.04158,17.88493 L 226.5,187.5 222.25,187.8075 218,188.115 V 177.0575 C 218,164.38111 216.83243,162 210.61663,162 c -4.26397,0 -4.58496,1.06346 -4.60298,15.25 L 206,188 h -4 -4 v -11.41821 c 0,-6.28002 -0.27314,-12.13002 -0.60699,-13 C 196.95675,162.4449 195.44259,162 192.00964,162 c -5.85696,0 -5.977,0.30532 -5.99599,15.25 L 186,188 h -4 -4 z m 65.3516,14.40755 c -1.73161,-0.50164 -4.54411,-2.50172 -6.25,-4.44461 -2.75854,-3.14181 -3.10119,-4.21997 -3.09786,-9.74774 C 234.01114,160.40363 238.65988,157 255.46788,157 265.33333,157 266,157.1266 266,159 c 0,1.82782 -0.66718,2.00013 -7.75,2.00155 -8.55044,0.002 -14.48591,2.11657 -15.09546,5.37862 -0.55384,2.96396 1.62724,3.58813 12.59546,3.60452 9.57823,0.0143 10.25,0.14639 10.25,2.01531 0,1.86557 -0.66667,2 -9.91821,2 C 244.97206,174 243,174.44501 243,176.952 c 0,3.92595 3.70023,5.52935 13.603,5.89453 9.16004,0.33779 9.397,0.40714 9.397,2.75 0,2.37979 -0.0961,2.40258 -9.75,2.31328 -5.3625,-0.0496 -11.16678,-0.50062 -12.8984,-1.00226 z M 275,185.60551 v -2.54204 l 11.6432,-0.28173 c 9.80801,-0.23733 11.81685,-0.55757 12.74489,-2.03174 1.92775,-3.06219 -0.42312,-5.21704 -5.99052,-5.49102 C 277.05919,174.45493 274,172.91584 274,165.5 c 0,-3.26133 0.57448,-4.9573 2.18856,-6.46104 1.99826,-1.86166 3.47649,-2.03896 17,-2.03896 14.14477,0 14.81144,0.09 14.81144,2 0,1.87879 -0.66667,2 -11,2 -9.66667,0 -11.24242,0.24242 -13,2 -2.55648,2.55648 -2.51691,3.52453 0.22251,5.4433 1.52824,1.07042 4.57393,1.56097 9.75,1.57035 9.73141,0.0177 11.7948,0.63569 13.56754,4.06379 2.10313,4.06702 1.80356,7.41116 -0.95105,10.6168 -2.40888,2.80328 -2.4239,2.80605 -17,3.12953 L 275,188.14755 Z m 62.3516,1.30204 c -1.73161,-0.50164 -4.54411,-2.50172 -6.25,-4.44461 -2.75854,-3.14181 -3.10119,-4.21997 -3.09786,-9.74774 C 328.01114,160.40363 332.65988,157 349.46788,157 359.33333,157 360,157.1266 360,159 c 0,1.82782 -0.66718,2.00013 -7.75,2.00155 -8.55044,0.002 -14.48591,2.11657 -15.09546,5.37862 -0.55384,2.96396 1.62724,3.58813 12.59546,3.60452 9.57823,0.0143 10.25,0.14639 10.25,2.01531 0,1.86557 -0.66667,2 -9.91821,2 C 338.97206,174 337,174.44501 337,176.952 c 0,3.92595 3.70023,5.52935 13.603,5.89453 9.16004,0.33779 9.397,0.40714 9.397,2.75 0,2.37979 -0.0961,2.40258 -9.75,2.31328 -5.3625,-0.0496 -11.16678,-0.50062 -12.8984,-1.00226 z M 381,185.60551 v -2.54204 l 11.6432,-0.28173 c 9.80801,-0.23733 11.81685,-0.55757 12.74489,-2.03174 1.92775,-3.06219 -0.42312,-5.21704 -5.99052,-5.49102 C 383.05919,174.45493 380,172.91584 380,165.5 c 0,-3.26133 0.57448,-4.9573 2.18856,-6.46104 1.99826,-1.86166 3.47649,-2.03896 17,-2.03896 14.14477,0 14.81144,0.09 14.81144,2 0,1.87879 -0.66667,2 -11,2 -9.66667,0 -11.24242,0.24242 -13,2 -2.55648,2.55648 -2.51691,3.52453 0.22251,5.4433 1.52824,1.07042 4.57393,1.56097 9.75,1.57035 9.73141,0.0177 11.7948,0.63569 13.56754,4.06379 2.10313,4.06702 1.80356,7.41116 -0.95105,10.6168 -2.40888,2.80328 -2.4239,2.80605 -17,3.12953 L 381,188.14755 Z m 53.5,1.52436 c -7.94198,-2.07172 -11.49044,-6.67991 -11.49626,-14.92953 -0.008,-10.96329 5.43739,-15.14036 19.7861,-15.17838 13.93912,-0.0369 19.67683,4.36841 19.67683,15.10762 0,6.54004 -1.98643,10.08844 -7.43303,13.27778 -3.58168,2.09731 -15.3215,3.08213 -20.53364,1.72251 z m 13.38116,-5.23829 C 451.57931,180.6024 454,176.56436 454,171.68452 c 0,-7.07308 -7.39704,-11.73178 -15.26408,-9.61341 -5.04472,1.3584 -8.02651,5.91064 -7.37319,11.25651 0.96229,7.87396 8.01251,11.52914 16.51843,8.56396 z M 470.00155,177.75 c 0.003,-17.63314 3.19038,-20.74584 21.24845,-20.74845 10.08385,-0.001 10.75,0.12238 10.75,1.99845 0,1.80192 -0.66853,2.00055 -6.75,2.00558 -8.52058,0.007 -13.90548,1.48216 -15.36485,4.20901 -1.93058,3.60734 1.09891,4.78541 12.30598,4.78541 9.1422,0 9.80887,0.13593 9.80887,2 0,1.87215 -0.66667,2 -10.42857,2 C 478.96428,174 478,174.60902 478,182.57143 V 188 h -4 -4 l 0.002,-10.25 z M 523,176.07143 C 523,161.97131 522.47982,161 514.92857,161 510.66667,161 510,160.72947 510,159 c 0,-1.92157 0.66667,-2 17,-2 16.33333,0 17,0.0784 17,2 0,1.70797 -0.66667,2 -4.56574,2 C 531.18281,161 531,161.31505 531,175.53518 V 188 h -4 -4 z M 558.21561,174.25 c -2.77964,-7.5625 -5.36342,-14.5375 -5.74174,-15.5 -0.59321,-1.50922 -0.0691,-1.75 3.80961,-1.75 h 4.49746 l 3.35953,9.74541 c 4.536,13.15816 5.66052,13.1927 9.74777,0.29941 L 577.0725,157 h 5.32994 5.32995 l 3.17005,10 c 3.24035,10.22174 5.26332,12.47771 6.94958,7.75 0.44138,-1.2375 2.0509,-5.7375 3.5767,-10 l 2.77419,-7.75 h 3.89854 c 2.1442,0 3.89855,0.18642 3.89855,0.41427 0,0.38619 -8.94068,24.90679 -10.53153,28.88364 -0.58547,1.46356 -1.67222,1.74251 -5.84384,1.5 L 590.5,187.5 587,177.5 c -2.19781,-6.27945 -4.02425,-10 -4.90907,-10 -0.87183,0 -2.44436,3.0811 -4.12446,8.08119 C 573.8429,187.85315 573.72622,188 568.09956,188 h -4.83007 z m 67.18405,12.32206 C 621.85772,185.03016 621,183.37707 621,178.09253 c 0,-2.71813 0.69726,-4.39894 2.54486,-6.13467 2.26481,-2.12768 3.66787,-2.43514 12.75,-2.79397 10.33692,-0.40841 11.82958,-0.97203 10.99782,-4.15269 C 646.53314,162.10672 642.43873,161 632.45295,161 623.66667,161 623,160.85895 623,159 c 0,-1.90179 0.66667,-2 13.57692,-2 h 13.57693 l 2.92307,2.92308 c 2.92088,2.92088 2.92308,2.93252 2.92308,15.5 V 188 l -13.75,-0.0391 c -9.26476,-0.0264 -14.76133,-0.4794 -16.85034,-1.3888 z M 646.8,181.8 c 0.66,-0.66 1.2,-2.145 1.2,-3.3 0,-3.45607 -2.01827,-4.5 -8.7,-4.5 -5.00428,0 -6.71884,0.41884 -8.33647,2.03647 -1.93885,1.93885 -1.8878,2.86581 0.31461,5.71353 1.26816,1.63972 13.89147,1.68039 15.52186,0.05 z M 664,172.5 V 157 h 14.94424 c 14.35583,0 15.0547,0.095 17.75,2.41342 2.40473,2.06846 2.80576,3.15611 2.80576,7.6096 0,4.70088 -0.32884,5.47072 -3.44981,8.07622 l -3.44981,2.88003 3.19981,4.5396 c 1.7599,2.49678 3.19981,4.75145 3.19981,5.01037 0,0.25892 -1.985,0.47076 -4.41111,0.47076 -4.51645,0 -6.17126,-1.22274 -10.58889,-7.82414 -0.89856,-1.34274 -2.93383,-2.46995 -5.07597,-2.81128 C 674.23616,176.61763 672,178.78365 672,184.07143 672,187.9881 671.98788,188 668,188 h -4 z m 24.63538,-2.04447 c 1.50087,-1.50087 2.30251,-3.17499 1.95454,-4.08179 C 690.26547,165.52822 690,164.49546 690,164.07873 690,162.53838 684.74744,161 679.48813,161 673.71925,161 672,162.37758 672,167 c 0,4.75616 1.67517,6 8.08064,6 5.10563,0 6.39325,-0.38298 8.55474,-2.54447 z m 28.71622,16.45202 c -1.73161,-0.50164 -4.54411,-2.50172 -6.25,-4.44461 -2.75854,-3.14181 -3.10119,-4.21997 -3.09786,-9.74774 C 708.01114,160.40363 712.65988,157 729.46788,157 739.33333,157 740,157.1266 740,159 c 0,1.82782 -0.66718,2.00013 -7.75,2.00155 -8.55044,0.002 -14.48591,2.11657 -15.09546,5.37862 -0.55384,2.96396 1.62724,3.58813 12.59546,3.60452 9.57823,0.0143 10.25,0.14639 10.25,2.01531 0,1.86557 -0.66667,2 -9.91821,2 C 718.97206,174 717,174.44501 717,176.952 c 0,3.92595 3.70023,5.52935 13.603,5.89453 9.16004,0.33779 9.397,0.40714 9.397,2.75 0,2.37979 -0.0961,2.40258 -9.75,2.31328 -5.3625,-0.0496 -11.16678,-0.50062 -12.8984,-1.00226 z M 749,185.60551 v -2.54204 l 11.6432,-0.28173 c 9.80801,-0.23733 11.81685,-0.55757 12.74489,-2.03174 1.92775,-3.06219 -0.42312,-5.21704 -5.99052,-5.49102 C 751.05919,174.45493 748,172.91584 748,165.5 c 0,-3.26133 0.57448,-4.9573 2.18856,-6.46104 1.99826,-1.86166 3.47649,-2.03896 17,-2.03896 14.14477,0 14.81144,0.09 14.81144,2 0,1.87879 -0.66667,2 -11,2 -9.66667,0 -11.24242,0.24242 -13,2 -2.55648,2.55648 -2.51691,3.52453 0.22251,5.4433 1.52824,1.07042 4.57393,1.56097 9.75,1.57035 9.73141,0.0177 11.7948,0.63569 13.56754,4.06379 2.10313,4.06702 1.80356,7.41116 -0.95105,10.6168 -2.40888,2.80328 -2.4239,2.80605 -17,3.12953 L 749,188.14755 Z M 428.23964,74.336785 428.5,29.5 441.75,29.220975 c 12.39844,-0.261093 13.25,-0.158251 13.25,1.600188 0,1.690942 -1.11232,1.937894 -11.10257,2.464924 -6.10641,0.32214 -11.39391,0.876643 -11.75,1.232228 C 431.79135,34.8739 431.275,53.877988 431,76.749621 c -0.38721,32.203949 -0.78432,41.679439 -1.76036,42.004369 -1.00387,0.33419 -1.20737,-8.70483 -1,-44.417205 z m 45,0 L 473.5,29.5 510,29.5087 c 35.1677,0.0084 36.7137,0.08911 42.35456,2.211064 5.40429,2.032959 13.26014,6.998846 12.41263,7.846352 -0.20029,0.200291 -3.17143,-0.769741 -6.60254,-2.155627 -3.6063,-1.456649 -10.12556,-2.955377 -15.45151,-3.552185 -10.50717,-1.177396 -64.1179,-0.788655 -65.38069,0.474087 -0.45785,0.457854 -1.05745,19.545597 -1.33245,42.41723 -0.38721,32.203949 -0.78432,41.679439 -1.76036,42.004369 -1.00387,0.33419 -1.20737,-8.70483 -1,-44.417205 z m 73.30156,15.13079 c -0.40432,-16.283844 -0.50295,-29.839161 -0.21918,-30.122928 0.28377,-0.283767 1.1149,0.535101 1.84696,1.819707 1.75307,3.076253 1.95831,56.956136 0.21918,57.538136 -0.78835,0.26382 -1.32573,-8.24219 -1.84696,-29.234915 z M 56,73.5 V 29 h 33.316341 c 35.281269,0 42.008199,0.610552 49.706269,4.511455 4.84573,2.455519 9.47972,6.704581 5.47739,5.02241 C 132.48454,33.483791 133.37941,33.584928 97.332657,33.20309 73.478674,32.950408 62.536666,33.1776 61.082657,33.955764 59.023853,35.057602 59,35.545271 59,76.535184 59,112.72613 58.809217,118 57.5,118 56.189139,118 56,112.38889 56,73.5 Z m 652.00816,43.75 c 0.0127,-1.16823 36.3351,-42.56751 37.74184,-43.017137 0.80539,-0.257421 1.25,0.636733 1.25,2.513862 0,2.310585 -3.01541,6.414285 -14.57361,19.833334 -8.01548,9.305971 -15.69057,17.932441 -17.05576,19.169941 -2.33378,2.1155 -7.38035,3.14367 -7.36247,1.5 z M 221.21697,104.89771 c -5.31495,-0.89615 -12.54315,-3.99843 -13.70814,-5.88342 -0.85628,-1.385498 0.22717,-1.260233 5.49117,0.634868 3.58822,1.291802 8.95761,1.643432 26.5,1.735442 21.29487,0.1117 22,0.1795 22,2.1154 0,1.91831 -0.71475,2.00589 -17.5,2.14424 -9.625,0.0793 -19.87737,-0.25661 -22.78303,-0.74653 z m 130.61584,-0.0808 c -2.01695,-0.53702 -4.49195,-1.89674 -5.5,-3.02159 -1.81958,-2.030424 -1.80754,-2.038873 1.66719,-1.17025 1.925,0.48122 16.60737,0.71621 32.62748,0.5222 29.8161,-0.36109 32.22342,-0.0824 29.33617,3.39655 -1.00683,1.21315 -5.65288,1.43895 -27.83609,1.35285 -14.64516,-0.0568 -28.2778,-0.54274 -30.29475,-1.07976 z m -38.04914,-4.41235 C 311.60883,95.643917 311.54245,94.531661 311.52154,62.5 l -0.0215,-33 h 13.5 c 11.33333,0 13.5,0.240741 13.5,1.5 0,1.198612 -2.15097,1.633285 -10.7053,2.163354 -5.88791,0.364845 -11.17541,0.953903 -11.75,1.309017 -1.36781,0.845357 -1.42441,61.716851 -0.0618,66.467999 1.50254,5.23906 0.30576,4.94747 -2.19923,-0.53583 z m 316.71594,2.20955 c -1.65021,-0.7192 -3.64129,-2.07988 -4.42463,-3.023744 -1.30793,-1.575964 -1.1854,-1.649726 1.50039,-0.903228 C 629.18392,99.134203 637.475,99.5 646,99.5 h 15.5 L 662,64 l 0.5,-35.5 13.25,-0.279025 c 12.73819,-0.268247 13.25,-0.20065 13.25,1.75 C 689,31.874407 688.38102,32 679,32 c -15.45998,0 -14.45468,-2.64258 -13.68593,35.975334 0.54707,27.482026 0.42851,31.947175 -0.89863,33.841926 -1.45589,2.07858 -2.23002,2.18087 -16.22214,2.1436 -9.824,-0.0262 -15.68762,-0.47249 -17.69369,-1.34677 z M 593.57928,98.525819 C 590.92505,92.932456 589.93253,79.452833 590.22714,53 L 590.5,28.5 H 604 c 11.33333,0 13.5,0.240741 13.5,1.5 0,1.198612 -2.15097,1.633285 -10.7053,2.163354 -5.88791,0.364845 -11.17541,0.953903 -11.75,1.309017 -1.37751,0.85135 -1.36463,57.427846 0.0144,63.409605 1.27877,5.546744 0.68511,6.206194 -1.47986,1.643843 z M 172.69377,92.25 c -1.92227,-4.162146 -2.18976,-6.420742 -2.16135,-18.25 0.0277,-11.548653 0.3524,-14.30191 2.24621,-19.047851 5.78781,-14.504428 16.91395,-22.272994 35.62704,-24.875746 C 212.66215,29.484381 226.46216,29 239.07236,29 260.78063,29 262,29.099193 262,30.865117 c 0,1.75785 -1.48094,1.896255 -25.75,2.406553 -27.62655,0.580894 -32.9107,1.366098 -42.9052,6.375548 -9.65962,4.841599 -16.81685,14.571479 -19.23724,26.152003 -1.49413,7.148772 -1.37125,18.447452 0.27678,25.450779 0.7442,3.1625 1.16187,5.75 0.92815,5.75 -0.23372,0 -1.41215,-2.1375 -2.61872,-4.75 z M 88.25,74.337719 C 87.5625,74.060307 87,73.195833 87,72.416667 c 0,-1.147857 2.419291,-1.417725 12.75,-1.422244 7.0125,-0.0031 14.40858,-0.466233 16.43572,-1.029256 C 121.03436,68.618497 125,63.875587 125,59.423275 c 0,-3.55786 1.33898,-4.588244 2.39301,-1.841488 2.36558,6.164602 -0.82603,13.447713 -7.02879,16.039393 -3.22047,1.345596 -29.122962,1.923538 -32.11422,0.716539 z M 763,58.5 c -0.68469,-0.825 -0.82023,-1.5 -0.3012,-1.5 0.51904,0 6.24111,-6.525 12.71573,-14.5 L 787.18657,28 h 14.40672 C 809.51698,28 816,28.192857 816,28.428571 c 0,0.235715 -0.70714,1.135715 -1.57143,2 -1.18315,1.183151 -3.83932,1.596059 -10.75,1.671109 -5.04821,0.05482 -10.29099,0.409643 -11.65062,0.788486 -1.51727,0.422769 -6.6542,5.791486 -13.30021,13.90032 C 767.91397,59.982441 765.63729,61.677744 763,58.5 Z M 710.43848,30.932016 C 709.64731,30.057792 709,29.040452 709,28.671259 709,28.302067 715.45526,28 723.34501,28 c 12.62723,0 14.5432,0.218988 16,1.828741 0.91025,1.005807 1.65409,2.018307 1.653,2.25 -10e-4,0.231692 -6.55379,0.426099 -14.56153,0.432016 -12.0456,0.0089 -14.80791,-0.263696 -15.998,-1.578741 z"
       id="path16"
       inkscape:connector-curvature="0" />
    <path
       style="fill:#0d0d0d"
       d="m 102.11867,186.99708 c -1.85973,-0.43901 -4.769658,-2.18653 -6.466505,-3.88338 -2.737056,-2.73705 -3.123172,-3.84843 -3.421912,-9.84944 -0.273957,-5.50317 0.05014,-7.38139 1.738402,-10.07444 C 97.081097,158.22498 101.13795,157 114.46788,157 125.14437,157 126,157.14144 126,158.90629 c 0,1.7263 -0.95209,1.93875 -10.08364,2.25 -9.94779,0.33908 -10.12293,0.38771 -13,3.60949 C 100.89362,167.03087 100,169.08476 100,171.46872 100,179.05574 104.25211,183 112.43129,183 c 3.99758,0 4.60436,-0.29386 5.1575,-2.49776 0.9052,-3.6066 -0.0802,-5.31322 -3.27973,-5.68012 -2.02834,-0.23259 -2.89787,-0.94746 -3.12861,-2.57212 -0.30724,-2.16331 -0.0279,-2.25 7.25,-2.25 H 126 v 9 9 l -10.25,-0.10236 c -5.6375,-0.0563 -11.7716,-0.46155 -13.63133,-0.90056 z m 36.16618,-0.4733 c -3.48763,-1.5164 -4.63552,-4.18083 -4.10853,-9.53654 0.54418,-5.53046 4.06749,-7.2699 16.05477,-7.92618 10.96889,-0.60053 12.39672,-1.44996 9.38023,-5.5804 -1.26147,-1.72731 -2.86405,-2.02395 -12.52891,-2.31914 C 136.80419,160.84761 136,160.67885 136,158.83594 c 0,-1.90419 0.5879,-1.97352 14.08901,-1.66152 14.02631,0.32413 14.09973,0.33807 16.5,3.13134 2.26851,2.63996 2.41099,3.54115 2.41099,15.25 V 188 l -13.75,-0.0391 c -9.49957,-0.027 -14.74387,-0.47128 -16.96515,-1.43708 z m 22.34335,-6.17856 c 1.13231,-4.51147 -0.58235,-5.81193 -8.1004,-6.1436 -5.2671,-0.23236 -7.17982,0.0785 -8.64561,1.40499 -4.70401,4.25707 -1.02607,7.39339 8.67019,7.39339 7.18469,0 7.42973,-0.0805 8.07582,-2.65478 z m 18.03847,6.98811 C 178.3,186.96667 178,179.99167 178,171.83333 V 157 l 20.25,0.004 c 28.03004,0.005 28.08345,0.043 28.19258,19.99626 l 0.0574,10.5 h -4 -4 l -0.5,-11.33397 c -0.42885,-9.7212 -0.77621,-11.53546 -2.44113,-12.75 -2.65729,-1.93846 -8.18368,-1.83613 -8.95188,0.16576 -0.33385,0.86998 -0.60699,6.71998 -0.60699,13 L 206,188 h -3.97012 -3.97013 L 197.77988,175.25 197.5,162.5 l -4.90325,-0.31105 c -3.24554,-0.20589 -5.18435,0.1322 -5.73469,1 -0.45729,0.72108 -0.83833,6.59855 -0.84675,13.06105 L 186,188 h -3.33333 c -1.83334,0 -3.63334,-0.3 -4,-0.66667 z m 65.20218,-0.50792 c -1.99714,-0.53233 -4.90828,-2.30091 -6.46921,-3.93016 -2.43867,-2.54543 -2.88506,-3.90745 -3.17209,-9.67877 -0.27118,-5.45263 0.0564,-7.33936 1.74111,-10.02666 C 239.01557,158.32951 243.20379,157 255.46788,157 265.33333,157 266,157.1266 266,159 c 0,1.82782 -0.66718,2.00013 -7.75,2.00155 -8.55044,0.002 -14.48591,2.11657 -15.09546,5.37862 -0.55384,2.96396 1.62724,3.58813 12.59546,3.60452 9.57823,0.0143 10.25,0.14639 10.25,2.01531 0,1.86557 -0.66667,2 -9.91821,2 -5.45502,0 -10.63002,0.27314 -11.5,0.60699 -2.40549,0.92307 -1.89222,4.00366 1.05307,6.32043 2.21557,1.74277 4.04557,2.07258 11.5,2.07258 8.78948,0 8.86514,0.0213 8.86514,2.5 0,2.49394 -0.0224,2.49975 -9.25,2.39665 -5.0875,-0.0568 -10.88402,-0.5389 -12.88115,-1.07124 z M 275,185.57377 V 183 h 11.37756 c 12.26906,0 14.08615,-0.70188 13.4492,-5.19496 -0.30864,-2.17718 -0.87416,-2.34073 -10.19557,-2.94849 -12.37198,-0.80666 -14.98489,-2.34669 -15.4314,-9.0951 -0.25922,-3.91762 0.0665,-4.82575 2.38485,-6.64937 C 279.03419,157.18527 280.52982,157 293.63486,157 307.33333,157 308,157.09282 308,159 c 0,1.87629 -0.66667,2 -10.77749,2 C 286.25829,161 282,162.23132 282,165.40172 282,168.61786 285.54131,170 293.78169,170 c 9.13765,0 12.4903,1.10677 14.10804,4.65732 1.73337,3.80435 1.32107,6.98584 -1.30073,10.03692 -2.40888,2.80328 -2.4239,2.80605 -17,3.12953 L 275,188.14755 Z m 62.86885,1.25164 c -1.99714,-0.53233 -4.90828,-2.30091 -6.46921,-3.93016 -2.43867,-2.54543 -2.88506,-3.90745 -3.17209,-9.67877 -0.27118,-5.45263 0.0564,-7.33936 1.74111,-10.02666 C 333.01557,158.32951 337.20379,157 349.46788,157 359.33333,157 360,157.1266 360,159 c 0,1.82782 -0.66718,2.00013 -7.75,2.00155 -8.55044,0.002 -14.48591,2.11657 -15.09546,5.37862 -0.55384,2.96396 1.62724,3.58813 12.59546,3.60452 9.57823,0.0143 10.25,0.14639 10.25,2.01531 0,1.86557 -0.66667,2 -9.91821,2 -5.45502,0 -10.63002,0.27314 -11.5,0.60699 -2.40549,0.92307 -1.89222,4.00366 1.05307,6.32043 2.21557,1.74277 4.04557,2.07258 11.5,2.07258 8.78948,0 8.86514,0.0213 8.86514,2.5 0,2.49394 -0.0224,2.49975 -9.25,2.39665 -5.0875,-0.0568 -10.88402,-0.5389 -12.88115,-1.07124 z M 381,185.57377 V 183 h 11.37756 c 12.26906,0 14.08615,-0.70188 13.4492,-5.19496 -0.30864,-2.17718 -0.87416,-2.34073 -10.19557,-2.94849 -12.37198,-0.80666 -14.98489,-2.34669 -15.4314,-9.0951 -0.25922,-3.91762 0.0665,-4.82575 2.38485,-6.64937 C 385.03419,157.18527 386.52982,157 399.63486,157 413.33333,157 414,157.09282 414,159 c 0,1.87629 -0.66667,2 -10.77749,2 C 392.25829,161 388,162.23132 388,165.40172 388,168.61786 391.54131,170 399.78169,170 c 9.13765,0 12.4903,1.10677 14.10804,4.65732 1.73337,3.80435 1.32107,6.98584 -1.30073,10.03692 -2.40888,2.80328 -2.4239,2.80605 -17,3.12953 L 381,188.14755 Z m 51.52314,0.69802 C 425.85618,183.89832 423,179.69482 423,172.25641 c 0,-10.7028 5.86873,-15.27236 19.56572,-15.23445 14.08821,0.039 19.86597,4.66069 19.75953,15.80582 -0.0898,9.40633 -5.58862,14.03482 -17.54587,14.7689 -5.34731,0.32828 -8.60032,-0.0234 -12.25624,-1.32489 z M 448.85497,181.575 C 452.09995,179.89695 454,176.2087 454,171.58781 c 0,-6.92718 -7.26473,-11.6707 -14.77611,-9.6481 -5.1556,1.38826 -7.35035,4.0026 -7.96916,9.4927 -0.46659,4.13952 -0.21646,4.80586 3.01826,8.04058 2.90274,2.90274 4.26148,3.52701 7.67667,3.52701 2.28231,0 5.3897,-0.64125 6.90531,-1.425 z m 21.14658,-3.825 c 0.003,-17.52977 3.29783,-20.75 21.23285,-20.75 10.09893,0 10.7656,0.12385 10.7656,2 0,1.81861 -0.66667,2 -7.35078,2 -8.43141,0 -13.23575,1.3589 -14.73972,4.16911 C 477.85911,169.00029 480.283,170 491.62244,170 501.33333,170 502,170.12848 502,172 c 0,1.87215 -0.66667,2 -10.42857,2 C 478.96428,174 478,174.60902 478,182.57143 V 188 h -4 -4 l 0.002,-10.25 z M 523,176.07143 C 523,161.97131 522.47982,161 514.92857,161 510.66667,161 510,160.72947 510,159 c 0,-1.92157 0.66667,-2 17,-2 16.33333,0 17,0.0784 17,2 0,1.70797 -0.66667,2 -4.56574,2 C 531.18281,161 531,161.31505 531,175.53518 V 188 h -4 -4 z m 40.30413,10.72673 c -0.56137,-0.71399 -1.71584,-3.32316 -2.56548,-5.79816 -0.84964,-2.475 -3.15533,-8.8875 -5.12376,-14.25 L 552.03592,157 h 4.37251 4.37251 l 3.35953,9.74541 c 4.59405,13.32654 5.81359,13.3657 9.84058,0.31599 L 577.08589,157 h 5.26022 5.26022 l 2.31218,7.25 c 3.92678,12.31271 4.87267,14.1682 6.52399,12.79772 0.79327,-0.65836 2.85533,-5.43842 4.58237,-10.62236 L 604.16493,157 h 3.91753 c 2.15465,0 3.91754,0.21347 3.91754,0.47438 0,0.26092 -2.53756,7.25726 -5.63903,15.54744 l -5.63903,15.07306 -5.11097,-0.29744 L 590.5,187.5 587,177.5 c -2.33333,-6.66667 -4,-10 -5,-10 -1,0 -2.66667,3.33333 -5,10 l -3.5,10 -4.58759,0.29816 c -2.8881,0.1877 -4.9657,-0.18275 -5.60828,-1 z m 61.98072,-0.27438 c -3.48763,-1.5164 -4.63552,-4.18083 -4.10853,-9.53654 0.54418,-5.53046 4.06749,-7.2699 16.05477,-7.92618 10.96889,-0.60053 12.39672,-1.44996 9.38023,-5.5804 -1.26147,-1.72731 -2.86405,-2.02395 -12.52891,-2.31914 C 623.80419,160.84761 623,160.67885 623,158.83594 c 0,-1.90419 0.5879,-1.97352 14.08901,-1.66152 14.02631,0.32413 14.09973,0.33807 16.5,3.13134 2.26851,2.63996 2.41099,3.54115 2.41099,15.25 V 188 l -13.75,-0.0391 c -9.49957,-0.027 -14.74387,-0.47128 -16.96515,-1.43708 z m 22.34335,-6.17856 c 1.13231,-4.51147 -0.58235,-5.81193 -8.1004,-6.1436 -5.2671,-0.23236 -7.17982,0.0785 -8.64561,1.40499 -4.70401,4.25707 -1.02607,7.39339 8.67019,7.39339 7.18469,0 7.42973,-0.0805 8.07582,-2.65478 z m 17.03847,6.98811 C 664.3,186.96667 664,179.99167 664,171.83333 V 157 h 15.04545 c 14.57201,0 15.12142,0.076 17.45934,2.41388 4.69347,4.69347 4.46899,10.93992 -0.56207,15.63962 -1.61849,1.51191 -2.94272,3.06612 -2.94272,3.45381 0,0.38768 1.35,2.4094 3,4.49269 1.65,2.08329 3,4.06055 3,4.3939 0,0.33336 -1.98719,0.6061 -4.41597,0.6061 -4.01763,0 -4.7098,-0.38337 -7.67335,-4.25 -4.34726,-5.672 -5.78945,-6.75 -9.03038,-6.75 -3.84561,0 -5.8803,2.44684 -5.8803,7.07143 0,3.78571 -0.12121,3.92857 -3.33333,3.92857 -1.83334,0 -3.63334,-0.3 -4,-0.66667 z M 689,171 c 2.33995,-2.33995 2.54904,-4.86689 0.62089,-7.50378 -2.05695,-2.81305 -14.3995,-3.51948 -16.29119,-0.93243 -1.59137,2.17633 -1.71834,5.84152 -0.29452,8.50195 1.53054,2.85984 13.08683,2.81225 15.96482,-0.0657 z m 28.86885,15.82541 c -1.99714,-0.53233 -4.90828,-2.30091 -6.46921,-3.93016 -2.43867,-2.54543 -2.88506,-3.90745 -3.17209,-9.67877 -0.27118,-5.45263 0.0565,-7.33936 1.74111,-10.02666 C 713.01557,158.32951 717.20379,157 729.46788,157 739.33333,157 740,157.1266 740,159 c 0,1.82782 -0.66718,2.00013 -7.75,2.00155 -8.55044,0.002 -14.48591,2.11657 -15.09546,5.37862 -0.55384,2.96396 1.62724,3.58813 12.59546,3.60452 9.57823,0.0143 10.25,0.14639 10.25,2.01531 0,1.86557 -0.66667,2 -9.91821,2 -5.45502,0 -10.63002,0.27314 -11.5,0.60699 -2.40549,0.92307 -1.89222,4.00366 1.05307,6.32043 2.21557,1.74277 4.04557,2.07258 11.5,2.07258 8.78948,0 8.86514,0.0213 8.86514,2.5 0,2.49394 -0.0224,2.49975 -9.25,2.39665 -5.0875,-0.0568 -10.88402,-0.5389 -12.88115,-1.07124 z M 749,185.57377 V 183 h 11.37756 c 12.26906,0 14.08615,-0.70188 13.4492,-5.19496 -0.30864,-2.17718 -0.87416,-2.34073 -10.19557,-2.94849 -12.37198,-0.80666 -14.98489,-2.34669 -15.4314,-9.0951 -0.25922,-3.91762 0.0665,-4.82575 2.38485,-6.64937 C 753.03419,157.18527 754.52982,157 767.63486,157 781.33333,157 782,157.09282 782,159 c 0,1.87629 -0.66667,2 -10.77749,2 C 760.25829,161 756,162.23132 756,165.40172 756,168.61786 759.54131,170 767.78169,170 c 9.13765,0 12.4903,1.10677 14.10804,4.65732 1.73337,3.80435 1.32107,6.98584 -1.30073,10.03692 -2.40888,2.80328 -2.4239,2.80605 -17,3.12953 L 749,188.14755 Z"
       id="path14"
       inkscape:connector-curvature="0" />
  </g>
</svg>
