<?xml version="1.0" encoding="UTF-8" standalone="no"?>
<!-- Created with Inkscape (http://www.inkscape.org/) -->

<svg
   xmlns:dc="http://purl.org/dc/elements/1.1/"
   xmlns:cc="http://creativecommons.org/ns#"
   xmlns:rdf="http://www.w3.org/1999/02/22-rdf-syntax-ns#"
   xmlns:svg="http://www.w3.org/2000/svg"
   xmlns="http://www.w3.org/2000/svg"
   xmlns:sodipodi="http://sodipodi.sourceforge.net/DTD/sodipodi-0.dtd"
   xmlns:inkscape="http://www.inkscape.org/namespaces/inkscape"
   version="1.1"
   id="svg2"
   width="546"
   height="237"
   viewBox="0 0 546 237"
   sodipodi:docname="este.svg"
   inkscape:version="0.92.3 (2405546, 2018-03-11)">
  <metadata
     id="metadata8">
    <rdf:RDF>
      <cc:Work
         rdf:about="">
        <dc:format>image/svg+xml</dc:format>
        <dc:type
           rdf:resource="http://purl.org/dc/dcmitype/StillImage" />
        <dc:title></dc:title>
      </cc:Work>
    </rdf:RDF>
  </metadata>
  <defs
     id="defs6" />
  <sodipodi:namedview
     pagecolor="#ffffff"
     bordercolor="#666666"
     borderopacity="1"
     objecttolerance="10"
     gridtolerance="10"
     guidetolerance="10"
     inkscape:pageopacity="0"
     inkscape:pageshadow="2"
     inkscape:window-width="1920"
     inkscape:window-height="1017"
     id="namedview4"
     showgrid="false"
     inkscape:zoom="0.63369963"
     inkscape:cx="273"
     inkscape:cy="118.5"
     inkscape:window-x="-4"
     inkscape:window-y="-4"
     inkscape:window-maximized="1"
     inkscape:current-layer="g12" />
  <g
     id="g12"
     transform="translate(-1.9999997,4.7341003)">
    <path
       style="fill:#e7e3d8"
       d="M 68.338964,146.12656 C 67.327534,145.03713 56.6,132.03526 44.5,117.23352 l -22,-26.912256 -0.281947,23.089366 c -0.155071,12.69915 -0.03292,24.10618 0.271456,25.34895 0.406675,1.66048 1.740827,2.57716 5.031947,3.4574 C 29.984655,142.87579 32,143.99648 32,144.7074 32,145.69526 29.053021,146 19.5,146 9.0555556,146 7,145.75333 7,144.5 7,143.66667 7.8888889,143 9,143 c 1.1,0 2.9,-0.9 4,-2 1.907819,-1.90782 2,-3.33333 2,-30.92857 C 15,78.677926 15.07542,79.119771 9.344822,76.941001 8.0551699,76.450677 7,75.363364 7,74.524751 7,73.241631 8.8620516,73.009206 18.75,73.058092 L 30.5,73.116185 48.75,95.618295 67,118.12041 V 99.21519 C 67,78.329543 66.768658,77.53191 60.508551,76.833664 58.624268,76.623492 57.394271,75.852307 57.185226,74.75 56.884005,73.16164 57.96851,73 68.926676,73 80.333333,73 81,73.110436 81,75 81,76.4392 80.333333,77 78.622445,77 73.676044,77 73.53557,77.919918 73,113.81954 c -0.521091,34.92908 -0.750497,36.51916 -4.661036,32.30702 z m 105.858436,0.37923 c -9.29862,-2.61588 -15.34615,-6.92443 -20.01376,-14.25877 -11.22768,-17.64236 -6.5627,-43.815765 9.64309,-54.103758 12.57055,-7.98021 29.85917,-8.045201 42.14961,-0.158446 14.78303,9.486243 20.06103,32.072624 11.68759,50.015184 -2.88053,6.17239 -10.57683,13.61296 -17.23274,16.66013 -7.01581,3.21195 -18.50401,4.02019 -26.23379,1.84566 z m 17.90472,-6.76899 c 6.34401,-4.2255 9.87414,-15.03553 9.87414,-30.2368 0,-20.959983 -6.64347,-32.314709 -18.27301,-31.231418 -9.07621,0.845448 -13.84914,8.043979 -15.76173,23.771798 -2.3771,19.54757 2.27438,36.0596 11.05848,39.25591 3.71233,1.35083 9.82502,0.62326 13.10212,-1.55949 z m 75.45037,6.66799 c -26.15254,-8.3545 -33.60391,-42.39929 -13.89224,-63.472659 9.81868,-10.496964 21.08878,-13.147677 37.78921,-8.887975 l 8.9256,2.276613 1.43444,-2.160384 C 302.59845,72.972173 303.86406,72 304.62197,72 305.71918,72 306,74.547289 306,84.5 c 0,11.243999 -0.17584,12.498443 -1.75,12.484502 -1.09791,-0.0097 -2.89633,-2.152317 -4.82635,-5.75 C 291.93207,77.269778 277.37451,73.903167 268.63433,84.114104 263.62867,89.962084 262.5,95.184892 262.5,112.5 c 0,14.01386 0.16436,15.3253 2.5,19.94803 3.59786,7.12093 6.71729,9.05622 14.55998,9.03302 9.27646,-0.0274 9.75528,-0.74307 8.74861,-13.07536 L 287.5,118.5 l -3.75,-0.92637 c -2.62379,-0.64815 -3.75,-1.47404 -3.75,-2.75 C 280,113.1303 281.2147,113 297,113 c 16.33333,0 17,0.0784 17,2 0,1.24988 -0.66667,2 -1.77749,2 -0.97763,0 -2.77763,0.70052 -4,1.5567 C 306.14678,120.0106 306,120.86649 306,131.51652 v 11.40312 l -6.75,2.15304 c -9.01472,2.87541 -24.79099,3.53842 -31.69751,1.33211 z m 136.37686,0.29238 c -10.37337,-2.94342 -18.12481,-9.61957 -22.80744,-19.64356 -2.31636,-4.95857 -2.59581,-6.78577 -2.60812,-17.05361 -0.0124,-10.365822 0.24514,-12.042433 2.6116,-17 3.89524,-8.16026 9.01471,-13.451592 16.64908,-17.208001 6.29672,-3.098236 7.30957,-3.290433 17.20803,-3.265385 9.39462,0.02377 11.11819,0.318881 16.14389,2.764143 6.6794,3.249875 14.17033,10.902743 16.89583,17.261087 4.75041,11.082236 4.50222,25.584776 -0.61907,36.175066 -3.17571,6.56701 -11.11208,13.63469 -18.40315,16.38878 -6.82923,2.57964 -18.87495,3.33949 -25.07065,1.58148 z m 17.63674,-7.18304 c 7.08124,-4.14988 10.41542,-13.94247 10.42812,-30.62764 0.011,-14.417545 -3.55255,-25.426563 -9.38072,-28.980467 -2.04105,-1.244592 -4.97519,-1.899834 -8.51833,-1.902285 -5.01096,-0.0035 -5.68339,0.289092 -9.2274,4.01461 -5.65529,5.944945 -7.30505,12.463581 -7.33955,29.000472 -0.0279,13.34793 0.0143,13.60517 3.33304,20.34871 2.82692,5.74413 4.01919,7.12863 7.5,8.70921 5.52685,2.50965 8.15339,2.39774 13.20484,-0.56261 z m 42.10058,6.8192 c -1.39569,-1.39569 -0.54037,-2.29025 3.13642,-3.28031 2.09169,-0.56323 5.7094,-2.6558 8.03934,-4.65014 6.46433,-5.53323 23.42055,-27.27518 22.71184,-29.12204 -1.29653,-3.37871 -18.0708,-26.527172 -21.2372,-29.307315 -1.93731,-1.700973 -5.05817,-3.228303 -7.34316,-3.593687 C 466.58145,75.997267 465,75.19831 465,74.372192 465,73.260091 468.4118,73 483,73 c 15.33333,0 18,0.222222 18,1.5 0,0.898551 -0.92222,1.5 -2.3,1.5 -2.65801,0 -4.70093,1.717694 -4.69789,3.95 0.002,1.712265 11.02673,18.724122 12.29059,18.965721 1.46499,0.280048 14.67666,-17.38698 14.69208,-19.646669 0.0111,-1.62672 -0.72959,-2.394149 -2.73478,-2.833523 C 513.72704,75.444467 513,75.111532 513,74.031385 513,73.373804 517.8928,73 526.5,73 c 11.33333,0 13.5,0.240741 13.5,1.5 0,0.908184 -0.92801,1.5 -2.35212,1.5 -4.04493,0 -8.83101,4.180202 -18.36165,16.037208 -5.06757,6.304536 -9.23007,11.811062 -9.25,12.236712 -0.0605,1.29255 19.99674,30.99719 23.26631,34.45724 1.6793,1.77714 4.54822,3.72454 6.37537,4.32756 1.82715,0.60301 3.32209,1.73649 3.32209,2.51883 0,1.17246 -2.89981,1.42245 -16.5,1.42245 -12.7447,0 -16.5,-0.29149 -16.5,-1.28076 0,-0.70442 1.34897,-1.78995 2.99772,-2.41228 1.64875,-0.62233 3.27154,-1.84507 3.60621,-2.71721 0.38326,-0.99876 -2.29942,-6.04494 -7.24772,-13.6331 l -7.85621,-12.0474 -2.27298,2.79537 c -16.63469,20.45786 -18.50356,24.41682 -12.18169,25.80534 1.62507,0.35692 2.95467,1.2882 2.95467,2.0695 0,1.15359 -2.41162,1.42054 -12.83333,1.42054 -7.05834,0 -13.13334,-0.3 -13.5,-0.66667 z M 82,144 c 0,-1.65614 0.666667,-2 3.877555,-2 6.70108,0 6.647408,0.27945 6.414508,-33.39775 C 92.063141,75.500248 92.16252,76 85.80887,76 83.978763,76 83,75.477318 83,74.5 83,73.200526 86.948204,73 112.53383,73 h 29.53383 l -0.28383,10.75 c -0.22841,8.650848 -0.5702,10.75 -1.75037,10.75 -0.88976,0 -1.98206,-1.825259 -2.77733,-4.640965 -2.45055,-8.676395 -7.93638,-11.843093 -20.53435,-11.853458 L 109.94356,78 l 0.27822,13.75 0.27822,13.75 3,-0.28357 c 4.02172,-0.38014 8.11729,-4.99173 8.98279,-10.114572 C 123.01172,91.97114 123.6285,91 125.0879,91 126.89988,91 127,91.942482 127,109 c 0,17.19424 -0.0875,18 -1.95469,18 -1.47138,0 -2.12256,-0.92721 -2.63365,-3.75 C 121.02419,115.5868 117.88505,112 112.56574,112 H 110 v 12.30887 c 0,15.6039 0.16439,15.8676 9.89214,15.8676 10.58825,0 15.52581,-2.71871 19.91302,-10.96444 3.48293,-6.54613 6.81504,-8.53264 5.80711,-3.46203 -0.30065,1.5125 -1.02167,5.675 -1.60226,9.25 -0.58059,3.575 -1.27893,7.5125 -1.55187,8.75 L 141.9619,146 H 111.98095 C 82.666667,146 82,145.95553 82,144 Z m 231,0 c 0,-1.56509 0.66667,-2 3.06574,-2 1.68616,0 3.93616,-0.46583 5,-1.03518 C 322.91277,139.97631 323,138.56279 323,109.6198 c 0,-33.527987 0.0914,-33.053036 -6.5,-33.786136 -1.85171,-0.205949 -3,-0.907811 -3,-1.833664 0,-1.293103 4.03449,-1.536566 29.25,-1.765105 L 372,71.969791 V 82.984895 C 372,93.082679 371.84409,94 370.12781,94 368.72905,94 368.09995,93.026535 367.64004,90.150412 366.2963,81.747136 360.4035,78 348.53212,78 H 341 v 14.067388 c 0,15.396112 -0.53053,14.250412 5.76097,12.441092 2.58613,-0.74373 5.32528,-5.394343 6.18301,-10.497715 0.37178,-2.212016 1.22146,-3.611527 2.32123,-3.823324 C 356.86152,89.880021 357,91.341861 357,108.5 c 0,17.11247 -0.14183,18.61933 -1.7238,18.31467 -1.15248,-0.22194 -1.96038,-1.71778 -2.4376,-4.51327 -0.85221,-4.99206 -3.29845,-9.02055 -5.92806,-9.76241 -1.0508,-0.29644 -2.81054,-0.79431 -3.91054,-1.10638 -1.92896,-0.54723 -2,-0.0898 -2,12.87756 0,15.97333 0.0237,16.01218 9.64745,15.8035 11.05841,-0.23979 17.62803,-4.51298 21.31405,-13.86367 0.76109,-1.93074 1.98751,-3.25 3.02129,-3.25 1.61869,0 1.64878,0.5758 0.43107,8.25 -0.72,4.5375 -1.57805,9.7125 -1.90678,11.5 L 372.90937,146 H 342.95469 C 313.66667,146 313,145.95549 313,144 Z m -84,-25.10772 c -6.31339,-2.47723 -7.80355,-9.24257 -3.07692,-13.9692 3.4931,-3.4931 7.65816,-3.82692 11.36528,-0.91089 5.32375,4.18766 3.95272,12.66231 -2.4072,14.87939 -1.74878,0.60963 -3.22496,1.0799 -3.28038,1.04503 -0.0554,-0.0349 -1.22578,-0.50481 -2.60078,-1.04433 z M 443,79.2 c 0,-0.99 -0.54,-2.34 -1.2,-3 -0.93333,-0.933333 -0.28519,-1.2 2.91667,-1.2 2.35766,0 4.33218,0.534111 4.62105,1.25 0.40351,1 0.52017,1 0.58333,0 C 449.96447,75.5625 450.675,75 451.5,75 c 0.98039,0 1.5,0.981481 1.5,2.833333 0,2.563971 -0.32821,2.833334 -3.45229,2.833334 -2.69996,0 -3.54197,-0.454002 -3.86382,-2.083334 C 445.29721,76.625784 445.26414,76.635847 445.13618,78.75 444.97529,81.408224 443,81.824331 443,79.2 Z"
       id="path26"
       inkscape:connector-curvature="0" />
    <path
       style="fill:#e1dcce"
       d="m 176,146.6545 c -11.56782,-2.66665 -19.30383,-8.80531 -24.15158,-19.16471 -4.97691,-10.63544 -4.83432,-25.71661 0.33903,-35.857228 3.30572,-6.479746 10.28617,-13.117154 17.07824,-16.238972 5.50004,-2.527966 7.35321,-2.861404 15.73431,-2.831041 8.25148,0.02989 10.31933,0.406479 15.73431,2.865457 14.58983,6.625334 22.81171,22.830649 20.3429,40.095814 -2.0374,14.24818 -10.10781,24.86516 -22.58322,29.70924 -5.81867,2.25933 -16.0536,2.9061 -22.49399,1.42144 z m 18.02498,-8.44419 c 5.45233,-5.45233 8.35823,-15.43402 8.35823,-28.71031 0,-13.65028 -2.74611,-22.788258 -8.37705,-27.875469 -3.42651,-3.095647 -4.70461,-3.623986 -8.75904,-3.620793 -6.24536,0.0049 -10.10084,2.470595 -13.41592,8.579824 -4.60089,8.47876 -6.14069,26.764228 -3.30404,39.236018 2.6531,11.66483 7.19723,16.16261 16.34049,16.17383 4.88322,0.006 5.70966,-0.33542 9.15733,-3.7831 z m 75.70949,8.76874 c -9.8932,-2.5071 -19.08283,-10.22193 -23.56429,-19.78255 C 243.78368,122.10519 243.5,120.33137 243.5,110.5 c 0,-9.84136 0.28229,-11.602287 2.68006,-16.718065 3.4975,-7.462144 10.73574,-15.104385 17.38889,-18.359473 7.81026,-3.821203 15.36684,-4.208018 27.08131,-1.386269 8.94162,2.153835 9.70467,2.198891 10.84432,0.640333 C 302.16883,73.754437 303.45838,73 304.36024,73 305.78882,73 306,74.545437 306,85 c 0,11.171972 -0.13265,12 -1.92245,12 -1.29451,0 -2.28406,-1.09569 -3.02953,-3.354506 -1.5866,-4.807438 -7.76446,-11.611958 -12.49221,-13.759367 -11.8482,-5.381614 -22.40854,1.219742 -25.45654,15.913094 -1.41209,6.807209 -1.41802,25.616059 -0.0101,32.180749 2.35478,10.97999 12.23789,16.59081 22.76165,12.9222 L 289,139.80435 v -9.32039 c 0,-5.12621 -0.27412,-10.03473 -0.60915,-10.90781 -0.34221,-0.89177 -2.31423,-1.86008 -4.5,-2.20959 C 280.95626,116.8973 280,116.27831 280,114.84801 c 0,-1.79726 0.87539,-1.88204 16.75,-1.62219 13.76553,0.22533 16.75,0.53012 16.75,1.71061 0,0.79004 -1.45678,1.81393 -3.2373,2.2753 -3.90426,1.0117 -4.18395,1.95883 -4.51462,15.28827 l -0.24808,10 -7,2.34156 c -7.83772,2.62178 -22.54268,3.71446 -28.76553,2.13749 z M 406.5,146.97365 C 389.042,143.45053 378,129.12551 378,110 c 0,-16.334157 8.22789,-29.378496 22.5,-35.671054 2.95067,-1.300948 6.62332,-1.763258 14,-1.762306 8.66175,0.0011 10.7521,0.349396 15.62001,2.602491 7.87815,3.646369 13.31654,8.94091 17.12031,16.667454 C 450.34917,98.151561 450.5,98.992019 450.5,110 c 0,11.03667 -0.14449,11.83555 -3.29979,18.24487 -4.94128,10.03717 -13.78408,16.46768 -25.66559,18.6641 -6.614,1.22266 -9.24051,1.23396 -15.03462,0.0647 z m 16.537,-7.99999 c 1.86532,-1.32823 4.28496,-4.61952 5.75217,-7.82432 2.14735,-4.69042 2.60515,-7.41769 3.01022,-17.93249 0.66649,-17.301276 -2.21573,-28.822638 -8.18956,-32.736842 -9.60946,-6.296365 -19.14119,-2.438603 -23.75061,9.612547 -2.99591,7.832713 -3.77445,27.209395 -1.42372,35.434235 2.19012,7.66284 5.84899,13.24229 9.87842,15.06371 4.25231,1.92216 10.75603,1.20794 14.72308,-1.61684 z M 45.353401,117.92428 21.5,88.741739 21.231723,112.44658 c -0.310914,27.47217 -0.08043,28.5328 6.518277,29.99548 2.353566,0.5217 4.25,1.52569 4.25,2.25 C 32,145.69956 29.128652,146 19.5,146 9.9439461,146 7,145.69543 7,144.7068 c 0,-0.71127 1.4560096,-1.72377 3.235577,-2.25 5.457243,-1.61377 5.733435,-3.19821 5.749681,-32.98429 C 16.001406,79.867148 15.925826,79.454558 10.039827,77.016497 8.3679221,76.323971 7,75.136953 7,74.37868 7,73.287425 9.3857105,73 18.443424,73 H 29.886849 L 48.193424,95.413176 66.5,117.82635 66.772603,99.266893 C 67.072932,78.819811 66.813736,77.812747 60.948884,76.639777 59.230661,76.296132 58,75.41357 58,74.525 58,73.246739 59.860656,73 69.5,73 c 9.489802,0 11.5,0.258869 11.5,1.480948 0,0.814521 -1.091882,1.754993 -2.426404,2.089937 -1.334522,0.334943 -3.247022,1.515367 -4.25,2.623163 -1.675445,1.850541 -1.842985,4.666369 -2.062256,34.660062 -0.198268,27.12066 -0.476951,32.69724 -1.6466,32.9493 -0.825662,0.17793 -11.272903,-11.76551 -25.261339,-28.87913 z M 82.184992,144.25 c 0.23147,-1.22142 1.457262,-1.84347 4.058274,-2.05947 C 92.924002,141.63575 93,141.25494 93,108.3342 93,79.27188 92.987947,79.104966 90.777494,77.556704 89.555115,76.700517 87.305115,76 85.777494,76 83.975277,76 83,75.473297 83,74.5 83,73.200565 86.944444,73 112.5,73 H 142 v 10.5 c 0,9.833333 -0.12698,10.5 -2,10.5 -1.22973,0 -2.00846,-0.673987 -2.02196,-1.75 -0.0121,-0.9625 -0.89688,-3.677697 -1.96623,-6.033772 -2.664,-5.869544 -7.77869,-8.164559 -18.26181,-8.194266 L 110,78 v 14 c 0,13.4464 0.0811,14 2.04966,14 C 117.5242,106 123,99.452472 123,92.906439 c 0,-1.417043 0.54215,-1.948679 1.75,-1.716068 1.58704,0.305635 1.75,1.964103 1.75,17.809629 0,14.92113 -0.22439,17.51582 -1.5366,17.76853 -1.11178,0.21411 -1.94118,-1.27751 -3,-5.39528 -1.54646,-6.01424 -4.00169,-8.6242 -9.2134,-9.79407 L 110,110.9619 v 13.3966 c 0,16.12665 0.0286,16.17079 10.40473,16.07815 10.78871,-0.0963 16.26326,-3.40616 20.15705,-12.18665 2.15671,-4.86338 3.31077,-6.04411 4.624,-4.73089 0.44798,0.44798 -0.33859,6.06093 -2.69492,19.23089 l -0.58149,3.25 h -30.02801 c -28.057776,0 -30.006248,-0.11482 -29.696368,-1.75 z M 313,144 c 0,-1.65614 0.66667,-2 3.87756,-2 2.13265,0 4.32562,-0.5625 4.87325,-1.25 1.31079,-1.64556 2.2932,-57.432607 1.0693,-60.72177 -1.1407,-3.065596 -2.54396,-3.993283 -6.07011,-4.012917 C 314.97903,76.005452 314,75.465985 314,74.5 314,73.201149 317.88889,73 343,73 h 29 v 10.573324 c 0,9.437911 -0.18365,10.537956 -1.71024,10.243962 -0.9823,-0.189174 -1.97691,-1.633215 -2.33675,-3.39268 -0.98072,-4.795176 -4.0696,-9.252048 -7.5602,-10.908448 C 358.35486,78.54909 354.26467,78 349.09887,78 H 341 v 14.125 14.125 l 3.15469,-0.63094 c 1.73508,-0.34701 3.82979,-1.19076 4.65491,-1.875 C 350.78584,102.10525 353,96.70938 353,93.532119 353,91.65704 353.52495,91 355.02307,91 c 1.96474,0 2.0152,0.50951 1.75,17.66758 -0.19712,12.75359 -0.61048,17.77979 -1.48619,18.07104 -0.68061,0.22635 -1.48821,-0.83487 -1.83981,-2.41758 -2.04081,-9.18663 -3.69995,-11.38724 -9.69707,-12.86173 L 341,110.78318 v 13.58536 c 0,13.35148 0.0426,13.61328 2.47535,15.20726 2.11536,1.38605 3.58717,1.47335 10.1206,0.60032 9.25185,-1.23628 13.64348,-4.26498 17.40405,-12.00276 1.375,-2.82921 3.12047,-5.15062 3.87883,-5.15869 1.46377,-0.0156 1.26218,3.28357 -1.02259,16.73533 L 372.79469,146 H 342.89735 C 313.66667,146 313,145.9554 313,144 Z m 151.01041,1.25 c 0.006,-0.4125 2.68539,-1.99458 5.95481,-3.51574 5.37482,-2.50074 7.02664,-4.12558 17.23958,-16.95799 6.21236,-7.80574 11.21085,-14.46422 11.10775,-14.79661 -0.1031,-0.3324 -4.07699,-6.29432 -8.83086,-13.248702 C 480.26295,83.244973 474.75285,77.424285 470.27521,76.441857 465.72319,75.443108 465,75.112653 465,74.031385 465,73.360895 471.3276,73 483.08333,73 c 13.65423,0 17.98503,0.294907 17.68198,1.204058 -0.22074,0.662232 -1.83324,1.575098 -3.58333,2.028592 C 494.73685,76.866248 494,77.604142 494,79.419152 c 0,2.962247 11.83125,21.165308 12.97494,19.962695 C 511.95122,94.149165 521,81.196317 521,79.305728 521,76.895963 520.63234,76.635276 515.7091,75.554206 509.47798,74.185946 514.78657,73 527.14235,73 c 13.6819,0 15.96226,0.946742 8.47784,3.519763 -4.82002,1.657044 -7.14447,3.828296 -16.13541,15.071963 -11.33578,14.176034 -11.28816,11.106704 -0.42793,27.582384 10.87855,16.50349 16.85905,23.42887 21.02184,24.34317 C 547.0982,145.05903 541.95174,146 526.5,146 c -9.075,0 -16.5,-0.35694 -16.5,-0.7932 0,-0.43627 1.4625,-1.22377 3.25,-1.75 5.12198,-1.50791 4.62045,-3.93853 -3.30947,-16.03918 -3.93505,-6.00469 -7.50494,-11.2936 -7.93309,-11.75313 -0.42816,-0.45953 -4.90164,4.45152 -9.94108,10.91344 -10.06493,12.90595 -10.80714,15.26239 -5.31636,16.87887 6.10793,1.79817 3.25166,2.5432 -9.75,2.5432 -7.15,0 -12.99531,-0.3375 -12.98959,-0.75 z M 225.5003,115.81798 c -3.24884,-3.86102 -2.86037,-8.12301 1.05439,-11.56798 4.57906,-4.02954 10.60098,-2.515 13.02003,3.27459 3.79834,9.09071 -7.70159,15.86707 -14.07442,8.29339 z M 443,78.783333 c 0,-1.439166 -0.5625,-2.84364 -1.25,-3.121052 -0.6875,-0.277413 0.6625,-0.539913 3,-0.583334 3.40017,-0.06316 4.25608,0.270981 4.28041,1.671053 0.029,1.666667 0.0789,1.666667 1.04969,0 1.51497,-2.601045 2.9199,-2.119888 2.9199,1 0,2.47619 -0.34848,2.75 -3.5,2.75 -3.03573,0 -3.51539,-0.331619 -3.616,-2.5 -0.0955,-2.058857 -0.20089,-2.147086 -0.59707,-0.5 C 444.48749,80.823659 443,81.658376 443,78.783333 Z"
       id="path24"
       inkscape:connector-curvature="0" />
    <path
       style="fill:#d1c8b2"
       d="m 269,146.4742 c -3.025,-0.84133 -7.83005,-3.12465 -10.67789,-5.07406 -21.15032,-14.47781 -20.3351,-48.289402 1.53263,-63.566861 8.9092,-6.22424 17.19163,-7.132442 31.49421,-3.453473 8.51851,2.191164 8.89158,2.207901 9.99055,0.448178 C 301.96738,73.822593 303.27285,73 304.24055,73 305.82207,73 306,74.213534 306,85 c 0,10.886694 -0.16691,12 -1.79911,12 -1.15926,0 -2.26397,-1.285546 -3.10619,-3.614657 -1.72133,-4.760266 -7.47303,-11.027542 -12.45101,-13.567117 -3.02994,-1.545763 -5.28689,-1.929619 -9.35968,-1.591872 -6.77135,0.561533 -9.97903,2.903361 -13.59084,9.922249 -5.14023,9.989087 -5.51059,35.399937 -0.66194,45.415907 3.40127,7.0261 13.38913,10.50736 21.40367,7.46024 C 288.95124,140.06804 289,139.86029 289,130.09618 289,118.99482 288.0752,117 282.92857,117 280.66667,117 280,116.54472 280,115 c 0,-1.91919 0.66667,-2 16.5,-2 15.83333,0 16.5,0.0808 16.5,2 0,1.23226 -0.67177,2.00588 -1.75,2.01531 -4.17953,0.0366 -4.73183,1.4773 -5.25,13.6952 l -0.5,11.78949 -6.76967,2.2623 c -8.97174,2.9982 -22.33816,3.76785 -29.73033,1.7119 z m 138.22624,0.40253 c -11.32176,-1.86154 -20.45737,-8.92658 -25.61384,-19.80851 -2.87171,-6.06028 -3.11164,-7.38022 -3.10256,-17.06822 0.009,-9.45199 0.2984,-11.127014 2.90094,-16.782027 7.09565,-15.41806 22.75965,-23.309171 40.23003,-20.266837 12.37289,2.154647 21.03763,8.736225 26.12189,19.841709 3.34982,7.316975 4.24677,21.222885 1.89148,29.324795 -5.11292,17.58784 -22.9031,27.96941 -42.42794,24.75909 z m 13.77173,-6.37568 c 8.10176,-4.18958 11.40741,-14.55619 10.83943,-33.99273 -0.3545,-12.131392 -0.59941,-13.516482 -3.35989,-19.002076 -3.86707,-7.684604 -6.98839,-9.934815 -13.78081,-9.934815 -6.37236,0 -9.55731,2.054312 -13.07098,8.430863 -3.38884,6.150003 -4.91531,16.001138 -4.47459,28.877078 0.3299,9.63833 0.694,11.43689 3.3776,16.68424 4.84674,9.47705 12.75145,12.92846 20.46924,8.93744 z M 45.5,118 C 32.45018,102.05 21.599118,89 21.386527,89 21.173937,89 21,100.04545 21,113.54545 v 24.54546 l 2.454545,2.45454 C 24.985979,142.07689 27.054433,143 28.954545,143 30.994949,143 32,143.49502 32,144.5 32,145.75333 29.944444,146 19.5,146 9.0555556,146 7,145.75333 7,144.5 7,143.65556 7.8939394,143 9.0454545,143 c 1.1250005,0 3.1500005,-1.10455 4.5000005,-2.45455 L 16,138.09091 V 110.26796 C 16,79.796821 15.939679,79.460296 10.039827,77.016497 8.3679221,76.323971 7,75.136953 7,74.37868 7,73.287795 9.3778431,73 18.391052,73 H 29.782104 L 48.141052,95.457687 66.5,117.91537 66.784548,100.20769 C 66.941049,90.468459 66.824181,81.504255 66.524841,80.287233 66.151531,78.769474 64.727275,77.698965 61.990293,76.878946 59.795632,76.221409 58,75.079654 58,74.341712 58,73.29721 60.547424,73 69.5,73 c 12.326768,0 14.529561,1.070237 8.232916,4 -5.561518,2.587716 -5.702052,3.527777 -5.718174,38.25 C 72.002487,141.64362 71.766086,147 70.613473,147 69.850882,147 58.54982,133.95 45.5,118 Z m 124.08204,26.57452 c -14.39018,-6.04931 -22.89487,-21.45632 -21.16487,-38.34209 2.33734,-22.813771 20.56814,-37.005155 42.81789,-33.330687 12.6264,2.085206 21.28617,8.58196 26.62977,19.978246 C 220.23316,97.930913 220.5,99.6645 220.5,110 c 0,13.60483 -1.50267,17.88129 -9.15947,26.06703 -7.56009,8.08235 -12.74497,10.26405 -25.34053,10.66283 -9.37138,0.2967 -11.13611,0.065 -16.41796,-2.15534 z m 22.44545,-4.27863 c 5.09884,-3.51423 7.20733,-7.81999 9.59166,-19.58716 2.84032,-14.01756 -0.31551,-32.251249 -6.68424,-38.619975 -8.77117,-8.771169 -21.47817,-3.955091 -25.64935,9.721356 -1.28656,4.218375 -1.74164,9.310559 -1.75965,19.689889 -0.022,12.70557 0.20679,14.55147 2.4749,19.96446 3.19855,7.63353 7.17179,10.53554 14.42457,10.53554 3.19878,0 6.06028,-0.64144 7.60211,-1.70411 z m -109.568609,4.63758 c -0.964634,-1.56081 0.0284,-2.16372 4.176962,-2.53598 2.0342,-0.18253 4.185808,-0.81851 4.781351,-1.41328 0.71554,-0.71461 1.182054,-11.28242 1.375418,-31.15698 C 93.116634,76.523123 93.101956,76.440856 86.722295,75.805548 85.034746,75.637497 83.469368,74.9375 83.243678,74.25 82.921614,73.268922 89.197816,73 112.41667,73 H 142 v 10.5 c 0,9.588331 -0.16229,10.5 -1.86916,10.5 -1.36229,0 -2.02359,-0.951683 -2.43867,-3.509501 -0.76798,-4.732526 -4.2739,-9.41779 -8.30871,-11.103638 C 127.48824,78.594985 122.61833,78 118.03212,78 H 110 v 14 c 0,13.17632 0.11384,14 1.9349,14 4.21501,0 7.17934,-2.03605 9.08871,-6.242574 1.06285,-2.341584 1.94235,-5.269926 1.95443,-6.507426 0.0129,-1.323572 0.63958,-2.25 1.52196,-2.25 1.27803,0 1.5,2.675926 1.5,18.08333 0,13.63555 -0.2956,17.9848 -1.20182,17.68273 -0.66099,-0.22033 -1.75843,-2.58254 -2.43874,-5.24934 -1.44133,-5.65002 -4.53873,-9.0503 -9.10944,-10.0002 L 110,110.84109 v 13.52275 c 0,12.84041 0.11214,13.6013 2.22251,15.07946 2.8199,1.97513 9.93877,1.99494 16.50187,0.0459 5.75477,-1.70898 10.36004,-6.18495 12.24731,-11.90344 0.77051,-2.33465 1.80675,-3.58577 2.96992,-3.58577 1.71307,0 1.71171,0.40073 -0.0331,9.75 -1.00075,5.3625 -1.83958,10.3125 -1.86405,11 -0.0589,1.65468 -58.565023,1.83483 -59.585619,0.18347 z M 313.18487,144.25 c 0.2247,-1.18618 1.45652,-1.85573 3.82332,-2.07818 C 324.10638,141.5047 324,141.98995 324,110.27927 324,77.63897 323.66459,76.053815 316.75,76.015313 314.97903,76.005452 314,75.465985 314,74.5 314,73.201149 317.88889,73 343,73 h 29 v 10.5 c 0,8.543589 -0.27231,10.5 -1.46146,10.5 -0.86819,0 -1.91613,-1.688536 -2.58152,-4.159597 C 365.4373,80.482873 361.46885,78 349.03212,78 H 341 v 14 c 0,15.10449 -0.005,15.09291 5.3826,13.04463 3.16701,-1.20409 5.78668,-5.149153 6.55402,-9.869942 0.38447,-2.365311 1.20537,-3.770934 2.32859,-3.987247 C 356.85846,90.88061 357,92.287165 357,108.42668 357,123.28026 356.7708,126 355.51905,126 c -0.81452,0 -1.7511,-1.2375 -2.08128,-2.75 -1.6924,-7.75251 -4.09383,-10.83121 -9.25339,-11.86312 L 341,110.75 v 14.08982 c 0,13.29919 0.11808,14.15301 2.10432,15.21601 2.57056,1.37572 15.22927,0.31526 18.89568,-1.58295 3.50825,-1.81633 7.41005,-6.2349 9.91031,-11.22288 2.14563,-4.28052 4.08969,-5.56626 4.08969,-2.70481 0,0.84985 -0.74397,6.02485 -1.65326,11.5 L 372.69347,146 h -29.92006 c -27.95492,0 -29.89828,-0.11494 -29.58854,-1.75 z m 150.86533,1 c 0.0276,-0.4125 2.7394,-2.02434 6.02619,-3.58186 5.28883,-2.50624 7.14127,-4.28851 16.11027,-15.5 5.57386,-6.96748 10.73329,-13.37439 11.4654,-14.23757 1.1463,-1.35155 0.14869,-3.29518 -7.18583,-14.000005 C 479.54566,81.991854 475.2879,77.561726 469.48573,76.100725 460.73488,73.897234 464.64541,73 483,73 c 11.10027,0 18,0.376015 18,0.980948 0,0.539521 -1.2375,1.268494 -2.75,1.61994 -3.37756,0.784812 -5.3155,3.041572 -4.50515,5.246311 0.33412,0.909041 3.27392,5.64102 6.5329,10.515509 4.89313,7.318716 6.14602,8.625307 7.19174,7.5 0.69649,-0.749489 4.04989,-4.910037 7.45202,-9.245661 7.22659,-9.209482 7.7631,-12.43062 2.32849,-13.979881 C 510.97844,73.849315 514.11849,73 527,73 c 13.26642,0 16.37928,1.012967 9.11985,2.967727 -4.52708,1.219017 -9.78334,6.368629 -19.92864,19.524289 l -6.93441,8.992014 11.84365,17.62466 c 11.69244,17.39965 14.18591,20.17212 19.29539,21.45452 C 546.69391,145.14393 541.81214,146 526.5,146 c -9.075,0 -16.5,-0.35694 -16.5,-0.7932 0,-0.43627 1.4625,-1.22377 3.25,-1.75 5.22563,-1.53842 4.67792,-3.97867 -3.77989,-16.84067 -4.2012,-6.38887 -7.93815,-11.59409 -8.30433,-11.56716 -1.11091,0.0817 -16.59553,20.73801 -17.64302,23.53559 -0.79695,2.12842 -0.62331,2.86874 0.94113,4.01269 1.0551,0.77151 2.73236,1.40275 3.72724,1.40275 0.99488,0 1.80887,0.45 1.80887,1 0,0.61538 -5,1 -13,1 -7.15,0 -12.97741,-0.3375 -12.9498,-0.75 z M 225.5003,115.81798 c -3.24884,-3.86102 -2.86037,-8.12301 1.05439,-11.56798 2.97463,-2.61766 5.43432,-2.82416 9.37379,-0.78699 3.23646,1.67365 4.07152,3.3239 4.07152,8.0462 0,4.1557 -3.80488,7.49079 -8.54597,7.49079 -2.45429,0 -3.94798,-0.79832 -5.95373,-3.18202 z M 442.77986,77.953415 c -0.41533,-2.829781 -0.2562,-3.004714 2.45186,-2.69547 1.59281,0.181889 3.25465,0.910991 3.69299,1.620227 0.61648,0.997493 0.94011,0.916486 1.42906,-0.357708 0.91269,-2.378429 2.64888,-0.86817 2.63092,2.288553 -0.012,2.117355 -0.22522,2.371233 -1,1.190983 -0.87528,-1.333333 -1.0941,-1.333333 -1.96938,0 -0.77436,1.179601 -0.98796,1.206846 -1,0.127555 C 449.00297,79.021093 448.7093,78.996373 447.5,80 c -1.26991,1.05393 -1.5,0.833567 -1.5,-1.436572 0,-1.647089 -0.41205,-2.426803 -1.06817,-2.021294 -0.5875,0.363092 -0.83215,1.275238 -0.54368,2.026992 0.28848,0.751753 0.14456,1.601643 -0.31982,1.888645 -0.46438,0.287002 -1.04419,-0.839958 -1.28847,-2.504356 z"
       id="path22"
       inkscape:connector-curvature="0" />
    <path
       style="fill:#c4b99c"
       d="m 271,146.6095 c -7.74537,-1.72212 -12.80757,-4.62729 -18.30632,-10.50589 -7.35589,-7.86405 -9.07402,-12.58346 -9.1391,-25.10361 -0.0508,-9.76494 0.16424,-10.95504 3.07116,-17 4.40679,-9.163963 9.27457,-14.33334 17.14568,-18.208001 6.01436,-2.96065 7.49476,-3.276736 14.70803,-3.140358 4.90454,0.09273 10.48977,0.938905 14.37628,2.178045 6.58892,2.100753 8.60629,2.014646 9.53557,-0.407005 C 302.69156,73.640207 303.64063,73 304.50035,73 c 1.34428,0 1.52368,1.633583 1.28139,11.668404 -0.32523,13.469459 -1.38949,15.012581 -5.18633,7.519879 C 295.74489,82.616236 289.10262,78 280.18,78 c -10.59366,0 -16.5669,8.466749 -18.32031,25.96809 -1.87737,18.73862 1.50129,32.13609 9.12471,36.18246 3.79343,2.01348 11.33208,2.44002 15.4505,0.8742 C 288.96336,140.06343 289,139.89966 289,129.55993 289,118.11576 288.42841,117 282.56574,117 280.66667,117 280,116.48033 280,115 c 0,-1.91919 0.66667,-2 16.5,-2 15.19906,0 16.5,0.14138 16.5,1.7932 0,1.16017 -1.14731,2.13097 -3.25,2.75 l -3.25,0.9568 -0.5,11.93684 -0.5,11.93685 -5.13892,1.77343 c -5.72926,1.97715 -16.27208,3.87816 -20.86108,3.76152 -1.65,-0.0419 -5.475,-0.62655 -8.5,-1.29914 z M 46.072547,118.48184 C 33.245291,102.79686 22.356454,89.720301 21.875132,89.422827 21.384013,89.119299 21,99.678561 21,113.48644 v 24.60447 l 2.454545,2.45454 c 1.35,1.35 3.6,2.45455 5,2.45455 C 30.050505,143 31,143.55952 31,144.5 31,145.75 29,146 19,146 9,146 7,145.75 7,144.5 7,143.57863 7.93638,143 9.4274199,143 10.858732,143 12.705337,141.91877 13.92742,140.36514 15.913207,137.84062 16,136.54616 16,109.45403 V 81.177787 L 12.923275,78.588894 C 11.231076,77.165002 9.2060758,76 8.4232747,76 7.6404736,76 7,75.325 7,74.5 7,73.255093 8.9232067,73 18.30886,73 H 29.61772 L 48,95.5 C 58.110254,107.875 66.746267,118 67.19114,118 67.636013,118 68,110.10265 68,100.45034 68,80.136699 67.291683,77.520549 61.497511,76.433555 59.494839,76.057852 58,75.183883 58,74.388709 58,73.284269 60.354048,73 69.5,73 78.769676,73 81,73.275502 81,74.420545 81,75.201844 79.642178,76.139317 77.982618,76.503818 72.25767,77.761227 72,79.417113 72,114.95034 72,140.61345 71.740433,147 70.697415,147 69.980993,147 58.899802,134.16683 46.072547,118.48184 Z M 172.32418,145.56051 C 155.51949,140.306 145.54404,122.05848 149.0143,102.92111 152.39599,84.272247 165.54454,72.935587 184,72.756497 206.51996,72.537966 221,86.917629 221,109.5 c 0,16.71965 -8.61823,30.22028 -22.64042,35.46665 -6.37043,2.38349 -19.36405,2.67986 -26.0354,0.59386 z M 191.01107,140.75 c 3.22764,-1.63752 5.05573,-3.47495 6.71571,-6.75 6.95661,-13.72496 6.59867,-37.90053 -0.73759,-49.818029 -2.70128,-4.388138 -9.64675,-7.52444 -14.60378,-6.594495 -5.18674,0.973037 -9.91688,5.590736 -12.52048,12.222849 -1.95686,4.984698 -2.24175,7.610196 -2.29927,21.189675 -0.0647,15.28243 -0.0236,15.58422 2.93434,21.5 2.43049,4.86097 3.84704,6.42714 7.46189,8.25 2.45404,1.2375 5.39619,2.25 6.53811,2.25 1.14192,0 4.0719,-1.0125 6.51107,-2.25 z m 209.06269,4.11766 c -7.69597,-3.0336 -16.13317,-11.57248 -19.13705,-19.36766 -3.24518,-8.42136 -3.27768,-22.54384 -0.0707,-30.701632 2.76966,-7.045246 9.89181,-15.135234 16.08935,-18.27577 9.0447,-4.583293 22.92323,-5.273703 32.37026,-1.610309 22.20373,8.610215 29.21625,42.297841 12.5914,60.488081 -7.49231,8.19778 -13.83458,10.91024 -26.41706,11.29802 -8.34466,0.25718 -10.89823,-0.0459 -15.42624,-1.83073 z m 22.00456,-5.14146 c 7.56256,-5.0964 10.2093,-13.21336 10.18212,-31.2262 -0.021,-13.887928 -2.52379,-22.768019 -7.69739,-27.310497 -8.97732,-7.882194 -20.88798,-3.759447 -25.01231,8.65774 -2.46768,7.429481 -3.64592,21.411357 -2.49766,29.639097 1.2304,8.81626 5.344,17.28333 9.8448,20.26366 4.52941,2.99927 10.70889,2.98958 15.18044,-0.0238 z M 83,144.5 c 0,-1 1,-1.5 3,-1.5 1.666667,0 3.888889,-0.88889 5,-2 1.91065,-1.91065 2,-3.33333 2,-31.84501 C 93,81.511616 92.865095,79.187888 91.171259,77.654988 90.165452,76.744744 88.140452,76 86.671259,76 84.963473,76 84,75.458978 84,74.5 84,73.201149 87.888889,73 113,73 h 29 v 10.5 c 0,9.5944 -0.16147,10.5 -1.87219,10.5 -1.39876,0 -2.02786,-0.973465 -2.48777,-3.849588 -0.768,-4.802793 -3.97234,-8.973482 -8.27582,-10.771592 C 127.48923,78.595401 122.59581,78 118.03212,78 H 110 v 14 14 h 2.77749 C 118.13236,106 123,100.06318 123,93.532119 123,91.948013 123.56159,91 124.5,91 c 1.27619,0 1.5,2.611111 1.5,17.5 0,14.16445 -0.26154,17.5 -1.37219,17.5 -0.82744,0 -1.62592,-1.58674 -2.01132,-3.99689 -0.79585,-4.97693 -5.04848,-9.8035 -9.36649,-10.63059 L 110,110.75 v 13.55357 c 0,16.16963 0.27991,16.69924 8.82143,16.69085 11.31002,-0.0111 18.35886,-4.05083 21.84031,-12.51677 1.01104,-2.45858 2.40076,-4.47184 3.08826,-4.4739 1.62103,-0.005 1.59855,0.66957 -0.40812,12.24625 L 141.65184,146 H 112.32592 C 86.925102,146 83,145.79923 83,144.5 Z m 230.5,0.5 c -1.08834,-1.76096 0.52407,-3 3.90403,-3 C 323.92869,142 324,141.64747 324,109.39377 324,77.192763 323.9191,76.770208 317.52446,75.570567 315.58601,75.206911 314,74.479765 314,73.954687 314,73.370358 325.26373,73 343.03498,73 h 29.03499 l -0.28499,10.168785 c -0.18956,6.764056 -0.6843,10.301183 -1.47762,10.564214 -0.69963,0.231966 -1.4599,-1.029183 -1.83916,-3.050836 -0.90572,-4.827863 -3.86263,-9.317648 -7.31082,-11.100779 -4.29684,-2.221982 -19.0853,-3.305776 -20.23919,-1.483259 -0.48816,0.771031 -0.89446,7.364375 -0.90288,14.651875 L 340,106 h 3.07692 c 4.18115,0 8.51685,-4.50106 9.99666,-10.377945 C 353.75435,92.918503 354.81077,91 355.61871,91 356.74114,91 357,94.279575 357,108.5 c 0,14.33488 -0.25326,17.5 -1.40026,17.5 -0.85348,0 -1.86805,-1.94999 -2.59825,-4.99378 C 351.65672,115.40056 347.44438,111 343.42327,111 H 341 v 13.96482 c 0,12.78314 0.16367,14.05241 1.93426,15 2.49913,1.33749 10.50611,1.31827 15.38652,-0.0369 4.85893,-1.34925 11.11202,-6.97026 13.31913,-11.97279 0.94038,-2.13142 2.3061,-4.10413 3.03494,-4.38381 1.65781,-0.63617 1.67337,-1.14257 -0.35871,11.67872 l -1.7038,10.75 h -29.24715 c -18.41942,0 -29.47596,-0.37022 -29.86519,-1 z m 150.5,0.10841 c 0,-0.49038 1.2375,-1.19277 2.75,-1.56087 5.41464,-1.31778 10.28155,-5.68689 20.35327,-18.27145 5.62374,-7.02685 10.6098,-13.28264 11.08012,-13.90176 1.00536,-1.32342 -14.68064,-24.826296 -20.41415,-30.587235 -2.3967,-2.408176 -5.34231,-4.154402 -8.23758,-4.883439 -2.47875,-0.624157 -4.26085,-1.532817 -3.96022,-2.019244 C 466.30443,72.698398 501,72.733783 501,73.920545 c 0,0.506299 -1.31891,1.210225 -2.9309,1.564279 -3.62648,0.796507 -5.50455,2.927434 -4.62918,5.252441 0.97555,2.591128 11.9515,19.228685 12.69744,19.247046 0.9046,0.02227 11.45287,-13.175477 14.05393,-17.583942 l 2.1746,-3.685674 -2.29373,-1.857348 C 518.81061,75.835806 516.92828,75 515.88922,75 514.85015,75 514,74.55 514,74 c 0,-1.339397 24.67221,-1.339397 25.5,0 0.33992,0.55 0.0585,1 -0.62526,1 -0.68381,0 -3.19008,0.942426 -5.5695,2.09428 -3.27972,1.587689 -6.73264,5.134359 -14.27453,14.66214 -5.47158,6.912322 -9.66375,13.0574 -9.31594,13.65572 0.34782,0.59832 5.52118,8.38099 11.49636,17.29482 11.17368,16.66899 14.21718,20.0287 19.01233,20.98773 C 547.14107,145.07821 541.6537,146 526.5,146 c -10.33333,0 -16.5,-0.37374 -16.5,-1 0,-0.55 1.035,-1 2.3,-1 2.85086,0 4.7,-1.75342 4.7,-4.45668 0,-2.11571 -14.44282,-24.57119 -15.76301,-24.50811 C 499.80897,115.10344 483,137.84761 483,139.71163 c 0,2.54656 1.909,4.28837 4.7,4.28837 1.265,0 2.3,0.45 2.3,1 0,0.61538 -5,1 -13,1 -7.15,0 -13,-0.40122 -13,-0.89159 z M 226.63486,116.92742 c -4.60052,-3.61877 -3.37184,-11.55109 2.14305,-13.83543 5.48545,-2.27214 11.13153,1.61465 11.19029,7.70346 0.0669,6.92692 -7.75158,10.52259 -13.33334,6.13197 z M 442.839,77.75 c -0.47217,-2.311843 -0.22526,-2.74756 1.54967,-2.734687 1.26534,0.0092 1.65682,0.309694 0.97701,0.75 -0.62387,0.404078 -1.32123,1.634687 -1.54967,2.734687 -0.34273,1.650272 -0.51357,1.519124 -0.97701,-0.75 z m 3.8249,0.418213 c 0.18485,-0.732484 0.35041,-1.857484 0.3679,-2.5 0.0175,-0.642517 0.63928,-0.367487 1.38174,0.611177 1.28168,1.689431 1.3839,1.690848 2.02199,0.02802 0.57413,-1.496174 0.8077,-1.536884 1.60295,-0.27939 0.51199,0.809586 0.93089,2.146975 0.93089,2.971975 0,1.222256 -0.15918,1.248778 -0.85968,0.143237 -0.6277,-0.990638 -1.05237,-1.044997 -1.57372,-0.201441 -0.5182,0.838471 -1.07432,0.856304 -2.02775,0.06503 -0.72255,-0.599663 -1.50874,-0.734015 -1.74708,-0.298559 -0.23834,0.435456 -0.2821,0.192434 -0.0972,-0.540049 z"
       id="path20"
       inkscape:connector-curvature="0" />
    <path
       style="fill:#b8ab88"
       d="M 273.44476,147.02757 C 246.09465,142.90671 233.95016,110.54948 250.88004,86.907167 260.41756,73.588172 273.78558,69.737048 292.5,74.917084 l 8,2.214351 1.37197,-2.065718 C 302.62656,73.929573 303.86406,73 304.62197,73 305.71279,73 306,75.396839 306,84.5 c 0,10.69967 -0.1345,11.5 -1.93261,11.5 -1.12882,0 -2.22558,-0.9358 -2.637,-2.25 -1.39708,-4.462647 -6.58422,-10.755844 -10.99704,-13.341926 -11.06543,-6.484778 -23.00569,-1.124956 -26.99054,12.115697 -1.97114,6.549582 -2.83722,23.772459 -1.57624,31.344899 C 264.00583,136.7154 269.06185,142 279.21362,142 288.74842,142 289,141.68091 289,129.58726 c 0,-11.2198 -0.41098,-12.17391 -5.49145,-12.74877 -1.88175,-0.21293 -3.11456,-0.98767 -3.32332,-2.08849 -0.3053,-1.60987 1.00106,-1.75 16.31477,-1.75 15.27378,0 16.61904,0.14338 16.31184,1.73852 -0.18414,0.95618 -1.22964,1.9046 -2.32332,2.1076 C 306.39466,117.60599 306,118.81946 306,130.6472 v 11.4023 l -2.75,1.05303 c -8.96232,3.43183 -21.83106,5.12652 -29.80524,3.92504 z M 46,118.04845 C 33.075,102.13917 22.1625,89.094927 21.75,89.061243 21.3375,89.02756 21,100.17156 21,113.82569 c 0,24.65702 0.01572,24.84045 2.314451,27 1.272948,1.19587 3.522948,2.17431 5,2.17431 C 30.034939,143 31,143.53903 31,144.5 c 0,1.25 -2,1.5 -12,1.5 -12.2550121,0 -14.8142536,-0.91611 -8.437982,-3.02047 2.233302,-0.73705 3.911907,-2.09585 4.5,-3.64265 C 15.577908,137.97999 16,124.3391 16,109.02379 V 81.177787 L 12.923275,78.588894 C 11.231076,77.165002 9.2060758,76 8.4232747,76 7.6404736,76 7,75.325 7,74.5 7,73.254629 8.9097209,73.002653 18.25,73.015628 l 11.25,0.01563 19,23.234372 19,23.23437 0.272584,-18.89106 C 68.08054,79.266471 67.645242,77.586876 61.507567,76.435442 59.451145,76.049655 58,75.189334 58,74.355958 c 0,-1.160642 2.049266,-1.369579 11.168519,-1.138709 11.431159,0.2894 14.65686,1.534202 8.60907,3.32225 C 72.200597,78.188354 72.03094,79.31326 72.014742,114.75 72.003254,139.88238 71.724123,146.99718 70.75,146.98721 70.0625,146.98017 58.925,133.95773 46,118.04845 Z m 126.62399,27.37116 c -13.11219,-4.17786 -21.52283,-14.40074 -23.47649,-28.53497 -2.51815,-18.218291 5.04411,-33.94441 19.71638,-41.001254 6.42911,-3.092175 20.9719,-3.821475 28.31424,-1.419917 15.69505,5.133591 24.60521,19.442018 23.62925,37.945171 -0.74049,14.03875 -7.80341,25.2922 -19.51689,31.09651 -4.84281,2.39973 -7.26343,2.91832 -14.79048,3.1687 -6.12122,0.20361 -10.55966,-0.19758 -13.87601,-1.25424 z m 20.83955,-5.824 c 6.20851,-4.73546 10.12732,-19.24279 9.21012,-34.09561 -0.74087,-11.9975 -3.70748,-20.557984 -8.49062,-24.500649 -8.88342,-7.322471 -18.72025,-3.887927 -24.34659,8.500649 -2.05231,4.51896 -2.27393,6.539329 -2.30361,21 -0.0301,14.65651 0.16287,16.43257 2.29798,21.15161 1.28195,2.83339 3.36063,6.11907 4.6193,7.30153 4.96325,4.66273 13.37015,4.9468 19.01342,0.64247 z m 208.86064,6.02121 c -9.56958,-3.12128 -17.73545,-10.91203 -21.45537,-20.46973 -3.11591,-8.0058 -3.10629,-22.31223 0.0204,-30.348722 2.77246,-7.125986 9.28886,-14.473235 16.26244,-18.335912 C 402.24564,73.640893 403.07071,73.5 414.5,73.5 c 11.15948,0 12.36539,0.192613 17.21657,2.749908 7.18174,3.785838 11.97857,8.888947 15.6615,16.661493 2.88252,6.083347 3.12118,7.393799 3.11209,17.088599 -0.009,9.38929 -0.30785,11.14711 -2.82707,16.61743 -3.51752,7.63806 -9.3918,13.46827 -17.16309,17.03432 -4.87044,2.23493 -7.69434,2.80727 -15,3.04018 -5.64568,0.17998 -10.55634,-0.22071 -13.17582,-1.07511 z m 22.21409,-7.89193 c 5.93305,-5.93305 7.79085,-12.60486 7.85936,-28.22489 0.0947,-21.580397 -5.99129,-32.508172 -18.09797,-32.496262 -11.27966,0.0111 -17.64499,12.416682 -17.7001,34.496262 -0.0322,12.90768 2.16818,20.17883 7.92459,26.18654 3.94214,4.11425 4.40101,4.31346 9.93601,4.31346 5.49907,0 6.0269,-0.22391 10.07811,-4.27511 z M 83,144.5151 C 83,143.49832 83.986708,143 86,143 c 1.666667,0 3.888889,-0.88889 5,-2 1.91065,-1.91065 2,-3.33333 2,-31.84501 C 93,81.511616 92.865095,79.187888 91.171259,77.654988 90.165452,76.744744 88.140452,76 86.671259,76 84.963473,76 84,75.458978 84,74.5 84,73.201754 87.833333,73 112.5,73 H 141 v 10.5 c 0,8.666667 -0.2619,10.5 -1.5,10.5 -0.96879,0 -1.50132,-0.973884 -1.50374,-2.75 -0.005,-3.48024 -3.10597,-8.620556 -6.57049,-10.890593 -3.1392,-2.056882 -11.13544,-3.259172 -17.15997,-2.58012 L 110,78.260105 V 92.130052 106 h 2.77749 c 5.14934,0 9.04084,-4.18126 10.16128,-10.917871 0.31265,-1.879829 1.12933,-3.604829 1.81484,-3.833334 C 125.71729,90.92757 126,94.821635 126,108.41667 126,123.37963 125.77646,126 124.5,126 123.67178,126 123,125.11336 123,124.02024 123,117.54433 117.49606,111 112.04966,111 110.0813,111 110,111.55389 110,124.96482 110,141.18881 109.88265,141 119.96638,141 c 10.2212,0 17.29772,-4.28729 21.03981,-12.74689 1.03474,-2.33921 2.39888,-4.25311 3.03142,-4.25311 1.23075,0 0.84838,4.38925 -1.35029,15.5 l -1.18732,6 -29.25,0.2651 C 86.670416,145.99694 83,145.8401 83,144.5151 Z m 231,0.125 c 0,-0.76455 1.43297,-1.67669 3.18438,-2.02698 C 324.14364,141.22127 324,141.91773 324,109.56752 324,77.148749 323.90175,76.634998 317.47126,75.42863 308.47247,73.740447 316.25574,73 343,73 h 29 v 10 c 0,7.697892 -0.30888,10 -1.34171,10 -0.73794,0 -1.87493,-1.77972 -2.52664,-3.954934 -1.92692,-6.43149 -5.4171,-9.75493 -11.59015,-11.03645 -2.9632,-0.615159 -7.78476,-0.981254 -10.71457,-0.813543 L 340.5,77.5 340.22254,91.75 339.94509,106 h 3.12745 c 4.41708,0 9.45098,-5.22027 10.38926,-10.773903 C 353.90713,92.590231 354.70715,91 355.5879,91 356.75024,91 357,94.095247 357,108.5 c 0,14.40475 -0.24976,17.5 -1.4121,17.5 -0.88075,0 -1.68077,-1.59023 -2.1261,-4.2261 C 352.58617,116.59108 347.46842,111 343.6,111 H 341 v 13.96482 C 341,141.14751 340.91042,141 350.73791,141 c 10.04171,0 19.19769,-6.2151 21.72944,-14.75 0.36708,-1.2375 1.33249,-2.25 2.14535,-2.25 1.12173,0 1.33577,0.78328 0.88807,3.25 -0.32442,1.7875 -1.14592,6.625 -1.82555,10.75 l -1.23568,7.5 -29.21977,0.2651 C 318.81283,145.98654 314,145.80124 314,144.6401 Z m 150,0.4849 c 0,-0.48125 1.2375,-1.12366 2.75,-1.42758 6.06866,-1.21942 12.13339,-7.15684 26.59184,-26.03362 l 5.82062,-7.59934 -9.74381,-14.080143 C 478.59045,80.337209 475.74564,77.459212 469.44019,75.77276 467.06338,75.137059 465.34356,74.253129 465.61837,73.80847 466.35712,72.613143 499.75622,72.796532 500.5,74 c 0.33992,0.55 -0.2084,1 -1.21848,1 -3.08961,0 -6.51424,3.002059 -5.93807,5.205357 0.65711,2.512779 11.90816,19.758053 12.90406,19.778954 0.95134,0.01997 13.57015,-15.73924 14.9978,-18.730249 C 522.58863,78.439738 519.89346,75 516.34501,75 515.05526,75 514,74.55 514,74 c 0,-1.339397 24.67221,-1.339397 25.5,0 0.33992,0.55 -0.10145,1 -0.98082,1 -4.64035,0 -9.92894,4.500973 -19.55307,16.641076 -5.58634,7.046731 -9.66453,13.066244 -9.28878,13.710474 0.36841,0.63165 5.55862,8.44158 11.5338,17.35541 11.17368,16.66899 14.21718,20.0287 19.01233,20.98773 C 547.14107,145.07821 541.6537,146 526.5,146 c -10.33333,0 -16.5,-0.37374 -16.5,-1 0,-0.55 1.035,-1 2.3,-1 2.84911,0 4.7005,-1.7535 4.69842,-4.45 -8.7e-4,-1.1275 -3.52451,-7.33796 -7.83032,-13.80102 l -7.82874,-11.75103 -9.16293,11.75103 c -5.03962,6.46306 -9.16597,12.67352 -9.16968,13.80102 -0.008,2.50615 1.79767,4.45 4.13423,4.45 0.95754,0 2.0191,0.45 2.35902,1 0.39997,0.64717 -3.98962,1 -12.44098,1 C 469.87656,146 464,145.60625 464,145.125 Z M 226.45455,116.54545 c -4.06263,-4.06262 -3.23909,-10.57127 1.658,-13.10365 8.0794,-4.178022 15.87934,6.65722 9.4329,13.10365 C 235.99822,118.09269 233.94837,119 232,119 c -1.94837,0 -3.99822,-0.90731 -5.54545,-2.45455 z M 442.75525,77.5 c -0.299,-1.564097 -0.0202,-2.5 0.74475,-2.5 0.76494,0 1.04375,0.935903 0.74475,2.5 -0.26285,1.375 -0.59798,2.5 -0.74475,2.5 -0.14677,0 -0.4819,-1.125 -0.74475,-2.5 z m 5.48199,0.908886 c -0.68048,-0.72846 -1.22293,-1.905966 -1.20544,-2.61668 0.0201,-0.815407 0.5408,-0.620744 1.41127,0.527568 1.33392,1.759698 1.41439,1.759698 2.43778,0 0.58208,-1.000876 1.05771,-1.369774 1.05694,-0.819774 -7.7e-4,0.55 -0.55533,1.727506 -1.23235,2.61668 -1.01733,1.336113 -1.44567,1.386824 -2.4682,0.292206 z"
       id="path18"
       inkscape:connector-curvature="0" />
    <path
       style="fill:#b0a17b"
       d="M 45.5,117.51175 21.5,88.075404 21.232478,113.2046 c -0.262607,24.66754 -0.227255,25.17206 1.924314,27.4623 C 24.450007,142.04346 26.507119,143 28.174314,143 30.019368,143 31,143.52056 31,144.5 31,145.74593 29.062113,146 19.559017,146 8.6133815,146 4.1679493,144.92762 9.5323469,143.58124 10.917536,143.23358 12.939426,142.06057 14.025436,140.97456 15.900458,139.09954 16,137.54252 16,110.08889 V 81.177787 L 12.923275,78.588894 C 11.231076,77.165002 9.2060758,76 8.4232747,76 7.6404736,76 7,75.325 7,74.5 7,73.257899 8.8845605,73 17.961045,73 c 9.572552,0 11.187661,0.246083 12.75,1.942632 C 31.69497,76.011079 40.15,86.334999 49.5,97.884675 c 9.35,11.549675 17.3375,21.025495 17.75,21.057365 0.4125,0.0319 0.75,-8.51249 0.75,-18.987495 0,-18.887766 -0.02032,-19.065777 -2.454545,-21.5 -1.35,-1.35 -3.6,-2.454545 -5,-2.454545 C 58.949495,76 58,75.440476 58,74.5 58,73.258066 59.882331,73 68.940983,73 c 6.017541,0 11.210681,0.436381 11.540313,0.969736 0.329631,0.533355 -0.95759,1.620259 -2.860492,2.415342 -1.902902,0.795083 -3.946042,2.354118 -4.540313,3.464522 C 72.369952,81.177255 72,93.018782 72,114.43426 c 0,25.39977 -0.275058,32.56003 -1.25,32.53978 -0.6875,-0.0143 -12.05,-13.27231 -25.25,-29.46229 z m 127.37017,27.98067 c -10.90569,-3.49291 -19.25494,-12.12841 -22.49184,-23.26296 -2.41594,-8.31052 -1.56756,-22.02621 1.81713,-29.377422 5.51637,-11.981039 16.23309,-18.912375 30.3959,-19.659404 21.88657,-1.154423 36.48335,11.635621 38.13641,33.416026 1.28997,16.99636 -6.24912,30.60654 -20.60776,37.2028 -6.97774,3.20553 -19.98462,4.00788 -27.24984,1.68096 z m 19.99407,-5.22648 c 12.04597,-8.93008 13.65325,-46.766161 2.48195,-58.426483 -8.06358,-8.416559 -20.00903,-4.932734 -25.38454,7.403264 -1.90825,4.379127 -2.36785,7.538696 -2.75154,18.915559 -0.39926,11.83863 -0.18276,14.57312 1.62508,20.52502 2.14208,7.05234 5.34826,11.23147 10.16481,13.24942 3.56216,1.49242 10.77194,0.62565 13.86424,-1.66678 z m 74.45994,5.29457 c -17.68814,-5.53075 -27.84695,-25.27883 -22.91014,-44.53586 2.02837,-7.912103 5.03055,-13.185712 10.69514,-18.787031 C 262.11259,75.312432 266.8608,73.5 278,73.5 c 6.56478,0 11.47141,0.601831 15.88057,1.947861 l 6.38058,1.947861 1.77972,-2.197861 C 305.40091,71.048378 306,72.455956 306,84.5 c 0,10.613643 -0.14579,11.5 -1.89159,11.5 -1.14238,0 -2.12129,-0.9152 -2.47153,-2.310661 -0.89022,-3.546901 -6.3263,-10.527427 -9.91712,-12.734678 -11.86569,-7.293739 -24.08555,-2.426629 -28.20962,11.235752 -2.26152,7.49205 -3.04031,23.764227 -1.55744,32.541167 2.0335,12.03598 7.74265,17.76625 17.55939,17.62436 8.99474,-0.13002 9.48791,-0.79372 9.48791,-12.76868 0,-11.22338 -0.41034,-12.17452 -5.5,-12.74877 -1.84956,-0.20869 -3,-0.91371 -3,-1.83849 0,-1.26086 2.60319,-1.54387 16.32817,-1.77515 15.18133,-0.25582 16.3044,-0.15046 15.98978,1.5 -0.18611,0.97633 -1.31361,1.91467 -2.50555,2.08518 -3.59484,0.51428 -4.15294,2.24191 -4.48957,13.89762 -0.30839,10.67827 -0.43011,11.22758 -2.72145,12.28157 -8.26279,3.80078 -27.43777,5.17887 -35.7772,2.57129 z m 133.26887,-0.97817 c -10.49097,-4.41639 -16.86494,-11.14776 -19.90561,-21.02174 -2.4742,-8.0345 -2.93792,-13.66459 -1.69159,-20.53769 2.22072,-12.246542 9.04453,-21.930993 18.84361,-26.743128 5.14837,-2.528265 6.65583,-2.779753 16.66054,-2.779459 13.4912,3.97e-4 18.86297,2.018163 26.29586,9.877346 13.79335,14.584437 13.24483,41.318441 -1.11393,54.290721 -6.63206,5.99167 -13.81739,8.68628 -24.18193,9.06861 -7.79433,0.28751 -9.79131,-0.001 -14.90695,-2.15466 z m 18.12215,-2.56869 c 2.10718,-0.0237 8.31926,-6.16087 10.43617,-10.31035 3.01114,-5.90233 4.52272,-21.84823 3.04378,-32.109247 C 430.03318,84.594209 424.05649,77 414.41348,77 c -9.27495,0 -15.45126,8.63648 -17.49946,24.46991 -2.05087,15.8541 0.69104,29.67799 7.20879,36.3445 3.30982,3.38536 8.07117,5.32368 11.37719,4.63159 1.1,-0.23028 2.54684,-0.42484 3.2152,-0.43235 z M 314,144.5151 c 0,-0.86451 0.88704,-1.5151 2.06574,-1.5151 2.3527,0 6.07876,-1.76699 7.16895,-3.3997 0.40408,-0.60517 0.74158,-14.28325 0.75,-30.39575 L 324,79.909091 321.54545,77.454545 c -1.35,-1.35 -3.6,-2.454545 -5,-2.454545 -1.4,0 -2.54545,-0.45 -2.54545,-1 0,-0.643678 10.33333,-1 29,-1 h 29 v 10 c 0,11.424719 -1.40936,13.156805 -4.23408,5.203621 C 364.70507,79.585603 359.97733,77.070606 346.75,77.023857 L 340,77 V 91.5 106 h 3.39641 c 4.39461,0 9.10667,-5.0993 10.08993,-10.919124 C 354.97862,86.248102 356,91.700691 356,108.5 c 0,11 -0.37143,17.5 -1,17.5 -0.55,0 -1,-0.98292 -1,-2.18428 0,-3.91707 -3.90179,-10.5324 -6.95902,-11.79875 -6.09606,-2.52507 -6.51112,-1.80283 -6.82278,11.8722 -0.38652,16.96008 -0.0168,17.50852 11.39919,16.90934 7.31316,-0.38385 8.96383,-0.82809 12.61694,-3.39559 2.67999,-1.88357 5.12024,-4.82586 6.73433,-8.11979 2.76851,-5.64983 5.33291,-7.10899 4.45183,-2.53313 -0.29124,1.5125 -1.06884,6.35 -1.72801,10.75 l -1.19849,8 -29.24699,0.2651 C 317.6701,145.99694 314,145.8401 314,144.5151 Z M 464,145 c 0,-0.55 0.69735,-1 1.54966,-1 2.28184,0 7.54292,-2.85319 10.81309,-5.86416 2.57569,-2.37154 20.1303,-23.82931 21.98719,-26.8759 0.75623,-1.24075 -12.85668,-22.338544 -18.74838,-29.056959 -2.91627,-3.325466 -6.95485,-5.857145 -11.59509,-7.26864 -1.37856,-0.41934 5.59353,-0.762436 15.49353,-0.762436 11.34742,0 16.96001,0.312177 15.18607,0.844663 C 495.25384,76.046824 493,77.821617 493,79.494075 c 0,0.687052 2.99812,5.842687 6.66248,11.456965 l 6.66248,10.20778 2.58752,-3.271304 c 8.04908,-10.176133 13.08569,-17.197218 13.07221,-18.222775 -0.03,-2.282426 -1.77508,-3.876014 -5.10543,-4.662241 -2.25463,-0.532274 0.9472,-0.805569 9.62074,-0.821191 10.37821,-0.01869 12.39497,0.191096 10,1.040223 -1.65,0.585001 -4.27611,1.957611 -5.83581,3.050246 C 528.06636,80.091679 509,103.20405 509,104.53326 c 0,0.31661 4.94649,7.92644 10.99219,16.91075 C 531.54071,138.60583 536.45338,144 540.5348,144 c 1.35586,0 2.4652,0.45 2.4652,1 0,0.62641 -6.18634,1 -16.55902,1 -10.7847,0 -16.3435,-0.34871 -15.94098,-1 0.33992,-0.55 1.46596,-1 2.50231,-1 1.03636,0 2.56166,-0.96709 3.38957,-2.14909 1.34453,-1.9196 1.33625,-2.47597 -0.0775,-5.20991 -3.0236,-5.84701 -14.59028,-22.5885 -15.30232,-22.14844 C 498.8517,115.82772 483,137.93279 483,139.6102 c 0,2.47568 1.83136,4.3898 4.2,4.3898 0.99,0 1.8,0.45 1.8,1 0,0.61333 -4.83333,1 -12.5,1 -7.66667,0 -12.5,-0.38667 -12.5,-1 z M 83,144 c 0,-0.55 1.505256,-1 3.345012,-1 C 92.975554,143 93,142.87412 93,108.73028 93,86.544887 92.679933,77.920221 91.83729,77.39944 91.1978,77.004213 89.318945,76.403589 87.662056,76.064719 86.005167,75.725849 84.465886,74.897658 84.241432,74.224296 83.925868,73.277605 90.314503,73 112.41667,73 H 141 v 10.5 c 0,11.002941 -1.1302,13.443893 -3.00354,6.48687 -0.59434,-2.207221 -2.42878,-5.548599 -4.07653,-7.425283 C 130.561,78.73598 124.79609,77 115.45078,77 H 110 V 91.5 106 h 3.41111 c 2.58147,0 4.04083,-0.74839 6.00029,-3.07707 2.4136,-2.8684 3.06601,-4.472108 3.79967,-9.340064 0.15891,-1.054423 0.85143,-2.104423 1.53893,-2.333333 0.96839,-0.322434 1.25,3.545161 1.25,17.167137 C 126,123.37963 125.77646,126 124.5,126 123.55145,126 123,125.04457 123,123.40113 123,117.17349 117.54874,111 112.04966,111 110.08246,111 110,111.55522 110,124.8 c 0,9.4 0.38261,14.18261 1.2,15 0.69276,0.69276 4.01128,1.2 7.85078,1.2 11.65135,0 17.43877,-3.11418 21.41758,-11.52471 2.76479,-5.84429 5.14781,-7.37211 4.25077,-2.72529 -0.29197,1.5125 -1.08496,6.2375 -1.76219,10.5 L 141.7256,145 H 112.3628 C 93.454267,145 83,144.64396 83,144 Z M 228.31537,117.99302 C 225.60218,116.89985 224,114.02139 224,110.24006 c 0,-6.73242 9.72478,-9.94799 13.92742,-4.6052 3.491,4.43808 2.40064,9.53222 -2.61168,12.2018 -2.52777,1.3463 -3.96721,1.37845 -7.00037,0.15636 z M 443.15789,78 c 0,-1.375 0.22698,-1.9375 0.50439,-1.25 0.27741,0.6875 0.27741,1.8125 0,2.5 -0.27741,0.6875 -0.50439,0.125 -0.50439,-1.25 z m 4.9425,-0.295478 c -1.26492,-2.106309 -1.24361,-2.127619 0.47833,-0.478332 0.99123,0.949405 1.58698,1.94144 1.3239,2.204522 -0.26308,0.263082 -1.07408,-0.513704 -1.80223,-1.72619 z"
       id="path16"
       inkscape:connector-curvature="0" />
    <path
       style="fill:#a18f60"
       d="M 67.845442,144.25 C 66.454635,142.7375 56.178307,130.25 45.009159,116.5 33.84001,102.75 23.868752,90.6125 22.850808,89.527778 21.046584,87.605195 21,88.202972 21,113.27778 c 0,24.38889 0.103672,25.82589 2,27.72222 1.1,1.1 3.098442,2 4.440983,2 1.342541,0 2.719098,0.45 3.059017,1 0.400164,0.64748 -3.721145,0.97318 -11.690983,0.92392 C 7.9138753,144.85658 6.8861571,144.7081 9.861834,143.63122 16.016506,141.40389 16,141.49497 16,109.76112 V 80.904502 L 13.353977,78.452251 C 11.898665,77.103513 10.125222,76 9.4129943,76 8.7007661,76 7.8399187,75.55 7.5,75 7.1016691,74.355487 10.968081,74 18.376378,74 H 29.87079 l 18.179805,22.25 c 9.998892,12.2375 18.577964,22.4 19.064605,22.58333 C 67.609047,119.01938 68,110.71453 68,100.03788 68,81.061635 67.98043,80.889517 65.545455,78.454545 c -1.35,-1.35 -3.6,-2.454545 -5,-2.454545 C 59.145455,76 58,75.55 58,75 c 0,-0.606061 4.333333,-1 11,-1 6.666667,0 11,0.393939 11,1 0,0.55 -0.867339,1 -1.92742,1 -1.060081,0 -2.860081,1.185686 -4,2.634859 C 72.071297,81.179078 72,82.400276 72,114.13486 72,132.21069 71.634191,147 71.187091,147 c -0.4471,0 -1.950842,-1.2375 -3.341649,-2.75 z M 174.5,145.65835 c -10.37452,-2.69681 -17.89852,-8.94093 -22.30454,-18.51039 -3.60745,-7.83503 -4.20911,-20.95065 -1.37271,-29.924102 5.16347,-16.33562 19.37849,-25.32462 37.84457,-23.931364 8.76932,0.66164 14.72346,3.182987 20.84785,8.82825 5.81696,5.361888 9.13419,11.797363 10.65624,20.673246 3.00327,17.51377 -5.03813,34.1353 -19.77951,40.88413 -6.65914,3.04866 -18.34385,3.94231 -25.8919,1.98023 z m 15.81574,-3.78054 c 4.55661,-2.341 7.69494,-6.39233 9.90597,-12.7878 1.94456,-5.62468 2.27238,-8.56755 2.23794,-20.09001 -0.0347,-11.609965 -0.3566,-14.296569 -2.29928,-19.189675 -6.31789,-15.91319 -22.43992,-17.296596 -29.55648,-2.536196 -3.49512,7.249211 -5.26246,23.426391 -3.68729,33.751381 1.54179,10.10616 5.19451,17.45464 9.91599,19.94878 4.12584,2.17948 10.20646,2.58696 13.48315,0.90352 z M 269.5,146.13066 c -6.02636,-1.58035 -11.11444,-4.66331 -16.16064,-9.79201 C 236.15431,118.87259 242.1331,86.468595 264.5,75.850042 c 7.57508,-3.596225 16.29136,-3.813991 27.84775,-0.695742 l 7.98394,2.1543 1.74445,-2.1543 C 303.03558,73.969435 304.05871,73 304.34975,73 c 0.29104,0 0.66891,5.175884 0.83971,11.501965 0.26604,9.853668 0.0885,11.501683 -1.23857,11.5 -0.8759,-0.0011 -2.12678,-1.599469 -2.87837,-3.677948 -1.94109,-5.367991 -9.92114,-12.936894 -15.11383,-14.335142 -4.62527,-1.245454 -9.76317,-0.658463 -14.16624,1.618455 -4.0298,2.08389 -8.46979,10.551063 -9.86252,18.808064 -1.5788,9.360196 -0.72233,27.722786 1.55421,33.321876 3.523,8.66475 12.08492,12.80222 21.33696,10.3109 L 289,140.92291 V 130.0839 c 0,-11.56253 -0.27876,-12.2775 -5.25,-13.46506 -1.5125,-0.36132 -2.75,-1.09837 -2.75,-1.63789 0,-0.60039 6.20717,-0.98095 16,-0.98095 9.79283,0 16,0.38056 16,0.98095 0,0.53952 -1.09188,1.25499 -2.4264,1.58993 -4.68964,1.17703 -5.481,3.21831 -5.78763,14.92901 L 304.5,142.4218 l -6,1.89754 c -6.51489,2.06038 -23.90768,3.14672 -29,1.81132 z m 135.2175,-0.15842 c -9.74692,-2.45958 -17.48091,-8.71495 -21.91771,-17.72737 -3.15425,-6.40718 -3.29979,-7.21096 -3.29979,-18.22384 0,-10.395992 0.26075,-12.077298 2.67018,-17.217528 3.25992,-6.954634 9.64733,-13.526628 16.32982,-16.801731 4.37692,-2.145139 6.37077,-2.452363 16,-2.465375 12.60381,-0.01703 17.20695,1.493738 24.42774,8.017289 11.18885,10.108453 14.85128,28.270945 8.90536,44.162855 -2.80503,7.4971 -10.765,15.36039 -18.50303,18.27827 -6.57766,2.48032 -18.74562,3.45793 -24.61257,1.97743 z m 15.88143,-4.87767 c 7.9326,-3.60256 11.25289,-11.33408 12.06516,-28.09457 1.15966,-23.928638 -5.06625,-35.98694 -18.58551,-35.996262 -5.09046,-0.0035 -5.67471,0.260614 -9.57062,4.326614 -5.00571,5.224249 -7.37435,12.602782 -8.21599,25.593548 -1.0879,16.79202 3.68687,30.34741 12.02272,34.13199 5.22308,2.37135 7.13459,2.37737 12.28424,0.0387 z M 464.5,145 c 0.33992,-0.55 1.41227,-1 2.38299,-1 3.72045,0 11.5887,-7.19894 21.65501,-19.81292 5.7541,-7.2104 10.462,-13.49593 10.462,-13.96784 0,-1.46073 -16.97297,-25.502199 -20.83345,-29.509668 -2.16494,-2.24737 -5.4864,-4.356254 -8.15897,-5.180348 -4.23596,-1.306165 -3.45304,-1.390717 12.99242,-1.40313 14.83548,-0.0112 16.9671,0.16852 14,1.180348 -5.55167,1.893211 -5.15527,4.41654 2.50006,15.914413 3.66655,5.506946 7.03717,9.622595 7.49027,9.145885 0.4531,-0.476706 4.00878,-4.91674 7.90152,-9.86674 8.90635,-11.325297 9.17274,-13.769659 1.69544,-15.557216 -1.86155,-0.445031 2.07405,-0.761275 9.91271,-0.79653 12.20663,-0.0549 12.76426,0.02557 9.13726,1.318559 -2.12451,0.757365 -5.20817,2.650113 -6.85258,4.206107 C 525.54537,82.736044 509,103.44891 509,104.43901 c 0,0.3326 4.89049,7.92102 10.86776,16.86315 C 530.77368,137.61769 536.42777,144 539.97578,144 c 1.0484,0 2.1843,0.45 2.52422,1 0.4028,0.65174 -5.23586,0.99467 -16.19098,0.98469 C 515.08687,145.97446 509.99856,145.64718 511,145 c 0.825,-0.53316 2.27167,-0.97627 3.21482,-0.98469 2.18728,-0.0195 3.98332,-3.32106 3.09692,-5.69287 -1.22212,-3.27013 -15.56717,-24.28261 -16.27774,-23.84345 -1.14388,0.70695 -16.65875,20.84656 -17.92719,23.27101 -1.47422,2.81775 0.10152,6.25 2.86936,6.25 1.04819,0 2.18391,0.45 2.52383,1 0.39955,0.64649 -3.84262,1 -12,1 -8.15738,0 -12.39955,-0.35351 -12,-1 z M 83,144 c 0,-0.55 1.505256,-1 3.345012,-1 C 92.974186,143 93,142.86732 93,108.7937 93,75.216879 93.240528,76.5171 86.743837,74.974802 84.957247,74.55067 96.415524,74.158739 112.25,74.102361 L 141,74 v 10 c 0,5.5 -0.39658,10 -0.88129,10 -0.4847,0 -1.37717,-1.969344 -1.98325,-4.376319 -2.27408,-9.031187 -9.23221,-12.975141 -21.90993,-12.418813 L 109.5,77.5 109.22254,91.75 108.94509,106 h 4.0752 c 5.05887,0 8.26027,-3.08575 9.88159,-9.524615 C 125.07476,87.846106 126,91.611421 126,109.08333 c 0,12.44905 -0.31257,16.97915 -1.15222,16.69926 -0.63372,-0.21124 -1.71381,-2.59584 -2.4002,-5.29911 C 120.91452,114.44569 117.27994,111 112.44424,111 H 109 v 12.77749 c 0,17.23021 0.21169,17.53258 11.94866,17.06741 11.19169,-0.44356 15.95122,-3.20024 19.71334,-11.41778 2.47903,-5.41493 5.03934,-7.44161 4.01365,-3.17712 -0.29764,1.2375 -1.09928,5.9625 -1.78143,10.5 L 141.65396,145 H 112.32698 C 93.442327,145 83,144.64393 83,144 Z m 231,0.0151 c 0,-0.5583 1.24987,-1.0151 2.77749,-1.0151 1.52763,0 3.77763,-0.70052 5,-1.5567 C 323.99121,139.89275 324,139.7665 324,109.51588 V 79.14516 l -2.63486,-2.07258 C 319.91597,75.932661 317.66597,75 316.36514,75 315.06431,75 314,74.55 314,74 c 0,-0.64322 10.14453,-1 28.43359,-1 h 28.43358 l 0.31642,10.002179 c 0.22143,6.999853 -0.0254,10.001525 -0.8223,10 -0.62629,-0.0012 -1.43598,-1.5868 -1.79932,-3.52356 -0.88283,-4.70585 -5.8617,-10.189842 -10.39424,-11.448753 C 356.15048,77.469574 351.2375,77.008644 347.25,77.005577 L 340,77 V 91.5 106 h 3.06574 c 1.68616,0 3.97442,-0.48631 5.08502,-1.08068 2.27857,-1.21946 5.79399,-8.259206 5.82728,-11.66932 C 353.99012,92.0125 354.45,91 355,91 c 0.62857,0 1,6.5 1,17.5 0,11 -0.37143,17.5 -1,17.5 -0.55,0 -1.00988,-1.0125 -1.02196,-2.25 -0.0333,-3.41011 -3.54871,-10.44986 -5.82728,-11.66932 C 347.04016,111.48631 344.7519,111 343.06574,111 H 340 v 13.34501 c 0,16.32685 0.21565,16.66591 10.57874,16.63303 11.05192,-0.0351 18.34522,-4.59487 21.55729,-13.47769 0.69616,-1.92519 1.76608,-3.50035 2.37759,-3.50035 0.78592,0 0.65127,3.0047 -0.45933,10.25 l -1.57117,10.25 -29.24156,0.2651 C 323.94967,144.94001 314,144.68481 314,144.0151 Z m -85.5,-26.14566 c -4.91267,-2.7464 -5.9154,-7.80033 -2.42742,-12.23458 4.0923,-5.20251 13.92742,-1.83837 13.92742,4.76392 0,5.24728 -7.15863,9.89769 -11.5,7.47066 z"
       id="path14"
       inkscape:connector-curvature="0" />
  </g>
</svg>
