<?xml version="1.0" encoding="UTF-8" standalone="no"?>
<!-- Created with Inkscape (http://www.inkscape.org/) -->

<svg
   xmlns:dc="http://purl.org/dc/elements/1.1/"
   xmlns:cc="http://creativecommons.org/ns#"
   xmlns:rdf="http://www.w3.org/1999/02/22-rdf-syntax-ns#"
   xmlns:svg="http://www.w3.org/2000/svg"
   xmlns="http://www.w3.org/2000/svg"
   xmlns:sodipodi="http://sodipodi.sourceforge.net/DTD/sodipodi-0.dtd"
   xmlns:inkscape="http://www.inkscape.org/namespaces/inkscape"
   version="1.1"
   id="svg2"
   width="1228"
   height="332"
   viewBox="0 0 1228 332"
   sodipodi:docname="logo.svg"
   inkscape:version="0.92.3 (2405546, 2018-03-11)">
  <metadata
     id="metadata8">
    <rdf:RDF>
      <cc:Work
         rdf:about="">
        <dc:format>image/svg+xml</dc:format>
        <dc:type
           rdf:resource="http://purl.org/dc/dcmitype/StillImage" />
        <dc:title></dc:title>
      </cc:Work>
    </rdf:RDF>
  </metadata>
  <defs
     id="defs6" />
  <sodipodi:namedview
     pagecolor="#ffffff"
     bordercolor="#666666"
     borderopacity="1"
     objecttolerance="10"
     gridtolerance="10"
     guidetolerance="10"
     inkscape:pageopacity="0"
     inkscape:pageshadow="2"
     inkscape:window-width="1920"
     inkscape:window-height="1017"
     id="namedview4"
     showgrid="false"
     inkscape:zoom="0.28175896"
     inkscape:cx="614"
     inkscape:cy="166"
     inkscape:window-x="-4"
     inkscape:window-y="-4"
     inkscape:window-maximized="1"
     inkscape:current-layer="svg2" />
  <g
     id="g12"
     transform="translate(70.982658,3.5491291)">
    <path
       style="fill:#aeaeae"
       d="M 952.246,220.45036 C 933.37302,214.14258 919.14473,199.32969 912.91175,179.5 c -1.37,-4.35854 -1.88595,-9.00934 -1.88595,-17 0,-12.38309 1.56396,-18.82633 7.11812,-29.32534 7.00377,-13.23921 19.74245,-23.87271 34.28657,-28.62039 6.57988,-2.14789 9.67391,-2.55255 19.44715,-2.54345 18.52171,0.0173 29.50536,4.52089 42.65306,17.48918 8.9842,8.86148 14.1893,17.96971 16.9417,29.64514 7.2883,30.91725 -12.8748,64.15729 -43.9724,72.49117 -2.88086,0.77204 -9.87403,1.31845 -16.5,1.28923 -9.41775,-0.0415 -12.81345,-0.48971 -18.754,-2.47518 z M 989.5,211.6034 c 16.0666,-5.83889 27.9759,-18.93659 32.987,-36.27862 2.7299,-9.44749 2.7491,-9.43314 -12.1776,-9.10481 l -12.73029,0.28003 -0.6662,3.26441 c -2.30277,11.28359 -16.27736,20.6077 -28.20517,18.81901 -10.60345,-1.59008 -17.95261,-7.44614 -21.68067,-17.27588 l -1.82332,-4.80754 -12.72094,-0.28077 -12.72094,-0.28076 0.70866,5.67198 c 2.06257,16.50823 16.1979,33.44199 33.52947,40.16743 9.33481,3.62233 25.268,3.54402 35.5,-0.17448 z m -12.28105,-31.64741 c 10.8177,-3.00437 16.13905,-15.45343 10.95181,-25.62128 -2.58796,-5.07281 -6.13675,-7.97919 -11.5093,-9.42587 -8.73697,-2.35262 -17.08044,1.40585 -21.17239,9.5375 -4.41937,8.78229 -2.15494,17.53263 6.01093,23.22782 4.7881,3.33941 9.46594,4.01846 15.71895,2.28183 z m -671.00699,32.02446 c -4.00842,-1.05019 -7.66626,-2.14319 -8.12854,-2.42889 -0.46227,-0.2857 -2.35765,0.26082 -4.21196,1.21449 -2.75371,1.41624 -5.93667,1.71894 -17.37146,1.65205 -7.7,-0.0451 -16.25,-0.20945 -19,-0.36535 -2.75,-0.1559 -9.502,0.0483 -15.00445,0.45377 -12.71343,0.93685 -20.09451,-0.43471 -23.94,-4.44854 l -2.74196,-2.86199 -5.1568,2.32019 c -2.83623,1.2761 -8.94866,3.07782 -13.58316,4.00382 -7.87857,1.57418 -8.98376,1.57528 -17,0.0169 -14.75119,-2.86767 -25.27974,-9.16234 -32.23588,-19.27274 -1.72433,-2.50622 -3.68877,-6.40344 -4.36542,-8.66047 -1.33456,-4.45155 -1.14392,-4.40187 -9.60063,-2.50225 l -4.6283,1.03964 -0.44139,8.17946 c -0.5314,9.84737 -2.64779,14.79776 -7.65847,17.91369 C 117.77988,210.32595 116.34775,210.5 102.5,210.5 85.797163,210.5 83.06063,209.68482 79.385541,203.61446 77.612227,200.68537 77.5,197.82161 77.5,155.5 c 0,-42.32161 0.112227,-45.18537 1.885541,-48.11446 3.853278,-6.36468 5.832609,-6.85104 29.327659,-7.20629 18.98747,-0.2871 22.00676,-0.10304 28.77657,1.75423 11.74591,3.22244 20.44407,9.81064 25.4762,19.29629 l 2.2968,4.32951 7.11861,-2.50532 c 11.67082,-4.10741 25.32877,-3.26997 38.72956,2.37473 1.39724,0.58855 1.67661,-0.57698 2.10602,-8.78654 0.60059,-11.4822 2.60612,-16.06563 8.34758,-19.077607 C 224.95448,95.786178 227.302,95.5 238.5,95.5 c 11.198,0 13.54552,0.286178 16.93546,2.064543 5.17657,2.715637 7.70977,7.732977 8.3381,16.514767 L 264.26873,121 h 9.35124 9.35123 l 1.14718,-4.55586 c 0.63095,-2.50572 2.37275,-5.78142 3.87067,-7.27934 3.3052,-3.3052 31.90504,-18.520649 37.79223,-20.105905 4.91365,-1.323108 10.50671,-0.193401 14.46757,2.922211 4.73026,3.720822 12.0259,22.866534 10.79442,28.327434 l -0.71971,3.19146 14.11034,-0.14007 c 7.76068,-0.077 15.90038,-0.63703 18.08821,-1.24443 5.50294,-1.52773 8.7984,-1.37727 17.46488,0.7974 7.41501,1.86064 7.56829,1.85884 15.94273,-0.1876 7.48637,-1.82942 9.24194,-1.93148 15.31362,-0.8903 7.56284,1.29688 12.46689,3.49856 17.73446,7.9619 l 3.47781,2.94683 4.42449,-3.37835 c 4.63042,-3.53559 10.41179,-5.63132 20.83491,-7.55259 4.83963,-0.89208 7.82133,-0.85854 13.47351,0.15157 7.89004,1.41002 17.31731,4.38062 19.40771,6.1155 0.98885,0.82068 2.23408,0.38904 5.03328,-1.7447 3.70362,-2.82316 3.78527,-2.8355 19.29493,-2.91487 8.56656,-0.0438 18.63934,-0.66225 22.38396,-1.37425 14.12646,-2.68599 27.1475,2.61145 35.04677,14.25832 6.18191,9.11477 6.80927,13.23602 6.45652,42.41377 -0.28665,23.71067 -0.4678,25.98727 -2.25497,28.33859 -4.64591,6.1125 -5.78048,6.44328 -22.1007,6.44328 -12.42798,0 -15.49158,-0.29328 -17.61803,-1.68658 -2.41106,-1.57979 -2.72488,-1.58022 -4.95602,-0.007 -1.79613,1.26662 -5.15648,1.76971 -13.66289,2.04549 -14.71138,0.47695 -19.09876,-0.23593 -22.91743,-3.72375 -2.84501,-2.59851 -3.2661,-2.70285 -5.71984,-1.4172 C 504.6758,211.28165 491.73403,214 484.40209,214 c -8.34819,0 -18.90893,-2.1976 -24.65986,-5.1315 -3.91342,-1.99648 -3.97706,-1.99733 -6.09846,-0.081 -4.49774,4.06302 -21.60443,5.63342 -30.89807,2.83644 -3.88106,-1.16803 -5.37401,-1.16803 -9.87686,0 -6.80428,1.76501 -19.9334,1.76501 -26.73768,0 -4.50285,-1.16803 -5.9958,-1.16803 -9.87686,0 -6.01992,1.81173 -18.02096,1.75037 -25.27459,-0.12924 -5.39855,-1.3989 -6.39792,-1.36407 -14.14435,0.493 -10.38866,2.49049 -21.09943,2.48794 -30.6234,-0.007 z M 333.9867,196.86676 C 340.50436,195.39266 341,194.68527 341,186.85723 v -6.89788 l -3.91414,1.99685 c -12.67222,6.46488 -25.22571,3.77812 -28.99749,-6.2062 L 307.0495,173 h 18.9562 18.9562 l 0.6551,-2.61013 c 1.09228,-4.352 -2.18852,-18.31935 -5.36449,-22.8382 -5.67109,-8.06897 -13.04291,-11.02701 -25.75251,-10.33351 -12.29097,0.67066 -19.02852,5.02575 -23.64183,15.28184 -3.22252,7.16418 -3.18872,20.8165 0.0699,28.22705 2.58029,5.86794 9.29563,12.6268 14.88232,14.97878 7.248,3.05138 17.88081,3.48948 28.17631,1.16093 z M 307,159.46788 c 0,-0.84266 0.6588,-3.10886 1.46401,-5.03599 1.77826,-4.25597 7.16823,-6.91107 12.13736,-5.97885 4.11555,0.77208 8.39863,5.67991 8.39863,9.62369 V 161 h -11 c -9.2136,0 -11,-0.24882 -11,-1.53212 z m 192.51111,36.44146 c 9.69564,-3.6264 15.92395,-12.21093 17.11298,-23.58694 C 518.76294,151.85904 504.95453,137 483.79923,137 c -13.40926,0 -24.9921,7.97588 -28.34818,19.52039 -2.62101,9.01596 -1.70796,21.39613 2.09792,28.44591 5.37492,9.95616 15.29434,14.4654 29.45103,13.38807 4.125,-0.31392 9.755,-1.41418 12.51111,-2.44503 z M 478.28917,183.22776 C 473.1321,179.1975 471.16609,165.17731 474.75155,158 c 3.46885,-6.94386 12.99728,-8.74243 18.63504,-3.51752 6.23656,5.77985 6.01052,21.27426 -0.40394,27.68872 -2.33337,2.33337 -3.67418,2.82491 -7.65573,2.80656 -3.02499,-0.0139 -5.65224,-0.66722 -7.03775,-1.75 z M 544,181.2344 c 0,-20.67781 0.88922,-23.78565 7.43455,-25.98399 4.57654,-1.5371 7.65889,-0.84354 10.72062,2.41225 2.26854,2.41232 2.3549,3.12533 2.65426,21.91539 L 565.11885,199 H 574.55943 584 v -21.87427 c 0,-23.26872 -0.56535,-26.91368 -5.13264,-33.09127 -6.80287,-9.20136 -22.56881,-9.36639 -31.61736,-0.33094 L 543,147.94737 V 142.97368 138 h -9 -9 v 30.5 30.5 h 9.5 9.5 z m -346.27527,14.35091 c 14.87578,-3.9603 21.95779,-14.36009 21.08626,-30.96478 -0.3453,-6.57885 -0.98344,-9.16671 -3.31821,-13.45647 -13.19142,-24.23697 -52.94781,-18.37406 -58.5549,8.63516 -1.30522,6.28724 -0.69124,14.15348 1.51728,19.43923 5.51207,13.19223 23.30218,20.59777 39.26957,16.34686 z m -16.30442,-13.41223 c -4.19727,-2.63929 -5.9315,-7.29541 -5.86289,-15.7409 0.0722,-8.88983 2.50759,-14.15633 7.75145,-16.76255 4.69805,-2.33495 8.80622,-1.50999 12.12567,2.43494 6.08152,7.22748 6.07052,23.25397 -0.0199,28.97561 -3.24847,3.05178 -10.03613,3.58186 -13.99435,1.0929 z M 248,182.8 c 0,-8.81977 0.35428,-13.84005 0.93505,-13.25 0.51428,0.5225 3.94383,6.72255 7.62122,13.7779 3.67739,7.05534 7.22304,13.03392 7.87921,13.28572 0.65618,0.25179 5.99722,0.32924 11.86898,0.1721 L 286.98038,196.5 276.90246,180.63949 c -5.91865,-9.31469 -9.89352,-16.56567 -9.63111,-17.56913 0.24575,-0.93975 4.11911,-7.19002 8.60748,-13.8895 L 284.03949,137 273.76975,137.007 263.5,137.014 256,149.17899 248.5,161.34398 248.23283,136.17221 247.96566,111 H 238.48283 229 v 43 43 h 9.5 9.5 z m 125,-5.34545 c 0,-19.41864 0.0159,-19.56139 2.45455,-22 C 376.95632,153.95277 379.05948,153 380.87276,153 389.13471,153 390,155.41276 390,178.45034 V 197 h 9.5 9.5 v -19.54545 c 0,-19.41864 0.0159,-19.56139 2.45455,-22 3.09382,-3.09383 8.25269,-3.25927 11.91059,-0.38197 L 426,157.14516 V 177.07258 197 h 9 9 v -23.28811 c 0,-22.16314 -0.10869,-23.50345 -2.25,-27.74588 -2.896,-5.73765 -8.33735,-8.92895 -15.25,-8.94398 -7.74938,-0.0169 -12.07541,1.60674 -15.66115,5.87777 l -3.20542,3.81801 -2.52534,-3.0012 c -7.56872,-8.99491 -24.18777,-8.77905 -31.42653,0.40817 L 371.02218,147.5 371.01109,142.75 371,138 h -8 -8 v 29.5 29.5 h 9 9 z M 113,181 v -14 h 5.66809 c 15.17201,0 26.77428,-4.82807 31.0173,-12.90728 2.58439,-4.92098 3.14401,-14.5657 1.24249,-21.4135 -1.43703,-5.17503 -7.36066,-11.49503 -13.42788,-14.32637 -4.71803,-2.20173 -6.14197,-2.33386 -25.25,-2.34308 L 92,116 v 39.5 39.5 h 10.5 10.5 z m 0,-40 v -11 h 3.97976 C 125.41697,130 132,134.82105 132,141 c 0,6.17895 -6.58303,11 -15.02024,11 H 113 Z m 207.01204,-16.34474 c 8.51838,-3.48961 15.4605,-6.67142 15.42695,-7.07068 C 335.28007,115.69379 330.48515,104 329.86876,104 c -0.93611,0 -29.03185,14.7523 -29.96162,15.73202 C 299.1007,120.58178 302.7295,131 303.83193,131 c 0.38068,0 7.66174,-2.85514 16.18011,-6.34474 z m 301.80669,87.76487 c -6.01975,-1.85246 -13.29996,-8.97799 -15.04507,-14.72542 C 605.86782,194.71141 605.5,185.12497 605.5,164.5 c 0,-25.40313 0.21072,-29.38469 1.69892,-32.10156 2.41693,-4.41238 8.11113,-9.11292 12.52375,-10.33831 5.28147,-1.46668 88.93084,-1.42798 94.77599,0.0439 2.41136,0.60719 6.11102,2.58199 8.22146,4.38845 3.71772,3.18223 3.90427,3.23014 5.99262,1.53909 1.1855,-0.95996 4.8663,-2.27871 8.17956,-2.93055 4.94561,-0.97299 7.03293,-0.92172 11.65917,0.28636 3.09929,0.80934 6.52386,2.27585 7.61014,3.25893 1.86673,1.68936 2.12216,1.69421 4.65673,0.0883 8.14494,-5.16064 8.45013,-5.21185 33.18166,-5.5676 26.37495,-0.37939 32.44513,0.39627 38.12644,4.87187 l 3.62644,2.85682 3.09283,-2.28182 c 4.74702,-3.50224 13.12816,-5.0482 19.46473,-3.59039 14.09873,3.24359 20.87733,14.81589 17.78665,30.36506 -0.93669,4.71243 -0.98456,7.35391 -0.18545,10.23193 1.35476,4.87918 1.37226,24.43599 0.0271,30.27101 -1.28041,5.55414 -5.33239,11.2516 -10.29922,14.48167 -7.41145,4.81988 -20.11805,4.41463 -27.0364,-0.86226 l -3.14132,-2.39599 -4.28414,2.87727 c -8.29952,5.57402 -21.22301,4.90959 -29.6521,-1.52449 l -4.31674,-3.29504 -2.82663,2.95037 c -6.3039,6.57986 -20.5334,7.51404 -29.55714,1.94047 l -4.67494,-2.88752 -3.16261,2.33331 c -7.97458,5.88345 -22.58234,5.58498 -31.08062,-0.63505 -1.26936,-0.92907 -2.18385,-0.72963 -4.5,0.98141 -7.41756,5.47968 -21.77682,5.09036 -29.99752,-0.8133 l -4.13147,-2.96699 -2.33023,2.48041 C 682.33586,211.33585 674.52085,214 668.97743,214 c -5.21811,0 -12.21131,-2.31387 -16.20919,-5.3632 l -3.43523,-2.62018 -2.35779,2.50976 c -4.62883,4.92716 -16.05248,6.69533 -25.15649,3.89375 z"
       id="path26"
       inkscape:connector-curvature="0" />
    <path
       style="fill:#fddc00"
       d="m 960,222.02654 c -22.40693,-3.51656 -42.54093,-23.45196 -47.50131,-47.03275 -6.27805,-29.84481 9.59245,-58.28237 38.89705,-69.69772 6.55409,-2.55309 8.14974,-2.76234 20.60426,-2.70198 12.49226,0.0605 14.02079,0.27946 20.47666,2.93274 10.92734,4.491 14.50594,6.86003 22.17574,14.6804 4.762,4.85538 8.3073,9.63231 10.6079,14.29277 5.7669,11.68265 6.8935,16.25896 6.8935,28 0,11.74104 -1.1266,16.31735 -6.8935,28 -2.2672,4.59289 -5.915,9.53524 -10.6079,14.37261 -13.9818,14.41222 -33.36223,20.49522 -54.6524,17.15393 z m 25.85491,-8.57702 c 10.93127,-2.84712 23.20139,-11.81606 30.05199,-21.9667 1.7012,-2.5207 3.0931,-4.81021 3.0931,-5.08782 0,-0.2776 0.8908,-2.46014 1.9795,-4.85008 1.0888,-2.38994 2.2773,-6.87876 2.6412,-9.97515 l 0.6617,-5.62979 -13.2541,0.28001 -13.2542,0.28001 -1.88189,5 c -2.3626,6.27717 -7.56798,11.81386 -13.67453,14.54488 -7.06515,3.15972 -17.20735,2.48585 -23.78414,-1.58026 -5.50996,-3.40655 -10.30106,-9.57877 -11.32363,-14.58787 L 946.42057,166.5 932.71029,166.22178 919,165.94356 v 2.42289 c 0,3.82878 3.93496,15.56425 6.72189,20.04709 4.32645,6.95918 9.2706,12.51886 14.63226,16.45392 6.77052,4.96906 10.61042,6.79451 18.01666,8.56494 3.37105,0.80583 7.02919,1.68363 8.12919,1.95066 2.90429,0.70504 13.15663,-0.31917 19.35491,-1.93354 z m -7.33163,-33.32109 c 16.42079,-7.45941 16.19124,-28.059 -0.39443,-35.39563 C 966.52861,139.60146 953,149.16339 953,162.4937 c 0,9.19879 4.95096,15.41645 15,18.83772 2.95765,1.00695 6.56664,0.59438 10.52328,-1.20299 z M 312.5,213.33215 c -1.1,-0.23972 -5.07468,-1.33677 -8.83262,-2.43788 -5.67037,-1.66148 -7.09954,-1.78023 -8.4018,-0.69815 -1.16125,0.96492 -6.0141,1.28969 -18.66738,1.24928 -9.40401,-0.03 -18.2232,-0.12782 -19.5982,-0.21731 -1.375,-0.0895 -8.30156,0.0856 -15.39235,0.38918 -15.56846,0.66646 -18.63965,0.17155 -23.06905,-3.71752 l -3.41863,-3.0016 -4.0285,2.05519 c -16.57336,8.45509 -40.17376,5.77961 -55.49742,-6.29154 -4.70594,-3.70708 -11.3065,-13.61212 -12.18248,-18.28146 C 143.06279,180.52115 142.57883,179 142.33611,179 c -0.24271,0 -3.52509,0.70139 -7.29417,1.55865 l -6.85288,1.55866 -0.34453,9.37041 c -0.371,10.09028 -1.45956,12.6425 -7.22965,16.95049 C 118.10627,210.31116 116.44712,210.5 102.5,210.5 85.706212,210.5 84.412306,210.11162 79.561789,203.61488 77.550304,200.92072 77.5,199.7468 77.5,155.5 c 0,-44.2468 0.0503,-45.42072 2.061789,-48.11488 5.007076,-6.70643 5.583069,-6.85289 28.399821,-7.22103 16.76691,-0.270526 22.05695,-0.0198 27.17875,1.28801 12.88013,3.28891 21.54118,9.47011 27.11973,19.35476 2.27603,4.0329 3.38591,5.13971 4.61801,4.60522 0.89204,-0.38697 5.2219,-1.79984 9.6219,-3.13972 6.24329,-1.9012 9.36008,-2.31779 14.19376,-1.89713 5.24386,0.45635 15.20466,3.25595 21.46584,6.03322 1.47963,0.65632 1.69653,-0.45707 2,-10.2664 0.2846,-9.19889 0.67884,-11.4648 2.40493,-13.8223 3.36598,-4.59726 8.82791,-6.672668 18.821,-7.151546 10.63343,-0.509563 18.54107,1.057707 22.6096,4.481154 C 261.37008,102.48919 264,109.94867 264,116.6815 V 121 h 9.87219 9.87219 l 0.62725,-3.92261 c 0.34499,-2.15744 1.73112,-5.23448 3.08029,-6.83788 2.63746,-3.13444 32.51295,-19.36445 38.74884,-21.050498 4.39994,-1.189648 10.06421,-0.121772 13.72185,2.586962 4.13398,3.061502 10.39784,18.412526 10.49646,25.724026 l 0.0809,6 14,-0.0981 c 7.7,-0.054 16.59707,-0.65037 19.77128,-1.32532 4.87476,-1.03654 6.88418,-0.97404 12.93559,0.40232 3.94038,0.89622 7.82911,2.00152 8.64162,2.45623 0.85349,0.47763 2.78087,0.29763 4.5644,-0.42628 1.69791,-0.68915 6.02683,-1.79307 9.61983,-2.45314 5.50119,-1.01063 7.62801,-0.94612 13.46927,0.40856 6.83401,1.58491 15.722,6.32671 17.3664,9.26507 0.70119,1.25296 1.71514,0.90247 6.08486,-2.10337 5.56097,-3.82527 11.54092,-5.95687 21.64992,-7.71728 7.59855,-1.32323 19.7738,0.79302 28.55731,4.96369 l 5.66048,2.68778 2.18112,-2.26618 c 3.45159,-3.58619 9.14313,-4.58079 22.99792,-4.01891 9.00068,0.36503 14.31965,0.0947 19,-0.96576 14.61731,-3.31183 29.93098,3.8595 37.23574,17.43736 4.31562,8.02172 4.96335,13.64568 4.59921,39.93266 -0.31272,22.57464 -0.47178,24.36239 -2.39674,26.93822 -4.79222,6.41255 -6.2781,6.88249 -21.76154,6.88249 -11.68941,0 -14.74648,-0.31134 -17.42443,-1.77452 -3.09925,-1.69338 -3.37029,-1.69423 -5.92749,-0.0187 -1.99133,1.30476 -5.33171,1.854 -13.00291,2.13796 -13.92361,0.51542 -18.63672,-0.30431 -22.80819,-3.96691 -3.32484,-2.91925 -3.47255,-2.95045 -6.51608,-1.37658 C 503.88116,211.14705 491.11348,214 484.38926,214 c -8.01583,0 -15.38476,-1.53439 -22.54952,-4.69537 l -5.66025,-2.49721 -3.17163,2.34629 c -2.99876,2.2184 -3.94387,2.33964 -17.33974,2.22434 -17.10034,-0.14718 -17.94662,-0.14967 -35.91812,-0.10562 -7.8375,0.0192 -15.6,-0.0253 -17.25,-0.0989 -1.65,-0.0736 -9.12145,0.11591 -16.60321,0.42108 -10.53405,0.42966 -14.37534,0.23223 -17.02544,-0.87505 -2.37497,-0.99233 -4.17947,-1.1488 -5.89679,-0.51133 -8.00803,2.97263 -23.75944,4.58726 -30.47456,3.12387 z m 17,-15.32339 c 3.3,-0.53881 7.2375,-1.4908 8.75,-2.11553 2.64891,-1.09412 2.75,-1.40711 2.75,-8.51455 0,-4.05827 -0.1125,-7.3768 -0.25,-7.37449 -0.1375,0.002 -2.46377,1.1273 -5.16948,2.5 -6.38195,3.23777 -16.43589,3.49113 -21.28197,0.53629 C 311.32434,181.22701 308,176.48169 308,174.04966 308,173.35361 314.40073,173 327,173 h 19 v -4.45078 c 0,-5.54367 -1.76683,-14.08911 -3.7318,-18.04922 -2.5805,-5.20063 -8.35973,-10.36967 -13.5042,-12.07839 -6.53227,-2.16967 -20.72501,-1.62494 -26.08445,1.00114 -5.16928,2.53291 -9.58249,7.13158 -12.05926,12.56603 -1.60312,3.5175 -2.06309,6.60386 -2.08815,14.01122 -0.0276,8.16771 0.3301,10.27218 2.55087,15.00609 6.61198,14.09447 19.98341,20.01243 38.41699,17.00267 z m -21.66098,-37.50307 c -1.18271,-1.18271 0.59177,-6.66375 2.90691,-8.97889 2.00166,-2.00166 3.52601,-2.5268 7.33467,-2.5268 6.05618,0 9.72587,2.86044 10.584,8.25 l 0.59708,3.75 h -10.46417 c -5.7553,0 -10.68662,-0.22244 -10.95849,-0.49431 z m 189.33829,36.51955 c 6.9698,-2.04529 13.03852,-7.05577 16.3002,-13.45782 2.75496,-5.40746 3.01831,-6.77941 2.97528,-15.5 -0.0557,-11.2844 -2.15152,-16.75563 -8.67673,-22.65077 -5.97977,-5.40237 -11.96453,-7.69808 -21.40897,-8.21233 -13.68123,-0.74494 -23.40742,3.96604 -28.89387,13.99505 -2.50272,4.57487 -2.95441,6.62238 -3.29892,14.9541 -0.74812,18.09274 5.69731,28.06875 20.56017,31.8223 4.44639,1.12291 17.22084,0.58188 22.44284,-0.95053 z m -19.07133,-14.58952 c -7.00181,-5.89163 -6.72082,-24.18194 0.44363,-28.87627 3.80149,-2.49083 10.7534,-2.01681 14.30982,0.97572 6.34087,5.33549 6.40336,21.35588 0.10787,27.65138 -3.85143,3.85143 -10.44882,3.96205 -14.86132,0.24917 z M 544,181.45034 c 0,-18.74496 0.61187,-21.66422 5.21679,-24.88964 3.31619,-2.32274 10.04939,-2.02836 12.37822,0.5412 1.69672,1.8721 1.95965,4.24999 2.40499,21.75 l 0.5,19.6481 9.75,0.28621 9.75,0.28621 v -22.83986 c 0,-22.5999 -0.0273,-22.89476 -2.60338,-28.06418 -3.75002,-7.52531 -8.07887,-10.48969 -16.06012,-10.99789 -8.19953,-0.52211 -13.99899,1.60665 -18.77292,6.89082 L 543,148.00576 V 143.00288 138 h -9 -9 v 30.5 30.5 h 9.5 9.5 z m -340.98021,12.37698 c 10.75302,-4.96441 15.11216,-11.86297 15.77637,-24.96691 0.52466,-10.35087 -1.21904,-16.6579 -6.22099,-22.50156 -6.74028,-7.87449 -19.83547,-12.54106 -29.42267,-10.48498 -5.95225,1.27653 -13.5267,4.88723 -17.80599,8.48802 -7.92311,6.66685 -11.28531,20.40746 -7.88226,32.21307 2.36827,8.21582 9.72234,15.43845 18.69983,18.3656 8.67335,2.82799 19.2704,2.38871 26.85571,-1.11324 z M 184,183.29629 c -0.825,-0.30019 -2.71949,-1.68161 -4.20998,-3.0698 -6.59212,-6.13969 -5.30521,-24.19063 2.13484,-29.94469 2.56485,-1.98362 9.4664,-1.54848 12.43142,0.78381 5.45086,4.28764 7.19215,19.10559 3.16117,26.90065 -2.3083,4.46375 -8.83048,7.0355 -13.51745,5.33003 z M 248.22254,182.75 248.5,168.5 l 7.5,14.23994 7.5,14.23993 11.75,0.0101 c 6.4625,0.006 11.75,-0.17388 11.75,-0.39869 0,-0.22482 -4.5,-7.5105 -10,-16.19041 -5.5,-8.67991 -10,-16.15923 -10,-16.62072 0,-0.46149 3.51836,-6.1133 7.81859,-12.55959 4.30022,-6.44629 8.15178,-12.28303 8.55902,-12.97053 0.57302,-0.96739 -1.61497,-1.25 -9.67771,-1.25 h -10.41813 l -6.80971,11.04533 c -3.74535,6.07492 -7.18375,11.27648 -7.64089,11.55901 C 248.37403,159.88687 248,149.06648 248,135.55902 V 111 h -9.5 -9.5 v 43 43 h 9.47254 9.47255 z M 373,178.54705 c 0,-11.39395 0.42472,-19.38511 1.11027,-20.88973 1.81876,-3.99174 7.79729,-5.84753 11.85029,-3.67843 C 389.2064,155.71601 390,160.66107 390,179.14922 V 197 h 9.44171 9.44172 l 0.30828,-20.09023 c 0.30727,-20.02357 0.31653,-20.09691 2.79283,-22.10021 1.90743,-1.54311 3.41487,-1.8852 6.48978,-1.47277 7.1632,0.96079 7.52568,2.12996 7.52568,24.27399 V 197 h 9.04888 9.04888 l -0.29888,-24.83029 -0.29888,-24.83028 -2.88182,-3.77582 c -3.60646,-4.72525 -7.93072,-6.56978 -15.33606,-6.54165 -7.48007,0.0284 -13.59831,2.75502 -15.81928,7.0499 l -1.6698,3.22903 -1.95668,-3.09036 C 403.1014,139.89095 396.65156,137 389.74938,137 c -7.14513,0 -10.32615,1.22209 -14.99938,5.76249 L 371,146.4059 V 142.20295 138 h -8 -8 v 29.5 29.5 h 9 9 z M 113,181.5 V 167 h 7.2899 c 14.4433,0 25.02013,-4.62701 29.62677,-12.96072 5.4968,-9.94407 1.89407,-26.54185 -7.18949,-33.12195 C 135.86468,115.94616 130.68263,115 110.3185,115 H 92 v 40.5 40.5 h 10.5 10.5 z m 0,-40.5 v -11 l 3.25,0.006 c 9.11573,0.0156 15.20455,4.41847 15.20455,10.99442 0,6.57595 -6.08882,10.97878 -15.20455,10.99442 L 113,152 Z M 335.24296,118.15495 C 336.18386,117.2167 331.00065,104 329.69179,104 c -0.79814,0 -29.3119,14.56174 -30.57589,15.61485 -0.21126,0.17601 0.61425,2.98961 1.83447,6.25243 l 2.21857,5.93241 15.66553,-6.45193 c 8.61604,-3.54857 15.99986,-6.78533 16.40849,-7.19281 z m 286.77463,93.88739 c -6.48903,-2.23982 -13.18177,-8.72288 -15.1133,-14.63981 -1.76625,-5.41061 -2.4483,-52.46508 -0.87063,-60.06466 1.50226,-7.23637 7.30666,-13.43073 14.21532,-15.17035 3.172,-0.79872 18.02255,-1.16752 47.01234,-1.16752 46.43019,0 49.0578,0.27435 55.68841,5.81448 3.41056,2.84964 3.48438,2.86265 6.5,1.14487 5.67236,-3.23111 12.42233,-4.14429 18.5054,-2.50353 3.00032,0.80926 6.7296,2.41364 8.28729,3.56529 l 2.83217,2.09391 3.01013,-2.53285 C 767.61822,123.92603 773.34935,123 796.63228,123 c 23.76959,0 29.43297,0.81585 35.33325,5.08999 l 4.06681,2.94598 2.78908,-2.06206 c 1.534,-1.13414 5.35172,-2.73126 8.48383,-3.54917 5.00698,-1.3075 6.36867,-1.31112 11.27485,-0.0299 10.2986,2.68934 15.57305,8.0644 17.65543,17.99218 1.00048,4.76985 0.93723,6.70447 -0.38519,11.78026 -1.37168,5.26492 -1.40047,6.67719 -0.2163,10.61189 1.90272,6.32226 1.78092,24.46055 -0.20926,31.16221 -2.31212,7.78575 -9.2197,14.42175 -16.77104,16.11167 -7.3195,1.63803 -15.36707,0.0156 -19.97034,-4.02613 l -3.19076,-2.80152 -3.37647,2.8188 c -8.10875,6.76949 -24.31225,5.75976 -32.0705,-1.99849 l -2.15599,-2.15599 -3.4493,3.02852 c -1.89711,1.66569 -6.02193,3.77641 -9.16626,4.69049 -7.08362,2.05926 -15.04705,0.89349 -21.05477,-3.08223 l -3.9761,-2.63126 -3.67216,2.49199 c -8.16775,5.54279 -21.89774,5.65199 -29.00542,0.2307 -3.09258,-2.35883 -3.15984,-2.36493 -5.46739,-0.49639 -1.28497,1.04051 -4.81926,2.61364 -7.85399,3.49586 -8.62808,2.50825 -17.95153,0.61462 -23.94633,-4.86359 l -2.20203,-2.01228 -3.09539,2.6046 C 681.75319,211.07856 673.48552,214 669,214 c -4.08861,0 -12.13196,-2.68959 -15.99976,-5.35011 l -3.49976,-2.40736 -2.79766,2.35408 c -3.1407,2.64272 -11.48459,5.42021 -16.13432,5.37074 -1.68768,-0.018 -5.53558,-0.88421 -8.55091,-1.92501 z"
       id="path24"
       inkscape:connector-curvature="0" />
    <path
       style="fill:#979797"
       d="m 960,222.02654 c -22.40693,-3.51656 -42.54093,-23.45196 -47.50131,-47.03275 -6.27805,-29.84481 9.59245,-58.28237 38.89705,-69.69772 6.55409,-2.55309 8.14974,-2.76234 20.60426,-2.70198 12.49226,0.0605 14.02079,0.27946 20.47666,2.93274 10.92734,4.491 14.50594,6.86003 22.17574,14.6804 4.762,4.85538 8.3073,9.63231 10.6079,14.29277 5.7669,11.68265 6.8935,16.25896 6.8935,28 0,11.74104 -1.1266,16.31735 -6.8935,28 -2.2672,4.59289 -5.915,9.53524 -10.6079,14.37261 -13.9818,14.41222 -33.36223,20.49522 -54.6524,17.15393 z m 25.85491,-8.57702 c 10.93127,-2.84712 23.20139,-11.81606 30.05199,-21.9667 1.7012,-2.5207 3.0931,-4.81021 3.0931,-5.08782 0,-0.2776 0.8908,-2.46014 1.9795,-4.85008 1.0888,-2.38994 2.2773,-6.87876 2.6412,-9.97515 l 0.6617,-5.62979 -13.2541,0.28001 -13.2542,0.28001 -1.88189,5 c -2.3626,6.27717 -7.56798,11.81386 -13.67453,14.54488 -7.06515,3.15972 -17.20735,2.48585 -23.78414,-1.58026 -5.50996,-3.40655 -10.30106,-9.57877 -11.32363,-14.58787 L 946.42057,166.5 932.71029,166.22178 919,165.94356 v 2.42289 c 0,3.82878 3.93496,15.56425 6.72189,20.04709 4.32645,6.95918 9.2706,12.51886 14.63226,16.45392 6.77052,4.96906 10.61042,6.79451 18.01666,8.56494 3.37105,0.80583 7.02919,1.68363 8.12919,1.95066 2.90429,0.70504 13.15663,-0.31917 19.35491,-1.93354 z m -7.33163,-33.32109 c 16.42079,-7.45941 16.19124,-28.059 -0.39443,-35.39563 C 966.52861,139.60146 953,149.16339 953,162.4937 c 0,9.19879 4.95096,15.41645 15,18.83772 2.95765,1.00695 6.56664,0.59438 10.52328,-1.20299 z M 312.5,213.33215 c -1.1,-0.23972 -5.07468,-1.33677 -8.83262,-2.43788 -5.67037,-1.66148 -7.09954,-1.78023 -8.4018,-0.69815 -1.16125,0.96492 -6.0141,1.28969 -18.66738,1.24928 -9.40401,-0.03 -18.2232,-0.12782 -19.5982,-0.21731 -1.375,-0.0895 -8.30156,0.0856 -15.39235,0.38918 -15.56846,0.66646 -18.63965,0.17155 -23.06905,-3.71752 l -3.41863,-3.0016 -4.0285,2.05519 c -16.57336,8.45509 -40.17376,5.77961 -55.49742,-6.29154 -4.70594,-3.70708 -11.3065,-13.61212 -12.18248,-18.28146 C 143.06279,180.52115 142.57883,179 142.33611,179 c -0.24271,0 -3.52509,0.70139 -7.29417,1.55865 l -6.85288,1.55866 -0.34453,9.37041 c -0.371,10.09028 -1.45956,12.6425 -7.22965,16.95049 C 118.10627,210.31116 116.44712,210.5 102.5,210.5 85.706212,210.5 84.412306,210.11162 79.561789,203.61488 77.550304,200.92072 77.5,199.7468 77.5,155.5 c 0,-44.2468 0.0503,-45.42072 2.061789,-48.11488 5.007076,-6.70643 5.583069,-6.85289 28.399821,-7.22103 16.76691,-0.270526 22.05695,-0.0198 27.17875,1.28801 12.88013,3.28891 21.54118,9.47011 27.11973,19.35476 2.27603,4.0329 3.38591,5.13971 4.61801,4.60522 0.89204,-0.38697 5.2219,-1.79984 9.6219,-3.13972 6.24329,-1.9012 9.36008,-2.31779 14.19376,-1.89713 5.24386,0.45635 15.20466,3.25595 21.46584,6.03322 1.47963,0.65632 1.69653,-0.45707 2,-10.2664 0.2846,-9.19889 0.67884,-11.4648 2.40493,-13.8223 3.36598,-4.59726 8.82791,-6.672668 18.821,-7.151546 10.63343,-0.509563 18.54107,1.057707 22.6096,4.481154 C 261.37008,102.48919 264,109.94867 264,116.6815 V 121 h 9.87219 9.87219 l 0.62725,-3.92261 c 0.34499,-2.15744 1.73112,-5.23448 3.08029,-6.83788 2.63746,-3.13444 32.51295,-19.36445 38.74884,-21.050498 4.39994,-1.189648 10.06421,-0.121772 13.72185,2.586962 4.13398,3.061502 10.39784,18.412526 10.49646,25.724026 l 0.0809,6 14,-0.0981 c 7.7,-0.054 16.59707,-0.65037 19.77128,-1.32532 4.87476,-1.03654 6.88418,-0.97404 12.93559,0.40232 3.94038,0.89622 7.82911,2.00152 8.64162,2.45623 0.85349,0.47763 2.78087,0.29763 4.5644,-0.42628 1.69791,-0.68915 6.02683,-1.79307 9.61983,-2.45314 5.50119,-1.01063 7.62801,-0.94612 13.46927,0.40856 6.83401,1.58491 15.722,6.32671 17.3664,9.26507 0.70119,1.25296 1.71514,0.90247 6.08486,-2.10337 5.56097,-3.82527 11.54092,-5.95687 21.64992,-7.71728 7.59855,-1.32323 19.7738,0.79302 28.55731,4.96369 l 5.66048,2.68778 2.18112,-2.26618 c 3.45159,-3.58619 9.14313,-4.58079 22.99792,-4.01891 9.00068,0.36503 14.31965,0.0947 19,-0.96576 14.61731,-3.31183 29.93098,3.8595 37.23574,17.43736 4.31562,8.02172 4.96335,13.64568 4.59921,39.93266 -0.31272,22.57464 -0.47178,24.36239 -2.39674,26.93822 -4.79222,6.41255 -6.2781,6.88249 -21.76154,6.88249 -11.68941,0 -14.74648,-0.31134 -17.42443,-1.77452 -3.09925,-1.69338 -3.37029,-1.69423 -5.92749,-0.0187 -1.99133,1.30476 -5.33171,1.854 -13.00291,2.13796 -13.92361,0.51542 -18.63672,-0.30431 -22.80819,-3.96691 -3.32484,-2.91925 -3.47255,-2.95045 -6.51608,-1.37658 C 503.88116,211.14705 491.11348,214 484.38926,214 c -8.01583,0 -15.38476,-1.53439 -22.54952,-4.69537 l -5.66025,-2.49721 -3.17163,2.34629 c -2.99876,2.2184 -3.94387,2.33964 -17.33974,2.22434 -17.10034,-0.14718 -17.94662,-0.14967 -35.91812,-0.10562 -7.8375,0.0192 -15.6,-0.0253 -17.25,-0.0989 -1.65,-0.0736 -9.12145,0.11591 -16.60321,0.42108 -10.53405,0.42966 -14.37534,0.23223 -17.02544,-0.87505 -2.37497,-0.99233 -4.17947,-1.1488 -5.89679,-0.51133 -8.00803,2.97263 -23.75944,4.58726 -30.47456,3.12387 z m 17,-15.32339 c 3.3,-0.53881 7.2375,-1.4908 8.75,-2.11553 2.64891,-1.09412 2.75,-1.40711 2.75,-8.51455 0,-4.05827 -0.1125,-7.3768 -0.25,-7.37449 -0.1375,0.002 -2.46377,1.1273 -5.16948,2.5 -6.38195,3.23777 -16.43589,3.49113 -21.28197,0.53629 C 311.32434,181.22701 308,176.48169 308,174.04966 308,173.35361 314.40073,173 327,173 h 19 v -4.45078 c 0,-5.54367 -1.76683,-14.08911 -3.7318,-18.04922 -2.5805,-5.20063 -8.35973,-10.36967 -13.5042,-12.07839 -6.53227,-2.16967 -20.72501,-1.62494 -26.08445,1.00114 -5.16928,2.53291 -9.58249,7.13158 -12.05926,12.56603 -1.60312,3.5175 -2.06309,6.60386 -2.08815,14.01122 -0.0276,8.16771 0.3301,10.27218 2.55087,15.00609 6.61198,14.09447 19.98341,20.01243 38.41699,17.00267 z m -21.66098,-37.50307 c -1.18271,-1.18271 0.59177,-6.66375 2.90691,-8.97889 2.00166,-2.00166 3.52601,-2.5268 7.33467,-2.5268 6.05618,0 9.72587,2.86044 10.584,8.25 l 0.59708,3.75 h -10.46417 c -5.7553,0 -10.68662,-0.22244 -10.95849,-0.49431 z m 189.33829,36.51955 c 6.9698,-2.04529 13.03852,-7.05577 16.3002,-13.45782 2.75496,-5.40746 3.01831,-6.77941 2.97528,-15.5 -0.0557,-11.2844 -2.15152,-16.75563 -8.67673,-22.65077 -5.97977,-5.40237 -11.96453,-7.69808 -21.40897,-8.21233 -13.68123,-0.74494 -23.40742,3.96604 -28.89387,13.99505 -2.50272,4.57487 -2.95441,6.62238 -3.29892,14.9541 -0.74812,18.09274 5.69731,28.06875 20.56017,31.8223 4.44639,1.12291 17.22084,0.58188 22.44284,-0.95053 z m -19.07133,-14.58952 c -7.00181,-5.89163 -6.72082,-24.18194 0.44363,-28.87627 3.80149,-2.49083 10.7534,-2.01681 14.30982,0.97572 6.34087,5.33549 6.40336,21.35588 0.10787,27.65138 -3.85143,3.85143 -10.44882,3.96205 -14.86132,0.24917 z M 544,181.45034 c 0,-18.74496 0.61187,-21.66422 5.21679,-24.88964 3.31619,-2.32274 10.04939,-2.02836 12.37822,0.5412 1.69672,1.8721 1.95965,4.24999 2.40499,21.75 l 0.5,19.6481 9.75,0.28621 9.75,0.28621 v -22.83986 c 0,-22.5999 -0.0273,-22.89476 -2.60338,-28.06418 -3.75002,-7.52531 -8.07887,-10.48969 -16.06012,-10.99789 -8.19953,-0.52211 -13.99899,1.60665 -18.77292,6.89082 L 543,148.00576 V 143.00288 138 h -9 -9 v 30.5 30.5 h 9.5 9.5 z m -340.98021,12.37698 c 10.75302,-4.96441 15.11216,-11.86297 15.77637,-24.96691 0.52466,-10.35087 -1.21904,-16.6579 -6.22099,-22.50156 -6.74028,-7.87449 -19.83547,-12.54106 -29.42267,-10.48498 -5.95225,1.27653 -13.5267,4.88723 -17.80599,8.48802 -7.92311,6.66685 -11.28531,20.40746 -7.88226,32.21307 2.36827,8.21582 9.72234,15.43845 18.69983,18.3656 8.67335,2.82799 19.2704,2.38871 26.85571,-1.11324 z M 184,183.29629 c -0.825,-0.30019 -2.71949,-1.68161 -4.20998,-3.0698 -6.59212,-6.13969 -5.30521,-24.19063 2.13484,-29.94469 2.56485,-1.98362 9.4664,-1.54848 12.43142,0.78381 5.45086,4.28764 7.19215,19.10559 3.16117,26.90065 -2.3083,4.46375 -8.83048,7.0355 -13.51745,5.33003 z M 248.22254,182.75 248.5,168.5 l 7.5,14.23994 7.5,14.23993 11.75,0.0101 c 6.4625,0.006 11.75,-0.17388 11.75,-0.39869 0,-0.22482 -4.5,-7.5105 -10,-16.19041 -5.5,-8.67991 -10,-16.15923 -10,-16.62072 0,-0.46149 3.51836,-6.1133 7.81859,-12.55959 4.30022,-6.44629 8.15178,-12.28303 8.55902,-12.97053 0.57302,-0.96739 -1.61497,-1.25 -9.67771,-1.25 h -10.41813 l -6.80971,11.04533 c -3.74535,6.07492 -7.18375,11.27648 -7.64089,11.55901 C 248.37403,159.88687 248,149.06648 248,135.55902 V 111 h -9.5 -9.5 v 43 43 h 9.47254 9.47255 z M 373,178.54705 c 0,-11.39395 0.42472,-19.38511 1.11027,-20.88973 1.81876,-3.99174 7.79729,-5.84753 11.85029,-3.67843 C 389.2064,155.71601 390,160.66107 390,179.14922 V 197 h 9.44171 9.44172 l 0.30828,-20.09023 c 0.30727,-20.02357 0.31653,-20.09691 2.79283,-22.10021 1.90743,-1.54311 3.41487,-1.8852 6.48978,-1.47277 7.1632,0.96079 7.52568,2.12996 7.52568,24.27399 V 197 h 9.04888 9.04888 l -0.29888,-24.83029 -0.29888,-24.83028 -2.88182,-3.77582 c -3.60646,-4.72525 -7.93072,-6.56978 -15.33606,-6.54165 -7.48007,0.0284 -13.59831,2.75502 -15.81928,7.0499 l -1.6698,3.22903 -1.95668,-3.09036 C 403.1014,139.89095 396.65156,137 389.74938,137 c -7.14513,0 -10.32615,1.22209 -14.99938,5.76249 L 371,146.4059 V 142.20295 138 h -8 -8 v 29.5 29.5 h 9 9 z M 113,181.5 V 167 h 7.2899 c 14.4433,0 25.02013,-4.62701 29.62677,-12.96072 5.4968,-9.94407 1.89407,-26.54185 -7.18949,-33.12195 C 135.86468,115.94616 130.68263,115 110.3185,115 H 92 v 40.5 40.5 h 10.5 10.5 z m 0,-40.5 v -11 l 3.25,0.006 c 9.11573,0.0156 15.20455,4.41847 15.20455,10.99442 0,6.57595 -6.08882,10.97878 -15.20455,10.99442 L 113,152 Z M 335.24296,118.15495 C 336.18386,117.2167 331.00065,104 329.69179,104 c -0.79814,0 -29.3119,14.56174 -30.57589,15.61485 -0.21126,0.17601 0.61425,2.98961 1.83447,6.25243 l 2.21857,5.93241 15.66553,-6.45193 c 8.61604,-3.54857 15.99986,-6.78533 16.40849,-7.19281 z m 286.77463,93.88739 c -6.48903,-2.23982 -13.18177,-8.72288 -15.1133,-14.63981 -1.76625,-5.41061 -2.4483,-52.46508 -0.87063,-60.06466 1.50226,-7.23637 7.30666,-13.43073 14.21532,-15.17035 3.172,-0.79872 18.02255,-1.16752 47.01234,-1.16752 46.43019,0 49.0578,0.27435 55.68841,5.81448 3.41056,2.84964 3.48438,2.86265 6.5,1.14487 5.67236,-3.23111 12.42233,-4.14429 18.5054,-2.50353 3.00032,0.80926 6.7296,2.41364 8.28729,3.56529 l 2.83217,2.09391 3.01013,-2.53285 C 767.61822,123.92603 773.34935,123 796.63228,123 c 23.76959,0 29.43297,0.81585 35.33325,5.08999 l 4.06681,2.94598 2.78908,-2.06206 c 1.534,-1.13414 5.35172,-2.73126 8.48383,-3.54917 5.00698,-1.3075 6.36867,-1.31112 11.27485,-0.0299 10.2986,2.68934 15.57305,8.0644 17.65543,17.99218 1.00048,4.76985 0.93723,6.70447 -0.38519,11.78026 -1.37168,5.26492 -1.40047,6.67719 -0.2163,10.61189 1.90272,6.32226 1.78092,24.46055 -0.20926,31.16221 -2.31212,7.78575 -9.2197,14.42175 -16.77104,16.11167 -7.3195,1.63803 -15.36707,0.0156 -19.97034,-4.02613 l -3.19076,-2.80152 -3.37647,2.8188 c -8.10875,6.76949 -24.31225,5.75976 -32.0705,-1.99849 l -2.15599,-2.15599 -3.4493,3.02852 c -1.89711,1.66569 -6.02193,3.77641 -9.16626,4.69049 -7.08362,2.05926 -15.04705,0.89349 -21.05477,-3.08223 l -3.9761,-2.63126 -3.67216,2.49199 c -8.16775,5.54279 -21.89774,5.65199 -29.00542,0.2307 -3.09258,-2.35883 -3.15984,-2.36493 -5.46739,-0.49639 -1.28497,1.04051 -4.81926,2.61364 -7.85399,3.49586 -8.62808,2.50825 -17.95153,0.61462 -23.94633,-4.86359 l -2.20203,-2.01228 -3.09539,2.6046 C 681.75319,211.07856 673.48552,214 669,214 c -4.08861,0 -12.13196,-2.68959 -15.99976,-5.35011 l -3.49976,-2.40736 -2.79766,2.35408 c -3.1407,2.64272 -11.48459,5.42021 -16.13432,5.37074 -1.68768,-0.018 -5.53558,-0.88421 -8.55091,-1.92501 z m 15.47894,-16.0917 c 1.81644,-1.81397 2.05015,-3.70207 2.50347,-20.22569 l 0.5,-18.22495 7.8448,-0.29377 c 4.92306,-0.18436 8.36815,0.14058 9.25,0.87244 1.10268,0.91515 1.4052,4.70622 1.4052,17.60952 0,9.86648 0.43216,17.2508 1.08049,18.46221 1.45817,2.72462 7.45038,5.11155 10.91941,4.34962 5.95073,-1.307 6.45156,-2.94197 7.0001,-22.85194 L 678.5,157.5 h 9.5 9.5 l 0.51107,18 c 0.28109,9.9 0.88338,18.76573 1.33843,19.70163 2.32032,4.77222 13.22367,4.22533 15.50317,-0.77761 C 715.61911,192.74186 716,183.51394 716,166.62726 c 0,-25.03301 -0.0222,-25.29948 -2.28388,-27.42422 -2.26076,-2.12388 -2.72793,-2.14649 -46.15422,-2.23438 -38.03783,-0.077 -44.07283,0.1137 -45.39339,1.43426 -1.30006,1.30005 -1.4858,5.3552 -1.26868,27.69709 0.17302,17.80302 0.62949,26.80794 1.42727,28.15609 2.81987,4.7652 11.16149,5.69703 15.16943,1.69454 z m 111.33381,-0.59874 c 2.20906,-2.51231 2.31315,-3.27162 2,-14.58994 -0.32622,-11.79066 -0.36692,-11.97114 -3.26101,-14.45827 -2.40244,-2.06462 -3.64385,-2.4229 -6.88758,-1.98783 -6.4853,0.86986 -7.13619,2.19398 -7.51978,15.29757 -0.2166,7.39908 0.089,12.57828 0.85071,14.41718 2.25189,5.43654 10.54862,6.17636 14.81766,1.32129 z m 35.91966,0.0547 c 2.14999,-2.40619 2.25,-3.28877 2.25,-19.85536 0,-14.88682 0.22357,-17.42304 1.58179,-17.94424 2.90711,-1.11556 16.9673,-0.6579 18.21821,0.59301 0.83682,0.83682 1.2,6.21722 1.2,17.77749 0,18.78637 0.43844,20.17476 6.99086,22.13792 3.34006,1.0007 4.30655,0.91974 6.54734,-0.54848 5.03668,-3.30016 5.59577,-6.60736 5.26428,-31.13972 L 826.5,144.04141 823.72929,141.2707 820.95857,138.5 799.72929,138.17091 c -24.79532,-0.38438 -28.15476,0.2098 -30.30679,5.36033 -2.22804,5.33246 -2.03078,44.38464 0.24846,49.18779 3.037,6.39999 10.56329,7.74142 15.07904,2.68756 z m 73.48422,0.67544 3.26578,-2.91797 v -12.05425 c 0,-13.64094 -0.91802,-15.65428 -7.6349,-16.74427 -2.81699,-0.45714 -4.09638,-0.071 -6.44022,1.94358 -2.84221,2.443 -2.93457,2.81526 -3.26787,13.17086 -0.38417,11.93629 0.62763,15.79022 4.73104,18.02038 3.86541,2.10081 5.72309,1.8189 9.34617,-1.41833 z M 747.73757,155.47126 c 2.96123,-2.07412 3.85941,-7.41616 1.88792,-11.2286 -1.75172,-3.38745 -3.39428,-4.25666 -7.95728,-4.21086 -5.61569,0.0564 -9.30063,4.78357 -8.21983,10.54475 C 734.22163,154.69833 737.28588,157 742,157 c 1.95524,0 4.53715,-0.68793 5.73757,-1.52874 z M 859.2671,155.25 c 2.40524,-2.66897 3.11069,-6.92372 1.70903,-10.30763 C 859.4694,141.30482 857.27826,140 852.67653,140 c -4.80662,0 -7.68517,2.64554 -8.361,7.6842 -0.4766,3.55335 -0.18083,4.54141 2.01754,6.73978 3.18131,3.18131 10.39623,3.64209 12.93403,0.82602 z"
       id="path22"
       inkscape:connector-curvature="0" />
    <path
       style="fill:#a38d00"
       d="m 306.23621,211.57537 c -8.65693,-2.30052 -9.50336,-2.3617 -12.92083,-0.93378 -2.97382,1.24254 -6.66102,1.42646 -19.73621,0.98446 C 264.73563,211.3271 256.825,211.06853 256,211.05146 c -0.825,-0.0171 -6.80141,0.23837 -13.28092,0.56766 -15.67505,0.79659 -19.94712,0.0862 -24.02919,-3.9959 -3.22717,-3.22717 -3.25968,-3.23512 -6.12868,-1.49976 -4.46453,2.70045 -17.55151,5.87841 -24.12931,5.8594 -6.80245,-0.0196 -18.08402,-2.71928 -23.9319,-5.72679 -9.4802,-4.87558 -18.63198,-14.98194 -20.75506,-22.91991 -1.249,-4.66986 -1.46728,-4.78078 -6.74494,-3.42763 -1.925,0.49355 -4.68361,1.16109 -6.13024,1.48341 -2.57636,0.57404 -2.63875,0.78062 -3.04569,10.08492 -0.46307,10.58778 -1.77114,13.39627 -7.9286,17.02314 -2.95928,1.74307 -5.19396,2 -17.39547,2 -15.862381,0 -19.176628,-1.0875 -22.964615,-7.53538 C 77.571538,199.62177 77.5,197.95352 77.5,155.5 c 0,-42.45352 0.07154,-44.12177 2.035385,-47.46462 3.993461,-6.79763 6.541536,-7.49549 28.699945,-7.86026 17.18427,-0.282894 20.76553,-0.0644 27.70498,1.69046 12.51237,3.16412 20.37348,8.98823 26.69771,19.77973 1.94088,3.31186 3.03952,4.29303 4.24074,3.78733 4.44168,-1.86987 13.57038,-4.42334 17.8369,-4.98931 5.56929,-0.73879 20.82425,2.49764 25.90646,5.49622 l 3.1681,1.86922 0.35551,-11.19931 c 0.38498,-12.12742 1.39784,-14.95384 6.57422,-18.345533 3.988,-2.613038 31.5721,-2.613038 35.5601,0 4.65211,3.048173 6.05576,6.299923 6.51493,15.092683 l 0.42526,8.14339 10.31259,-0.31281 10.3126,-0.31281 0.68239,-4.03905 c 0.37596,-2.22528 1.87011,-5.32847 3.32729,-6.91043 3.16379,-3.43473 31.78332,-18.805245 38.08492,-20.454045 5.68026,-1.486229 11.20758,-0.169402 14.93512,3.558141 3.89664,3.896636 9.63741,19.165174 9.57677,25.471004 l -0.0481,5 15.15513,-0.10263 c 8.33532,-0.0564 15.672,-0.42208 16.30372,-0.8125 2.19454,-1.3563 13.67213,-0.68733 19.63732,1.14455 5.18276,1.5916 6.5203,1.66781 9.81991,0.55948 13.73897,-4.61484 27.72142,-2.45958 37.0222,5.70661 l 3.7405,3.28421 4.20869,-3.02219 c 5.78769,-4.15604 10.78385,-6.09139 19.73513,-7.64476 10.71166,-1.85887 25.56915,0.55762 33.56481,5.45912 l 3.09124,1.89499 2.34363,-2.49467 c 3.47809,-3.70226 8.74242,-4.65692 24.38051,-4.42129 7.75136,0.1168 16.62004,-0.2133 19.70818,-0.73356 13.30732,-2.24185 26.17093,3.66099 33.76385,15.49354 5.44323,8.48253 6.29046,14.32922 5.93652,40.9678 -0.28872,21.73021 -0.48601,24.01211 -2.35055,27.18592 C 592.7381,212.30786 589.26318,213.5 574.5,213.5 c -10.43519,0 -13.70122,-0.34941 -16.55421,-1.77103 -3.38526,-1.68685 -3.71798,-1.68815 -7,-0.0272 -2.42425,1.22684 -6.56233,1.85638 -13.95829,2.12352 -11.88492,0.42929 -17.49481,-0.69838 -21.8955,-4.40131 -2.86092,-2.4073 -3.13741,-2.45184 -6.00756,-0.96763 -4.51469,2.33464 -18.87192,5.52872 -24.88703,5.53666 -7.03492,0.009 -18.713,-2.65429 -23.76378,-5.42015 l -4.06638,-2.22679 -3.34024,2.57698 c -3.11423,2.4026 -4.19602,2.60034 -15.98748,2.92235 -9.609,0.2624 -13.50991,-0.0151 -16.23831,-1.15508 -2.71546,-1.13459 -3.87272,-1.2188 -4.74615,-0.34537 -1.60025,1.60025 -31.50989,1.60025 -33.11014,0 -0.87343,-0.87343 -2.03069,-0.78922 -4.74615,0.34537 -4.39559,1.8366 -28.00484,1.54819 -30.31447,-0.37031 -1.10499,-0.91787 -2.97161,-0.74732 -8.40244,0.76771 -11.55439,3.22333 -22.35513,3.38176 -33.24566,0.48767 z m 30.546,-15.1049 L 341,194.78284 v -7.47475 c 0,-4.11112 -0.3375,-7.30103 -0.75,-7.08869 -13.28743,6.83975 -25.5991,6.17505 -30.36432,-1.63936 C 306.45477,172.95374 306.31169,173 327.14289,173 h 19.1429 l -0.5607,-8.18044 C 344.97059,153.81168 340.60777,144.87599 334,140.80486 325.46371,135.54553 309.06228,135.4293 300.29714,140.56602 292.60998,145.07099 288,154.78472 288,166.47743 c 0,15.87705 8.19101,27.03075 22.92935,31.22289 5.91735,1.68312 20.28026,0.99986 25.85286,-1.22985 z M 308,157.92308 C 308,153.2095 312.71227,149 317.98882,149 c 2.27846,0 5.00842,0.46334 6.06657,1.02964 2.27843,1.21938 4.94461,6.02951 4.94461,8.9207 C 329,160.88642 328.41813,161 318.5,161 H 308 Z m 191.46482,38.49494 c 6.999,-2.47041 13.92347,-9.61907 15.95996,-16.47668 2.02164,-6.80761 2.00853,-16.11439 -0.0324,-23.00984 C 512.00221,145.47772 499.00075,136.8609 485,136.78872 c -13.71704,-0.0707 -22.54854,4.82499 -27.88881,15.46003 -3.01275,5.99985 -3.39378,7.6644 -3.43365,15 -0.0247,4.53819 0.48685,10.09578 1.13668,12.35021 2.4415,8.47009 9.61942,15.70557 17.89926,18.04282 6.17567,1.74328 20.15741,1.10367 26.75134,-1.22376 z m -21.46065,-14.26 c -7.18932,-7.18932 -6.11294,-25.50928 1.70815,-29.07281 3.44589,-1.57005 9.49041,-1.33194 12.07089,0.47549 C 495.49965,156.1638 497,160.33071 497,168.04921 497,179.67121 493.06183,185 484.47274,185 c -2.6514,0 -4.3908,-0.76421 -6.46857,-2.84198 z M 545,179.16095 l 0.5,-19.33905 2.80576,-2.41095 c 3.87355,-3.32848 9.88742,-3.30868 13.23969,0.0436 2.43862,2.43861 2.45455,2.58136 2.45455,22 V 199 h 10 10 l -0.022,-22.75 c -0.02,-20.73428 -0.20272,-23.14871 -2.06207,-27.25 -4.0538,-8.94174 -9.07828,-12.24101 -18.55862,-12.18632 -7.4976,0.0433 -15.1657,3.63702 -18.3442,8.59726 L 543.03369,148.5 543.01685,143.25 543,138 h -9 -9 v 30.53621 30.53621 l 9.75,-0.28621 9.75,-0.28621 z m -341.60509,14.82811 c 12.24468,-5.86742 17.93855,-18.01896 15.5098,-33.10013 -1.79669,-11.15644 -6.79209,-17.63487 -17.40471,-22.57183 -12.23712,-5.69266 -27.14633,-2.8012 -37.15289,7.20536 -6.54259,6.54258 -8.82166,13.24543 -8.12575,23.89816 0.86116,13.18241 7.8482,21.79787 21.27864,26.2379 6.28284,2.07708 19.9097,1.19855 25.89491,-1.66946 z M 184.5,183.28076 C 179.04076,181.95079 176,175.9477 176,166.5 c 0,-7.66494 1.66994,-12.30862 5.51368,-15.3321 2.96407,-2.33154 8.32758,-2.85841 11.5488,-1.13446 5.79017,3.0988 8.53422,19.25229 4.61025,27.13929 -2.54931,5.12398 -7.59961,7.46574 -13.17273,6.10803 z m 63.5,0.16022 c 0,-8.21652 0.37072,-13.3299 0.94086,-12.97753 0.51748,0.31982 3.97563,6.42137 7.68479,13.55902 L 263.36958,197 h 11.81521 C 281.68315,197 287,196.75828 287,196.46286 c 0,-0.29543 -4.19633,-7.15793 -9.32517,-15.25 -5.12885,-8.09208 -9.67634,-15.30924 -10.10555,-16.03815 -0.50614,-0.85955 2.24377,-5.86503 7.82517,-14.24365 C 280.1275,143.82597 284,137.5441 284,136.97137 c 0,-0.67233 -3.61353,-0.94035 -10.19749,-0.75635 l -10.19749,0.28498 -7.55251,12 -7.55251,12 -0.26747,-24.75 L 247.96506,111 H 238.48253 229 v 43 43 h 9.5 9.5 z m 125,-5.38522 c 0,-18.22162 0.0858,-19.04176 2.25,-21.50107 3.37335,-3.83338 7.75848,-4.31123 11.33685,-1.23539 l 2.91315,2.50403 0.32646,19.58834 L 390.15292,197 H 399.57646 409 v -18.54966 c 0,-21.2934 0.6713,-23.92285 6.38101,-24.99399 3.77616,-0.70842 8.9725,1.41655 9.99781,4.08845 C 425.72047,158.43513 426,167.67677 426,178.08179 V 197 h 9 9 v -24.04966 c 0,-25.64764 -0.24072,-27.1221 -5.15499,-31.57538 -3.96537,-3.59339 -6.88604,-4.59947 -13.2376,-4.55994 -7.63533,0.0475 -11.07073,1.33618 -15.1813,5.69465 l -3.23533,3.43045 -1.61001,-2.4572 c -2.5389,-3.87484 -9.06459,-6.68497 -15.48695,-6.66907 -7.10937,0.0176 -10.65348,1.39162 -15.34382,5.94864 L 371,146.4059 V 142.20295 138 h -8 -8 v 29.5 29.5 h 9 9 z m -260,3.57532 v -14.36892 l 10.25,-0.46399 C 143.52657,165.88029 152.52901,158.22499 152.41203,142 152.32032,129.27974 146.86376,121.34205 135.21249,116.9797 130.62544,115.26226 127.4129,115 110.96249,115 H 92 v 40.5 40.5 h 10.5 10.5 z m 0,-40.16246 c 0,-12.21716 0.16577,-12.42115 8.5662,-10.54122 6.69918,1.49921 9.4338,4.55251 9.4338,10.53314 0,6.51617 -5.67968,10.43258 -15.25,10.5156 L 113,152 Z m 210,-17.66889 c 6.875,-2.7874 12.67634,-5.22148 12.89186,-5.40907 0.56708,-0.49355 -5.25508,-15.45095 -5.89566,-15.14625 -7.76925,3.69547 -30.9962,16.37819 -30.9962,16.925 0,0.41556 0.92991,3.24099 2.06648,6.27872 l 2.06648,5.52316 3.68352,-1.55178 c 2.02593,-0.85347 9.30852,-3.83238 16.18352,-6.61978 z m 300.82055,88.80528 c -5.23912,-1.4107 -10.6467,-5.14774 -13.74488,-9.49874 -4.36333,-6.12773 -5.22371,-13.23979 -4.88794,-40.40465 0.307,-24.83749 0.35536,-25.34732 2.86703,-30.22371 1.81242,-3.5188 3.96838,-5.83437 7.41971,-7.96899 l 4.86495,-3.00892 43.43284,-0.29961 c 48.16683,-0.33226 51.57598,-0.0277 58.40814,5.21714 l 4.29919,3.30039 4.01021,-2.10896 c 3.1184,-1.63996 5.80551,-2.10896 12.08323,-2.10896 7.15485,0 8.55102,0.31632 12.27576,2.78124 l 4.20274,2.78124 3.42915,-2.61554 C 768.62469,123.76068 773.40573,123 796.71611,123 c 23.49387,0 28.46275,0.73638 35.00881,5.18826 l 4.22492,2.87331 3.99458,-2.64349 c 2.88042,-1.90617 5.74634,-2.78262 10.27508,-3.14231 9.04742,-0.71858 14.12179,0.97028 19.71213,6.56063 3.95431,3.9543 4.90373,5.67556 6.01253,10.90045 1.12405,5.29678 1.097,7.07688 -0.1849,12.16579 -1.29521,5.14175 -1.31314,6.68774 -0.13044,11.24718 1.6728,6.44881 1.79073,22.26352 0.2137,28.65736 -3.2773,13.28734 -15.02473,20.91294 -27.98117,18.1634 -3.39397,-0.72025 -7.05996,-2.32558 -8.98961,-3.93651 l -3.25845,-2.72028 -4.05664,2.85001 c -2.23116,1.5675 -6.53165,3.36391 -9.55665,3.99202 -7.11556,1.47746 -15.48985,-0.74495 -20.65974,-5.4828 l -3.52743,-3.23265 -3.45038,3.25413 C 791.05559,210.81327 783.03888,214 778.5,214 c -3.89989,0 -12.42758,-3.03363 -15.17793,-5.39939 l -2.71069,-2.33164 -3.87954,2.81033 c -8.09453,5.86364 -20.60507,6.08895 -28.80241,0.51872 l -3.44809,-2.34304 -3.41459,2.33971 c -8.21398,5.62832 -20.70777,5.34556 -28.9929,-0.65615 L 688,205.98746 l -4.07312,2.95055 c -8.4279,6.10514 -21.42586,6.10514 -29.85376,0 L 650,205.98746 l -4.05064,2.93426 c -3.7025,2.68208 -11.54568,5.17757 -15.74858,5.01079 -0.93543,-0.0371 -3.80653,-0.6345 -6.38023,-1.3275 z m 13.67598,-16.65437 c 1.81644,-1.81397 2.05015,-3.70207 2.50347,-20.22569 l 0.5,-18.22495 7.8448,-0.29377 c 4.92306,-0.18436 8.36815,0.14058 9.25,0.87244 1.10268,0.91515 1.4052,4.70622 1.4052,17.60952 0,9.86648 0.43216,17.2508 1.08049,18.46221 1.45817,2.72462 7.45038,5.11155 10.91941,4.34962 5.95073,-1.307 6.45156,-2.94197 7.0001,-22.85194 L 678.5,157.5 h 9.5 9.5 l 0.51107,18 c 0.28109,9.9 0.88338,18.76573 1.33843,19.70163 2.32032,4.77222 13.22367,4.22533 15.50317,-0.77761 C 715.61911,192.74186 716,183.51394 716,166.62726 c 0,-25.03301 -0.0222,-25.29948 -2.28388,-27.42422 -2.26076,-2.12388 -2.72793,-2.14649 -46.15422,-2.23438 -38.03783,-0.077 -44.07283,0.1137 -45.39339,1.43426 -1.30006,1.30005 -1.4858,5.3552 -1.26868,27.69709 0.17302,17.80302 0.62949,26.80794 1.42727,28.15609 2.81987,4.7652 11.16149,5.69703 15.16943,1.69454 z m 111.33381,-0.59874 c 2.20906,-2.51231 2.31315,-3.27162 2,-14.58994 -0.32622,-11.79066 -0.36692,-11.97114 -3.26101,-14.45827 -2.40244,-2.06462 -3.64385,-2.4229 -6.88758,-1.98783 -6.4853,0.86986 -7.13619,2.19398 -7.51978,15.29757 -0.2166,7.39908 0.089,12.57828 0.85071,14.41718 2.25189,5.43654 10.54862,6.17636 14.81766,1.32129 z m 35.91966,0.0547 c 2.14999,-2.40619 2.25,-3.28877 2.25,-19.85536 0,-14.88682 0.22357,-17.42304 1.58179,-17.94424 2.90711,-1.11556 16.9673,-0.6579 18.21821,0.59301 0.83682,0.83682 1.2,6.21722 1.2,17.77749 0,18.78637 0.43844,20.17476 6.99086,22.13792 3.34006,1.0007 4.30655,0.91974 6.54734,-0.54848 5.03668,-3.30016 5.59577,-6.60736 5.26428,-31.13972 L 826.5,144.04141 823.72929,141.2707 820.95857,138.5 799.72929,138.17091 c -24.79532,-0.38438 -28.15476,0.2098 -30.30679,5.36033 -2.22804,5.33246 -2.03078,44.38464 0.24846,49.18779 3.037,6.39999 10.56329,7.74142 15.07904,2.68756 z m 73.48422,0.67544 3.26578,-2.91797 v -12.05425 c 0,-13.64094 -0.91802,-15.65428 -7.6349,-16.74427 -2.81699,-0.45714 -4.09638,-0.071 -6.44022,1.94358 -2.84221,2.443 -2.93457,2.81526 -3.26787,13.17086 -0.38417,11.93629 0.62763,15.79022 4.73104,18.02038 3.86541,2.10081 5.72309,1.8189 9.34617,-1.41833 z M 747.73757,155.47126 c 2.96123,-2.07412 3.85941,-7.41616 1.88792,-11.2286 -1.75172,-3.38745 -3.39428,-4.25666 -7.95728,-4.21086 -5.61569,0.0564 -9.30063,4.78357 -8.21983,10.54475 C 734.22163,154.69833 737.28588,157 742,157 c 1.95524,0 4.53715,-0.68793 5.73757,-1.52874 z M 859.2671,155.25 c 2.40524,-2.66897 3.11069,-6.92372 1.70903,-10.30763 C 859.4694,141.30482 857.27826,140 852.67653,140 c -4.80662,0 -7.68517,2.64554 -8.361,7.6842 -0.4766,3.55335 -0.18083,4.54141 2.01754,6.73978 3.18131,3.18131 10.39623,3.64209 12.93403,0.82602 z"
       id="path20"
       inkscape:connector-curvature="0" />
    <path
       style="fill:#5d5d5d"
       d="m 306.23621,211.57537 c -8.65693,-2.30052 -9.50336,-2.3617 -12.92083,-0.93378 -2.97382,1.24254 -6.66102,1.42646 -19.73621,0.98446 C 264.73563,211.3271 256.825,211.06853 256,211.05146 c -0.825,-0.0171 -6.80141,0.23837 -13.28092,0.56766 -15.67505,0.79659 -19.94712,0.0862 -24.02919,-3.9959 -3.22717,-3.22717 -3.25968,-3.23512 -6.12868,-1.49976 -4.46453,2.70045 -17.55151,5.87841 -24.12931,5.8594 -6.80245,-0.0196 -18.08402,-2.71928 -23.9319,-5.72679 -9.4802,-4.87558 -18.63198,-14.98194 -20.75506,-22.91991 -1.249,-4.66986 -1.46728,-4.78078 -6.74494,-3.42763 -1.925,0.49355 -4.68361,1.16109 -6.13024,1.48341 -2.57636,0.57404 -2.63875,0.78062 -3.04569,10.08492 -0.46307,10.58778 -1.77114,13.39627 -7.9286,17.02314 -2.95928,1.74307 -5.19396,2 -17.39547,2 -15.862381,0 -19.176628,-1.0875 -22.964615,-7.53538 C 77.571538,199.62177 77.5,197.95352 77.5,155.5 c 0,-42.45352 0.07154,-44.12177 2.035385,-47.46462 3.993461,-6.79763 6.541536,-7.49549 28.699945,-7.86026 17.18427,-0.282894 20.76553,-0.0644 27.70498,1.69046 12.51237,3.16412 20.37348,8.98823 26.69771,19.77973 1.94088,3.31186 3.03952,4.29303 4.24074,3.78733 4.44168,-1.86987 13.57038,-4.42334 17.8369,-4.98931 5.56929,-0.73879 20.82425,2.49764 25.90646,5.49622 l 3.1681,1.86922 0.35551,-11.19931 c 0.38498,-12.12742 1.39784,-14.95384 6.57422,-18.345533 3.988,-2.613038 31.5721,-2.613038 35.5601,0 4.65211,3.048173 6.05576,6.299923 6.51493,15.092683 l 0.42526,8.14339 10.31259,-0.31281 10.3126,-0.31281 0.68239,-4.03905 c 0.37596,-2.22528 1.87011,-5.32847 3.32729,-6.91043 3.16379,-3.43473 31.78332,-18.805245 38.08492,-20.454045 5.68026,-1.486229 11.20758,-0.169402 14.93512,3.558141 3.89664,3.896636 9.63741,19.165174 9.57677,25.471004 l -0.0481,5 15.15513,-0.10263 c 8.33532,-0.0564 15.672,-0.42208 16.30372,-0.8125 2.19454,-1.3563 13.67213,-0.68733 19.63732,1.14455 5.18276,1.5916 6.5203,1.66781 9.81991,0.55948 13.73897,-4.61484 27.72142,-2.45958 37.0222,5.70661 l 3.7405,3.28421 4.20869,-3.02219 c 5.78769,-4.15604 10.78385,-6.09139 19.73513,-7.64476 10.71166,-1.85887 25.56915,0.55762 33.56481,5.45912 l 3.09124,1.89499 2.34363,-2.49467 c 3.47809,-3.70226 8.74242,-4.65692 24.38051,-4.42129 7.75136,0.1168 16.62004,-0.2133 19.70818,-0.73356 13.30732,-2.24185 26.17093,3.66099 33.76385,15.49354 5.44323,8.48253 6.29046,14.32922 5.93652,40.9678 -0.28872,21.73021 -0.48601,24.01211 -2.35055,27.18592 C 592.7381,212.30786 589.26318,213.5 574.5,213.5 c -10.43519,0 -13.70122,-0.34941 -16.55421,-1.77103 -3.38526,-1.68685 -3.71798,-1.68815 -7,-0.0272 -2.42425,1.22684 -6.56233,1.85638 -13.95829,2.12352 -11.88492,0.42929 -17.49481,-0.69838 -21.8955,-4.40131 -2.86092,-2.4073 -3.13741,-2.45184 -6.00756,-0.96763 -4.51469,2.33464 -18.87192,5.52872 -24.88703,5.53666 -7.03492,0.009 -18.713,-2.65429 -23.76378,-5.42015 l -4.06638,-2.22679 -3.34024,2.57698 c -3.11423,2.4026 -4.19602,2.60034 -15.98748,2.92235 -9.609,0.2624 -13.50991,-0.0151 -16.23831,-1.15508 -2.71546,-1.13459 -3.87272,-1.2188 -4.74615,-0.34537 -1.60025,1.60025 -31.50989,1.60025 -33.11014,0 -0.87343,-0.87343 -2.03069,-0.78922 -4.74615,0.34537 -4.39559,1.8366 -28.00484,1.54819 -30.31447,-0.37031 -1.10499,-0.91787 -2.97161,-0.74732 -8.40244,0.76771 -11.55439,3.22333 -22.35513,3.38176 -33.24566,0.48767 z m 30.546,-15.1049 L 341,194.78284 v -7.47475 c 0,-4.11112 -0.3375,-7.30103 -0.75,-7.08869 -13.28743,6.83975 -25.5991,6.17505 -30.36432,-1.63936 C 306.45477,172.95374 306.31169,173 327.14289,173 h 19.1429 l -0.5607,-8.18044 C 344.97059,153.81168 340.60777,144.87599 334,140.80486 325.46371,135.54553 309.06228,135.4293 300.29714,140.56602 292.60998,145.07099 288,154.78472 288,166.47743 c 0,15.87705 8.19101,27.03075 22.92935,31.22289 5.91735,1.68312 20.28026,0.99986 25.85286,-1.22985 z M 308,157.92308 C 308,153.2095 312.71227,149 317.98882,149 c 2.27846,0 5.00842,0.46334 6.06657,1.02964 2.27843,1.21938 4.94461,6.02951 4.94461,8.9207 C 329,160.88642 328.41813,161 318.5,161 H 308 Z m 191.46482,38.49494 c 6.999,-2.47041 13.92347,-9.61907 15.95996,-16.47668 2.02164,-6.80761 2.00853,-16.11439 -0.0324,-23.00984 C 512.00221,145.47772 499.00075,136.8609 485,136.78872 c -13.71704,-0.0707 -22.54854,4.82499 -27.88881,15.46003 -3.01275,5.99985 -3.39378,7.6644 -3.43365,15 -0.0247,4.53819 0.48685,10.09578 1.13668,12.35021 2.4415,8.47009 9.61942,15.70557 17.89926,18.04282 6.17567,1.74328 20.15741,1.10367 26.75134,-1.22376 z m -21.46065,-14.26 c -7.18932,-7.18932 -6.11294,-25.50928 1.70815,-29.07281 3.44589,-1.57005 9.49041,-1.33194 12.07089,0.47549 C 495.49965,156.1638 497,160.33071 497,168.04921 497,179.67121 493.06183,185 484.47274,185 c -2.6514,0 -4.3908,-0.76421 -6.46857,-2.84198 z M 545,179.16095 l 0.5,-19.33905 2.80576,-2.41095 c 3.87355,-3.32848 9.88742,-3.30868 13.23969,0.0436 2.43862,2.43861 2.45455,2.58136 2.45455,22 V 199 h 10 10 l -0.022,-22.75 c -0.02,-20.73428 -0.20272,-23.14871 -2.06207,-27.25 -4.0538,-8.94174 -9.07828,-12.24101 -18.55862,-12.18632 -7.4976,0.0433 -15.1657,3.63702 -18.3442,8.59726 L 543.03369,148.5 543.01685,143.25 543,138 h -9 -9 v 30.53621 30.53621 l 9.75,-0.28621 9.75,-0.28621 z m -341.60509,14.82811 c 12.24468,-5.86742 17.93855,-18.01896 15.5098,-33.10013 -1.79669,-11.15644 -6.79209,-17.63487 -17.40471,-22.57183 -12.23712,-5.69266 -27.14633,-2.8012 -37.15289,7.20536 -6.54259,6.54258 -8.82166,13.24543 -8.12575,23.89816 0.86116,13.18241 7.8482,21.79787 21.27864,26.2379 6.28284,2.07708 19.9097,1.19855 25.89491,-1.66946 z M 184.5,183.28076 C 179.04076,181.95079 176,175.9477 176,166.5 c 0,-7.66494 1.66994,-12.30862 5.51368,-15.3321 2.96407,-2.33154 8.32758,-2.85841 11.5488,-1.13446 5.79017,3.0988 8.53422,19.25229 4.61025,27.13929 -2.54931,5.12398 -7.59961,7.46574 -13.17273,6.10803 z m 63.5,0.16022 c 0,-8.21652 0.37072,-13.3299 0.94086,-12.97753 0.51748,0.31982 3.97563,6.42137 7.68479,13.55902 L 263.36958,197 h 11.81521 C 281.68315,197 287,196.75828 287,196.46286 c 0,-0.29543 -4.19633,-7.15793 -9.32517,-15.25 -5.12885,-8.09208 -9.67634,-15.30924 -10.10555,-16.03815 -0.50614,-0.85955 2.24377,-5.86503 7.82517,-14.24365 C 280.1275,143.82597 284,137.5441 284,136.97137 c 0,-0.67233 -3.61353,-0.94035 -10.19749,-0.75635 l -10.19749,0.28498 -7.55251,12 -7.55251,12 -0.26747,-24.75 L 247.96506,111 H 238.48253 229 v 43 43 h 9.5 9.5 z m 125,-5.38522 c 0,-18.22162 0.0858,-19.04176 2.25,-21.50107 3.37335,-3.83338 7.75848,-4.31123 11.33685,-1.23539 l 2.91315,2.50403 0.32646,19.58834 L 390.15292,197 H 399.57646 409 v -18.54966 c 0,-21.2934 0.6713,-23.92285 6.38101,-24.99399 3.77616,-0.70842 8.9725,1.41655 9.99781,4.08845 C 425.72047,158.43513 426,167.67677 426,178.08179 V 197 h 9 9 v -24.04966 c 0,-25.64764 -0.24072,-27.1221 -5.15499,-31.57538 -3.96537,-3.59339 -6.88604,-4.59947 -13.2376,-4.55994 -7.63533,0.0475 -11.07073,1.33618 -15.1813,5.69465 l -3.23533,3.43045 -1.61001,-2.4572 c -2.5389,-3.87484 -9.06459,-6.68497 -15.48695,-6.66907 -7.10937,0.0176 -10.65348,1.39162 -15.34382,5.94864 L 371,146.4059 V 142.20295 138 h -8 -8 v 29.5 29.5 h 9 9 z m -260,3.57532 v -14.36892 l 10.25,-0.46399 C 143.52657,165.88029 152.52901,158.22499 152.41203,142 152.32032,129.27974 146.86376,121.34205 135.21249,116.9797 130.62544,115.26226 127.4129,115 110.96249,115 H 92 v 40.5 40.5 h 10.5 10.5 z m 0,-40.16246 c 0,-12.21716 0.16577,-12.42115 8.5662,-10.54122 6.69918,1.49921 9.4338,4.55251 9.4338,10.53314 0,6.51617 -5.67968,10.43258 -15.25,10.5156 L 113,152 Z m 210,-17.66889 c 6.875,-2.7874 12.67634,-5.22148 12.89186,-5.40907 0.56708,-0.49355 -5.25508,-15.45095 -5.89566,-15.14625 -7.76925,3.69547 -30.9962,16.37819 -30.9962,16.925 0,0.41556 0.92991,3.24099 2.06648,6.27872 l 2.06648,5.52316 3.68352,-1.55178 c 2.02593,-0.85347 9.30852,-3.83238 16.18352,-6.61978 z m 300.82055,88.80528 c -5.23912,-1.4107 -10.6467,-5.14774 -13.74488,-9.49874 -4.36333,-6.12773 -5.22371,-13.23979 -4.88794,-40.40465 0.307,-24.83749 0.35536,-25.34732 2.86703,-30.22371 1.81242,-3.5188 3.96838,-5.83437 7.41971,-7.96899 l 4.86495,-3.00892 43.43284,-0.29961 c 48.16683,-0.33226 51.57598,-0.0277 58.40814,5.21714 l 4.29919,3.30039 4.01021,-2.10896 c 3.1184,-1.63996 5.80551,-2.10896 12.08323,-2.10896 7.15485,0 8.55102,0.31632 12.27576,2.78124 l 4.20274,2.78124 3.42915,-2.61554 C 768.62469,123.76068 773.40573,123 796.71611,123 c 23.49387,0 28.46275,0.73638 35.00881,5.18826 l 4.22492,2.87331 3.99458,-2.64349 c 2.88042,-1.90617 5.74634,-2.78262 10.27508,-3.14231 9.04742,-0.71858 14.12179,0.97028 19.71213,6.56063 3.95431,3.9543 4.90373,5.67556 6.01253,10.90045 1.12405,5.29678 1.097,7.07688 -0.1849,12.16579 -1.29521,5.14175 -1.31314,6.68774 -0.13044,11.24718 1.6728,6.44881 1.79073,22.26352 0.2137,28.65736 -3.2773,13.28734 -15.02473,20.91294 -27.98117,18.1634 -3.39397,-0.72025 -7.05996,-2.32558 -8.98961,-3.93651 l -3.25845,-2.72028 -4.05664,2.85001 c -2.23116,1.5675 -6.53165,3.36391 -9.55665,3.99202 -7.11556,1.47746 -15.48985,-0.74495 -20.65974,-5.4828 l -3.52743,-3.23265 -3.45038,3.25413 C 791.05559,210.81327 783.03888,214 778.5,214 c -3.89989,0 -12.42758,-3.03363 -15.17793,-5.39939 l -2.71069,-2.33164 -3.87954,2.81033 c -8.09453,5.86364 -20.60507,6.08895 -28.80241,0.51872 l -3.44809,-2.34304 -3.41459,2.33971 c -8.21398,5.62832 -20.70777,5.34556 -28.9929,-0.65615 L 688,205.98746 l -4.07312,2.95055 c -8.4279,6.10514 -21.42586,6.10514 -29.85376,0 L 650,205.98746 l -4.05064,2.93426 c -3.7025,2.68208 -11.54568,5.17757 -15.74858,5.01079 -0.93543,-0.0371 -3.80653,-0.6345 -6.38023,-1.3275 z m 11.52213,-14.71528 C 639.39144,196.04499 640,193.0479 640,174.95295 V 158 h 8.93415 8.93415 l 0.31585,16.93035 c 0.28623,15.34286 0.51237,17.19475 2.41168,19.75 4.10617,5.5243 13.70226,5.35036 16.27445,-0.29499 C 677.56798,192.85408 678,185.42281 678,174.95295 V 158 h 10 10 v 17.88922 c 0,16.12364 0.18867,18.12221 1.91165,20.25 1.56349,1.93083 2.85444,2.36078 7.08835,2.36078 4.23391,0 5.52486,-0.42995 7.08835,-2.36078 1.77418,-2.19102 1.91055,-4.24045 1.89634,-28.5 -0.008,-14.37657 -0.34592,-26.6153 -0.75,-27.19718 -0.40408,-0.58188 -1.84732,-1.81938 -3.2072,-2.75 C 709.80026,136.16785 705.33046,136 666.96862,136 c -35.18156,0 -42.92388,0.24657 -44.52749,1.41806 -1.81981,1.32942 -1.95827,3.00134 -2.21541,26.75 -0.24493,22.62153 -0.0844,25.70494 1.5,28.81803 2.74395,5.39129 8.21923,7.36301 13.61696,4.90364 z m 113.8971,-1.93752 C 750.6908,194.16028 751,191.76906 751,182.33956 751,166.85154 749.5031,164 741.37276,164 c -2.34414,0 -4.25703,0.79336 -5.91821,2.45455 -2.33584,2.33583 -2.45455,3.04027 -2.45455,14.56574 0,12.68645 0.70984,15.48675 4.31537,17.0239 3.49776,1.49122 9.93779,0.3614 11.92441,-2.09198 z m 33.15816,1.91234 c 1.37062,-0.6245 2.84872,-1.862 3.28468,-2.75 0.43595,-0.888 1.02321,-9.48955 1.30501,-19.11455 l 0.51237,-17.5 9.66515,-0.28519 9.66514,-0.28519 0.33486,16.96465 c 0.30318,15.35998 0.53309,17.23143 2.43068,19.78518 2.60036,3.49955 8.27146,5.15768 11.93349,3.48915 4.77367,-2.17503 5.47068,-6.02102 5.47068,-30.18614 0,-25.25412 -0.44021,-27.14465 -6.75582,-29.01376 -2.39859,-0.70986 -11.55155,-0.99319 -25.46853,-0.78839 -28.78465,0.42359 -26.18135,-2.31981 -26.57908,28.0094 -0.32524,24.80182 0.0422,27.27974 4.57365,30.84418 2.82622,2.22311 5.97532,2.4948 9.62772,0.83066 z m 74.65745,0.10581 C 860.79934,195.96666 862,191.71784 862,180.47274 c 0,-10.41184 -0.0591,-10.68566 -2.92308,-13.54966 -4.38607,-4.38607 -11.58535,-3.49213 -13.96665,1.73424 -1.69986,3.73078 -1.42137,21.84039 0.38971,25.34264 2.42748,4.69424 7.16277,6.32127 11.55541,3.9704 z M 748.75,154.44531 c 3.093,-3.5148 3.00313,-8.78309 -0.20455,-11.99076 C 743.07636,136.98546 733,140.73035 733,148.23204 c 0,8.73873 10.04163,12.70009 15.75,6.21327 z m 111,0 c 3.093,-3.5148 3.00313,-8.78309 -0.20455,-11.99076 C 854.07636,136.98546 844,140.73035 844,148.23204 c 0,8.73873 10.04163,12.70009 15.75,6.21327 z"
       id="path18"
       inkscape:connector-curvature="0" />
    <path
       style="fill:#867400"
       d="m 313.86269,212.90665 c -3.10052,-0.44361 -8.16274,-1.65915 -11.24938,-2.7012 -5.17141,-1.74585 -5.78879,-1.76941 -7.86269,-0.30003 -1.83419,1.29954 -5.11854,1.586 -17.75062,1.54823 -8.525,-0.0255 -17.3,-0.15686 -19.5,-0.29193 -2.2,-0.13507 -9.41192,0.0427 -16.02649,0.39508 -13.97978,0.74471 -19.06938,-0.24874 -23.08814,-4.50662 l -2.74438,-2.90768 -3.90142,1.99036 C 206.7122,208.69763 193.79341,212 188.78744,212 183.0408,212 171.27517,209.13233 165,206.20223 c -9.61655,-4.49032 -21.94851,-19.27377 -21.99023,-26.36172 -0.009,-1.51258 -0.47451,-1.53577 -5.25977,-0.26187 -2.8875,0.76869 -6.20882,1.40296 -7.38072,1.40949 -1.99123,0.0111 -2.15733,0.62028 -2.53717,9.30507 -0.46972,10.73968 -2.28636,14.88676 -7.81651,17.8437 C 117.09173,209.70029 114.27404,210 102.5,210 86.243481,210 82.96425,208.91524 79.550489,202.40837 77.575556,198.64401 77.5,196.91555 77.5,155.5 c 0,-58.62423 -2.498065,-54.75086 35,-54.26912 22.07978,0.28366 24.44005,0.48621 29.5,2.5316 8.35207,3.37617 14.7624,8.83364 19.24868,16.38747 l 3.94945,6.64995 4.25851,-1.88374 c 2.34218,-1.03606 7.49684,-2.56495 11.4548,-3.39753 6.46695,-1.36036 7.97633,-1.35506 14.89243,0.0523 4.23287,0.86135 10.01046,2.61331 12.83908,3.89325 l 5.14294,2.32715 0.38077,-10.64566 c 0.4254,-11.89376 1.80674,-15.48354 7.21888,-18.760129 C 224.0437,96.776248 226.55112,96.5 238.5,96.5 c 11.94888,0 14.4563,0.276248 17.11446,1.885541 4.82874,2.923389 6.68053,6.996839 7.19122,15.818719 L 263.25697,122 h 10.37152 c 7.62757,0 10.37299,-0.33071 10.37709,-1.25 0.0148,-3.32426 2.28683,-8.76969 4.64138,-11.12423 1.44162,-1.44162 10.0983,-6.53968 19.23708,-11.329032 15.08899,-7.907667 17.13735,-8.711988 22.28949,-8.752322 7.17859,-0.0562 10.3675,2.105148 14.01896,9.501619 4.79653,9.715915 7.10156,18.229475 6.00796,22.190155 l -0.96599,3.49854 4.13277,-0.93515 c 2.27302,-0.51433 9.08277,-0.82305 15.13277,-0.68605 6.05,0.137 14.20719,-0.11813 18.12709,-0.56695 5.96632,-0.68314 8.25058,-0.4748 14.02517,1.27918 6.54666,1.98849 7.12605,2.01267 11.37291,0.47475 5.51435,-1.99692 19.85517,-2.29239 25.66259,-0.52872 2.30327,0.69948 6.45253,3.06198 9.22059,5.25 2.76805,2.18801 5.30108,3.97821 5.62895,3.97821 0.32788,0 2.05284,-1.11108 3.83325,-2.46906 6.37243,-4.86049 18.03112,-8.43358 27.71949,-8.49532 6.61877,-0.0422 19.88479,3.16196 24.5932,5.94 l 3.33702,1.96888 4.42845,-3.12145 c 4.07084,-2.8694 5.22073,-3.15723 14.23987,-3.5644 5.39628,-0.24361 11.68656,-0.008 13.9784,0.52426 3.02901,0.70306 5.61462,0.59167 9.46793,-0.40786 15.23828,-3.95276 29.84881,1.3435 37.84797,13.71975 6.19119,9.57899 7.21123,15.84514 6.83735,42.00221 -0.29068,20.33577 -0.51073,22.76613 -2.38477,26.33845 C 593.02967,211.92762 588.7528,213.5 574.5,213.5 c -10,0 -12.66667,-0.33333 -16,-2 -3.97622,-1.98811 -4.02378,-1.98839 -8,-0.047 -5.00841,2.44535 -19.5179,3.30884 -27.09742,1.61261 -3.21192,-0.71879 -6.49689,-2.28543 -8.27499,-3.94642 -2.93163,-2.73855 -2.96817,-2.74441 -6.33619,-1.01651 -4.36381,2.23877 -13.67283,4.60851 -21.2914,5.42003 -7.33056,0.78084 -19.75412,-1.60431 -26.70627,-5.12724 l -4.82447,-2.44474 -2.19166,2.04184 c -1.20541,1.12301 -4.00221,2.52937 -6.21512,3.12524 -5.18369,1.39582 -25.77028,0.78455 -27.70689,-0.8227 -1.13099,-0.93863 -2.30801,-0.8932 -5.40087,0.20846 -5.30947,1.8912 -24.59997,1.8912 -29.90944,0 -3.0969,-1.1031 -4.26893,-1.14781 -5.40329,-0.20611 -2.33368,1.93732 -23.70652,2.20681 -29.01869,0.3659 -3.99228,-1.38351 -5.00236,-1.35958 -11.5,0.2724 -9.18028,2.30577 -17.68734,2.98292 -24.76061,1.97089 z m 23.38731,-16.2068 3.75,-1.5978 v -7.89811 -7.89812 l -4.91946,2.43462 c -6.65354,3.29279 -15.43565,3.98105 -20.06061,1.57215 C 312.85217,181.66266 308,175.93895 308,173.85212 308,173.38345 316.60643,173 327.1254,173 h 19.1254 l -0.44374,-8.45433 c -0.7893,-15.03822 -7.27686,-23.93233 -19.78545,-27.12487 -11.73746,-2.99572 -22.98327,-0.5037 -30.21271,6.695 -6.19487,6.16854 -8.21398,12.75251 -7.60112,24.78592 0.34161,6.70748 1.00612,9.6978 3.02181,13.59828 3.84816,7.44638 9.75353,12.39974 17.99399,15.09316 5.67261,1.85411 22.86432,1.30614 28.02642,-0.89331 z M 308.37393,156.75 c 0.83502,-4.34957 4.84304,-7.75 9.13478,-7.75 6.26288,0 9.19945,2.33679 10.99583,8.75 0.62529,2.23234 0.54632,2.25 -10.06215,2.25 H 307.75 Z M 500.5,196.14785 c 6.0024,-2.70144 10.92429,-7.21951 13.7783,-12.64785 1.59208,-3.02813 2.20685,-6.3785 2.53026,-13.78938 0.40951,-9.38364 0.29612,-10.05569 -2.73581,-16.2144 C 508.41692,142.00758 498.8448,136.64076 484,136.63525 c -9.8517,-0.004 -15.31716,1.94617 -21.75286,7.76044 -6.37803,5.76216 -8.6816,12.15049 -8.71727,24.17502 -0.0275,9.26267 0.21264,10.54644 2.99262,16 2.21125,4.33785 4.32216,6.8019 7.86471,9.18042 6.74921,4.53151 9.68166,5.21368 21.1128,4.91143 7.8206,-0.20678 11.0897,-0.75484 15,-2.51471 z m -21.14691,-13.01793 c -6.85356,-4.30158 -8.06684,-22.2924 -1.89443,-28.09109 5.37293,-5.04759 15.35518,-3.12197 18.12012,3.49547 1.80328,4.31587 1.83562,14.55085 0.0592,18.74782 -2.93817,6.94183 -10.31903,9.59224 -16.28493,5.8478 z M 545,180.95034 c 0,-20.03865 0.64115,-22.73063 5.93618,-24.9239 1.78972,-0.74133 4.46929,-0.98535 6.54467,-0.59601 5.86693,1.10064 6.51915,3.60382 6.51915,25.01991 V 199 h 10 10 l -0.022,-23.25 c -0.0194,-20.51564 -0.24023,-23.72043 -1.87789,-27.25 -3.36546,-7.25344 -10.949,-12.5 -18.06787,-12.5 -5.83891,0 -13.47883,3.16108 -17.28228,7.15068 l -3.75,3.93353 V 142.54211 138 h -9.5 -9.5 v 30.5 30.5 h 10.5 10.5 v -18.04966 z m -350.47387,15.9602 c 11.34483,-2.09721 18.48482,-7.27251 22.64045,-16.41054 1.8318,-4.02805 2.27088,-6.74951 2.25876,-14 -0.0173,-10.32813 -2.1992,-16.20719 -8.2671,-22.27509 -8.9939,-8.9939 -24.66219,-11.52533 -36.65824,-5.92265 -10.73523,5.01383 -17.03722,13.01623 -18.45019,23.42848 -1.58841,11.70502 2.36043,22.63221 10.26705,28.4109 5.077,3.71062 7.54559,4.79148 14.68314,6.42895 7.07948,1.62415 6.6391,1.61308 13.52613,0.33995 z M 180.03335,180.0357 c -2.95317,-3.16138 -4.03675,-6.76922 -4.02777,-13.4107 0.0191,-14.13912 9.47883,-22.13694 17.85094,-15.09227 3.79163,3.19044 5.37692,7.94125 5.33058,15.97471 C 199.12704,177.91718 195.18731,183 187.1787,183 c -3.56139,0 -4.89189,-0.55197 -7.14535,-2.9643 z m 68.75137,3.9643 0.28473,-13.5 7.21527,13.5 7.21528,13.5 12.25,0.28078 c 6.7375,0.15443 12.25,0.0238 12.25,-0.29032 0,-0.3141 -4.7245,-7.99057 -10.4989,-17.05883 l -10.4989,-16.48774 8.9989,-13.44554 C 280.9505,143.10331 285,136.81594 285,136.52641 c 0,-0.28953 -4.8375,-0.52341 -10.75,-0.51975 l -10.75,0.007 -7,11.35956 -7,11.35955 -0.5,-24.11621 -0.5,-24.11621 h -10 -10 l -0.26105,42.5 c -0.14358,23.375 -0.0389,43.07889 0.23259,43.78642 0.36653,0.95517 3.00875,1.21267 10.26105,1 L 248.5,197.5 Z m 124.40699,-5.89757 C 373.54855,155.07118 373.91924,154 381.53254,154 c 6.71337,0 6.89989,0.58448 7.46746,23.40038 L 389.5,197.5 h 10 10 l 0.27179,-19.94534 C 410.08369,154.66594 410.30451,154 417.58241,154 c 3.4245,0 4.68376,0.52293 6.34501,2.63486 1.93503,2.45999 2.07258,3.92256 2.07258,22.03752 v 19.40267 l 9.25,-0.28752 9.25,-0.28753 0.26929,-22.95043 c 0.26831,-22.8675 0.26001,-22.9694 -2.29823,-28.19825 -3.03024,-6.19358 -7.26456,-9.18502 -14.15212,-9.9981 -6.96212,-0.82187 -13.15715,1.15961 -17.33194,5.54365 l -3.51301,3.68907 -2.33282,-2.81685 c -6.82149,-8.23681 -21.66327,-8.85799 -29.73588,-1.24453 L 372,144.73615 V 141.36808 138 h -9 -9 v 29.33333 c 0,16.13334 0.3,29.63334 0.66667,30 C 355.03333,197.7 359.2821,198 364.10838,198 h 8.77505 z M 114,181.5 V 167 h 8.3185 c 11.69491,0 18.05886,-2.10012 23.82611,-7.86268 5.5069,-5.50241 7.30005,-10.84585 6.59978,-19.66673 -0.59328,-7.47306 -3.42404,-13.18457 -8.82649,-17.80887 C 137.05378,115.78629 133.20644,115 111.32186,115 H 92 v 40.5 40.5 h 11 11 z m 0,-40.5 v -10 h 4.03212 c 5.05766,0 10.47468,2.20994 11.88739,4.8496 1.36673,2.55376 1.39236,7.69914 0.0508,10.20579 C 128.42866,148.93607 123.66155,151 118.54966,151 H 114 Z m 205.3867,-15.46902 c 8.63721,-3.55796 16.10454,-6.71655 16.59407,-7.01909 0.72983,-0.45106 -4.04944,-13.91389 -5.42921,-15.29366 -0.39413,-0.39413 -28.88388,14.18975 -31.19315,15.96775 -0.83642,0.644 -0.61358,2.26856 0.83362,6.07727 2.00469,5.27592 2.7004,6.73675 3.20833,6.73675 0.15528,0 7.34913,-2.91106 15.98634,-6.46902 z m 305.42406,86.99871 c -6.04277,-1.66425 -11.22033,-4.89177 -13.91253,-8.67261 -4.17581,-5.86439 -4.75687,-10.36642 -4.99588,-38.70814 l -0.22739,-26.9643 2.6176,-5.35018 c 2.82863,-5.78151 6.50628,-8.65917 13.20744,-10.33446 2.52509,-0.63127 20.62543,-0.81564 49.08866,-0.5 l 45.08866,0.5 5.54425,3.68247 5.54425,3.68247 4.36709,-2.18247 c 6.59454,-3.29565 16.90906,-3.02 23.11644,0.61777 l 4.64546,2.72242 4.65098,-2.94957 C 770.22788,123.83544 775.73714,123 797,123 c 21.35807,0 27.47582,0.92557 34.19943,5.1741 l 4.69942,2.96948 4.79257,-2.80863 c 4.10204,-2.40395 5.87551,-2.80863 12.30858,-2.80863 6.42251,0 8.20917,0.40622 12.28039,2.79211 9.05716,5.30785 13.06876,15.68634 10.25719,26.53656 -1.4386,5.55172 -1.44487,6.7141 -0.065,12.03935 1.91306,7.38274 1.95087,20.9254 0.0781,27.96164 -2.62571,9.86496 -8.23228,15.41001 -18.28681,18.08614 -5.25323,1.39821 -13.72492,-0.53092 -18.57415,-4.22961 l -3.21555,-2.45262 -3.48709,2.40401 c -1.9179,1.3222 -5.83878,3.09252 -8.71307,3.93403 -4.71862,1.38148 -5.828,1.37579 -11.42713,-0.0586 -3.9839,-1.02063 -7.74838,-2.85649 -10.52836,-5.13448 -3.5818,-2.93501 -4.43276,-3.27071 -4.94002,-1.9488 -0.87248,2.27363 -8.0679,6.25018 -13.50684,7.46455 -5.69581,1.27172 -14.54038,-0.73371 -19.15148,-4.34244 l -3.05087,-2.38766 -3.73992,2.47496 c -2.05696,1.36123 -6.28073,3.13846 -9.38616,3.9494 -5.02032,1.31099 -6.31648,1.30272 -11.69256,-0.0746 -3.32548,-0.85195 -7.13893,-2.40844 -8.47433,-3.45887 -2.41596,-1.90039 -2.45695,-1.89494 -8.26048,1.09818 -9.43189,4.8644 -21.283,3.91411 -28.02914,-2.24754 -3.10046,-2.83183 -3.1732,-2.84556 -5.06301,-0.95575 -2.59045,2.59045 -6.56833,4.49818 -12.29912,5.89847 -6.18933,1.51232 -15.48671,-0.72627 -20.93366,-5.04033 C 650.70592,206.18306 649,205.28305 649,205.83441 c 0,1.60794 -6.60821,5.24219 -12.27527,6.7509 -6.08395,1.6197 -5.82666,1.6209 -11.91397,-0.0556 z m 10.53192,-14.63996 C 639.39144,196.04499 640,193.0479 640,174.95295 V 158 h 8.93415 8.93415 l 0.31585,16.93035 c 0.28623,15.34286 0.51237,17.19475 2.41168,19.75 4.10617,5.5243 13.70226,5.35036 16.27445,-0.29499 C 677.56798,192.85408 678,185.42281 678,174.95295 V 158 h 10 10 v 17.88922 c 0,16.12364 0.18867,18.12221 1.91165,20.25 1.56349,1.93083 2.85444,2.36078 7.08835,2.36078 4.23391,0 5.52486,-0.42995 7.08835,-2.36078 1.77418,-2.19102 1.91055,-4.24045 1.89634,-28.5 -0.008,-14.37657 -0.34592,-26.6153 -0.75,-27.19718 -0.40408,-0.58188 -1.84732,-1.81938 -3.2072,-2.75 C 709.80026,136.16785 705.33046,136 666.96862,136 c -35.18156,0 -42.92388,0.24657 -44.52749,1.41806 -1.81981,1.32942 -1.95827,3.00134 -2.21541,26.75 -0.24493,22.62153 -0.0844,25.70494 1.5,28.81803 2.74395,5.39129 8.21923,7.36301 13.61696,4.90364 z m 113.8971,-1.93752 C 750.6908,194.16028 751,191.76906 751,182.33956 751,166.85154 749.5031,164 741.37276,164 c -2.34414,0 -4.25703,0.79336 -5.91821,2.45455 -2.33584,2.33583 -2.45455,3.04027 -2.45455,14.56574 0,12.68645 0.70984,15.48675 4.31537,17.0239 3.49776,1.49122 9.93779,0.3614 11.92441,-2.09198 z m 33.15816,1.91234 c 1.37062,-0.6245 2.84872,-1.862 3.28468,-2.75 0.43595,-0.888 1.02321,-9.48955 1.30501,-19.11455 l 0.51237,-17.5 9.66515,-0.28519 9.66514,-0.28519 0.33486,16.96465 c 0.30318,15.35998 0.53309,17.23143 2.43068,19.78518 2.60036,3.49955 8.27146,5.15768 11.93349,3.48915 4.77367,-2.17503 5.47068,-6.02102 5.47068,-30.18614 0,-25.25412 -0.44021,-27.14465 -6.75582,-29.01376 -2.39859,-0.70986 -11.55155,-0.99319 -25.46853,-0.78839 -28.78465,0.42359 -26.18135,-2.31981 -26.57908,28.0094 -0.32524,24.80182 0.0422,27.27974 4.57365,30.84418 2.82622,2.22311 5.97532,2.4948 9.62772,0.83066 z m 74.65745,0.10581 C 860.79934,195.96666 862,191.71784 862,180.47274 c 0,-10.41184 -0.0591,-10.68566 -2.92308,-13.54966 -4.38607,-4.38607 -11.58535,-3.49213 -13.96665,1.73424 -1.69986,3.73078 -1.42137,21.84039 0.38971,25.34264 2.42748,4.69424 7.16277,6.32127 11.55541,3.9704 z M 748.75,154.44531 c 3.093,-3.5148 3.00313,-8.78309 -0.20455,-11.99076 C 743.07636,136.98546 733,140.73035 733,148.23204 c 0,8.73873 10.04163,12.70009 15.75,6.21327 z m 111,0 c 3.093,-3.5148 3.00313,-8.78309 -0.20455,-11.99076 C 854.07636,136.98546 844,140.73035 844,148.23204 c 0,8.73873 10.04163,12.70009 15.75,6.21327 z"
       id="path16"
       inkscape:connector-curvature="0" />
    <path
       style="fill:#010100"
       d="m 313.86269,212.90665 c -3.10052,-0.44361 -8.16274,-1.65915 -11.24938,-2.7012 -5.17141,-1.74585 -5.78879,-1.76941 -7.86269,-0.30003 -1.83419,1.29954 -5.11854,1.586 -17.75062,1.54823 -8.525,-0.0255 -17.3,-0.15686 -19.5,-0.29193 -2.2,-0.13507 -9.41192,0.0427 -16.02649,0.39508 -13.97978,0.74471 -19.06938,-0.24874 -23.08814,-4.50662 l -2.74438,-2.90768 -3.90142,1.99036 C 206.7122,208.69763 193.79341,212 188.78744,212 183.0408,212 171.27517,209.13233 165,206.20223 c -9.61655,-4.49032 -21.94851,-19.27377 -21.99023,-26.36172 -0.009,-1.51258 -0.47451,-1.53577 -5.25977,-0.26187 -2.8875,0.76869 -6.20882,1.40296 -7.38072,1.40949 -1.99123,0.0111 -2.15733,0.62028 -2.53717,9.30507 -0.46972,10.73968 -2.28636,14.88676 -7.81651,17.8437 C 117.09173,209.70029 114.27404,210 102.5,210 86.243481,210 82.96425,208.91524 79.550489,202.40837 77.575556,198.64401 77.5,196.91555 77.5,155.5 c 0,-58.62423 -2.498065,-54.75086 35,-54.26912 22.07978,0.28366 24.44005,0.48621 29.5,2.5316 8.35207,3.37617 14.7624,8.83364 19.24868,16.38747 l 3.94945,6.64995 4.25851,-1.88374 c 2.34218,-1.03606 7.49684,-2.56495 11.4548,-3.39753 6.46695,-1.36036 7.97633,-1.35506 14.89243,0.0523 4.23287,0.86135 10.01046,2.61331 12.83908,3.89325 l 5.14294,2.32715 0.38077,-10.64566 c 0.4254,-11.89376 1.80674,-15.48354 7.21888,-18.760129 C 224.0437,96.776248 226.55112,96.5 238.5,96.5 c 11.94888,0 14.4563,0.276248 17.11446,1.885541 4.82874,2.923389 6.68053,6.996839 7.19122,15.818719 L 263.25697,122 h 10.37152 c 7.62757,0 10.37299,-0.33071 10.37709,-1.25 0.0148,-3.32426 2.28683,-8.76969 4.64138,-11.12423 1.44162,-1.44162 10.0983,-6.53968 19.23708,-11.329032 15.08899,-7.907667 17.13735,-8.711988 22.28949,-8.752322 7.17859,-0.0562 10.3675,2.105148 14.01896,9.501619 4.79653,9.715915 7.10156,18.229475 6.00796,22.190155 l -0.96599,3.49854 4.13277,-0.93515 c 2.27302,-0.51433 9.08277,-0.82305 15.13277,-0.68605 6.05,0.137 14.20719,-0.11813 18.12709,-0.56695 5.96632,-0.68314 8.25058,-0.4748 14.02517,1.27918 6.54666,1.98849 7.12605,2.01267 11.37291,0.47475 5.51435,-1.99692 19.85517,-2.29239 25.66259,-0.52872 2.30327,0.69948 6.45253,3.06198 9.22059,5.25 2.76805,2.18801 5.30108,3.97821 5.62895,3.97821 0.32788,0 2.05284,-1.11108 3.83325,-2.46906 6.37243,-4.86049 18.03112,-8.43358 27.71949,-8.49532 6.61877,-0.0422 19.88479,3.16196 24.5932,5.94 l 3.33702,1.96888 4.42845,-3.12145 c 4.07084,-2.8694 5.22073,-3.15723 14.23987,-3.5644 5.39628,-0.24361 11.68656,-0.008 13.9784,0.52426 3.02901,0.70306 5.61462,0.59167 9.46793,-0.40786 15.23828,-3.95276 29.84881,1.3435 37.84797,13.71975 6.19119,9.57899 7.21123,15.84514 6.83735,42.00221 -0.29068,20.33577 -0.51073,22.76613 -2.38477,26.33845 C 593.02967,211.92762 588.7528,213.5 574.5,213.5 c -10,0 -12.66667,-0.33333 -16,-2 -3.97622,-1.98811 -4.02378,-1.98839 -8,-0.047 -5.00841,2.44535 -19.5179,3.30884 -27.09742,1.61261 -3.21192,-0.71879 -6.49689,-2.28543 -8.27499,-3.94642 -2.93163,-2.73855 -2.96817,-2.74441 -6.33619,-1.01651 -4.36381,2.23877 -13.67283,4.60851 -21.2914,5.42003 -7.33056,0.78084 -19.75412,-1.60431 -26.70627,-5.12724 l -4.82447,-2.44474 -2.19166,2.04184 c -1.20541,1.12301 -4.00221,2.52937 -6.21512,3.12524 -5.18369,1.39582 -25.77028,0.78455 -27.70689,-0.8227 -1.13099,-0.93863 -2.30801,-0.8932 -5.40087,0.20846 -5.30947,1.8912 -24.59997,1.8912 -29.90944,0 -3.0969,-1.1031 -4.26893,-1.14781 -5.40329,-0.20611 -2.33368,1.93732 -23.70652,2.20681 -29.01869,0.3659 -3.99228,-1.38351 -5.00236,-1.35958 -11.5,0.2724 -9.18028,2.30577 -17.68734,2.98292 -24.76061,1.97089 z m 23.38731,-16.2068 3.75,-1.5978 v -7.89811 -7.89812 l -4.91946,2.43462 c -6.65354,3.29279 -15.43565,3.98105 -20.06061,1.57215 C 312.85217,181.66266 308,175.93895 308,173.85212 308,173.38345 316.60643,173 327.1254,173 h 19.1254 l -0.44374,-8.45433 c -0.7893,-15.03822 -7.27686,-23.93233 -19.78545,-27.12487 -11.73746,-2.99572 -22.98327,-0.5037 -30.21271,6.695 -6.19487,6.16854 -8.21398,12.75251 -7.60112,24.78592 0.34161,6.70748 1.00612,9.6978 3.02181,13.59828 3.84816,7.44638 9.75353,12.39974 17.99399,15.09316 5.67261,1.85411 22.86432,1.30614 28.02642,-0.89331 z M 308.37393,156.75 c 0.83502,-4.34957 4.84304,-7.75 9.13478,-7.75 6.26288,0 9.19945,2.33679 10.99583,8.75 0.62529,2.23234 0.54632,2.25 -10.06215,2.25 H 307.75 Z M 500.5,196.14785 c 6.0024,-2.70144 10.92429,-7.21951 13.7783,-12.64785 1.59208,-3.02813 2.20685,-6.3785 2.53026,-13.78938 0.40951,-9.38364 0.29612,-10.05569 -2.73581,-16.2144 C 508.41692,142.00758 498.8448,136.64076 484,136.63525 c -9.8517,-0.004 -15.31716,1.94617 -21.75286,7.76044 -6.37803,5.76216 -8.6816,12.15049 -8.71727,24.17502 -0.0275,9.26267 0.21264,10.54644 2.99262,16 2.21125,4.33785 4.32216,6.8019 7.86471,9.18042 6.74921,4.53151 9.68166,5.21368 21.1128,4.91143 7.8206,-0.20678 11.0897,-0.75484 15,-2.51471 z m -21.14691,-13.01793 c -6.85356,-4.30158 -8.06684,-22.2924 -1.89443,-28.09109 5.37293,-5.04759 15.35518,-3.12197 18.12012,3.49547 1.80328,4.31587 1.83562,14.55085 0.0592,18.74782 -2.93817,6.94183 -10.31903,9.59224 -16.28493,5.8478 z M 545,180.95034 c 0,-20.03865 0.64115,-22.73063 5.93618,-24.9239 1.78972,-0.74133 4.46929,-0.98535 6.54467,-0.59601 5.86693,1.10064 6.51915,3.60382 6.51915,25.01991 V 199 h 10 10 l -0.022,-23.25 c -0.0194,-20.51564 -0.24023,-23.72043 -1.87789,-27.25 -3.36546,-7.25344 -10.949,-12.5 -18.06787,-12.5 -5.83891,0 -13.47883,3.16108 -17.28228,7.15068 l -3.75,3.93353 V 142.54211 138 h -9.5 -9.5 v 30.5 30.5 h 10.5 10.5 v -18.04966 z m -350.47387,15.9602 c 11.34483,-2.09721 18.48482,-7.27251 22.64045,-16.41054 1.8318,-4.02805 2.27088,-6.74951 2.25876,-14 -0.0173,-10.32813 -2.1992,-16.20719 -8.2671,-22.27509 -8.9939,-8.9939 -24.66219,-11.52533 -36.65824,-5.92265 -10.73523,5.01383 -17.03722,13.01623 -18.45019,23.42848 -1.58841,11.70502 2.36043,22.63221 10.26705,28.4109 5.077,3.71062 7.54559,4.79148 14.68314,6.42895 7.07948,1.62415 6.6391,1.61308 13.52613,0.33995 z M 180.03335,180.0357 c -2.95317,-3.16138 -4.03675,-6.76922 -4.02777,-13.4107 0.0191,-14.13912 9.47883,-22.13694 17.85094,-15.09227 3.79163,3.19044 5.37692,7.94125 5.33058,15.97471 C 199.12704,177.91718 195.18731,183 187.1787,183 c -3.56139,0 -4.89189,-0.55197 -7.14535,-2.9643 z m 68.75137,3.9643 0.28473,-13.5 7.21527,13.5 7.21528,13.5 12.25,0.28078 c 6.7375,0.15443 12.25,0.0238 12.25,-0.29032 0,-0.3141 -4.7245,-7.99057 -10.4989,-17.05883 l -10.4989,-16.48774 8.9989,-13.44554 C 280.9505,143.10331 285,136.81594 285,136.52641 c 0,-0.28953 -4.8375,-0.52341 -10.75,-0.51975 l -10.75,0.007 -7,11.35956 -7,11.35955 -0.5,-24.11621 -0.5,-24.11621 h -10 -10 l -0.26105,42.5 c -0.14358,23.375 -0.0389,43.07889 0.23259,43.78642 0.36653,0.95517 3.00875,1.21267 10.26105,1 L 248.5,197.5 Z m 124.40699,-5.89757 C 373.54855,155.07118 373.91924,154 381.53254,154 c 6.71337,0 6.89989,0.58448 7.46746,23.40038 L 389.5,197.5 h 10 10 l 0.27179,-19.94534 C 410.08369,154.66594 410.30451,154 417.58241,154 c 3.4245,0 4.68376,0.52293 6.34501,2.63486 1.93503,2.45999 2.07258,3.92256 2.07258,22.03752 v 19.40267 l 9.25,-0.28752 9.25,-0.28753 0.26929,-22.95043 c 0.26831,-22.8675 0.26001,-22.9694 -2.29823,-28.19825 -3.03024,-6.19358 -7.26456,-9.18502 -14.15212,-9.9981 -6.96212,-0.82187 -13.15715,1.15961 -17.33194,5.54365 l -3.51301,3.68907 -2.33282,-2.81685 c -6.82149,-8.23681 -21.66327,-8.85799 -29.73588,-1.24453 L 372,144.73615 V 141.36808 138 h -9 -9 v 29.33333 c 0,16.13334 0.3,29.63334 0.66667,30 C 355.03333,197.7 359.2821,198 364.10838,198 h 8.77505 z M 114,181.5 V 167 h 8.3185 c 11.69491,0 18.05886,-2.10012 23.82611,-7.86268 5.5069,-5.50241 7.30005,-10.84585 6.59978,-19.66673 -0.59328,-7.47306 -3.42404,-13.18457 -8.82649,-17.80887 C 137.05378,115.78629 133.20644,115 111.32186,115 H 92 v 40.5 40.5 h 11 11 z m 0,-40.5 v -10 h 4.03212 c 5.05766,0 10.47468,2.20994 11.88739,4.8496 1.36673,2.55376 1.39236,7.69914 0.0508,10.20579 C 128.42866,148.93607 123.66155,151 118.54966,151 H 114 Z m 205.3867,-15.46902 c 8.63721,-3.55796 16.10454,-6.71655 16.59407,-7.01909 0.72983,-0.45106 -4.04944,-13.91389 -5.42921,-15.29366 -0.39413,-0.39413 -28.88388,14.18975 -31.19315,15.96775 -0.83642,0.644 -0.61358,2.26856 0.83362,6.07727 2.00469,5.27592 2.7004,6.73675 3.20833,6.73675 0.15528,0 7.34913,-2.91106 15.98634,-6.46902 z m 305.42406,86.99871 c -6.04277,-1.66425 -11.22033,-4.89177 -13.91253,-8.67261 -4.17581,-5.86439 -4.75687,-10.36642 -4.99588,-38.70814 l -0.22739,-26.9643 2.6176,-5.35018 c 2.82863,-5.78151 6.50628,-8.65917 13.20744,-10.33446 2.52509,-0.63127 20.62543,-0.81564 49.08866,-0.5 l 45.08866,0.5 5.54425,3.68247 5.54425,3.68247 4.36709,-2.18247 c 6.59454,-3.29565 16.90906,-3.02 23.11644,0.61777 l 4.64546,2.72242 4.65098,-2.94957 C 770.22788,123.83544 775.73714,123 797,123 c 21.35807,0 27.47582,0.92557 34.19943,5.1741 l 4.69942,2.96948 4.79257,-2.80863 c 4.10204,-2.40395 5.87551,-2.80863 12.30858,-2.80863 6.42251,0 8.20917,0.40622 12.28039,2.79211 9.05716,5.30785 13.06876,15.68634 10.25719,26.53656 -1.4386,5.55172 -1.44487,6.7141 -0.065,12.03935 1.91306,7.38274 1.95087,20.9254 0.0781,27.96164 -2.62571,9.86496 -8.23228,15.41001 -18.28681,18.08614 -5.25323,1.39821 -13.72492,-0.53092 -18.57415,-4.22961 l -3.21555,-2.45262 -3.48709,2.40401 c -1.9179,1.3222 -5.83878,3.09252 -8.71307,3.93403 -4.71862,1.38148 -5.828,1.37579 -11.42713,-0.0586 -3.9839,-1.02063 -7.74838,-2.85649 -10.52836,-5.13448 -3.5818,-2.93501 -4.43276,-3.27071 -4.94002,-1.9488 -0.87248,2.27363 -8.0679,6.25018 -13.50684,7.46455 -5.69581,1.27172 -14.54038,-0.73371 -19.15148,-4.34244 l -3.05087,-2.38766 -3.73992,2.47496 c -2.05696,1.36123 -6.28073,3.13846 -9.38616,3.9494 -5.02032,1.31099 -6.31648,1.30272 -11.69256,-0.0746 -3.32548,-0.85195 -7.13893,-2.40844 -8.47433,-3.45887 -2.41596,-1.90039 -2.45695,-1.89494 -8.26048,1.09818 -9.43189,4.8644 -21.283,3.91411 -28.02914,-2.24754 -3.10046,-2.83183 -3.1732,-2.84556 -5.06301,-0.95575 -2.59045,2.59045 -6.56833,4.49818 -12.29912,5.89847 -6.18933,1.51232 -15.48671,-0.72627 -20.93366,-5.04033 C 650.70592,206.18306 649,205.28305 649,205.83441 c 0,1.60794 -6.60821,5.24219 -12.27527,6.7509 -6.08395,1.6197 -5.82666,1.6209 -11.91397,-0.0556 z m 12.32846,-15.43884 c 2.28872,-1.85088 2.37604,-2.46897 2.86078,-20.25 l 0.5,-18.34085 8.6851,-0.28799 8.68509,-0.28798 0.31491,17.6223 0.3149,17.6223 3.26578,2.91568 c 3.95442,3.53051 9.71615,3.96416 13.37344,1.00654 2.28872,-1.85088 2.37604,-2.46897 2.86078,-20.25 L 678.5,158.5 h 9.5 9.5 l 0.5,18.34085 c 0.48474,17.78103 0.57206,18.39912 2.86078,20.25 3.46721,2.8039 9.59902,2.54026 12.68467,-0.5454 2.45209,-2.45208 2.45476,-2.47789 2.6658,-25.75 0.28869,-31.83598 0.45238,-29.82787 -2.64881,-32.4954 L 710.88847,136 h -43.92118 -43.92118 l -1.57099,2.39763 c -1.3475,2.05655 -1.5286,6.12274 -1.27305,28.58355 l 0.29793,26.18593 3.26578,2.91644 c 3.95428,3.53131 9.71572,3.96527 13.37344,1.0073 z m 111.40623,-0.5454 C 750.88781,194.2031 751,193.52366 751,181.68031 c 0,-11.04127 -0.22868,-12.70131 -2.07258,-15.04545 -2.89622,-3.68195 -10.48392,-3.8003 -13.85114,-0.21605 -2.13263,2.27008 -2.26592,3.20776 -2.16765,15.25 0.10148,12.43636 0.18314,12.90042 2.6538,15.08119 3.59225,3.17075 9.70401,3.07446 12.98302,-0.20455 z m 34.60495,1.37406 C 787.04221,195.83668 788,191.11893 788,174.03212 V 158 h 9.43554 9.43554 l 0.31446,17.58431 0.31446,17.58432 3.26578,2.91568 c 5.21704,4.65778 11.71916,3.74618 14.72387,-2.06429 1.2214,-2.36193 1.51035,-7.41543 1.51035,-26.4146 0,-23.38878 -0.0108,-23.50645 -2.41179,-26.29966 l -2.41179,-2.80576 -24.11445,-0.30069 -24.11444,-0.30069 -2.97376,2.97377 L 768,143.84615 V 168.02308 192.2 l 3.4,3.4 c 3.60786,3.60786 7.79771,4.43493 11.7504,2.31951 z m 75.54384,-1.33057 c 2.75747,-2.36956 2.81145,-2.62714 3.13656,-14.96465 0.32433,-12.30757 0.28112,-12.60328 -2.20454,-15.08894 -3.4926,-3.4926 -9.7217,-3.53082 -13.17171,-0.0808 -2.33263,2.33262 -2.45455,3.04906 -2.45455,14.42327 0,11.41728 0.11928,12.11049 2.58889,15.04545 3.29429,3.91504 8.02153,4.17499 12.10535,0.66567 z m -112.3785,-39.75228 c 3.41066,-1.81653 4.61802,-3.99962 4.65246,-8.41235 0.0424,-5.43483 -3.43628,-8.87886 -8.9682,-8.87886 -5.53192,0 -9.01061,3.44403 -8.9682,8.87886 0.0175,2.24163 0.58,4.78336 1.25,5.64828 2.90242,3.74678 7.99333,4.91611 12.03394,2.76407 z m 113.92404,-1.88445 c 2.74998,-3.39608 2.34223,-10.05682 -0.79615,-13.00517 C 853.48546,136.34963 844,140.36412 844,148.48318 c 0,6.56593 3.81448,9.87663 10.48978,9.10438 2.48223,-0.28716 4.65488,-1.28294 5.75,-2.63535 z"
       id="path14"
       inkscape:connector-curvature="0" />
  </g>
</svg>
