<?xml version="1.0" encoding="UTF-8" standalone="no"?>
<!-- Generator: Adobe Illustrator 13.0.0, SVG Export Plug-In . SVG Version: 6.00 Build 14948)  -->

<svg
   xmlns:ns="&amp;#38;ns_sfw;"
   xmlns:dc="http://purl.org/dc/elements/1.1/"
   xmlns:cc="http://creativecommons.org/ns#"
   xmlns:rdf="http://www.w3.org/1999/02/22-rdf-syntax-ns#"
   xmlns:svg="http://www.w3.org/2000/svg"
   xmlns="http://www.w3.org/2000/svg"
   xmlns:sodipodi="http://sodipodi.sourceforge.net/DTD/sodipodi-0.dtd"
   xmlns:inkscape="http://www.inkscape.org/namespaces/inkscape"
   version="1.2"
   id="Layer_3"
   x="0px"
   y="0px"
   width="598.189px"
   height="350.26px"
   viewBox="0 0 598.189 350.26"
   xml:space="preserve"
   sodipodi:docname="controller.svg"
   inkscape:version="0.92.3 (2405546, 2018-03-11)"><defs
   id="defs4951" /><sodipodi:namedview
   pagecolor="#ffffff"
   bordercolor="#666666"
   borderopacity="1"
   objecttolerance="10"
   gridtolerance="10"
   guidetolerance="10"
   inkscape:pageopacity="0"
   inkscape:pageshadow="2"
   inkscape:window-width="1920"
   inkscape:window-height="1017"
   id="namedview4949"
   showgrid="false"
   inkscape:zoom="0.57841248"
   inkscape:cx="-1.7288747"
   inkscape:cy="175.13"
   inkscape:window-x="-4"
   inkscape:window-y="-4"
   inkscape:window-maximized="1"
   inkscape:current-layer="Layer_3" />
<metadata
   id="metadata55">
	<rdf:RDF>
		<cc:Work
   rdf:about="">
			<dc:format>image/svg+xml</dc:format>
			<dc:type
   rdf:resource="http://purl.org/dc/dcmitype/StillImage" />
			<dc:title />
		</cc:Work>
	</rdf:RDF>
	<ns:sfw>
		<ns:slices />
		<ns:sliceSourceBounds
   x="723.37"
   y="379.639"
   width="475.946"
   height="314.389"
   bottomLeftOrigin="true" />
	</ns:sfw>
</metadata>
<g
   id="g4324"
   style="fill:#000000">
	<path
   d="m 143.577,201.482 c -0.644,0 -1.169,-0.522 -1.169,-1.168 v 0 -22.213 c 0.002,-0.646 0.523,-1.165 1.169,-1.168 v 0 h 22.212 c 0.648,0.002 1.167,0.522 1.169,1.168 v 0 22.213 c -0.002,0.645 -0.525,1.168 -1.169,1.169 v 0 z m 21.771,-1.609 V 178.545 H 144.02 v 21.326 z"
   id="path4320"
   inkscape:connector-curvature="0"
   style="fill:#000000" />
	<path
   d="m 150.967,197.539 c -2.85,-10e-4 -5.156,-2.311 -5.159,-5.156 v 0 -6.348 c 0.001,-2.85 2.309,-5.156 5.159,-5.156 v 0 h 7.434 c 2.848,0 5.157,2.307 5.157,5.156 v 0 6.348 c 0,2.847 -2.309,5.155 -5.157,5.156 v 0 z m -3.547,-11.504 v 6.348 c 0.003,1.956 1.588,3.542 3.546,3.544 v 0 h 7.434 c 1.957,-0.002 3.542,-1.588 3.545,-3.544 v 0 h 0.001 l -0.001,-6.348 c -0.003,-1.96 -1.586,-3.544 -3.545,-3.546 v 0 h -7.434 c -1.959,0.002 -3.542,1.587 -3.546,3.546 z"
   id="path4322"
   inkscape:connector-curvature="0"
   style="fill:#000000" />
</g>
<g
   id="g4330"
   style="fill:#000000">
	<path
   d="m 167.574,201.483 c -0.646,-0.002 -1.168,-0.524 -1.169,-1.17 v 0 l 0.001,-22.211 c 0,-0.646 0.52,-1.168 1.168,-1.168 v 0 h 22.213 c 0.646,0 1.167,0.522 1.167,1.168 v 0 22.211 c -0.001,0.646 -0.523,1.168 -1.167,1.17 v 0 z m 21.769,-1.611 v -21.328 h -21.327 v 21.328 z"
   id="path4326"
   inkscape:connector-curvature="0"
   style="fill:#000000" />
	<path
   d="m 174.962,197.538 c -2.85,0 -5.157,-2.308 -5.157,-5.154 v 0 l -0.002,-6.348 c 0.002,-2.85 2.309,-5.156 5.159,-5.156 v 0 h 7.435 c 2.848,0 5.156,2.307 5.156,5.156 v 0 6.348 c 0,2.847 -2.309,5.154 -5.156,5.155 v 0 z m -3.546,-11.503 v 6.348 c 0.003,1.956 1.588,3.542 3.546,3.544 v 0 h 7.435 c 1.958,-0.002 3.542,-1.588 3.544,-3.544 v 0 h 0.002 l -0.002,-6.348 c -0.003,-1.96 -1.587,-3.544 -3.544,-3.546 v 0 h -7.435 c -1.958,0.002 -3.543,1.587 -3.546,3.546 z"
   id="path4328"
   inkscape:connector-curvature="0"
   style="fill:#000000" />
</g>
<g
   id="g4336"
   style="fill:#000000">
	<path
   d="m 191.569,201.482 c -0.644,0 -1.167,-0.522 -1.169,-1.168 v 0 l 0.002,-22.213 c 0,-0.646 0.521,-1.165 1.167,-1.168 v 0 h 22.214 c 0.645,0.002 1.166,0.522 1.167,1.168 v 0 22.213 c 0,0.646 -0.523,1.168 -1.167,1.169 v 0 z m 21.769,-1.609 v -21.328 h -21.327 v 21.326 z"
   id="path4332"
   inkscape:connector-curvature="0"
   style="fill:#000000" />
	<path
   d="m 198.958,197.538 c -2.848,0 -5.156,-2.308 -5.156,-5.154 v 0 -6.348 c 0,-2.85 2.309,-5.156 5.156,-5.156 v 0 h 7.434 c 2.849,0 5.158,2.307 5.158,5.156 v 0 6.348 c 0,2.845 -2.309,5.154 -5.158,5.155 v 0 z m -3.547,-11.503 v 6.348 c 0.003,1.956 1.588,3.542 3.546,3.544 v 0 h 7.434 c 1.958,-0.002 3.542,-1.588 3.547,-3.544 v 0 -6.348 c -0.005,-1.96 -1.588,-3.544 -3.547,-3.546 v 0 h -7.434 c -1.957,0.002 -3.543,1.587 -3.546,3.546 z"
   id="path4334"
   inkscape:connector-curvature="0"
   style="fill:#000000" />
</g>
<g
   id="g4342"
   style="fill:#000000">
	<path
   d="m 215.565,201.483 c -0.644,-0.002 -1.167,-0.524 -1.169,-1.17 v 0 l 0.002,-22.211 c 0,-0.644 0.52,-1.168 1.167,-1.168 v 0 h 22.213 c 0.646,0 1.166,0.522 1.168,1.168 v 0 22.211 c -0.002,0.646 -0.523,1.168 -1.168,1.17 v 0 z m 21.77,-1.611 v -21.328 h -21.326 l -10e-4,21.328 z"
   id="path4338"
   inkscape:connector-curvature="0"
   style="fill:#000000" />
	<path
   d="m 222.954,197.539 c -2.849,-10e-4 -5.157,-2.31 -5.157,-5.156 v 0 -6.348 c 0,-2.85 2.309,-5.156 5.157,-5.156 v 0 h 7.434 c 2.848,0 5.156,2.307 5.156,5.156 v 0 6.348 c 0,2.847 -2.308,5.155 -5.156,5.156 v 0 z m -3.547,-11.504 v 6.348 c 0.004,1.956 1.588,3.542 3.547,3.544 v 0 h 7.433 c 1.959,-0.002 3.544,-1.588 3.547,-3.544 v 0 -6.348 c -0.003,-1.96 -1.588,-3.544 -3.547,-3.546 v 0 h -7.433 c -1.958,0.002 -3.542,1.587 -3.547,3.546 z"
   id="path4340"
   inkscape:connector-curvature="0"
   style="fill:#000000" />
</g>
<g
   id="g4348"
   style="fill:#000000">
	<path
   d="m 239.561,201.482 c -0.644,0 -1.167,-0.524 -1.167,-1.168 v 0 -22.213 c 0,-0.644 0.521,-1.165 1.167,-1.168 v 0 h 22.213 c 0.646,0.002 1.168,0.524 1.168,1.168 v 0 22.213 c -0.001,0.644 -0.522,1.168 -1.168,1.169 v 0 z m 21.769,-1.609 v -21.328 h -21.326 v 21.326 z"
   id="path4344"
   inkscape:connector-curvature="0"
   style="fill:#000000" />
	<path
   d="m 246.949,197.539 c -2.848,-10e-4 -5.157,-2.31 -5.157,-5.156 v 0 -6.348 c 0,-2.85 2.309,-5.156 5.157,-5.156 v 0 h 7.434 c 2.85,0 5.157,2.307 5.157,5.156 v 0 6.348 h 10e-4 c -10e-4,2.846 -2.309,5.155 -5.159,5.156 v 0 z m -3.547,-11.504 v 6.348 c 0.005,1.956 1.59,3.542 3.547,3.544 v 0 h 7.434 c 1.959,-0.002 3.543,-1.588 3.547,-3.544 v 0 -6.348 c -0.003,-1.96 -1.587,-3.544 -3.547,-3.546 v 0 h -7.434 c -1.958,0.002 -3.542,1.587 -3.547,3.546 z"
   id="path4346"
   inkscape:connector-curvature="0"
   style="fill:#000000" />
</g>
<g
   id="g4354"
   style="fill:#000000">
	<path
   d="m 263.558,201.482 c -0.645,0 -1.168,-0.524 -1.169,-1.168 v 0 l 10e-4,-22.213 c 0,-0.644 0.521,-1.165 1.168,-1.168 v 0 h 22.213 c 0.646,0.002 1.167,0.524 1.167,1.168 v 0 22.213 c 0,0.644 -0.522,1.168 -1.167,1.169 v 0 z m 21.769,-1.609 V 178.545 H 264 v 21.326 z"
   id="path4350"
   inkscape:connector-curvature="0"
   style="fill:#000000" />
	<path
   d="m 270.946,197.538 c -2.85,0 -5.159,-2.308 -5.159,-5.154 v 0 -6.348 c 0,-2.85 2.309,-5.156 5.159,-5.156 v 0 h 7.434 c 2.848,0 5.157,2.307 5.157,5.156 v 0 6.348 c -10e-4,2.845 -2.309,5.154 -5.157,5.155 v 0 z m -3.548,-11.503 0.002,6.348 c 0.003,1.956 1.589,3.542 3.547,3.544 v 0 h 7.434 c 1.958,-0.002 3.542,-1.588 3.544,-3.544 v 0 h 0.002 l -0.002,-6.348 c -0.002,-1.96 -1.586,-3.544 -3.544,-3.546 v 0 h -7.435 c -1.96,0.002 -3.543,1.587 -3.548,3.546 z"
   id="path4352"
   inkscape:connector-curvature="0"
   style="fill:#000000" />
</g>
<g
   id="g4360"
   style="fill:#000000">
	<path
   d="m 287.553,201.482 c -0.645,0 -1.168,-0.524 -1.168,-1.168 v 0 -22.213 c 0,-0.644 0.521,-1.165 1.168,-1.168 v 0 h 22.212 c 0.648,0.002 1.166,0.522 1.167,1.168 v 0 22.213 c 0,0.646 -0.521,1.168 -1.167,1.169 v 0 z m 21.768,-1.609 0.002,-21.328 h -21.328 l -10e-4,21.326 z"
   id="path4356"
   inkscape:connector-curvature="0"
   style="fill:#000000" />
	<path
   d="m 294.942,197.538 c -2.851,0 -5.157,-2.308 -5.159,-5.154 v 0 -6.348 c 10e-4,-2.85 2.311,-5.156 5.159,-5.156 v 0 h 7.434 c 2.848,0 5.156,2.307 5.156,5.156 v 0 6.348 c 0,2.847 -2.309,5.154 -5.156,5.155 v 0 z m -3.547,-11.503 v 6.348 c 0.003,1.956 1.588,3.542 3.547,3.544 v 0 h 7.434 c 1.957,-0.002 3.542,-1.588 3.545,-3.544 v 0 h 0.002 l -0.002,-6.348 c -0.003,-1.96 -1.586,-3.544 -3.545,-3.546 v 0 h -7.434 c -1.959,0.002 -3.544,1.587 -3.547,3.546 z"
   id="path4358"
   inkscape:connector-curvature="0"
   style="fill:#000000" />
</g>
<g
   id="g4366"
   style="fill:#000000">
	<path
   d="m 311.549,201.483 c -0.645,-0.002 -1.167,-0.524 -1.169,-1.17 v 0 l 0.002,-22.212 c 0,-0.644 0.521,-1.166 1.167,-1.168 v 0 h 22.213 c 0.646,0.002 1.166,0.521 1.168,1.168 v 0 22.212 h -0.002 c 0,0.646 -0.522,1.168 -1.166,1.17 v 0 z m 21.77,-1.61 v -21.329 h -21.327 v 21.327 z"
   id="path4362"
   inkscape:connector-curvature="0"
   style="fill:#000000" />
	<path
   d="m 318.938,197.538 c -2.85,0 -5.159,-2.309 -5.159,-5.155 v 0 -6.347 c 0,-2.85 2.31,-5.157 5.159,-5.157 v 0 h 7.435 c 2.846,0 5.153,2.308 5.153,5.157 v 0 6.347 h 0.002 c -0.002,2.847 -2.31,5.155 -5.155,5.155 v 0 z m -3.548,-11.502 0.002,6.347 c 0.003,1.956 1.588,3.541 3.547,3.544 v 0 h 7.435 c 1.955,-0.003 3.541,-1.588 3.544,-3.544 v 0 -6.347 c -0.003,-1.961 -1.589,-3.544 -3.544,-3.547 v 0 l -7.435,-0.001 c -1.96,0.004 -3.544,1.588 -3.549,3.548 z"
   id="path4364"
   inkscape:connector-curvature="0"
   style="fill:#000000" />
</g>
<g
   id="g4372"
   style="fill:#000000">
	<path
   d="m 335.544,201.483 c -0.646,-0.002 -1.168,-0.524 -1.17,-1.169 v 0 l 0.002,-22.213 c 0,-0.645 0.521,-1.167 1.168,-1.169 v 0 h 22.213 c 0.646,0.002 1.166,0.523 1.169,1.169 v 0 22.213 h -0.003 c 0,0.645 -0.521,1.167 -1.166,1.169 v 0 z m 21.769,-1.611 0.002,-21.328 h -21.329 l -10e-4,21.328 z"
   id="path4368"
   inkscape:connector-curvature="0"
   style="fill:#000000" />
	<path
   d="m 342.933,197.538 c -2.849,0 -5.155,-2.309 -5.155,-5.154 v 0 l -0.002,-6.348 c 0.002,-2.85 2.309,-5.156 5.157,-5.158 v 0 l 7.434,0.002 c 2.849,0 5.157,2.307 5.157,5.156 v 0 6.348 h 0.002 c -0.002,2.846 -2.311,5.154 -5.159,5.155 v 0 z m -3.547,-11.503 0.002,6.348 c 0.003,1.956 1.587,3.541 3.545,3.544 v 0 h 7.434 c 1.958,-0.003 3.543,-1.588 3.547,-3.544 v 0 h 0.002 l -0.002,-6.348 c -0.004,-1.959 -1.591,-3.543 -3.547,-3.546 v 0 l -7.434,-0.001 c -1.958,0.004 -3.542,1.588 -3.547,3.547 z"
   id="path4370"
   inkscape:connector-curvature="0"
   style="fill:#000000" />
</g>
<g
   id="g4378"
   style="fill:#000000">
	<path
   d="m 359.539,201.482 c -0.645,0 -1.167,-0.522 -1.168,-1.168 v 0 l 0.001,-22.212 c 0.002,-0.647 0.521,-1.166 1.167,-1.17 v 0 l 22.213,0.002 c 0.647,0 1.167,0.524 1.169,1.168 v 0 22.212 h -0.002 c 0,0.644 -0.522,1.168 -1.167,1.169 v 0 z m 21.772,-1.61 v -21.327 h -21.327 l -0.002,21.327 z"
   id="path4374"
   inkscape:connector-curvature="0"
   style="fill:#000000" />
	<path
   d="m 366.929,197.538 c -2.85,0 -5.157,-2.309 -5.157,-5.156 v 0 -6.347 c 0,-2.849 2.311,-5.156 5.157,-5.156 v 0 h 7.434 c 2.849,0 5.157,2.308 5.157,5.156 v 0 6.347 h 0.002 c -0.002,2.848 -2.311,5.156 -5.159,5.156 v 0 z m -3.547,-11.503 v 6.347 c 0.005,1.957 1.591,3.542 3.547,3.545 v 0 h 7.434 c 1.958,-0.003 3.544,-1.588 3.547,-3.545 v 0 -6.347 c -0.003,-1.96 -1.589,-3.543 -3.547,-3.546 v 0 l -7.434,-0.001 c -1.96,0.004 -3.542,1.588 -3.547,3.547 z"
   id="path4376"
   inkscape:connector-curvature="0"
   style="fill:#000000" />
</g>
<g
   id="g4384"
   style="fill:#000000">
	<path
   d="m 383.535,201.483 c -0.645,-0.002 -1.165,-0.524 -1.168,-1.169 v 0 -22.213 c 0,-0.644 0.521,-1.166 1.168,-1.168 v 0 h 22.213 c 0.648,0.004 1.166,0.522 1.169,1.168 v 0 22.213 h -0.002 c 0,0.646 -0.522,1.169 -1.167,1.169 v 0 z m 21.772,-1.611 V 178.544 H 383.98 v 21.328 z"
   id="path4380"
   inkscape:connector-curvature="0"
   style="fill:#000000" />
	<path
   d="m 390.925,197.538 c -2.849,0 -5.156,-2.309 -5.156,-5.156 v 0 l -0.002,-6.347 c 0.002,-2.849 2.31,-5.156 5.158,-5.157 v 0 l 7.434,0.001 c 2.85,0 5.158,2.308 5.158,5.156 v 0 6.347 h 10e-4 c -10e-4,2.848 -2.31,5.156 -5.159,5.156 v 0 z m -3.546,-11.503 v 6.347 c 0.002,1.957 1.588,3.543 3.546,3.544 v 0 l 7.434,0.002 c 1.96,-0.003 3.544,-1.589 3.547,-3.546 v 0 -6.347 c -0.003,-1.96 -1.588,-3.543 -3.547,-3.546 v 0 l -7.434,-0.001 c -1.959,0.004 -3.544,1.588 -3.546,3.547 z"
   id="path4382"
   inkscape:connector-curvature="0"
   style="fill:#000000" />
</g>
<g
   id="g4390"
   style="fill:#000000">
	<path
   d="m 407.531,201.483 c -0.645,-0.002 -1.165,-0.525 -1.168,-1.168 v 0 l 0.003,-22.213 c 0,-0.646 0.519,-1.168 1.165,-1.17 v 0 l 22.213,0.002 c 0.646,0 1.167,0.522 1.168,1.168 v 0 22.213 h -10e-4 c 0,0.643 -0.521,1.166 -1.167,1.168 v 0 z m 21.769,-1.61 v -21.329 h -21.324 l -0.002,21.327 z"
   id="path4386"
   inkscape:connector-curvature="0"
   style="fill:#000000" />
	<path
   d="m 414.921,197.538 c -2.848,0 -5.157,-2.309 -5.157,-5.154 v 0 -6.348 c 0,-2.848 2.31,-5.156 5.157,-5.158 v 0 h 7.434 c 2.849,0 5.156,2.311 5.156,5.158 v 0 6.348 h 0.002 c -0.002,2.846 -2.31,5.154 -5.158,5.155 v 0 z m -3.547,-11.502 v 6.347 c 0.003,1.956 1.587,3.542 3.545,3.544 v 0 h 7.435 c 1.96,-0.002 3.543,-1.588 3.547,-3.544 v 0 h 10e-4 l -10e-4,-6.347 c -0.004,-1.961 -1.589,-3.545 -3.547,-3.547 v 0 h -7.435 c -1.958,0.002 -3.542,1.587 -3.545,3.547 z"
   id="path4388"
   inkscape:connector-curvature="0"
   style="fill:#000000" />
</g>
<g
   id="g4396"
   style="fill:#000000">
	<path
   d="m 431.526,201.482 c -0.646,0 -1.166,-0.523 -1.167,-1.169 v 0 l 0.001,-22.212 c 0,-0.644 0.52,-1.167 1.168,-1.169 v 0 l 22.213,0.002 c 0.645,0 1.166,0.522 1.168,1.167 v 0 22.212 h -0.002 c 0,0.646 -0.521,1.169 -1.166,1.17 v 0 z m 21.771,-1.609 10e-4,-21.328 -21.327,-10e-4 -10e-4,21.327 z"
   id="path4392"
   inkscape:connector-curvature="0"
   style="fill:#000000" />
	<path
   d="m 438.917,197.538 c -2.85,0 -5.155,-2.308 -5.155,-5.155 v 0 l -0.002,-6.347 c 0.002,-2.848 2.31,-5.156 5.157,-5.157 v 0 h 7.434 c 2.849,0.001 5.156,2.31 5.156,5.157 v 0 6.347 h 10e-4 c -10e-4,2.848 -2.309,5.155 -5.157,5.156 v 0 z m -3.547,-11.503 v 6.347 c 0.004,1.958 1.587,3.543 3.547,3.545 v 0 h 7.433 c 1.957,-0.002 3.544,-1.588 3.547,-3.545 v 0 -6.347 c -0.003,-1.96 -1.588,-3.543 -3.547,-3.546 v 0 l -7.433,-0.001 c -1.96,0.004 -3.543,1.588 -3.547,3.547 z"
   id="path4394"
   inkscape:connector-curvature="0"
   style="fill:#000000" />
</g>
<g
   id="g4402"
   style="fill:#000000">
	<path
   d="m 131.248,225.698 c -0.646,0 -1.169,-0.521 -1.169,-1.166 v 0 -22.213 c 0,-0.646 0.523,-1.167 1.169,-1.169 v 0 l 22.212,0.002 c 0.645,0 1.167,0.521 1.168,1.167 v 0 22.213 h -10e-4 c 0,0.646 -0.523,1.166 -1.167,1.168 v 0 z m 21.768,-1.609 v -21.327 h -21.327 v 21.327 z"
   id="path4398"
   inkscape:connector-curvature="0"
   style="fill:#000000" />
	<path
   d="m 138.636,221.755 c -2.849,0 -5.157,-2.307 -5.157,-5.155 v 0 -6.348 c 0,-2.848 2.309,-5.157 5.157,-5.157 v 0 h 7.435 c 2.85,0 5.156,2.31 5.157,5.157 v 0 6.348 c -0.001,2.849 -2.309,5.155 -5.157,5.157 v 0 z m -3.547,-11.503 v 6.348 c 0.003,1.96 1.587,3.543 3.547,3.545 v 0 h 7.435 c 1.96,-0.002 3.542,-1.586 3.545,-3.545 v 0 l 0.002,-6.348 c -0.005,-1.959 -1.59,-3.542 -3.547,-3.547 v 0 h -7.435 c -1.958,0.003 -3.544,1.59 -3.547,3.547 z"
   id="path4400"
   inkscape:connector-curvature="0"
   style="fill:#000000" />
</g>
<g
   id="g4408"
   style="fill:#000000">
	<path
   d="m 155.243,225.698 c -0.645,0 -1.168,-0.522 -1.168,-1.166 v 0 -22.213 c 0,-0.643 0.523,-1.167 1.168,-1.169 v 0 l 22.211,0.002 c 0.645,0 1.168,0.521 1.168,1.167 v 0 22.213 c 0,0.646 -0.523,1.166 -1.168,1.168 v 0 z m 21.77,-1.609 v -21.327 h -21.327 v 21.327 z"
   id="path4404"
   inkscape:connector-curvature="0"
   style="fill:#000000" />
	<path
   d="m 162.631,221.755 c -2.849,0 -5.155,-2.307 -5.157,-5.155 v 0 l 0.001,-6.348 c 0,-2.848 2.307,-5.157 5.155,-5.157 v 0 h 7.435 c 2.849,0 5.158,2.31 5.158,5.157 v 0 6.348 c 0,2.849 -2.309,5.155 -5.158,5.157 v 0 z m -3.545,-11.503 v 6.348 c 0.004,1.96 1.587,3.543 3.545,3.545 v 0 l 7.435,0.002 c 1.959,-0.004 3.543,-1.588 3.547,-3.547 v 0 -6.348 c -0.004,-1.959 -1.587,-3.542 -3.547,-3.547 v 0 h -7.435 c -1.958,0.003 -3.541,1.588 -3.545,3.547 z"
   id="path4406"
   inkscape:connector-curvature="0"
   style="fill:#000000" />
</g>
<g
   id="g4414"
   style="fill:#000000">
	<path
   d="m 179.238,225.699 c -0.643,-0.001 -1.168,-0.521 -1.168,-1.165 v 0 -22.214 c 0.001,-0.646 0.523,-1.167 1.168,-1.169 v 0 h 22.213 c 0.645,0.002 1.167,0.523 1.168,1.169 v 0 22.214 c 0,0.643 -0.523,1.165 -1.168,1.165 v 0 z m 21.77,-1.61 10e-4,-21.328 H 179.68 v 21.328 z"
   id="path4410"
   inkscape:connector-curvature="0"
   style="fill:#000000" />
	<path
   d="m 186.627,221.757 c -2.849,-0.002 -5.157,-2.309 -5.157,-5.157 v 0 -6.348 c 0,-2.848 2.309,-5.157 5.157,-5.157 v 0 h 7.435 c 2.849,0 5.156,2.31 5.156,5.157 v 0 6.348 c 0,2.849 -2.307,5.155 -5.156,5.157 v 0 z m -3.545,-11.505 v 6.348 c 0.003,1.96 1.587,3.543 3.546,3.545 v 0 h 7.435 c 1.957,-0.002 3.541,-1.586 3.545,-3.545 v 0 l 0.001,-6.348 c -0.004,-1.959 -1.59,-3.542 -3.546,-3.547 v 0 h -7.435 c -1.959,0.003 -3.544,1.588 -3.546,3.547 z"
   id="path4412"
   inkscape:connector-curvature="0"
   style="fill:#000000" />
</g>
<g
   id="g4420"
   style="fill:#000000">
	<path
   d="m 203.234,225.698 c -0.645,0 -1.168,-0.521 -1.168,-1.166 v 0 -22.213 c 0.001,-0.646 0.523,-1.167 1.168,-1.169 v 0 l 22.214,0.002 c 0.644,0 1.167,0.52 1.167,1.167 v 0 22.213 c 0,0.647 -0.524,1.166 -1.167,1.168 v 0 z m 21.771,-1.609 v -21.327 h -21.328 v 21.327 z"
   id="path4416"
   inkscape:connector-curvature="0"
   style="fill:#000000" />
	<path
   d="m 210.623,221.755 c -2.848,0 -5.156,-2.307 -5.157,-5.155 v 0 l 0.001,-6.348 c 0,-2.848 2.308,-5.157 5.156,-5.157 v 0 h 7.435 c 2.849,0 5.157,2.31 5.157,5.157 v 0 6.348 c 0,2.849 -2.309,5.155 -5.157,5.157 v 0 z m -3.547,-11.503 v 6.348 c 0.005,1.96 1.589,3.543 3.546,3.545 v 0 h 7.435 c 1.959,-0.002 3.543,-1.586 3.546,-3.545 v 0 -6.348 c -0.003,-1.959 -1.588,-3.542 -3.546,-3.547 v 0 h -7.435 c -1.956,0.003 -3.541,1.588 -3.546,3.547 z"
   id="path4418"
   inkscape:connector-curvature="0"
   style="fill:#000000" />
</g>
<g
   id="g4426"
   style="fill:#000000">
	<path
   d="m 227.23,225.698 c -0.643,0 -1.167,-0.521 -1.168,-1.166 v 0 l 10e-4,-22.213 c 0,-0.646 0.521,-1.167 1.167,-1.169 v 0 l 22.212,0.002 c 0.646,0 1.167,0.524 1.169,1.167 v 0 22.213 c -0.002,0.644 -0.525,1.166 -1.169,1.168 v 0 z m 21.77,-1.609 0.002,-21.327 h -21.327 v 21.327 z"
   id="path4422"
   inkscape:connector-curvature="0"
   style="fill:#000000" />
	<path
   d="m 234.62,221.755 c -2.849,0 -5.158,-2.307 -5.158,-5.155 v 0 -6.348 c 0,-2.848 2.309,-5.157 5.158,-5.157 v 0 h 7.435 c 2.849,0 5.155,2.31 5.155,5.157 v 0 6.348 c 0,2.849 -2.309,5.155 -5.155,5.157 v 0 z m -3.547,-11.503 v 6.348 c 0.003,1.96 1.588,3.543 3.547,3.545 v 0 l 7.435,0.002 c 1.958,-0.004 3.542,-1.588 3.545,-3.547 v 0 -6.348 c -0.003,-1.959 -1.587,-3.542 -3.545,-3.547 v 0 h -7.435 c -1.96,0.003 -3.543,1.588 -3.547,3.547 z"
   id="path4424"
   inkscape:connector-curvature="0"
   style="fill:#000000" />
</g>
<g
   id="g4432"
   style="fill:#000000">
	<path
   d="m 251.227,225.698 c -0.644,0 -1.169,-0.521 -1.169,-1.166 v 0 -22.213 c 0.002,-0.646 0.525,-1.167 1.169,-1.169 v 0 l 22.212,0.002 c 0.646,0 1.167,0.524 1.169,1.167 v 0 22.213 c -0.002,0.644 -0.523,1.166 -1.169,1.168 v 0 z m 21.768,-1.609 v -21.327 h -21.326 l -0.001,21.327 z"
   id="path4428"
   inkscape:connector-curvature="0"
   style="fill:#000000" />
	<path
   d="m 258.615,221.755 c -2.848,0 -5.156,-2.307 -5.157,-5.155 v 0 l 0.001,-6.348 c 0,-2.848 2.308,-5.157 5.156,-5.157 v 0 h 7.435 c 2.849,0 5.158,2.31 5.158,5.157 v 0 6.348 c 0,2.849 -2.309,5.155 -5.158,5.157 v 0 z m -3.546,-11.503 v 6.348 c 0.003,1.96 1.587,3.543 3.546,3.545 v 0 l 7.435,0.002 c 1.959,-0.004 3.543,-1.588 3.547,-3.547 v 0 -6.348 c -0.003,-1.957 -1.587,-3.542 -3.547,-3.547 v 0 h -7.435 c -1.958,0.003 -3.543,1.588 -3.546,3.547 z"
   id="path4430"
   inkscape:connector-curvature="0"
   style="fill:#000000" />
</g>
<g
   id="g4438"
   style="fill:#000000">
	<path
   d="m 275.223,225.698 c -0.644,0 -1.168,-0.52 -1.168,-1.166 v 0 -22.213 c 10e-4,-0.647 0.525,-1.167 1.168,-1.169 v 0 l 22.213,0.002 c 0.645,0 1.167,0.524 1.168,1.167 v 0 22.213 h -10e-4 c 0,0.644 -0.522,1.166 -1.167,1.168 v 0 z m 21.767,-1.609 10e-4,-21.327 h -21.327 v 21.327 z"
   id="path4434"
   inkscape:connector-curvature="0"
   style="fill:#000000" />
	<path
   d="m 282.611,221.757 c -2.848,-0.002 -5.157,-2.309 -5.157,-5.157 v 0 -6.348 c 0,-2.848 2.309,-5.157 5.157,-5.157 v 0 h 7.433 c 2.849,0 5.158,2.31 5.158,5.157 v 0 6.348 c 0,2.849 -2.309,5.155 -5.158,5.157 v 0 z m -3.545,-11.505 v 6.348 c 0.002,1.96 1.587,3.543 3.546,3.545 v 0 l 7.433,0.002 c 1.959,-0.004 3.543,-1.588 3.547,-3.547 v 0 -6.348 c -0.003,-1.957 -1.588,-3.542 -3.547,-3.547 v 0 h -7.433 c -1.957,0.003 -3.544,1.59 -3.546,3.547 z"
   id="path4436"
   inkscape:connector-curvature="0"
   style="fill:#000000" />
</g>
<g
   id="g4444"
   style="fill:#000000">
	<path
   d="m 299.218,225.698 c -0.645,0 -1.167,-0.52 -1.168,-1.166 v 0 -22.213 c 0,-0.647 0.523,-1.167 1.168,-1.169 v 0 l 22.211,0.002 c 0.646,0 1.167,0.524 1.169,1.167 v 0 22.213 h -0.002 c 0,0.644 -0.521,1.166 -1.167,1.168 v 0 z m 21.768,-1.609 0.001,-21.327 h -21.326 v 21.327 z"
   id="path4440"
   inkscape:connector-curvature="0"
   style="fill:#000000" />
	<path
   d="m 306.606,221.755 c -2.848,0 -5.157,-2.307 -5.157,-5.155 v 0 -6.348 c 0,-2.848 2.31,-5.157 5.157,-5.157 v 0 h 7.436 c 2.849,0 5.155,2.31 5.157,5.157 v 0 6.348 c -0.002,2.849 -2.311,5.155 -5.157,5.157 v 0 z m -3.546,-11.503 v 6.348 c 0.004,1.96 1.588,3.543 3.547,3.545 v 0 l 7.434,0.002 c 1.958,-0.004 3.544,-1.588 3.547,-3.547 v 0 -6.348 c -0.003,-1.957 -1.589,-3.542 -3.547,-3.547 v 0 h -7.434 c -1.958,0.003 -3.544,1.59 -3.547,3.547 z"
   id="path4442"
   inkscape:connector-curvature="0"
   style="fill:#000000" />
</g>
<g
   id="g4450"
   style="fill:#000000">
	<path
   d="m 323.214,225.699 c -0.646,-0.001 -1.166,-0.523 -1.168,-1.167 v 0 -22.212 c 0.002,-0.644 0.522,-1.167 1.168,-1.169 v 0 h 22.212 c 0.645,0.002 1.167,0.525 1.169,1.169 v 0 22.212 h -0.002 c 0,0.644 -0.522,1.166 -1.167,1.167 v 0 z m 21.768,-1.61 v -21.326 l -21.325,-0.002 -0.002,21.327 z"
   id="path4446"
   inkscape:connector-curvature="0"
   style="fill:#000000" />
	<path
   d="m 330.603,221.755 c -2.849,0 -5.155,-2.307 -5.157,-5.156 v 0 l 0.002,-6.347 c 0,-2.847 2.307,-5.156 5.155,-5.156 v 0 h 7.436 c 2.847,0 5.154,2.308 5.155,5.156 v 0 6.347 c -0.001,2.85 -2.31,5.156 -5.155,5.158 v 0 z m -3.547,-11.503 v 6.347 c 0.004,1.96 1.587,3.542 3.547,3.546 v 0 h 7.434 c 1.958,-0.004 3.543,-1.587 3.545,-3.546 v 0 l 0.002,-6.347 c -0.004,-1.957 -1.589,-3.541 -3.547,-3.546 v 0 h -7.434 c -1.96,0.004 -3.543,1.587 -3.547,3.546 z"
   id="path4448"
   inkscape:connector-curvature="0"
   style="fill:#000000" />
</g>
<g
   id="g4456"
   style="fill:#000000">
	<path
   d="m 347.211,225.699 c -0.646,-0.001 -1.167,-0.523 -1.168,-1.166 v 0 -22.214 c 10e-4,-0.645 0.522,-1.166 1.168,-1.168 v 0 h 22.211 c 0.645,0.002 1.167,0.523 1.169,1.168 v 0 22.214 h -0.002 c 0,0.643 -0.522,1.165 -1.167,1.166 v 0 z m 21.768,-1.61 0.002,-21.327 h -21.327 v 21.327 z"
   id="path4452"
   inkscape:connector-curvature="0"
   style="fill:#000000" />
	<path
   d="m 354.6,221.754 c -2.848,0 -5.158,-2.307 -5.158,-5.154 v 0 -6.346 c 0,-2.85 2.308,-5.159 5.158,-5.159 v 0 h 7.433 c 2.85,0 5.156,2.31 5.158,5.159 v 0 6.346 c -0.002,2.848 -2.311,5.154 -5.158,5.157 v 0 z m -3.547,-11.5 v 6.346 c 0.004,1.961 1.587,3.541 3.547,3.546 v 0 h 7.433 c 1.959,-0.005 3.542,-1.586 3.546,-3.546 v 0 -6.346 c -0.004,-1.96 -1.589,-3.543 -3.546,-3.548 v 0 l -7.433,-0.002 c -1.959,0.006 -3.543,1.59 -3.547,3.55 z"
   id="path4454"
   inkscape:connector-curvature="0"
   style="fill:#000000" />
</g>
<g
   id="g4462"
   style="fill:#000000">
	<path
   d="m 371.207,225.699 c -0.645,-0.001 -1.168,-0.522 -1.17,-1.167 v 0 l 0.002,-22.213 c 0,-0.643 0.523,-1.167 1.168,-1.169 v 0 l 22.213,0.002 c 0.644,0 1.165,0.524 1.166,1.167 v 0 22.213 h -0.001 c 0,0.645 -0.521,1.166 -1.165,1.167 v 0 z m 21.769,-1.61 V 202.762 H 371.65 v 21.326 z"
   id="path4458"
   inkscape:connector-curvature="0"
   style="fill:#000000" />
	<path
   d="m 378.596,221.757 c -2.851,0 -5.158,-2.31 -5.159,-5.157 v 0 l 10e-4,-6.348 c 0,-2.848 2.308,-5.157 5.158,-5.157 v 0 h 7.433 c 2.849,0 5.156,2.31 5.156,5.157 v 0 6.348 c 0,2.848 -2.308,5.157 -5.157,5.157 v 0 z m -3.547,-11.505 v 6.348 c 0.002,1.959 1.587,3.542 3.547,3.545 v 0 h 7.433 c 1.961,-0.003 3.542,-1.587 3.546,-3.545 v 0 -6.348 c -0.004,-1.958 -1.587,-3.542 -3.546,-3.547 v 0 h -7.433 c -1.958,0.003 -3.545,1.589 -3.547,3.547 z"
   id="path4460"
   inkscape:connector-curvature="0"
   style="fill:#000000" />
</g>
<g
   id="g4468"
   style="fill:#000000">
	<path
   d="m 395.202,225.698 c -0.646,0 -1.168,-0.522 -1.169,-1.166 v 0 l 10e-4,-22.213 c 0,-0.645 0.522,-1.166 1.168,-1.168 v 0 h 22.214 c 0.645,0.002 1.165,0.525 1.167,1.168 v 0 22.213 h -0.002 c 0,0.644 -0.521,1.166 -1.165,1.168 v 0 z m 21.769,-1.609 10e-4,-21.328 h -21.327 v 21.328 z"
   id="path4464"
   inkscape:connector-curvature="0"
   style="fill:#000000" />
	<path
   d="m 402.589,221.757 c -2.848,-0.002 -5.157,-2.309 -5.157,-5.157 v 0 -6.347 c 0,-2.849 2.31,-5.158 5.157,-5.158 v 0 h 7.437 c 2.846,0 5.155,2.31 5.155,5.158 v 0 6.347 c 0,2.849 -2.31,5.155 -5.155,5.157 v 0 z m -3.545,-11.504 v 6.347 c 0.004,1.959 1.588,3.542 3.545,3.546 v 0 h 7.437 c 1.958,-0.004 3.543,-1.588 3.545,-3.546 v 0 l 0.002,-6.347 c -0.004,-1.958 -1.591,-3.542 -3.547,-3.548 v 0 h -7.437 c -1.957,0.005 -3.541,1.59 -3.545,3.548 z"
   id="path4466"
   inkscape:connector-curvature="0"
   style="fill:#000000" />
</g>
<g
   id="g4474"
   style="fill:#000000">
	<path
   d="m 419.196,225.699 c -0.645,-0.002 -1.166,-0.522 -1.167,-1.167 v 0 -22.214 c 10e-4,-0.642 0.522,-1.166 1.167,-1.168 v 0 l 22.213,0.002 c 0.643,0 1.168,0.52 1.17,1.166 v 0 22.214 h -0.002 c 0,0.646 -0.525,1.165 -1.168,1.167 v 0 z m 21.771,-1.61 0.002,-21.326 -21.327,-0.002 -0.002,21.327 z"
   id="path4470"
   inkscape:connector-curvature="0"
   style="fill:#000000" />
	<path
   d="m 426.586,221.757 c -2.849,-0.002 -5.156,-2.309 -5.156,-5.157 v 0 -6.347 c 0,-2.85 2.308,-5.157 5.156,-5.159 v 0 h 7.435 c 2.848,0.002 5.155,2.31 5.156,5.159 v 0 6.347 c -0.001,2.849 -2.309,5.155 -5.156,5.157 v 0 z m -3.546,-11.504 v 6.347 c 0.004,1.96 1.587,3.541 3.546,3.545 v 0 h 7.435 c 1.957,-0.004 3.541,-1.586 3.546,-3.545 v 0 -6.347 c -0.005,-1.959 -1.589,-3.542 -3.546,-3.547 v 0 h -7.435 c -1.957,0.004 -3.542,1.588 -3.546,3.547 z"
   id="path4472"
   inkscape:connector-curvature="0"
   style="fill:#000000" />
</g>
<g
   id="g4480"
   style="fill:#000000">
	<path
   d="m 444.099,225.698 c -0.646,0 -1.166,-0.52 -1.169,-1.165 v 0 -22.215 c 0,-0.646 0.523,-1.167 1.169,-1.167 v 0 h 22.214 c 0.644,0.002 1.167,0.523 1.169,1.167 v 0 22.215 h -0.002 c 0,0.643 -0.523,1.165 -1.167,1.167 v 0 z m 21.769,-1.609 v -21.326 l -21.326,-0.002 -10e-4,21.328 z"
   id="path4476"
   inkscape:connector-curvature="0"
   style="fill:#000000" />
	<path
   d="m 451.487,221.755 c -2.848,0 -5.155,-2.308 -5.155,-5.155 v 0 -6.347 c 0,-2.85 2.308,-5.157 5.155,-5.159 v 0 h 7.437 c 2.848,0.002 5.155,2.31 5.155,5.159 v 0 6.347 c 0,2.848 -2.308,5.155 -5.155,5.157 v 0 z m -3.545,-11.502 v 6.347 c 0.004,1.961 1.587,3.541 3.545,3.545 v 0 h 7.437 c 1.957,-0.004 3.541,-1.585 3.545,-3.545 v 0 l 0.001,-6.347 c -0.005,-1.959 -1.589,-3.543 -3.546,-3.548 v 0 h -7.437 c -1.956,0.003 -3.541,1.589 -3.545,3.548 z"
   id="path4478"
   inkscape:connector-curvature="0"
   style="fill:#000000" />
</g>
<g
   id="g4486"
   style="fill:#000000">
	<path
   d="m 137.533,249.917 c -0.647,0 -1.168,-0.521 -1.169,-1.167 v 0 -22.212 c 0.001,-0.644 0.525,-1.167 1.169,-1.169 v 0 h 22.212 c 0.644,0.002 1.168,0.525 1.169,1.169 v 0 22.212 h -10e-4 c 0,0.646 -0.521,1.166 -1.168,1.168 v 0 z m 21.771,-1.609 V 226.98 h -21.329 v 21.326 z"
   id="path4482"
   inkscape:connector-curvature="0"
   style="fill:#000000" />
	<path
   d="m 144.923,245.974 c -2.849,0 -5.158,-2.309 -5.158,-5.157 v 0 -6.347 c 0,-2.849 2.309,-5.155 5.158,-5.157 v 0 l 7.433,0.002 c 2.85,0 5.157,2.307 5.158,5.155 v 0 6.347 c -0.001,2.848 -2.309,5.157 -5.158,5.158 v 0 z m -3.548,-11.504 v 6.347 c 0.003,1.959 1.588,3.543 3.547,3.547 v 0 h 7.434 c 1.957,-0.004 3.542,-1.589 3.547,-3.547 v 0 l -0.002,-6.347 c -0.003,-1.958 -1.588,-3.542 -3.545,-3.546 v 0 h -7.434 c -1.958,0.003 -3.544,1.588 -3.547,3.546 z"
   id="path4484"
   inkscape:connector-curvature="0"
   style="fill:#000000" />
</g>
<g
   id="g4492"
   style="fill:#000000">
	<path
   d="m 161.529,249.918 c -0.647,-0.002 -1.167,-0.521 -1.169,-1.168 v 0 -22.211 c 0,-0.647 0.525,-1.169 1.169,-1.169 v 0 h 22.213 c 0.645,0 1.167,0.522 1.168,1.169 v 0 22.211 h -0.001 c 0,0.647 -0.521,1.166 -1.167,1.168 v 0 z m 21.77,-1.61 V 226.98 h -21.328 v 21.328 z"
   id="path4488"
   inkscape:connector-curvature="0"
   style="fill:#000000" />
	<path
   d="m 168.918,245.974 c -2.849,0 -5.159,-2.31 -5.159,-5.157 v 0 -6.347 c 0,-2.849 2.31,-5.155 5.159,-5.157 v 0 l 7.433,0.002 c 2.849,0 5.156,2.307 5.158,5.155 v 0 6.347 c -0.002,2.848 -2.309,5.157 -5.158,5.158 v 0 z m -3.547,-11.504 v 6.347 c 0.005,1.959 1.588,3.543 3.548,3.547 v 0 h 7.433 c 1.958,-0.004 3.543,-1.589 3.547,-3.547 v 0 l -0.001,-6.347 c -0.003,-1.958 -1.588,-3.542 -3.546,-3.546 v 0 h -7.433 c -1.96,0.003 -3.544,1.588 -3.548,3.546 z"
   id="path4490"
   inkscape:connector-curvature="0"
   style="fill:#000000" />
</g>
<g
   id="g4498"
   style="fill:#000000">
	<path
   d="m 185.525,249.917 c -0.647,0 -1.168,-0.521 -1.169,-1.167 v 0 l 0.001,-22.212 c 0,-0.644 0.522,-1.167 1.168,-1.169 v 0 h 22.213 c 0.644,0.002 1.167,0.522 1.167,1.169 v 0 22.212 c -0.001,0.647 -0.522,1.164 -1.167,1.168 v 0 z m 21.769,-1.609 V 226.98 h -21.328 v 21.326 z"
   id="path4494"
   inkscape:connector-curvature="0"
   style="fill:#000000" />
	<path
   d="m 192.914,245.975 c -2.85,-0.001 -5.158,-2.31 -5.158,-5.158 v 0 -6.347 c 0,-2.849 2.309,-5.155 5.158,-5.157 v 0 h 7.434 c 2.848,0.002 5.157,2.309 5.157,5.157 v 0 6.347 c 0,2.849 -2.309,5.157 -5.157,5.158 v 0 z m -3.548,-11.505 v 6.347 c 0.005,1.959 1.59,3.543 3.548,3.547 v 0 h 7.434 c 1.957,-0.004 3.541,-1.589 3.547,-3.547 v 0 -6.347 c -0.005,-1.958 -1.59,-3.542 -3.547,-3.546 v 0 h -7.434 c -1.958,0.003 -3.543,1.588 -3.548,3.546 z"
   id="path4496"
   inkscape:connector-curvature="0"
   style="fill:#000000" />
</g>
<g
   id="g4504"
   style="fill:#000000">
	<path
   d="m 209.522,249.917 c -0.648,-0.002 -1.167,-0.52 -1.169,-1.167 v 0 -22.212 c 0,-0.646 0.523,-1.167 1.169,-1.169 v 0 h 22.211 c 0.644,0.002 1.168,0.525 1.168,1.169 v 0 22.212 c 0,0.646 -0.522,1.166 -1.168,1.168 v 0 z m 21.768,-1.609 0.001,-21.328 h -21.328 v 21.326 z"
   id="path4500"
   inkscape:connector-curvature="0"
   style="fill:#000000" />
	<path
   d="m 216.91,245.974 c -2.85,0 -5.157,-2.31 -5.158,-5.157 v 0 -6.347 c 10e-4,-2.849 2.309,-5.155 5.158,-5.157 v 0 l 7.435,0.002 c 2.848,0 5.155,2.309 5.156,5.155 v 0 6.347 c -0.001,2.848 -2.309,5.157 -5.156,5.158 v 0 z m -3.547,-11.504 v 6.347 c 0.004,1.959 1.589,3.543 3.547,3.547 v 0 h 7.435 c 1.958,-0.004 3.542,-1.589 3.544,-3.547 v 0 -6.347 c -0.003,-1.958 -1.586,-3.542 -3.544,-3.546 v 0 h -7.435 c -1.958,0.003 -3.543,1.588 -3.547,3.546 z"
   id="path4502"
   inkscape:connector-curvature="0"
   style="fill:#000000" />
</g>
<g
   id="g4510"
   style="fill:#000000">
	<path
   d="m 233.516,249.918 c -0.646,-0.002 -1.166,-0.521 -1.167,-1.168 v 0 -22.211 c 0.001,-0.646 0.523,-1.169 1.167,-1.169 v 0 h 22.213 c 0.646,0 1.167,0.522 1.167,1.169 v 0 22.211 c -0.001,0.647 -0.52,1.166 -1.167,1.168 v 0 z m 21.769,-1.61 0.002,-21.328 h -21.329 v 21.328 z"
   id="path4506"
   inkscape:connector-curvature="0"
   style="fill:#000000" />
	<path
   d="m 240.906,245.975 c -2.85,-0.001 -5.156,-2.311 -5.159,-5.158 v 0 -6.347 c 0.002,-2.849 2.309,-5.155 5.159,-5.157 v 0 l 7.435,0.002 c 2.847,0 5.156,2.307 5.156,5.155 v 0 6.347 c 0,2.848 -2.309,5.157 -5.156,5.158 v 0 z m -3.548,-11.505 v 6.347 c 0.005,1.959 1.59,3.543 3.548,3.547 v 0 h 7.435 c 1.958,-0.004 3.541,-1.589 3.546,-3.547 v 0 l -0.001,-6.347 c -0.003,-1.958 -1.586,-3.542 -3.544,-3.546 v 0 h -7.435 c -1.961,0.003 -3.544,1.588 -3.549,3.546 z"
   id="path4508"
   inkscape:connector-curvature="0"
   style="fill:#000000" />
</g>
<g
   id="g4516"
   style="fill:#000000">
	<path
   d="m 257.513,249.917 c -0.647,0 -1.167,-0.521 -1.169,-1.167 v 0 l 0.002,-22.212 c 0,-0.644 0.521,-1.167 1.167,-1.169 v 0 h 22.212 c 0.644,0.002 1.167,0.525 1.167,1.169 v 0 22.212 c 0,0.646 -0.52,1.166 -1.167,1.168 v 0 z m 21.768,-1.609 10e-4,-21.328 h -21.328 v 21.326 z"
   id="path4512"
   inkscape:connector-curvature="0"
   style="fill:#000000" />
	<path
   d="m 264.902,245.975 c -2.849,-0.001 -5.156,-2.311 -5.156,-5.158 v 0 l -10e-4,-6.347 c 10e-4,-2.847 2.309,-5.155 5.159,-5.157 v 0 l 7.435,0.002 c 2.848,0 5.155,2.309 5.155,5.155 v 0 6.347 c 0,2.848 -2.309,5.157 -5.155,5.158 v 0 z m -3.547,-11.505 v 6.347 c 0.003,1.959 1.586,3.543 3.546,3.547 v 0 h 7.436 c 1.958,-0.004 3.541,-1.589 3.545,-3.547 v 0 l -0.001,-6.347 c -0.003,-1.958 -1.586,-3.542 -3.544,-3.546 v 0 h -7.436 c -1.959,0.003 -3.542,1.588 -3.546,3.546 z"
   id="path4514"
   inkscape:connector-curvature="0"
   style="fill:#000000" />
</g>
<g
   id="g4522"
   style="fill:#000000">
	<path
   d="m 281.508,249.917 c -0.646,0 -1.166,-0.521 -1.167,-1.167 v 0 -22.212 c 10e-4,-0.644 0.523,-1.167 1.167,-1.169 v 0 h 22.214 c 0.646,0.002 1.164,0.525 1.166,1.169 v 0 22.212 c -0.002,0.644 -0.52,1.164 -1.166,1.168 v 0 z m 21.769,-1.609 V 226.98 h -21.326 v 21.326 z"
   id="path4518"
   inkscape:connector-curvature="0"
   style="fill:#000000" />
	<path
   d="m 288.897,245.975 c -2.847,-0.001 -5.156,-2.31 -5.156,-5.158 v 0 l -10e-4,-6.347 c 10e-4,-2.849 2.311,-5.155 5.158,-5.157 v 0 h 7.434 c 2.849,0.002 5.158,2.309 5.158,5.157 v 0 6.347 c 0,2.849 -2.309,5.157 -5.158,5.158 v 0 z m -3.546,-11.505 v 6.347 c 0.003,1.959 1.589,3.543 3.546,3.547 v 0 h 7.433 c 1.958,-0.004 3.544,-1.589 3.547,-3.547 v 0 -6.347 c -0.003,-1.958 -1.589,-3.542 -3.547,-3.546 v 0 h -7.433 c -1.958,0.003 -3.543,1.588 -3.546,3.546 z"
   id="path4520"
   inkscape:connector-curvature="0"
   style="fill:#000000" />
</g>
<g
   id="g4528"
   style="fill:#000000">
	<path
   d="m 305.505,249.917 c -0.648,0 -1.168,-0.521 -1.17,-1.167 v 0 l 0.002,-22.212 c 0,-0.644 0.521,-1.167 1.168,-1.169 v 0 h 22.213 c 0.645,0 1.166,0.522 1.167,1.169 v 0 22.212 h -10e-4 c -0.002,0.647 -0.521,1.164 -1.166,1.168 v 0 z m 21.769,-1.609 V 226.98 h -21.328 v 21.326 z"
   id="path4524"
   inkscape:connector-curvature="0"
   style="fill:#000000" />
	<path
   d="m 312.892,245.974 c -2.848,0 -5.154,-2.31 -5.154,-5.157 v 0 l -0.003,-6.347 c 0.003,-2.847 2.31,-5.155 5.157,-5.157 v 0 l 7.436,0.002 c 2.847,0 5.156,2.307 5.156,5.155 v 0 6.347 c 0,2.849 -2.31,5.157 -5.156,5.158 v 0 z m -3.545,-11.504 v 6.347 c 0.004,1.959 1.589,3.543 3.545,3.547 v 0 h 7.436 c 1.956,-0.004 3.542,-1.589 3.545,-3.547 v 0 -6.347 c -0.003,-1.958 -1.59,-3.542 -3.545,-3.546 v 0 h -7.436 c -1.956,0.003 -3.541,1.588 -3.545,3.546 z"
   id="path4526"
   inkscape:connector-curvature="0"
   style="fill:#000000" />
</g>
<g
   id="g4534"
   style="fill:#000000">
	<path
   d="m 329.501,249.917 c -0.646,0 -1.17,-0.52 -1.171,-1.167 v 0 l 0.001,-22.212 c 0,-0.646 0.524,-1.167 1.17,-1.169 v 0 h 22.211 c 0.646,0.002 1.166,0.525 1.168,1.169 v 0 22.212 c 0,0.646 -0.521,1.166 -1.168,1.168 v 0 z m 21.769,-1.609 V 226.98 h -21.327 l -0.002,21.326 z"
   id="path4530"
   inkscape:connector-curvature="0"
   style="fill:#000000" />
	<path
   d="m 336.888,245.975 c -2.849,-0.001 -5.155,-2.31 -5.155,-5.158 v 0 l -0.002,-6.347 c 0.002,-2.849 2.309,-5.155 5.157,-5.157 v 0 h 7.434 c 2.849,0.002 5.157,2.311 5.157,5.157 v 0 6.347 c 0,2.848 -2.309,5.157 -5.157,5.158 v 0 z m -3.547,-11.505 v 6.347 c 0.006,1.959 1.591,3.543 3.547,3.547 v 0 h 7.434 c 1.96,-0.004 3.544,-1.589 3.547,-3.547 v 0 l -0.002,-6.347 c -0.001,-1.958 -1.587,-3.542 -3.545,-3.546 v 0 h -7.434 c -1.956,0.003 -3.541,1.588 -3.547,3.546 z"
   id="path4532"
   inkscape:connector-curvature="0"
   style="fill:#000000" />
</g>
<g
   id="g4540"
   style="fill:#000000">
	<path
   d="m 353.495,249.917 c -0.646,0 -1.167,-0.521 -1.169,-1.167 v 0 l 0.002,-22.212 c 0,-0.643 0.523,-1.167 1.167,-1.17 v 0 h 22.212 c 0.644,0.003 1.169,0.527 1.171,1.17 v 0 22.212 h -0.002 c 0,0.645 -0.522,1.166 -1.169,1.168 v 0 z m 21.771,-1.609 10e-4,-21.327 -21.326,-0.002 -0.002,21.327 z"
   id="path4536"
   inkscape:connector-curvature="0"
   style="fill:#000000" />
	<path
   d="m 360.886,245.975 c -2.85,0 -5.155,-2.311 -5.155,-5.157 v 0 l -0.004,-6.347 c 0.004,-2.85 2.31,-5.156 5.159,-5.158 v 0 l 7.434,0.002 c 2.848,0 5.156,2.307 5.156,5.156 v 0 6.347 c 0,2.847 -2.309,5.157 -5.156,5.157 v 0 z m -3.547,-11.504 v 6.347 c 0.003,1.958 1.587,3.542 3.547,3.545 v 0 l 7.434,0.002 c 1.957,-0.005 3.54,-1.59 3.544,-3.547 v 0 -6.347 c -0.004,-1.959 -1.587,-3.544 -3.544,-3.546 v 0 h -7.434 c -1.96,0.002 -3.544,1.587 -3.547,3.546 z"
   id="path4538"
   inkscape:connector-curvature="0"
   style="fill:#000000" />
</g>
<g
   id="g4546"
   style="fill:#000000">
	<path
   d="m 377.49,249.918 c -0.647,-0.002 -1.165,-0.521 -1.168,-1.168 v 0 l 0.002,-22.212 c 0,-0.646 0.521,-1.169 1.166,-1.169 v 0 h 22.213 c 0.646,0.002 1.169,0.524 1.169,1.169 v 0 22.212 c 0,0.646 -0.522,1.165 -1.169,1.167 v 0 z m 21.771,-1.61 0.002,-21.327 h -21.33 v 21.327 z"
   id="path4542"
   inkscape:connector-curvature="0"
   style="fill:#000000" />
	<path
   d="m 384.881,245.975 c -2.851,0 -5.157,-2.31 -5.157,-5.158 v 0 -6.347 c 0,-2.848 2.307,-5.155 5.157,-5.157 v 0 l 7.435,0.002 c 2.847,0 5.156,2.308 5.156,5.155 v 0 6.347 c 0,2.849 -2.31,5.158 -5.156,5.158 v 0 z m -3.547,-11.505 v 6.347 c 0.003,1.959 1.589,3.544 3.547,3.547 v 0 h 7.435 c 1.957,-0.003 3.542,-1.589 3.547,-3.547 v 0 l -10e-4,-6.347 c -0.004,-1.957 -1.591,-3.542 -3.546,-3.545 v 0 l -7.435,-0.002 c -1.958,0.004 -3.544,1.59 -3.547,3.547 z"
   id="path4544"
   inkscape:connector-curvature="0"
   style="fill:#000000" />
</g>
<g
   id="g4552"
   style="fill:#000000">
	<path
   d="m 401.487,249.917 c -0.647,0 -1.169,-0.521 -1.169,-1.167 v 0 -22.212 c 0.003,-0.643 0.523,-1.167 1.169,-1.169 v 0 h 36.719 c 0.646,0 1.167,0.522 1.169,1.169 v 0 22.212 h -0.002 c -10e-4,0.647 -0.521,1.165 -1.167,1.169 v 0 z m 36.276,-1.609 V 226.98 l -35.834,-0.002 v 21.327 z"
   id="path4548"
   inkscape:connector-curvature="0"
   style="fill:#000000" />
	<path
   d="m 408.876,245.975 c -2.848,0 -5.157,-2.311 -5.157,-5.157 v 0 -6.347 c 0,-2.849 2.31,-5.156 5.157,-5.156 v 0 h 21.943 c 2.846,0 5.155,2.308 5.155,5.156 v 0 6.347 c 0,2.848 -2.31,5.157 -5.155,5.157 v 0 z m -3.547,-11.504 v 6.347 c 0.005,1.958 1.589,3.542 3.549,3.546 v 0 h 21.941 c 1.956,-0.004 3.54,-1.589 3.543,-3.546 v 0 -6.347 c -0.003,-1.958 -1.589,-3.544 -3.543,-3.547 v 0 h -21.941 c -1.961,0.003 -3.544,1.587 -3.549,3.547 z"
   id="path4550"
   inkscape:connector-curvature="0"
   style="fill:#000000" />
</g>
<g
   id="g4558"
   style="fill:#000000">
	<path
   d="m 439.99,249.918 c -0.646,-0.002 -1.168,-0.522 -1.168,-1.168 v 0 -22.212 c 0,-0.646 0.522,-1.167 1.168,-1.169 v 0 h 22.213 c 0.645,0.002 1.166,0.523 1.166,1.169 v 0 22.212 c 0,0.646 -0.52,1.166 -1.166,1.168 v 0 z m 21.769,-1.61 0.002,-21.328 h -21.327 l -0.001,21.326 z"
   id="path4554"
   inkscape:connector-curvature="0"
   style="fill:#000000" />
	<path
   d="m 447.38,245.975 c -2.851,0 -5.158,-2.31 -5.158,-5.156 v 0 l -0.002,-6.348 c 0.002,-2.849 2.31,-5.157 5.16,-5.157 v 0 h 7.434 c 2.847,0 5.156,2.309 5.156,5.157 v 0 6.348 c 0,2.847 -2.31,5.156 -5.156,5.156 v 0 z m -3.549,-11.504 v 6.348 c 0.005,1.956 1.59,3.542 3.549,3.545 v 0 h 7.434 c 1.957,-0.003 3.542,-1.59 3.546,-3.545 v 0 l -0.003,-6.348 c -0.001,-1.959 -1.586,-3.543 -3.542,-3.546 v 0 l -7.435,-0.002 c -1.959,0.004 -3.544,1.589 -3.549,3.548 z"
   id="path4556"
   inkscape:connector-curvature="0"
   style="fill:#000000" />
</g>
<g
   id="g4564"
   style="fill:#000000">
	<path
   d="m 137.472,274.136 c -0.644,0 -1.168,-0.523 -1.168,-1.17 v 0 -22.212 c 0.002,-0.645 0.521,-1.167 1.168,-1.167 v 0 h 34.905 c 0.646,0 1.169,0.522 1.169,1.167 v 0 22.212 c 0,0.646 -0.524,1.168 -1.169,1.17 v 0 z m 34.464,-1.611 v -21.329 h -34.02 l -0.002,21.329 z"
   id="path4560"
   inkscape:connector-curvature="0"
   style="fill:#000000" />
	<path
   d="m 144.861,270.19 c -2.849,0 -5.156,-2.309 -5.156,-5.155 v 0 -6.347 c 0,-2.85 2.307,-5.158 5.156,-5.158 v 0 h 20.128 c 2.849,0 5.156,2.309 5.156,5.158 v 0 6.347 c 0,2.847 -2.307,5.155 -5.156,5.155 v 0 z m -3.545,-11.502 v 6.347 c 0.003,1.956 1.587,3.542 3.545,3.544 v 0 h 20.128 c 1.958,-0.002 3.542,-1.589 3.546,-3.544 v 0 h 0.001 v -6.347 c -0.005,-1.96 -1.589,-3.544 -3.547,-3.547 v 0 h -20.128 c -1.959,0.004 -3.542,1.588 -3.545,3.547 z"
   id="path4562"
   inkscape:connector-curvature="0"
   style="fill:#000000" />
</g>
<g
   id="g4570"
   style="fill:#000000">
	<path
   d="m 203.114,298.132 c -0.646,-0.002 -1.168,-0.526 -1.17,-1.169 v 0 l 0.002,-22.213 c 0,-0.645 0.521,-1.166 1.168,-1.168 v 0 h 194.837 c 0.643,0.002 1.167,0.523 1.169,1.168 v 0 22.213 c -0.002,0.643 -0.526,1.167 -1.169,1.169 v 0 z m 194.394,-1.611 V 275.194 H 203.557 l -10e-4,21.327 z"
   id="path4566"
   inkscape:connector-curvature="0"
   style="fill:#000000" />
	<path
   d="m 210.502,294.187 c -2.848,0 -5.157,-2.309 -5.157,-5.156 v 0 -6.346 c 0,-2.849 2.309,-5.158 5.157,-5.158 v 0 h 180.06 c 2.849,0 5.156,2.31 5.157,5.158 v 0 6.346 h -10e-4 c 0,2.848 -2.308,5.157 -5.156,5.157 v 0 z m -3.545,-11.502 v 6.346 c 0.003,1.957 1.589,3.542 3.546,3.546 v 0 h 180.059 c 1.96,-0.004 3.544,-1.588 3.547,-3.546 v 0 -6.346 c -0.003,-1.961 -1.589,-3.545 -3.547,-3.548 v 0 h -180.06 c -1.959,0.003 -3.544,1.587 -3.545,3.548 z"
   id="path4568"
   inkscape:connector-curvature="0"
   style="fill:#000000" />
</g>
<g
   id="g4576"
   style="fill:#000000">
	<path
   d="m 174.162,274.136 c -0.644,0 -1.168,-0.523 -1.168,-1.17 v 0 -22.212 c 0.002,-0.645 0.521,-1.167 1.168,-1.167 v 0 h 22.212 c 0.647,0 1.167,0.522 1.168,1.167 v 0 22.212 c 0,0.646 -0.523,1.17 -1.168,1.17 v 0 z m 21.769,-1.611 10e-4,-21.329 h -21.328 v 21.329 z"
   id="path4572"
   inkscape:connector-curvature="0"
   style="fill:#000000" />
	<path
   d="m 181.551,270.19 c -2.848,-10e-4 -5.157,-2.307 -5.157,-5.156 v 0 -6.347 c 0,-2.848 2.308,-5.157 5.157,-5.158 v 0 l 7.435,0.001 c 2.848,0 5.157,2.31 5.157,5.157 v 0 6.347 c 0,2.85 -2.309,5.155 -5.157,5.156 v 0 z m -3.548,-11.502 0.002,6.347 c 0.003,1.958 1.587,3.542 3.546,3.544 v 0 l 7.435,0.002 c 1.959,-0.004 3.543,-1.589 3.546,-3.546 v 0 -6.347 c -0.003,-1.959 -1.587,-3.544 -3.546,-3.546 v 0 h -7.435 c -1.959,0.002 -3.543,1.587 -3.548,3.546 z"
   id="path4574"
   inkscape:connector-curvature="0"
   style="fill:#000000" />
</g>
<g
   id="g4582"
   style="fill:#000000">
	<path
   d="m 198.158,274.135 c -0.646,0 -1.168,-0.521 -1.168,-1.167 v 0 -22.214 c 0.001,-0.646 0.521,-1.166 1.168,-1.169 v 0 h 22.212 c 0.646,0.003 1.167,0.522 1.168,1.169 v 0 22.214 c 0,0.646 -0.523,1.167 -1.168,1.168 v 0 z m 21.769,-1.611 v -21.327 l -21.328,-0.001 v 21.328 z"
   id="path4578"
   inkscape:connector-curvature="0"
   style="fill:#000000" />
	<path
   d="m 205.546,270.19 c -2.849,-10e-4 -5.157,-2.31 -5.157,-5.156 v 0 -6.347 c 0,-2.848 2.308,-5.157 5.157,-5.158 v 0 h 7.435 c 2.849,0.001 5.156,2.311 5.156,5.158 v 0 6.347 c 0,2.847 -2.307,5.155 -5.156,5.156 v 0 z M 202,258.688 v 6.347 c 0.003,1.958 1.587,3.542 3.546,3.544 v 0 h 7.435 c 1.958,-0.002 3.542,-1.587 3.545,-3.544 v 0 -6.347 c -0.003,-1.959 -1.587,-3.544 -3.545,-3.546 v 0 h -7.435 c -1.959,0.002 -3.543,1.587 -3.546,3.546 z"
   id="path4580"
   inkscape:connector-curvature="0"
   style="fill:#000000" />
</g>
<g
   id="g4588"
   style="fill:#000000">
	<path
   d="m 222.154,274.136 c -0.646,-0.002 -1.167,-0.524 -1.169,-1.17 v 0 -22.212 c 10e-4,-0.645 0.522,-1.167 1.169,-1.167 v 0 h 22.213 c 0.647,0 1.166,0.522 1.167,1.167 v 0 22.212 c 0,0.646 -0.524,1.17 -1.167,1.17 v 0 z m 21.77,-1.611 v -21.329 h -21.327 l -0.001,21.329 z"
   id="path4584"
   inkscape:connector-curvature="0"
   style="fill:#000000" />
	<path
   d="m 229.542,270.19 c -2.848,-10e-4 -5.156,-2.307 -5.156,-5.156 v 0 -6.347 c 0,-2.849 2.309,-5.157 5.156,-5.158 v 0 l 7.435,0.001 c 2.85,0 5.157,2.31 5.157,5.157 v 0 6.347 c 0,2.85 -2.307,5.155 -5.157,5.156 v 0 z m -3.547,-11.502 0.002,6.347 c 0.003,1.958 1.587,3.542 3.545,3.544 v 0 l 7.435,0.002 c 1.958,-0.004 3.542,-1.589 3.546,-3.546 v 0 h 0.001 v -6.347 c -0.005,-1.959 -1.589,-3.544 -3.547,-3.546 v 0 h -7.435 c -1.958,0.002 -3.542,1.587 -3.547,3.546 z"
   id="path4586"
   inkscape:connector-curvature="0"
   style="fill:#000000" />
</g>
<g
   id="g4594"
   style="fill:#000000">
	<path
   d="m 246.149,274.136 c -0.645,-0.002 -1.168,-0.523 -1.168,-1.17 v 0 -22.212 c 0,-0.645 0.522,-1.167 1.168,-1.167 v 0 h 22.212 c 0.648,0.002 1.167,0.523 1.169,1.167 v 0 22.212 h -0.002 c 0,0.646 -0.521,1.17 -1.167,1.17 v 0 z m 21.77,-1.611 v -21.329 h -21.328 v 21.329 z"
   id="path4590"
   inkscape:connector-curvature="0"
   style="fill:#000000" />
	<path
   d="m 253.539,270.189 c -2.849,0 -5.158,-2.306 -5.158,-5.155 v 0 -6.347 c 0,-2.849 2.309,-5.157 5.158,-5.158 v 0 l 7.434,0.001 c 2.849,0 5.156,2.309 5.156,5.157 v 0 6.347 h 10e-4 c -10e-4,2.85 -2.309,5.155 -5.158,5.156 v 0 z m -3.547,-11.501 v 6.347 c 0.003,1.958 1.589,3.542 3.547,3.544 v 0 l 7.434,0.002 c 1.958,-0.004 3.542,-1.589 3.547,-3.546 v 0 -6.347 c -0.005,-1.959 -1.59,-3.544 -3.547,-3.546 v 0 l -7.434,-0.001 c -1.958,0.003 -3.544,1.588 -3.547,3.547 z"
   id="path4592"
   inkscape:connector-curvature="0"
   style="fill:#000000" />
</g>
<g
   id="g4600"
   style="fill:#000000">
	<path
   d="m 270.145,274.135 c -0.644,0 -1.167,-0.522 -1.168,-1.167 v 0 -22.214 c 0,-0.645 0.522,-1.166 1.168,-1.169 v 0 h 22.211 c 0.647,0 1.169,0.524 1.169,1.169 v 0 22.214 c 0,0.645 -0.526,1.167 -1.169,1.168 v 0 z m 21.771,-1.611 v -21.327 l -21.327,-0.001 -0.002,21.328 z"
   id="path4596"
   inkscape:connector-curvature="0"
   style="fill:#000000" />
	<path
   d="m 277.535,270.189 c -2.849,0 -5.157,-2.306 -5.158,-5.155 v 0 -6.347 c 10e-4,-2.849 2.309,-5.157 5.158,-5.158 v 0 l 7.433,0.001 c 2.85,0 5.157,2.31 5.157,5.157 v 0 6.347 c 0,2.847 -2.307,5.155 -5.157,5.156 v 0 z m -3.548,-11.501 v 6.347 c 0.004,1.958 1.589,3.542 3.548,3.544 v 0 l 7.433,0.002 c 1.958,-0.004 3.543,-1.589 3.546,-3.546 v 0 0 -6.347 c -0.004,-1.959 -1.589,-3.544 -3.547,-3.546 v 0 l -7.433,-0.001 c -1.957,0.003 -3.543,1.588 -3.547,3.547 z"
   id="path4598"
   inkscape:connector-curvature="0"
   style="fill:#000000" />
</g>
<g
   id="g4606"
   style="fill:#000000">
	<path
   d="m 294.14,274.135 c -0.645,0 -1.167,-0.521 -1.168,-1.167 v 0 l 0.002,-22.214 c 0.001,-0.646 0.521,-1.166 1.167,-1.169 v 0 h 22.213 c 0.646,0.003 1.167,0.524 1.169,1.169 v 0 22.214 h -0.002 c 0,0.645 -0.522,1.167 -1.167,1.168 v 0 z m 21.77,-1.611 v -21.327 l -21.327,-0.001 v 21.328 z"
   id="path4602"
   inkscape:connector-curvature="0"
   style="fill:#000000" />
	<path
   d="m 301.53,270.189 c -2.85,0 -5.158,-2.306 -5.158,-5.155 v 0 -6.347 c 0,-2.849 2.309,-5.157 5.158,-5.158 v 0 h 7.436 c 2.848,0.001 5.154,2.31 5.154,5.158 v 0 6.347 h 0.002 c -0.002,2.85 -2.309,5.155 -5.156,5.156 v 0 z m -3.548,-11.501 0.002,6.347 c 0.003,1.958 1.588,3.542 3.546,3.544 v 0 h 7.436 c 1.955,-0.002 3.541,-1.587 3.544,-3.544 v 0 h 0.001 v -6.347 c -0.004,-1.959 -1.59,-3.544 -3.545,-3.546 v 0 l -7.436,-0.001 c -1.959,0.003 -3.543,1.588 -3.548,3.547 z"
   id="path4604"
   inkscape:connector-curvature="0"
   style="fill:#000000" />
</g>
<g
   id="g4612"
   style="fill:#000000">
	<path
   d="m 318.137,274.135 c -0.646,0 -1.166,-0.522 -1.17,-1.167 v 0 -22.214 c 0,-0.645 0.521,-1.166 1.17,-1.169 v 0 h 22.213 c 0.646,0.003 1.168,0.524 1.168,1.169 v 0 22.214 c 0,0.645 -0.522,1.167 -1.168,1.168 v 0 z m 21.77,-1.611 v -21.327 l -21.328,-0.001 -0.001,21.328 z"
   id="path4608"
   inkscape:connector-curvature="0"
   style="fill:#000000" />
	<path
   d="m 325.527,270.19 c -2.851,-10e-4 -5.159,-2.31 -5.159,-5.156 v 0 -6.347 c 0,-2.848 2.309,-5.157 5.159,-5.158 v 0 l 7.432,0.001 c 2.851,0 5.157,2.31 5.157,5.157 v 0 6.347 c 0,2.847 -2.307,5.155 -5.157,5.156 v 0 z m -3.548,-11.502 v 6.347 c 0.004,1.958 1.589,3.542 3.549,3.544 v 0 l 7.432,0.002 c 1.958,-0.004 3.543,-1.589 3.545,-3.546 v 0 h 0.004 v -6.347 c -0.006,-1.959 -1.591,-3.544 -3.549,-3.546 v 0 h -7.432 c -1.963,0.002 -3.546,1.587 -3.549,3.546 z"
   id="path4610"
   inkscape:connector-curvature="0"
   style="fill:#000000" />
</g>
<g
   id="g4618"
   style="fill:#000000">
	<path
   d="m 342.132,274.135 c -0.644,0 -1.165,-0.522 -1.167,-1.167 v 0 -22.214 c 0,-0.645 0.521,-1.169 1.167,-1.169 v 0 h 22.215 c 0.646,0.003 1.165,0.522 1.167,1.169 v 0 22.214 c -0.002,0.646 -0.524,1.167 -1.167,1.168 v 0 z m 21.771,-1.611 v -21.327 l -21.327,-0.001 v 21.328 z"
   id="path4614"
   inkscape:connector-curvature="0"
   style="fill:#000000" />
	<path
   d="m 349.522,270.189 c -2.85,0 -5.157,-2.306 -5.157,-5.155 v 0 -6.347 c 0,-2.849 2.308,-5.157 5.157,-5.158 v 0 l 7.435,0.001 c 2.847,0 5.155,2.309 5.155,5.157 v 0 6.347 c 0,2.85 -2.309,5.155 -5.155,5.156 v 0 z m -3.547,-11.501 v 6.347 c 0.003,1.958 1.589,3.542 3.548,3.544 v 0 l 7.435,0.002 c 1.956,-0.004 3.542,-1.589 3.545,-3.546 v 0 -6.347 c -0.003,-1.959 -1.59,-3.544 -3.545,-3.546 v 0 l -7.435,-0.001 c -1.96,0.003 -3.545,1.588 -3.548,3.547 z"
   id="path4616"
   inkscape:connector-curvature="0"
   style="fill:#000000" />
</g>
<g
   id="g4624"
   style="fill:#000000">
	<path
   d="m 366.13,274.135 c -0.646,0 -1.168,-0.522 -1.168,-1.167 v 0 -22.214 c 0,-0.645 0.52,-1.166 1.168,-1.169 v 0 h 22.211 c 0.646,0.003 1.167,0.524 1.169,1.169 v 0 22.214 h -0.002 c 0,0.645 -0.522,1.167 -1.167,1.168 v 0 z m 21.767,-1.611 v -21.327 l -21.325,-0.001 v 21.328 z"
   id="path4620"
   inkscape:connector-curvature="0"
   style="fill:#000000" />
	<path
   d="m 373.518,270.19 c -2.85,0 -5.156,-2.309 -5.156,-5.156 v 0 -6.347 c 0,-2.849 2.307,-5.157 5.156,-5.158 v 0 h 7.434 c 2.849,0.001 5.156,2.311 5.156,5.158 v 0 6.347 h 0.002 c -0.002,2.848 -2.31,5.156 -5.158,5.156 v 0 z m -3.548,-11.502 10e-4,6.347 c 0.003,1.957 1.589,3.542 3.547,3.544 v 0 h 7.433 c 1.961,-0.002 3.543,-1.587 3.547,-3.544 v 0 h 0.001 v -6.347 c -0.005,-1.959 -1.588,-3.543 -3.548,-3.546 v 0 h -7.433 c -1.958,0.003 -3.544,1.587 -3.548,3.546 z"
   id="path4622"
   inkscape:connector-curvature="0"
   style="fill:#000000" />
</g>
<g
   id="g4630"
   style="fill:#000000">
	<path
   d="m 390.124,274.135 c -0.645,0 -1.166,-0.522 -1.168,-1.167 v 0 -22.214 c 0,-0.645 0.52,-1.166 1.168,-1.168 v 0 h 22.213 c 0.646,0.002 1.166,0.521 1.167,1.168 v 0 22.214 c 0,0.646 -0.522,1.167 -1.167,1.168 v 0 z m 21.77,-1.61 10e-4,-21.329 h -21.328 v 21.327 z"
   id="path4626"
   inkscape:connector-curvature="0"
   style="fill:#000000" />
	<path
   d="m 397.514,270.189 c -2.848,0 -5.157,-2.307 -5.157,-5.154 v 0 -6.348 c 0,-2.849 2.31,-5.157 5.157,-5.158 v 0 l 7.435,0.001 c 2.848,0 5.155,2.309 5.155,5.157 v 0 6.348 h 0.002 c -0.002,2.848 -2.31,5.154 -5.157,5.155 v 0 z m -3.549,-11.501 0.002,6.348 c 0.003,1.956 1.587,3.542 3.547,3.544 v 0 h 7.433 c 1.958,-0.002 3.543,-1.589 3.547,-3.544 v 0 -6.348 c -0.004,-1.959 -1.589,-3.543 -3.547,-3.546 v 0 h -7.433 c -1.96,0.003 -3.544,1.587 -3.549,3.546 z"
   id="path4628"
   inkscape:connector-curvature="0"
   style="fill:#000000" />
</g>
<g
   id="g4636"
   style="fill:#000000">
	<path
   d="m 414.12,274.136 c -0.645,0 -1.167,-0.521 -1.169,-1.169 v 0 -22.213 c 0.002,-0.647 0.521,-1.166 1.169,-1.168 v 0 h 36.719 c 0.647,0.002 1.168,0.523 1.17,1.168 v 0 22.213 h -0.002 c 0,0.645 -0.521,1.169 -1.168,1.169 v 0 z m 36.276,-1.611 v -21.328 l -35.833,-0.001 v 21.329 z"
   id="path4632"
   inkscape:connector-curvature="0"
   style="fill:#000000" />
	<path
   d="m 421.509,270.189 c -2.849,0 -5.158,-2.308 -5.158,-5.155 v 0 -6.347 c 0,-2.849 2.31,-5.157 5.158,-5.157 v 0 h 21.941 c 2.849,0 5.154,2.309 5.154,5.157 v 0 6.347 h 0.003 c -0.003,2.848 -2.309,5.155 -5.157,5.157 v 0 z m -3.548,-11.501 v 6.347 c 0.006,1.957 1.591,3.542 3.548,3.544 v 0 l 21.941,0.002 c 1.958,-0.004 3.541,-1.589 3.544,-3.546 v 0 h 0.003 v -6.347 c -0.006,-1.959 -1.591,-3.543 -3.547,-3.546 v 0 h -21.941 c -1.957,0.003 -3.542,1.587 -3.548,3.546 z"
   id="path4634"
   inkscape:connector-curvature="0"
   style="fill:#000000" />
</g>
<path
   fill="#F4F4F4"
   d="M119.897,299.371V172.085c0.001-2.85,2.31-5.157,5.158-5.157l0,0H474.82c2.849,0,5.156,2.31,5.157,5.157l0,0  v127.286h-0.001c0,2.848-2.308,5.155-5.156,5.155l0,0l-349.767,0.003C122.206,304.526,119.898,302.219,119.897,299.371  L119.897,299.371z M121.508,172.085v127.286c0.003,1.957,1.588,3.542,3.546,3.547l0,0H474.82c1.958-0.005,3.542-1.589,3.546-3.547  l0,0V172.085c-0.004-1.959-1.588-3.542-3.546-3.546l0,0H125.054C123.096,168.542,121.511,170.126,121.508,172.085L121.508,172.085z"
   id="path4638"
   style="fill:#000000" />
<path
   fill="#F4F4F4"
   d="M69.027,313.774c-2.248,0-4.07-1.821-4.07-4.068l0,0V160.662c0-2.248,1.822-4.07,4.07-4.07l0,0h461.822  c2.246,0,4.068,1.822,4.068,4.07l0,0v149.045c0,2.247-1.822,4.068-4.068,4.068l0,0L69.027,313.774L69.027,313.774z M66.568,160.662  l-0.002,149.045c0.003,1.356,1.102,2.454,2.46,2.458l0,0h461.822c1.358-0.004,2.457-1.102,2.46-2.458l0,0h-0.002l0.002-149.045  c-0.003-1.359-1.102-2.457-2.46-2.458l0,0l-461.822-0.003C67.668,158.205,66.57,159.303,66.568,160.662L66.568,160.662z"
   id="path4640"
   style="fill:#000000" />
<path
   fill="#F4F4F4"
   d="M66.034,334.991c-2.246-0.003-4.069-1.823-4.069-4.069l0,0V24.674c0-2.249,1.823-4.07,4.069-4.072l0,0  h467.807c2.247,0.001,4.068,1.823,4.07,4.072l0,0v306.248h-0.002c0,2.246-1.821,4.066-4.068,4.069l0,0H66.034L66.034,334.991z   M63.576,24.674v306.248c0.002,1.358,1.101,2.454,2.458,2.457l0,0h467.807c1.358-0.003,2.454-1.099,2.458-2.457l0,0V24.674  c-0.004-1.36-1.1-2.458-2.458-2.46l0,0H66.034C64.677,22.215,63.578,23.314,63.576,24.674L63.576,24.674z"
   id="path4642"
   style="fill:#000000" />
<path
   fill="#F4F4F4"
   d="M222.569,112.109c-0.646,0-1.167-0.522-1.169-1.168l0,0l0.001-13.599c0-0.645,0.52-1.168,1.167-1.169l0,0  h152.862c0.646,0.001,1.165,0.524,1.167,1.169l0,0v13.599h-0.002c0,0.646-0.521,1.168-1.165,1.168l0,0H222.569L222.569,112.109z   M374.985,110.5l0.002-12.714l-151.975-0.001V110.5H374.985L374.985,110.5z"
   id="path4644"
   style="fill:#000000" />
<path
   fill="#F4F4F4"
   d="M69.117,82.046c-2.449,0-4.431-1.983-4.431-4.431l0,0V33.736c0-2.448,1.983-4.431,4.431-4.431l0,0h461.64  c2.449,0,4.433,1.983,4.433,4.431l0,0v43.879h0.002c-0.002,2.448-1.985,4.431-4.435,4.431l0,0H69.117L69.117,82.046z M66.295,33.736  l0.002,43.879c0.001,1.558,1.263,2.819,2.82,2.82l0,0h461.64c1.56-0.001,2.818-1.262,2.82-2.82l0,0h0.003l-0.003-43.879  c-0.002-1.558-1.261-2.818-2.82-2.82l0,0H69.117C67.56,30.918,66.298,32.179,66.295,33.736L66.295,33.736z"
   id="path4646"
   style="fill:#000000" />
<g
   id="g4946"
   style="fill:#000000">
	<path
   d="m 101.258,39.396 c -0.845,0 -1.53,-0.685 -1.53,-1.529 v 0 -2.721 c 0,-0.846 0.686,-1.529 1.53,-1.53 v 0 h 190.033 c 0.846,10e-4 1.529,0.685 1.529,1.53 v 0 2.721 c 0,0.845 -0.684,1.529 -1.529,1.529 v 0 z M 291.21,37.787 v -2.56 H 101.337 v 2.56 z"
   id="path4648"
   inkscape:connector-curvature="0"
   style="fill:#000000" />
	<g
   id="g4654"
   style="fill:#000000">
		<polygon
   points="159.997,34.513 159.997,38.502 158.386,38.502 158.386,34.513 "
   id="polygon4650"
   style="fill:#000000" />
		<polygon
   points="162.445,34.511 162.445,38.502 160.834,38.502 160.834,34.511 "
   id="polygon4652"
   style="fill:#000000" />
	</g>
	<g
   id="g4660"
   style="fill:#000000">
		<polygon
   points="192.729,34.513 192.729,38.502 191.116,38.502 191.116,34.513 "
   id="polygon4656"
   style="fill:#000000" />
		<polygon
   points="195.176,34.513 195.176,38.502 193.565,38.502 193.565,34.513 "
   id="polygon4658"
   style="fill:#000000" />
	</g>
	<g
   id="g4666"
   style="fill:#000000">
		<polygon
   points="242.05,34.512 242.05,38.502 240.439,38.502 240.439,34.512 "
   id="polygon4662"
   style="fill:#000000" />
		<polygon
   points="244.498,34.513 244.498,38.502 242.887,38.502 242.887,34.513 "
   id="polygon4664"
   style="fill:#000000" />
	</g>
	<polygon
   points="155.303,38.591 155.303,34.33 156.914,34.33 156.914,38.591 "
   id="polygon4668"
   style="fill:#000000" />
	<polygon
   points="104.079,38.592 104.079,34.33 105.69,34.33 105.69,38.592 "
   id="polygon4670"
   style="fill:#000000" />
	<g
   id="g4696"
   style="fill:#000000">
		<path
   d="m 101.258,46.832 c -0.845,0 -1.53,-0.686 -1.53,-1.531 v 0 -2.72 c 0,-0.846 0.686,-1.529 1.53,-1.53 v 0 h 190.033 c 0.846,10e-4 1.529,0.685 1.529,1.53 v 0 2.72 c 0,0.846 -0.684,1.531 -1.529,1.531 v 0 z m 189.952,-1.61 v -2.56 L 101.337,42.66 v 2.562 z"
   id="path4672"
   inkscape:connector-curvature="0"
   style="fill:#000000" />
		<g
   id="g4678"
   style="fill:#000000">
			<polygon
   points="158.387,45.936 158.387,41.947 159.998,41.947 159.998,45.936 "
   id="polygon4674"
   style="fill:#000000" />
			<polygon
   points="160.834,45.936 160.834,41.946 162.445,41.946 162.445,45.936 "
   id="polygon4676"
   style="fill:#000000" />
		</g>
		<g
   id="g4684"
   style="fill:#000000">
			<polygon
   points="191.116,45.936 191.116,41.946 192.729,41.946 192.729,45.936 "
   id="polygon4680"
   style="fill:#000000" />
			<polygon
   points="193.565,45.935 193.565,41.945 195.176,41.945 195.176,45.935 "
   id="polygon4682"
   style="fill:#000000" />
		</g>
		<g
   id="g4690"
   style="fill:#000000">
			<polygon
   points="240.439,45.936 240.439,41.946 242.05,41.946 242.05,45.936 "
   id="polygon4686"
   style="fill:#000000" />
			<polygon
   points="242.887,45.936 242.887,41.946 244.498,41.946 244.498,45.936 "
   id="polygon4688"
   style="fill:#000000" />
		</g>
		<polygon
   points="156.916,41.767 156.916,46.026 155.305,46.026 155.305,41.767 "
   id="polygon4692"
   style="fill:#000000" />
		<polygon
   points="105.69,41.767 105.69,46.026 104.079,46.026 104.079,41.767 "
   id="polygon4694"
   style="fill:#000000" />
	</g>
	<g
   id="g4722"
   style="fill:#000000">
		<path
   d="m 101.258,54.266 c -0.845,0 -1.53,-0.685 -1.53,-1.531 v 0 -2.719 c 0,-0.847 0.686,-1.53 1.53,-1.532 v 0 h 190.033 c 0.846,10e-4 1.529,0.686 1.529,1.532 v 0 2.719 c 0,0.846 -0.684,1.531 -1.529,1.531 v 0 z M 291.21,52.655 v -2.56 H 101.337 v 2.56 z"
   id="path4698"
   inkscape:connector-curvature="0"
   style="fill:#000000" />
		<g
   id="g4704"
   style="fill:#000000">
			<polygon
   points="158.387,53.371 158.387,49.38 159.998,49.38 159.998,53.371 "
   id="polygon4700"
   style="fill:#000000" />
			<polygon
   points="160.835,53.371 160.835,49.38 162.446,49.38 162.446,53.371 "
   id="polygon4702"
   style="fill:#000000" />
		</g>
		<g
   id="g4710"
   style="fill:#000000">
			<polygon
   points="191.116,53.37 191.116,49.381 192.729,49.381 192.729,53.37 "
   id="polygon4706"
   style="fill:#000000" />
			<polygon
   points="193.565,53.37 193.565,49.381 195.176,49.381 195.176,53.37 "
   id="polygon4708"
   style="fill:#000000" />
		</g>
		<g
   id="g4716"
   style="fill:#000000">
			<polygon
   points="240.439,53.371 240.439,49.381 242.05,49.381 242.05,53.371 "
   id="polygon4712"
   style="fill:#000000" />
			<polygon
   points="242.887,53.371 242.887,49.381 244.498,49.381 244.498,53.371 "
   id="polygon4714"
   style="fill:#000000" />
		</g>
		<polygon
   points="156.916,49.2 156.916,53.461 155.305,53.461 155.305,49.2 "
   id="polygon4718"
   style="fill:#000000" />
		<polygon
   points="105.69,49.2 105.69,53.461 104.079,53.461 104.079,49.2 "
   id="polygon4720"
   style="fill:#000000" />
	</g>
	<g
   id="g4748"
   style="fill:#000000">
		<path
   d="m 101.258,61.7 c -0.845,0 -1.53,-0.685 -1.53,-1.53 v 0 -2.721 c 0,-0.845 0.686,-1.527 1.53,-1.53 v 0 h 190.033 c 0.846,0.002 1.529,0.685 1.529,1.53 v 0 2.721 c 0,0.846 -0.684,1.53 -1.529,1.53 v 0 z M 291.21,60.091 V 57.53 H 101.337 v 2.56 z"
   id="path4724"
   inkscape:connector-curvature="0"
   style="fill:#000000" />
		<g
   id="g4730"
   style="fill:#000000">
			<polygon
   points="158.386,60.804 158.386,56.814 159.997,56.814 159.997,60.804 "
   id="polygon4726"
   style="fill:#000000" />
			<polygon
   points="160.835,60.804 160.835,56.814 162.446,56.814 162.446,60.804 "
   id="polygon4728"
   style="fill:#000000" />
		</g>
		<g
   id="g4736"
   style="fill:#000000">
			<polygon
   points="191.116,60.804 191.116,56.814 192.729,56.814 192.729,60.804 "
   id="polygon4732"
   style="fill:#000000" />
			<polygon
   points="193.565,60.804 193.565,56.814 195.176,56.814 195.176,60.804 "
   id="polygon4734"
   style="fill:#000000" />
		</g>
		<g
   id="g4742"
   style="fill:#000000">
			<polygon
   points="240.439,60.804 240.439,56.815 242.05,56.815 242.05,60.804 "
   id="polygon4738"
   style="fill:#000000" />
			<polygon
   points="242.887,60.804 242.887,56.814 244.498,56.814 244.498,60.804 "
   id="polygon4740"
   style="fill:#000000" />
		</g>
		<polygon
   points="156.915,56.635 156.915,60.895 155.303,60.895 155.303,56.635 "
   id="polygon4744"
   style="fill:#000000" />
		<polygon
   points="105.69,56.635 105.69,60.895 104.079,60.895 104.079,56.635 "
   id="polygon4746"
   style="fill:#000000" />
	</g>
	<g
   id="g4774"
   style="fill:#000000">
		<path
   d="m 101.258,69.135 c -0.845,0 -1.53,-0.686 -1.53,-1.531 v 0 -2.718 c 0,-0.847 0.686,-1.531 1.53,-1.533 v 0 h 190.033 c 0.846,10e-4 1.529,0.686 1.529,1.533 v 0 2.718 c 0,0.845 -0.684,1.531 -1.529,1.531 v 0 z m 189.952,-1.61 v -2.56 H 101.337 v 2.56 z"
   id="path4750"
   inkscape:connector-curvature="0"
   style="fill:#000000" />
		<g
   id="g4756"
   style="fill:#000000">
			<polygon
   points="158.387,68.239 158.387,64.25 159.997,64.25 159.997,68.239 "
   id="polygon4752"
   style="fill:#000000" />
			<polygon
   points="160.835,68.239 160.835,64.25 162.446,64.25 162.446,68.239 "
   id="polygon4754"
   style="fill:#000000" />
		</g>
		<g
   id="g4762"
   style="fill:#000000">
			<polygon
   points="191.116,68.241 191.116,64.251 192.729,64.251 192.729,68.241 "
   id="polygon4758"
   style="fill:#000000" />
			<polygon
   points="193.565,68.24 193.565,64.25 195.176,64.25 195.176,68.24 "
   id="polygon4760"
   style="fill:#000000" />
		</g>
		<g
   id="g4768"
   style="fill:#000000">
			<polygon
   points="240.439,68.239 240.439,64.251 242.05,64.251 242.05,68.239 "
   id="polygon4764"
   style="fill:#000000" />
			<polygon
   points="242.887,68.24 242.887,64.249 244.498,64.249 244.498,68.24 "
   id="polygon4766"
   style="fill:#000000" />
		</g>
		<polygon
   points="156.915,64.069 156.915,68.331 155.304,68.331 155.304,64.069 "
   id="polygon4770"
   style="fill:#000000" />
		<polygon
   points="105.689,64.069 105.689,68.331 104.079,68.331 104.079,64.069 "
   id="polygon4772"
   style="fill:#000000" />
	</g>
	<g
   id="g4800"
   style="fill:#000000">
		<path
   d="m 101.258,76.57 c -0.845,0 -1.53,-0.685 -1.53,-1.53 v 0 -2.721 c 0,-0.845 0.686,-1.528 1.53,-1.53 v 0 h 190.033 c 0.846,0.002 1.529,0.685 1.529,1.53 v 0 2.721 c 0,0.846 -0.684,1.53 -1.529,1.53 v 0 z M 291.21,74.959 V 72.4 H 101.337 v 2.56 H 291.21 Z"
   id="path4776"
   inkscape:connector-curvature="0"
   style="fill:#000000" />
		<g
   id="g4782"
   style="fill:#000000">
			<polygon
   points="158.386,75.674 158.386,71.685 159.997,71.685 159.997,75.674 "
   id="polygon4778"
   style="fill:#000000" />
			<polygon
   points="160.835,75.674 160.835,71.685 162.446,71.685 162.446,75.674 "
   id="polygon4780"
   style="fill:#000000" />
		</g>
		<g
   id="g4788"
   style="fill:#000000">
			<polygon
   points="191.116,75.674 191.116,71.685 192.729,71.685 192.729,75.674 "
   id="polygon4784"
   style="fill:#000000" />
			<polygon
   points="193.565,75.674 193.565,71.685 195.176,71.685 195.176,75.674 "
   id="polygon4786"
   style="fill:#000000" />
		</g>
		<g
   id="g4794"
   style="fill:#000000">
			<polygon
   points="240.439,75.673 240.439,71.686 242.05,71.686 242.05,75.673 "
   id="polygon4790"
   style="fill:#000000" />
			<polygon
   points="242.887,75.673 242.887,71.686 244.498,71.686 244.498,75.673 "
   id="polygon4792"
   style="fill:#000000" />
		</g>
		<polygon
   points="156.916,71.503 156.916,75.765 155.304,75.765 155.304,71.503 "
   id="polygon4796"
   style="fill:#000000" />
		<polygon
   points="105.689,71.503 105.689,75.765 104.079,75.765 104.079,71.503 "
   id="polygon4798"
   style="fill:#000000" />
	</g>
	<g
   id="g4824"
   style="fill:#000000">
		<path
   d="m 308.517,39.396 c -0.846,0 -1.529,-0.684 -1.529,-1.53 v 0 -2.719 c 0,-0.847 0.685,-1.531 1.529,-1.531 v 0 h 190.032 c 0.846,0 1.53,0.687 1.53,1.531 v 0 2.719 c -0.001,0.845 -0.685,1.53 -1.53,1.53 v 0 z m 189.952,-1.608 v -2.56 L 308.595,35.227 v 2.56 z"
   id="path4802"
   inkscape:connector-curvature="0"
   style="fill:#000000" />
		<g
   id="g4822"
   style="fill:#000000">
			<g
   id="g4808"
   style="fill:#000000">
				<polygon
   points="353.446,34.36 353.446,38.472 351.834,38.472 351.834,34.36 "
   id="polygon4804"
   style="fill:#000000" />
				<polygon
   points="355.984,34.361 355.984,38.471 354.372,38.471 354.372,34.361 "
   id="polygon4806"
   style="fill:#000000" />
			</g>
			<g
   id="g4814"
   style="fill:#000000">
				<polygon
   points="403.069,34.362 403.069,38.472 401.457,38.472 401.457,34.362 "
   id="polygon4810"
   style="fill:#000000" />
				<polygon
   points="405.607,34.361 405.607,38.471 403.997,38.471 403.997,34.361 "
   id="polygon4812"
   style="fill:#000000" />
			</g>
			<g
   id="g4820"
   style="fill:#000000">
				<polygon
   points="452.691,34.361 452.691,38.471 451.082,38.471 451.082,34.361 "
   id="polygon4816"
   style="fill:#000000" />
				<polygon
   points="455.231,34.361 455.231,38.471 453.622,38.471 453.622,34.361 "
   id="polygon4818"
   style="fill:#000000" />
			</g>
		</g>
	</g>
	<g
   id="g4848"
   style="fill:#000000">
		<path
   d="m 308.517,46.836 c -0.846,-10e-4 -1.529,-0.686 -1.529,-1.531 v 0 -2.719 c 0,-0.846 0.685,-1.53 1.529,-1.532 v 0 l 190.032,0.002 c 0.846,0 1.529,0.686 1.53,1.53 v 0 2.719 c -0.001,0.846 -0.685,1.531 -1.53,1.531 v 0 z m 189.952,-1.611 v -2.56 H 308.595 v 2.56 z"
   id="path4826"
   inkscape:connector-curvature="0"
   style="fill:#000000" />
		<g
   id="g4846"
   style="fill:#000000">
			<g
   id="g4832"
   style="fill:#000000">
				<polygon
   points="353.446,41.8 353.446,45.909 351.834,45.909 351.834,41.8 "
   id="polygon4828"
   style="fill:#000000" />
				<polygon
   points="355.984,41.8 355.984,45.909 354.372,45.909 354.372,41.8 "
   id="polygon4830"
   style="fill:#000000" />
			</g>
			<g
   id="g4838"
   style="fill:#000000">
				<polygon
   points="403.069,41.799 403.069,45.909 401.457,45.909 401.457,41.799 "
   id="polygon4834"
   style="fill:#000000" />
				<polygon
   points="405.607,41.8 405.607,45.909 403.997,45.909 403.997,41.8 "
   id="polygon4836"
   style="fill:#000000" />
			</g>
			<g
   id="g4844"
   style="fill:#000000">
				<polygon
   points="452.691,41.799 452.691,45.911 451.082,45.911 451.082,41.799 "
   id="polygon4840"
   style="fill:#000000" />
				<polygon
   points="455.231,41.801 455.231,45.911 453.622,45.911 453.622,41.801 "
   id="polygon4842"
   style="fill:#000000" />
			</g>
		</g>
	</g>
	<g
   id="g4872"
   style="fill:#000000">
		<path
   d="m 308.517,54.275 c -0.846,0 -1.529,-0.685 -1.529,-1.53 v 0 -2.72 c 0,-0.846 0.685,-1.53 1.529,-1.531 v 0 h 190.032 c 0.846,0 1.53,0.687 1.53,1.531 v 0 2.72 c -0.001,0.843 -0.685,1.53 -1.53,1.531 v 0 z m 189.952,-1.61 V 50.104 H 308.595 v 2.561 z"
   id="path4850"
   inkscape:connector-curvature="0"
   style="fill:#000000" />
		<g
   id="g4870"
   style="fill:#000000">
			<g
   id="g4856"
   style="fill:#000000">
				<polygon
   points="353.446,49.24 353.446,53.349 351.834,53.349 351.834,49.24 "
   id="polygon4852"
   style="fill:#000000" />
				<polygon
   points="355.984,49.239 355.984,53.35 354.372,53.35 354.372,49.239 "
   id="polygon4854"
   style="fill:#000000" />
			</g>
			<g
   id="g4862"
   style="fill:#000000">
				<polygon
   points="403.069,49.239 403.069,53.349 401.457,53.349 401.457,49.239 "
   id="polygon4858"
   style="fill:#000000" />
				<polygon
   points="405.607,49.239 405.607,53.349 403.997,53.349 403.997,49.239 "
   id="polygon4860"
   style="fill:#000000" />
			</g>
			<g
   id="g4868"
   style="fill:#000000">
				<polygon
   points="452.691,49.241 452.691,53.35 451.082,53.35 451.082,49.241 "
   id="polygon4864"
   style="fill:#000000" />
				<polygon
   points="455.231,49.239 455.231,53.349 453.622,53.349 453.622,49.239 "
   id="polygon4866"
   style="fill:#000000" />
			</g>
		</g>
	</g>
	<g
   id="g4896"
   style="fill:#000000">
		<path
   d="m 308.517,61.714 c -0.846,0 -1.529,-0.685 -1.529,-1.529 v 0 -2.72 c 0,-0.846 0.685,-1.531 1.529,-1.531 v 0 h 190.032 c 0.846,0 1.529,0.686 1.53,1.531 v 0 2.72 c -0.001,0.845 -0.685,1.528 -1.53,1.529 v 0 z m 189.952,-1.61 v -2.56 H 308.595 v 2.558 z"
   id="path4874"
   inkscape:connector-curvature="0"
   style="fill:#000000" />
		<g
   id="g4894"
   style="fill:#000000">
			<g
   id="g4880"
   style="fill:#000000">
				<polygon
   points="353.446,56.677 353.446,60.789 351.834,60.789 351.834,56.677 "
   id="polygon4876"
   style="fill:#000000" />
				<polygon
   points="355.984,56.677 355.984,60.789 354.372,60.789 354.372,56.677 "
   id="polygon4878"
   style="fill:#000000" />
			</g>
			<g
   id="g4886"
   style="fill:#000000">
				<polygon
   points="403.069,56.678 403.069,60.788 401.457,60.788 401.457,56.678 "
   id="polygon4882"
   style="fill:#000000" />
				<polygon
   points="405.607,56.677 405.607,60.789 403.997,60.789 403.997,56.677 "
   id="polygon4884"
   style="fill:#000000" />
			</g>
			<g
   id="g4892"
   style="fill:#000000">
				<polygon
   points="452.691,56.678 452.691,60.788 451.082,60.788 451.082,56.678 "
   id="polygon4888"
   style="fill:#000000" />
				<polygon
   points="455.231,56.678 455.231,60.788 453.622,60.788 453.622,56.678 "
   id="polygon4890"
   style="fill:#000000" />
			</g>
		</g>
	</g>
	<g
   id="g4920"
   style="fill:#000000">
		<path
   d="m 308.517,69.153 c -0.846,0 -1.529,-0.686 -1.529,-1.53 v 0 -2.721 c 0,-0.845 0.685,-1.529 1.529,-1.531 v 0 l 190.032,10e-4 c 0.846,0 1.53,0.686 1.53,1.529 v 0 2.72 c -0.001,0.846 -0.685,1.531 -1.53,1.531 v 0 H 308.517 Z m 189.952,-1.611 v -2.56 H 308.595 v 2.56 z"
   id="path4898"
   inkscape:connector-curvature="0"
   style="fill:#000000" />
		<g
   id="g4918"
   style="fill:#000000">
			<g
   id="g4904"
   style="fill:#000000">
				<polygon
   points="353.446,64.117 353.446,68.229 351.834,68.229 351.834,64.117 "
   id="polygon4900"
   style="fill:#000000" />
				<polygon
   points="355.984,64.117 355.984,68.229 354.372,68.229 354.372,64.117 "
   id="polygon4902"
   style="fill:#000000" />
			</g>
			<g
   id="g4910"
   style="fill:#000000">
				<polygon
   points="403.069,64.118 403.069,68.228 401.457,68.228 401.457,64.118 "
   id="polygon4906"
   style="fill:#000000" />
				<polygon
   points="405.607,64.116 405.607,68.229 403.997,68.229 403.997,64.116 "
   id="polygon4908"
   style="fill:#000000" />
			</g>
			<g
   id="g4916"
   style="fill:#000000">
				<polygon
   points="452.691,64.117 452.691,68.227 451.082,68.227 451.082,64.117 "
   id="polygon4912"
   style="fill:#000000" />
				<polygon
   points="455.231,64.116 455.231,68.229 453.622,68.229 453.622,64.116 "
   id="polygon4914"
   style="fill:#000000" />
			</g>
		</g>
	</g>
	<g
   id="g4944"
   style="fill:#000000">
		<path
   d="m 308.583,76.592 c -0.844,0 -1.528,-0.685 -1.528,-1.53 v 0 -2.72 c 0,-0.846 0.685,-1.53 1.528,-1.53 v 0 h 190.035 c 0.845,0.001 1.527,0.686 1.53,1.53 v 0 2.72 c -0.003,0.845 -0.687,1.528 -1.53,1.53 v 0 z m 189.953,-1.61 v -2.56 H 308.663 v 2.558 z"
   id="path4922"
   inkscape:connector-curvature="0"
   style="fill:#000000" />
		<g
   id="g4942"
   style="fill:#000000">
			<g
   id="g4928"
   style="fill:#000000">
				<polygon
   points="353.514,71.556 353.514,75.667 351.903,75.667 351.903,71.556 "
   id="polygon4924"
   style="fill:#000000" />
				<polygon
   points="356.051,71.556 356.051,75.666 354.441,75.666 354.441,71.556 "
   id="polygon4926"
   style="fill:#000000" />
			</g>
			<g
   id="g4934"
   style="fill:#000000">
				<polygon
   points="403.137,71.557 403.137,75.667 401.524,75.667 401.524,71.557 "
   id="polygon4930"
   style="fill:#000000" />
				<polygon
   points="405.676,71.557 405.676,75.666 404.064,75.666 404.064,71.557 "
   id="polygon4932"
   style="fill:#000000" />
			</g>
			<g
   id="g4940"
   style="fill:#000000">
				<polygon
   points="452.761,71.556 452.761,75.667 451.15,75.667 451.15,71.556 "
   id="polygon4936"
   style="fill:#000000" />
				<polygon
   points="455.299,71.556 455.299,75.666 453.688,75.666 453.688,71.556 "
   id="polygon4938"
   style="fill:#000000" />
			</g>
		</g>
	</g>
</g>
</svg>