<?xml version="1.0" encoding="UTF-8" standalone="no"?>
<!-- Generator: Adobe Illustrator 13.0.0, SVG Export Plug-In . SVG Version: 6.00 Build 14948)  -->

<svg
   xmlns:ns="&amp;#38;ns_sfw;"
   xmlns:dc="http://purl.org/dc/elements/1.1/"
   xmlns:cc="http://creativecommons.org/ns#"
   xmlns:rdf="http://www.w3.org/1999/02/22-rdf-syntax-ns#"
   xmlns:svg="http://www.w3.org/2000/svg"
   xmlns="http://www.w3.org/2000/svg"
   xmlns:sodipodi="http://sodipodi.sourceforge.net/DTD/sodipodi-0.dtd"
   xmlns:inkscape="http://www.inkscape.org/namespaces/inkscape"
   version="1.2"
   id="Layer_3"
   x="0px"
   y="0px"
   width="598.189px"
   height="350.26px"
   viewBox="0 0 598.189 350.26"
   xml:space="preserve"
   sodipodi:docname="controller.svg"
   inkscape:version="0.92.3 (2405546, 2018-03-11)"><defs
   id="defs6001" /><sodipodi:namedview
   pagecolor="#ffffff"
   bordercolor="#666666"
   borderopacity="1"
   objecttolerance="10"
   gridtolerance="10"
   guidetolerance="10"
   inkscape:pageopacity="0"
   inkscape:pageshadow="2"
   inkscape:window-width="1920"
   inkscape:window-height="1017"
   id="namedview5999"
   showgrid="false"
   inkscape:zoom="0.57841248"
   inkscape:cx="-1.7288747"
   inkscape:cy="175.13"
   inkscape:window-x="-4"
   inkscape:window-y="-4"
   inkscape:window-maximized="1"
   inkscape:current-layer="Layer_3" />
<metadata
   id="metadata55">
	<rdf:RDF>
		<cc:Work
   rdf:about="">
			<dc:format>image/svg+xml</dc:format>
			<dc:type
   rdf:resource="http://purl.org/dc/dcmitype/StillImage" />
			<dc:title />
		</cc:Work>
	</rdf:RDF>
	<ns:sfw>
		<ns:slices />
		<ns:sliceSourceBounds
   x="708.486"
   y="-7652"
   width="503.928"
   height="16383"
   bottomLeftOrigin="true" />
	</ns:sfw>
</metadata>
<g
   id="g3"
   style="fill:#000000">
	<path
   id="polyline5"
   d="m 82.189,26.116 v 83.276 h -3.15 v 1.708 h 4.005 0.854 v -0.854 -84.13 z"
   inkscape:connector-curvature="0"
   style="fill:#000000" />
	<path
   id="rect7"
   d="m 47.081,25.262 v 0.854 84.129 0.854 h 0.854 27.768 0.854 V 110.245 26.116 25.262 H 75.703 47.935 Z m 1.708,1.709 h 26.058 v 82.42 H 48.789 Z"
   inkscape:connector-curvature="0"
   style="fill:#000000" />
	<path
   id="rect9"
   d="m 269.116,25.262 v 0.854 84.129 0.854 h 0.854 280.184 0.854 V 110.245 26.116 25.262 H 550.154 269.97 Z m 1.708,1.709 H 549.3 v 82.42 H 270.824 Z"
   inkscape:connector-curvature="0"
   style="fill:#000000" />
	<path
   id="polyline11"
   d="m 89.532,26.116 v 83.276 h -3.15 v 1.708 h 4.004 0.854 v -0.854 -84.13 z"
   inkscape:connector-curvature="0"
   style="fill:#000000" />
	<path
   id="polyline13"
   d="m 96.874,26.116 v 83.276 h -3.15 v 1.708 h 4.005 0.854 v -0.854 -84.13 z"
   inkscape:connector-curvature="0"
   style="fill:#000000" />
	<path
   id="polyline15"
   d="m 104.243,26.116 v 83.276 h -3.177 v 1.708 h 4.032 0.854 v -0.854 -84.13 z"
   inkscape:connector-curvature="0"
   style="fill:#000000" />
	<path
   id="polyline17"
   d="m 111.585,26.116 v 83.276 h -3.177 v 1.708 h 4.032 0.854 v -0.854 -84.13 z"
   inkscape:connector-curvature="0"
   style="fill:#000000" />
	<path
   id="polyline19"
   d="m 118.928,26.116 v 83.276 h -3.177 v 1.708 h 4.032 0.854 v -0.854 -84.13 z"
   inkscape:connector-curvature="0"
   style="fill:#000000" />
	<path
   id="polyline21"
   d="m 126.271,26.116 v 83.276 h -3.177 v 1.708 h 4.031 0.855 v -0.854 -84.13 z"
   inkscape:connector-curvature="0"
   style="fill:#000000" />
	<path
   id="polyline23"
   d="m 133.611,26.116 v 83.276 h -3.177 v 1.708 h 4.032 0.854 v -0.854 -84.13 z"
   inkscape:connector-curvature="0"
   style="fill:#000000" />
	<path
   id="polyline25"
   d="m 140.959,26.116 v 83.276 h -3.177 v 1.708 h 4.032 0.854 v -0.854 -84.13 z"
   inkscape:connector-curvature="0"
   style="fill:#000000" />
	<path
   id="polyline27"
   d="m 148.298,26.116 v 83.276 h -3.177 v 1.708 h 4.031 0.854 v -0.854 -84.13 z"
   inkscape:connector-curvature="0"
   style="fill:#000000" />
	<path
   id="polyline29"
   d="m 155.638,26.116 v 83.276 h -3.177 v 1.708 h 4.032 0.854 v -0.854 -84.13 z"
   inkscape:connector-curvature="0"
   style="fill:#000000" />
	<path
   id="polyline31"
   d="m 162.985,26.116 v 83.276 h -3.177 v 1.708 h 4.032 0.854 v -0.854 -84.13 z"
   inkscape:connector-curvature="0"
   style="fill:#000000" />
	<path
   id="polyline33"
   d="m 170.324,26.116 v 83.276 h -3.178 v 1.708 h 4.032 0.854 v -0.854 -84.13 z"
   inkscape:connector-curvature="0"
   style="fill:#000000" />
	<path
   id="polyline35"
   d="m 177.663,26.116 v 83.276 h -3.177 v 1.708 h 4.032 0.854 v -0.854 -84.13 z"
   inkscape:connector-curvature="0"
   style="fill:#000000" />
	<path
   id="polyline37"
   d="m 185.011,26.116 v 83.276 h -3.177 v 1.708 h 4.032 0.854 v -0.854 -84.13 z"
   inkscape:connector-curvature="0"
   style="fill:#000000" />
	<path
   id="polyline39"
   d="m 192.35,26.116 v 83.276 h -3.178 v 1.708 h 4.032 0.854 v -0.854 -84.13 z"
   inkscape:connector-curvature="0"
   style="fill:#000000" />
	<path
   id="polyline41"
   d="m 199.689,26.116 v 83.276 h -3.177 v 1.708 h 4.032 0.854 v -0.854 -84.13 z"
   inkscape:connector-curvature="0"
   style="fill:#000000" />
	<path
   id="polyline43"
   d="m 207.037,26.116 v 83.276 h -3.177 v 1.708 h 4.032 0.854 v -0.854 -84.13 z"
   inkscape:connector-curvature="0"
   style="fill:#000000" />
	<path
   id="polyline45"
   d="m 214.376,26.116 v 83.276 h -3.178 v 1.708 h 4.032 0.855 v -0.854 -84.13 z"
   inkscape:connector-curvature="0"
   style="fill:#000000" />
	<path
   id="polyline47"
   d="m 221.724,26.116 v 83.276 h -3.178 v 1.708 h 4.032 0.854 v -0.854 -84.13 z"
   inkscape:connector-curvature="0"
   style="fill:#000000" />
	<path
   id="polyline49"
   d="m 229.063,26.116 v 83.276 h -3.177 v 1.708 h 4.032 0.854 v -0.854 -84.13 z"
   inkscape:connector-curvature="0"
   style="fill:#000000" />
	<path
   id="polyline51"
   d="m 236.402,26.116 v 83.276 h -3.178 v 1.708 h 4.032 0.855 v -0.854 -84.13 z"
   inkscape:connector-curvature="0"
   style="fill:#000000" />
	<path
   id="polyline53"
   d="m 243.749,26.116 v 83.276 h -3.177 v 1.708 h 4.032 0.854 v -0.854 -84.13 z"
   inkscape:connector-curvature="0"
   style="fill:#000000" />
	<path
   id="polyline55"
   d="m 251.088,26.116 v 83.276 h -3.177 v 1.708 h 4.032 0.854 v -0.854 -84.13 z"
   inkscape:connector-curvature="0"
   style="fill:#000000" />
	<path
   id="polyline57"
   d="m 258.436,26.116 v 83.276 h -3.177 v 1.708 h 4.032 0.854 v -0.854 -84.13 z"
   inkscape:connector-curvature="0"
   style="fill:#000000" />
	<path
   id="polyline59"
   d="m 265.775,26.116 v 83.276 h -3.178 v 1.708 h 4.032 0.854 v -0.854 -84.13 z"
   inkscape:connector-curvature="0"
   style="fill:#000000" />
	<path
   id="path61"
   d="m 341.737,35.461 c -0.906,0 -1.656,0.749 -1.656,1.655 v 32.893 c 0,0.905 0.75,1.656 1.656,1.656 H 538.62 c 0.906,0 1.655,-0.75 1.655,-1.656 V 37.116 c 0,-0.905 -0.749,-1.655 -1.655,-1.655 z m 0.054,1.708 H 538.563 V 69.956 H 341.791 Z"
   inkscape:connector-curvature="0"
   style="fill:#000000" />
	<path
   id="path63"
   d="m 347.53,40.24 c -1.128,0 -2.082,0.928 -2.082,2.056 V 64.83 c 0,1.128 0.954,2.056 2.082,2.056 h 148.261 c 0.799,0 1.368,-0.527 1.708,-1.201 h 0.348 V 64.83 42.296 c 0,-1.128 -0.926,-2.056 -2.056,-2.056 z m 0,1.709 h 148.261 c 0.205,0 0.347,0.142 0.347,0.347 v 21.68 0.854 c 0,0.205 -0.142,0.347 -0.347,0.347 H 347.53 c -0.204,0 -0.373,-0.143 -0.373,-0.347 V 42.296 c 0,-0.205 0.169,-0.347 0.373,-0.347 z"
   inkscape:connector-curvature="0"
   style="fill:#000000" />
	<path
   id="path65"
   d="m 349.794,43.043 c -0.684,0 -1.255,0.568 -1.255,1.255 v 18.529 c 0,0.687 0.571,1.255 1.255,1.255 h 143.988 c 0.686,0 1.256,-0.571 1.256,-1.255 V 44.298 c 0,-0.685 -0.57,-1.255 -1.256,-1.255 z m 0.454,1.709 H 493.33 V 62.374 H 350.248 Z"
   inkscape:connector-curvature="0"
   style="fill:#000000" />
	<path
   id="circle67"
   d="m 520.482,41.842 c -6.465,0 -11.721,5.257 -11.721,11.722 0,6.464 5.255,11.721 11.721,11.721 6.465,0 11.722,-5.257 11.722,-11.721 0,-6.465 -5.257,-11.722 -11.722,-11.722 z m 0,1.709 c 5.54,0 10.013,4.471 10.013,10.013 0,5.541 -4.473,10.012 -10.013,10.012 -5.541,0 -10.012,-4.471 -10.012,-10.012 10e-4,-5.542 4.471,-10.013 10.012,-10.013 z"
   inkscape:connector-curvature="0"
   style="fill:#000000" />
</g>
<path
   id="path69"
   fill="#F4F4F4"
   d="M52.287,114.276c-0.906,0-1.682,0.748-1.682,1.655V324.45c0,0.906,0.774,1.656,1.682,1.656  h493.505c0.906,0,1.656-0.751,1.656-1.656V115.932c0-0.905-0.752-1.655-1.656-1.655H52.287z M52.313,115.985h493.429V324.4H52.313  V115.985z"
   style="fill:#000000" />
<path
   id="path71"
   fill="#F4F4F4"
   d="M52.287,16.852c-0.907,0-1.682,0.749-1.682,1.655v7.716h1.708V18.56h493.429v7.45h1.708v-7.503  c0-0.906-0.752-1.656-1.658-1.656H52.279L52.287,16.852z"
   style="fill:#000000" />
<path
   id="path73"
   fill="#F4F4F4"
   d="M75.354,167.06c-1.795,0-3.284,1.487-3.284,3.284v15.993c0,1.796,1.487,3.284,3.284,3.284  h15.993c1.796,0,3.258-1.487,3.258-3.284v-0.854v-15.139c0-1.795-1.462-3.284-3.258-3.284H75.354z M75.354,168.768h15.993  c0.874,0,1.549,0.704,1.549,1.576v15.993c0,0.872-0.677,1.575-1.549,1.575H75.354c-0.872,0-1.575-0.704-1.575-1.575v-15.993  C73.779,169.47,74.481,168.768,75.354,168.768z"
   style="fill:#000000" />
<path
   id="path75"
   fill="#F4F4F4"
   d="M99.224,167.06c-1.795,0-3.284,1.487-3.284,3.284v15.993c0,1.796,1.487,3.284,3.284,3.284  h15.993c1.796,0,3.284-1.487,3.284-3.284v-15.993c0-1.796-1.489-3.284-3.284-3.284H99.224z M99.224,168.768h15.993  c0.874,0,1.575,0.704,1.575,1.576v15.993c0,0.872-0.702,1.575-1.575,1.575H99.224c-0.873,0-1.575-0.704-1.575-1.575v-15.993  C97.648,169.47,98.35,168.768,99.224,168.768z"
   style="fill:#000000" />
<path
   id="path77"
   fill="#F4F4F4"
   d="M123.093,167.06c-1.794,0-3.284,1.487-3.284,3.284v15.993c0,1.795,1.487,3.284,3.284,3.284  h15.993c1.795,0,3.284-1.487,3.284-3.284v-15.993c0-1.795-1.488-3.284-3.284-3.284H123.093z M123.093,168.768h15.993  c0.873,0,1.575,0.704,1.575,1.576v15.993c0,0.872-0.703,1.575-1.575,1.575h-15.993c-0.873,0-1.575-0.704-1.575-1.575v-15.993  C121.518,169.47,122.221,168.768,123.093,168.768z"
   style="fill:#000000" />
<path
   id="path79"
   fill="#F4F4F4"
   d="M146.965,167.06c-1.794,0-3.256,1.487-3.256,3.284v15.993c0,1.796,1.46,3.284,3.256,3.284  h15.994c1.796,0,3.284-1.487,3.284-3.284v-15.993c0-1.796-1.489-3.284-3.284-3.284H146.965z M146.965,168.768h15.994  c0.874,0,1.575,0.704,1.575,1.576v15.993c0,0.872-0.702,1.575-1.575,1.575h-15.994c-0.872,0-1.548-0.704-1.548-1.575v-15.993  C145.417,169.47,146.091,168.768,146.965,168.768z"
   style="fill:#000000" />
<path
   id="path81"
   fill="#F4F4F4"
   d="M170.828,167.06c-1.794,0-3.257,1.487-3.257,3.284v15.993c0,1.795,1.46,3.284,3.257,3.284h16.02  c1.795,0,3.257-1.487,3.257-3.284v-15.993c0-1.795-1.462-3.284-3.257-3.284H170.828z M170.828,168.768h16.02  c0.874,0,1.548,0.704,1.548,1.576v15.993c0,0.872-0.676,1.575-1.548,1.575h-16.02c-0.873,0-1.548-0.704-1.548-1.575v-15.993  C169.28,169.47,169.955,168.768,170.828,168.768z"
   style="fill:#000000" />
<path
   id="path83"
   fill="#F4F4F4"
   d="M194.699,167.06c-1.795,0-3.257,1.487-3.257,3.284v15.993c0,1.796,1.461,3.284,3.257,3.284  h16.02c1.796,0,3.257-1.487,3.257-3.284v-15.993c0-1.796-1.462-3.284-3.257-3.284H194.699z M194.699,168.768h16.02  c0.874,0,1.549,0.704,1.549,1.576v15.993c0,0.872-0.676,1.575-1.549,1.575h-16.02c-0.872,0-1.548-0.704-1.548-1.575v-15.993  C193.151,169.47,193.826,168.768,194.699,168.768z"
   style="fill:#000000" />
<path
   id="path85"
   fill="#F4F4F4"
   d="M218.597,167.06c-1.794,0-3.284,1.487-3.284,3.284v15.993c0,1.796,1.488,3.284,3.284,3.284  h15.993c1.795,0,3.257-1.487,3.257-3.284v-15.993c0-1.796-1.463-3.284-3.257-3.284H218.597z M218.597,168.768h15.993  c0.872,0,1.548,0.704,1.548,1.576v15.993c0,0.872-0.678,1.575-1.548,1.575h-15.993c-0.871,0-1.575-0.704-1.575-1.575v-15.993  C217.021,169.47,217.725,168.768,218.597,168.768z"
   style="fill:#000000" />
<path
   id="path87"
   fill="#F4F4F4"
   d="M242.468,167.06c-1.794,0-3.284,1.487-3.284,3.284v15.993c0,1.796,1.489,3.284,3.284,3.284  h15.993c1.795,0,3.284-1.487,3.284-3.284v-15.993c0-1.796-1.49-3.284-3.284-3.284H242.468z M242.468,168.768h15.993  c0.871,0,1.576,0.704,1.576,1.576v15.993c0,0.872-0.705,1.575-1.576,1.575h-15.993c-0.871,0-1.576-0.704-1.576-1.575v-15.993  C240.892,169.47,241.596,168.768,242.468,168.768z"
   style="fill:#000000" />
<path
   id="path89"
   fill="#F4F4F4"
   d="M266.331,167.06c-1.794,0-3.257,1.487-3.257,3.284v15.993c0,1.795,1.46,3.284,3.257,3.284  h15.993c1.797,0,3.284-1.487,3.284-3.284v-15.993c0-1.796-1.488-3.284-3.284-3.284H266.331z M266.331,168.768h15.993  c0.874,0,1.575,0.704,1.575,1.576v15.993c0,0.872-0.702,1.575-1.575,1.575h-15.993c-0.873,0-1.548-0.704-1.548-1.575v-15.993  C264.782,169.47,265.458,168.768,266.331,168.768z"
   style="fill:#000000" />
<path
   id="path91"
   fill="#F4F4F4"
   d="M290.202,167.06c-1.795,0-3.258,1.487-3.258,3.284v15.993c0,1.795,1.461,3.284,3.258,3.284  h15.993c1.796,0,3.284-1.487,3.284-3.284v-15.993c0-1.795-1.488-3.284-3.284-3.284H290.202z M290.202,168.768h15.993  c0.872,0,1.575,0.704,1.575,1.576v15.993c0,0.872-0.704,1.575-1.575,1.575h-15.993c-0.873,0-1.549-0.704-1.549-1.575v-15.993  C288.653,169.47,289.329,168.768,290.202,168.768z"
   style="fill:#000000" />
<path
   id="path93"
   fill="#F4F4F4"
   d="M454.755,132.723c-1.795,0-3.283,1.462-3.283,3.257v16.018c0,1.796,1.488,3.257,3.283,3.257  h15.993c1.794,0,3.284-1.46,3.284-3.257V135.98c0-1.796-1.489-3.257-3.284-3.257H454.755z M454.755,134.431h15.993  c0.871,0,1.575,0.677,1.575,1.549v16.018c0,0.874-0.704,1.549-1.575,1.549h-15.993c-0.875,0-1.575-0.675-1.575-1.549V135.98  C453.18,135.106,453.882,134.431,454.755,134.431z"
   style="fill:#000000" />
<path
   id="path95"
   fill="#F4F4F4"
   d="M478.618,132.723c-1.796,0-3.258,1.461-3.258,3.257v16.018c0,1.796,1.462,3.257,3.258,3.257  h15.992c1.796,0,3.284-1.461,3.284-3.257V135.98c0-1.795-1.486-3.257-3.284-3.257H478.618z M478.618,134.431h15.992  c0.874,0,1.576,0.676,1.576,1.549v16.018c0,0.874-0.702,1.549-1.576,1.549h-15.992c-0.873,0-1.549-0.675-1.549-1.549V135.98  C477.069,135.107,477.747,134.431,478.618,134.431z"
   style="fill:#000000" />
<path
   id="path97"
   fill="#F4F4F4"
   d="M502.489,132.723c-1.794,0-3.258,1.461-3.258,3.257v16.018c0,1.796,1.464,3.257,3.258,3.257  h16.02c1.794,0,3.258-1.46,3.258-3.257V135.98c0-1.796-1.463-3.257-3.258-3.257H502.489z M502.489,134.431h16.02  c0.871,0,1.549,0.677,1.549,1.549v16.018c0,0.874-0.678,1.549-1.549,1.549h-16.02c-0.872,0-1.549-0.675-1.549-1.549V135.98  C500.94,135.107,501.619,134.431,502.489,134.431z"
   style="fill:#000000" />
<path
   id="path99"
   fill="#F4F4F4"
   d="M314.073,167.06c-1.796,0-3.257,1.487-3.257,3.284v15.993c0,1.796,1.46,3.284,3.257,3.284  h16.021c1.793,0,3.256-1.487,3.256-3.284v-15.993c0-1.796-1.463-3.284-3.256-3.284H314.073z M314.073,168.768h16.021  c0.872,0,1.548,0.704,1.548,1.576v15.993c0,0.871-0.68,1.575-1.548,1.575h-16.021c-0.872,0-1.549-0.704-1.549-1.575v-15.993  C312.524,169.472,313.201,168.768,314.073,168.768z"
   style="fill:#000000" />
<path
   id="path101"
   fill="#F4F4F4"
   d="M337.944,167.06c-1.794,0-3.258,1.487-3.258,3.284v15.993c0,1.795,1.46,3.284,3.258,3.284  h16.02c1.796,0,3.258-1.487,3.258-3.284v-15.993c0-1.795-1.462-3.284-3.258-3.284H337.944z M337.944,168.768h16.02  c0.873,0,1.549,0.704,1.549,1.576v15.993c0,0.872-0.678,1.575-1.549,1.575h-16.02c-0.873,0-1.548-0.704-1.548-1.575v-15.993  C336.396,169.47,337.071,168.768,337.944,168.768z"
   style="fill:#000000" />
<path
   id="path103"
   fill="#F4F4F4"
   d="M361.841,167.06c-1.794,0-3.284,1.487-3.284,3.284v15.993c0,1.796,1.488,3.284,3.284,3.284  h15.992c1.798,0,3.258-1.487,3.258-3.284v-15.993c0-1.795-1.462-3.284-3.258-3.284H361.841z M361.841,168.768h15.992  c0.875,0,1.549,0.704,1.549,1.576v15.993c0,0.872-0.675,1.575-1.549,1.575h-15.992c-0.871,0-1.576-0.704-1.576-1.575v-15.993  C360.265,169.472,360.968,168.768,361.841,168.768z"
   style="fill:#000000" />
<path
   id="path105"
   fill="#F4F4F4"
   d="M385.703,167.06c-1.794,0-3.284,1.487-3.284,3.284v15.993c0,1.795,1.489,3.284,3.284,3.284  h15.993c1.797,0,3.284-1.487,3.284-3.284v-15.993c0-1.795-1.488-3.284-3.284-3.284H385.703z M385.703,168.768h15.993  c0.874,0,1.575,0.704,1.575,1.576v15.993c0,0.872-0.703,1.575-1.575,1.575h-15.993c-0.871,0-1.575-0.704-1.575-1.575v-15.993  C384.128,169.47,384.83,168.768,385.703,168.768z"
   style="fill:#000000" />
<path
   id="path107"
   fill="#F4F4F4"
   d="M409.576,167.06c-1.796,0-3.258,1.487-3.258,3.284v15.993c0,1.796,1.461,3.284,3.258,3.284  h15.993c1.793,0,3.283-1.487,3.283-3.284v-15.993c0-1.796-1.49-3.284-3.283-3.284H409.576z M409.576,168.768h15.993  c0.871,0,1.575,0.704,1.575,1.576v15.993c0,0.871-0.706,1.575-1.575,1.575h-15.993c-0.873,0-1.549-0.704-1.549-1.575v-15.993  C408.027,169.472,408.703,168.768,409.576,168.768z"
   style="fill:#000000" />
<path
   id="path109"
   fill="#F4F4F4"
   d="M87.556,214.854c-1.795,0-3.284,1.463-3.284,3.258v15.992c0,1.797,1.489,3.284,3.284,3.284  h21.227c1.795,0,3.284-1.487,3.284-3.284v-0.854v-15.138c0-1.795-1.487-3.258-3.284-3.258H87.556z M87.556,216.563h21.227  c0.873,0,1.575,0.678,1.575,1.549v15.992c0,0.874-0.702,1.576-1.575,1.576H87.556c-0.873,0-1.575-0.701-1.575-1.576v-15.992  C85.98,217.239,86.685,216.563,87.556,216.563z"
   style="fill:#000000" />
<path
   id="path111"
   fill="#F4F4F4"
   d="M116.659,214.854c-1.796,0-3.257,1.461-3.257,3.258v15.992c0,1.796,1.46,3.284,3.257,3.284  h15.993c1.795,0,3.285-1.487,3.285-3.284v-15.992c0-1.797-1.489-3.258-3.285-3.258H116.659z M116.659,216.563h15.993  c0.874,0,1.576,0.676,1.576,1.549v15.992c0,0.873-0.702,1.576-1.576,1.576h-15.993c-0.873,0-1.549-0.704-1.549-1.576v-15.992  C115.11,217.237,115.786,216.563,116.659,216.563z"
   style="fill:#000000" />
<path
   id="path113"
   fill="#F4F4F4"
   d="M140.532,214.854c-1.795,0-3.258,1.461-3.258,3.258v15.992c0,1.795,1.461,3.284,3.258,3.284  h16.02c1.795,0,3.257-1.487,3.257-3.284v-15.992c0-1.795-1.461-3.258-3.257-3.258H140.532z M140.532,216.563h16.02  c0.873,0,1.548,0.676,1.548,1.549v15.992c0,0.873-0.676,1.576-1.548,1.576h-16.02c-0.873,0-1.549-0.704-1.549-1.576v-15.992  C138.983,217.237,139.66,216.563,140.532,216.563z"
   style="fill:#000000" />
<path
   id="path115"
   fill="#F4F4F4"
   d="M164.395,214.854c-1.795,0-3.257,1.461-3.257,3.258v15.992c0,1.796,1.461,3.284,3.257,3.284  h16.02c1.796,0,3.258-1.487,3.258-3.284v-15.992c0-1.797-1.462-3.258-3.258-3.258H164.395z M164.395,216.563h16.02  c0.874,0,1.549,0.676,1.549,1.549v15.992c0,0.873-0.675,1.576-1.549,1.576h-16.02c-0.873,0-1.549-0.704-1.549-1.576v-15.992  C162.846,217.237,163.521,216.563,164.395,216.563z"
   style="fill:#000000" />
<path
   id="path117"
   fill="#F4F4F4"
   d="M188.292,214.854c-1.794,0-3.284,1.461-3.284,3.258v15.992c0,1.795,1.488,3.284,3.284,3.284  h15.993c1.795,0,3.257-1.487,3.257-3.284v-15.992c0-1.795-1.461-3.258-3.257-3.258H188.292z M188.292,216.563h15.993  c0.873,0,1.548,0.676,1.548,1.549v15.992c0,0.873-0.676,1.576-1.548,1.576h-15.993c-0.873,0-1.575-0.704-1.575-1.576v-15.992  C186.716,217.237,187.419,216.563,188.292,216.563z"
   style="fill:#000000" />
<path
   id="path119"
   fill="#F4F4F4"
   d="M212.163,214.854c-1.796,0-3.284,1.461-3.284,3.258v15.992c0,1.796,1.487,3.284,3.284,3.284  h15.993c1.796,0,3.285-1.487,3.285-3.284v-15.992c0-1.797-1.488-3.258-3.285-3.258H212.163z M212.163,216.563h15.993  c0.874,0,1.576,0.676,1.576,1.549v15.992c0,0.873-0.702,1.576-1.576,1.576h-15.993c-0.873,0-1.575-0.704-1.575-1.576v-15.992  C210.588,217.237,211.29,216.563,212.163,216.563z"
   style="fill:#000000" />
<path
   id="path121"
   fill="#F4F4F4"
   d="M236.034,214.854c-1.794,0-3.284,1.461-3.284,3.258v15.992c0,1.797,1.489,3.284,3.284,3.284  h15.993c1.796,0,3.284-1.487,3.284-3.284v-15.992c0-1.797-1.488-3.258-3.284-3.258H236.034z M236.034,216.563h15.993  c0.874,0,1.575,0.676,1.575,1.549v15.992c0,0.873-0.702,1.576-1.575,1.576h-15.993c-0.871,0-1.575-0.704-1.575-1.576v-15.992  C234.459,217.237,235.163,216.563,236.034,216.563z"
   style="fill:#000000" />
<path
   id="path123"
   fill="#F4F4F4"
   d="M259.897,214.854c-1.794,0-3.257,1.461-3.257,3.258v15.992c0,1.796,1.462,3.284,3.257,3.284  h15.993c1.794,0,3.284-1.487,3.284-3.284v-15.992c0-1.797-1.489-3.258-3.284-3.258H259.897z M259.897,216.563h15.993  c0.871,0,1.576,0.676,1.576,1.549v15.992c0,0.873-0.705,1.576-1.576,1.576h-15.993c-0.871,0-1.549-0.704-1.549-1.576v-15.992  C258.348,217.237,259.025,216.563,259.897,216.563z"
   style="fill:#000000" />
<path
   id="path125"
   fill="#F4F4F4"
   d="M283.769,214.854c-1.795,0-3.258,1.461-3.258,3.258v15.992c0,1.795,1.461,3.284,3.258,3.284  h16.019c1.796,0,3.258-1.487,3.258-3.284v-15.992c0-1.795-1.461-3.258-3.258-3.258H283.769z M283.769,216.563h16.019  c0.875,0,1.549,0.676,1.549,1.549v15.992c0,0.873-0.676,1.576-1.549,1.576h-16.019c-0.873,0-1.549-0.704-1.549-1.576v-15.992  C282.22,217.237,282.896,216.563,283.769,216.563z"
   style="fill:#000000" />
<path
   id="path127"
   fill="#F4F4F4"
   d="M307.64,214.854c-1.796,0-3.257,1.461-3.257,3.258v15.992c0,1.795,1.461,3.284,3.257,3.284  h16.02c1.795,0,3.256-1.487,3.256-3.284v-15.992c0-1.795-1.46-3.258-3.256-3.258H307.64z M307.64,216.563h16.02  c0.874,0,1.548,0.676,1.548,1.549v15.992c0,0.873-0.676,1.576-1.548,1.576h-16.02c-0.871,0-1.549-0.704-1.549-1.576v-15.992  C306.091,217.237,306.769,216.563,307.64,216.563z"
   style="fill:#000000" />
<path
   id="path129"
   fill="#F4F4F4"
   d="M331.536,214.854c-1.795,0-3.283,1.461-3.283,3.258v15.992c0,1.796,1.488,3.284,3.283,3.284  h15.994c1.795,0,3.257-1.487,3.257-3.284v-15.992c0-1.797-1.462-3.258-3.257-3.258H331.536z M331.536,216.563h15.994  c0.872,0,1.548,0.676,1.548,1.549v15.992c0,0.872-0.678,1.576-1.548,1.576h-15.994c-0.873,0-1.574-0.704-1.574-1.576v-15.992  C329.962,217.237,330.663,216.563,331.536,216.563z"
   style="fill:#000000" />
<path
   id="path131"
   fill="#F4F4F4"
   d="M355.407,214.854c-1.794,0-3.284,1.461-3.284,3.258v15.992c0,1.795,1.489,3.284,3.284,3.284  H371.4c1.796,0,3.284-1.487,3.284-3.284v-15.992c0-1.795-1.488-3.258-3.284-3.258H355.407z M355.407,216.563H371.4  c0.873,0,1.575,0.676,1.575,1.549v15.992c0,0.873-0.702,1.576-1.575,1.576h-15.993c-0.872,0-1.574-0.704-1.574-1.576v-15.992  C353.833,217.237,354.535,216.563,355.407,216.563z"
   style="fill:#000000" />
<path
   id="path133"
   fill="#F4F4F4"
   d="M379.271,214.854c-1.794,0-3.258,1.461-3.258,3.258v15.992c0,1.796,1.462,3.284,3.258,3.284  h15.993c1.796,0,3.284-1.487,3.284-3.284v-15.992c0-1.795-1.488-3.258-3.284-3.258H379.271z M379.271,216.563h15.993  c0.872,0,1.575,0.676,1.575,1.549v15.992c0,0.873-0.703,1.576-1.575,1.576h-15.993c-0.873,0-1.549-0.704-1.549-1.576v-15.992  C377.722,217.237,378.397,216.563,379.271,216.563z"
   style="fill:#000000" />
<path
   id="path135"
   fill="#F4F4F4"
   d="M403.141,214.854c-1.793,0-3.257,1.461-3.257,3.258v15.992c0,1.795,1.462,3.284,3.257,3.284  h16.021c1.796,0,3.258-1.487,3.258-3.284v-15.992c0-1.795-1.462-3.258-3.258-3.258H403.141z M403.141,216.563h16.021  c0.872,0,1.548,0.676,1.548,1.549v15.992c0,0.873-0.676,1.576-1.548,1.576h-16.021c-0.872,0-1.548-0.704-1.548-1.576v-15.992  C401.593,217.237,402.269,216.563,403.141,216.563z"
   style="fill:#000000" />
<path
   id="path137"
   fill="#F4F4F4"
   d="M92.79,238.725c-1.796,0-3.284,1.487-3.284,3.284v15.992c0,1.796,1.488,3.285,3.284,3.285  h27.26c1.795,0,3.284-1.488,3.284-3.285v-15.992c0-1.796-1.487-3.284-3.284-3.284H92.79z M92.79,240.433h27.26  c0.872,0,1.575,0.704,1.575,1.576v15.992c0,0.874-0.703,1.577-1.575,1.577H92.79c-0.873,0-1.576-0.704-1.576-1.577v-15.992  C91.214,241.137,91.918,240.433,92.79,240.433z"
   style="fill:#000000" />
<path
   id="path139"
   fill="#F4F4F4"
   d="M127.925,238.725c-1.795,0-3.257,1.487-3.257,3.284v15.992c0,1.796,1.461,3.285,3.257,3.285  h16.02c1.796,0,3.257-1.488,3.257-3.285v-15.992c0-1.796-1.46-3.284-3.257-3.284H127.925z M127.925,240.433h16.02  c0.872,0,1.548,0.704,1.548,1.576v15.992c0,0.874-0.675,1.577-1.548,1.577h-16.02c-0.873,0-1.548-0.704-1.548-1.577v-15.992  C126.377,241.137,127.054,240.433,127.925,240.433z"
   style="fill:#000000" />
<path
   id="path141"
   fill="#F4F4F4"
   d="M151.793,238.725c-1.796,0-3.257,1.487-3.257,3.284v15.992c0,1.796,1.46,3.285,3.257,3.285  h16.019c1.796,0,3.258-1.488,3.258-3.285v-15.992c0-1.796-1.461-3.284-3.258-3.284H151.793z M151.793,240.433h16.019  c0.873,0,1.548,0.704,1.548,1.576v15.992c0,0.874-0.675,1.577-1.548,1.577h-16.019c-0.873,0-1.549-0.704-1.549-1.577v-15.992  C150.244,241.137,150.921,240.433,151.793,240.433z"
   style="fill:#000000" />
<path
   id="path143"
   fill="#F4F4F4"
   d="M175.69,238.725c-1.796,0-3.284,1.489-3.284,3.284v15.992c0,1.796,1.488,3.285,3.284,3.285  h15.993c1.796,0,3.257-1.488,3.257-3.285v-15.992c0-1.796-1.46-3.284-3.257-3.284H175.69z M175.69,240.433h15.993  c0.873,0,1.549,0.704,1.549,1.576v15.992c0,0.874-0.675,1.577-1.549,1.577H175.69c-0.874,0-1.575-0.704-1.575-1.577v-15.992  C174.115,241.136,174.816,240.433,175.69,240.433z"
   style="fill:#000000" />
<path
   id="path145"
   fill="#F4F4F4"
   d="M199.561,238.725c-1.796,0-3.284,1.489-3.284,3.284v15.992c0,1.796,1.487,3.285,3.284,3.285  h15.993c1.796,0,3.284-1.488,3.284-3.285v-15.992c0-1.796-1.487-3.284-3.284-3.284H199.561z M199.561,240.433h15.993  c0.873,0,1.575,0.704,1.575,1.576v15.992c0,0.874-0.702,1.577-1.575,1.577h-15.993c-0.872,0-1.575-0.704-1.575-1.577v-15.992  C197.985,241.136,198.688,240.433,199.561,240.433z"
   style="fill:#000000" />
<path
   id="path147"
   fill="#F4F4F4"
   d="M223.432,238.725c-1.796,0-3.284,1.489-3.284,3.284v15.992c0,1.796,1.488,3.285,3.284,3.285  h15.993c1.796,0,3.284-1.488,3.284-3.285v-15.992c0-1.796-1.488-3.284-3.284-3.284H223.432z M223.432,240.433h15.993  c0.873,0,1.575,0.704,1.575,1.576v15.992c0,0.874-0.702,1.577-1.575,1.577h-15.993c-0.873,0-1.575-0.704-1.575-1.577v-15.992  C221.857,241.136,222.559,240.433,223.432,240.433z"
   style="fill:#000000" />
<path
   id="path149"
   fill="#F4F4F4"
   d="M247.294,238.725c-1.795,0-3.257,1.487-3.257,3.284v15.992c0,1.796,1.461,3.285,3.257,3.285  h15.994c1.795,0,3.284-1.488,3.284-3.285v-15.992c0-1.795-1.488-3.284-3.284-3.284H247.294z M247.294,240.433h15.994  c0.872,0,1.576,0.704,1.576,1.576v15.992c0,0.874-0.704,1.577-1.576,1.577h-15.994c-0.873,0-1.548-0.704-1.548-1.577v-15.992  C245.746,241.137,246.423,240.433,247.294,240.433z"
   style="fill:#000000" />
<path
   id="path151"
   fill="#F4F4F4"
   d="M271.166,238.725c-1.795,0-3.257,1.487-3.257,3.284v15.992c0,1.797,1.461,3.285,3.257,3.285  h16.02c1.796,0,3.257-1.488,3.257-3.285v-15.992c0-1.795-1.46-3.284-3.257-3.284H271.166z M271.166,240.433h16.02  c0.873,0,1.549,0.704,1.549,1.576v15.992c0,0.874-0.677,1.577-1.549,1.577h-16.02c-0.871,0-1.548-0.704-1.548-1.577v-15.992  C269.618,241.137,270.294,240.433,271.166,240.433z"
   style="fill:#000000" />
<path
   id="path153"
   fill="#F4F4F4"
   d="M295.063,238.725c-1.796,0-3.284,1.487-3.284,3.284v15.992c0,1.796,1.487,3.285,3.284,3.285  h15.993c1.795,0,3.257-1.488,3.257-3.285v-15.992c0-1.795-1.46-3.284-3.257-3.284H295.063z M295.063,240.433h15.993  c0.872,0,1.548,0.704,1.548,1.576v15.992c0,0.874-0.676,1.577-1.548,1.577h-15.993c-0.873,0-1.575-0.704-1.575-1.577v-15.992  C293.488,241.137,294.191,240.433,295.063,240.433z"
   style="fill:#000000" />
<path
   id="path155"
   fill="#F4F4F4"
   d="M318.934,238.725c-1.795,0-3.283,1.487-3.283,3.284v15.992c0,1.797,1.488,3.285,3.283,3.285  h15.993c1.796,0,3.258-1.488,3.258-3.285v-15.992c0-1.795-1.46-3.284-3.258-3.284H318.934z M318.934,240.433h15.993  c0.873,0,1.55,0.704,1.55,1.576v15.992c0,0.874-0.677,1.577-1.55,1.577h-15.993c-0.872,0-1.574-0.704-1.574-1.577v-15.992  C317.359,241.137,318.063,240.433,318.934,240.433z"
   style="fill:#000000" />
<path
   id="path157"
   fill="#F4F4F4"
   d="M342.797,238.725c-1.795,0-3.283,1.487-3.283,3.284v15.992c0,1.796,1.488,3.285,3.283,3.285  h15.993c1.796,0,3.284-1.488,3.284-3.285v-0.854v-15.139c0-1.795-1.487-3.284-3.284-3.284H342.797z M342.797,240.433h15.993  c0.872,0,1.576,0.704,1.576,1.576v15.992c0,0.874-0.704,1.577-1.576,1.577h-15.993c-0.873,0-1.575-0.704-1.575-1.577v-15.992  C341.222,241.137,341.926,240.433,342.797,240.433z"
   style="fill:#000000" />
<path
   id="path159"
   fill="#F4F4F4"
   d="M366.669,238.725c-1.796,0-3.258,1.487-3.258,3.284v15.992c0,1.797,1.462,3.285,3.258,3.285  h15.992c1.795,0,3.284-1.488,3.284-3.285v-15.992c0-1.795-1.487-3.284-3.284-3.284H366.669z M366.669,240.433h15.992  c0.873,0,1.575,0.704,1.575,1.576v15.992c0,0.874-0.702,1.577-1.575,1.577h-15.992c-0.874,0-1.55-0.704-1.55-1.577v-15.992  C365.119,241.137,365.797,240.433,366.669,240.433z"
   style="fill:#000000" />
<path
   id="path161"
   fill="#F4F4F4"
   d="M390.539,238.725c-1.795,0-3.257,1.487-3.257,3.284v15.992c0,1.796,1.462,3.285,3.257,3.285  h28.89c1.795,0,3.283-1.488,3.283-3.285v-15.992c0-1.795-1.486-3.284-3.283-3.284H390.539z M390.539,240.433h28.89  c0.872,0,1.574,0.704,1.574,1.576v15.992c0,0.874-0.702,1.577-1.574,1.577h-28.89c-0.873,0-1.549-0.704-1.549-1.577v-15.992  C388.99,241.137,389.668,240.433,390.539,240.433z"
   style="fill:#000000" />
<path
   id="path163"
   fill="#F4F4F4"
   d="M127.952,262.621c-1.795,0-3.284,1.462-3.284,3.258v16.02c0,1.796,1.488,3.258,3.284,3.258  h15.993c1.796,0,3.284-1.462,3.284-3.258v-0.854v-15.165c0-1.796-1.487-3.258-3.284-3.258H127.952z M127.952,264.331h15.993  c0.872,0,1.575,0.677,1.575,1.548v16.02c0,0.873-0.703,1.549-1.575,1.549h-15.993c-0.872,0-1.575-0.678-1.575-1.549v-16.02  C126.377,265.008,127.08,264.331,127.952,264.331z"
   style="fill:#000000" />
<path
   id="path165"
   fill="#F4F4F4"
   d="M151.818,262.621c-1.795,0-3.284,1.462-3.284,3.258v16.02c0,1.796,1.488,3.258,3.284,3.258  h15.994c1.795,0,3.284-1.462,3.284-3.258v-16.02c0-1.796-1.489-3.258-3.284-3.258H151.818z M151.818,264.331h15.994  c0.872,0,1.575,0.677,1.575,1.548v16.02c0,0.873-0.704,1.549-1.575,1.549h-15.994c-0.872,0-1.575-0.678-1.575-1.549v-16.02  C150.243,265.008,150.946,264.331,151.818,264.331z"
   style="fill:#000000" />
<path
   id="path167"
   fill="#F4F4F4"
   d="M175.69,262.621c-1.796,0-3.257,1.462-3.257,3.258v16.02c0,1.796,1.461,3.258,3.257,3.258  h186.279c1.796,0,3.284-1.462,3.284-3.258v-16.02c0-1.795-1.486-3.258-3.284-3.258H175.69z M175.69,264.331h186.279  c0.873,0,1.575,0.677,1.575,1.548v16.02c0,0.873-0.702,1.549-1.575,1.549H175.69c-0.872,0-1.549-0.678-1.549-1.549v-16.02  C174.141,265.008,174.818,264.331,175.69,264.331z"
   style="fill:#000000" />
<path
   id="path169"
   fill="#F4F4F4"
   d="M80.588,190.956c-1.795,0-3.284,1.461-3.284,3.258v16.02c0,1.796,1.489,3.258,3.284,3.258  h22.027c1.49,0,2.708-1.032,3.097-2.403h0.187v-0.854v-16.02c0-1.796-1.487-3.258-3.284-3.258H80.588L80.588,190.956z   M80.588,192.665h22.027c0.873,0,1.575,0.677,1.575,1.549v15.165v0.854c0,0.873-0.702,1.549-1.575,1.549H80.588  c-0.871,0-1.575-0.678-1.575-1.549v-16.02C79.013,193.341,79.717,192.665,80.588,192.665z"
   style="fill:#000000" />
<path
   id="path171"
   fill="#F4F4F4"
   d="M110.491,190.956c-1.795,0-3.284,1.461-3.284,3.258v16.02c0,1.796,1.488,3.258,3.284,3.258  h15.993c1.796,0,3.284-1.462,3.284-3.258v-16.02c0-1.796-1.487-3.258-3.284-3.258H110.491z M110.491,192.665h15.993  c0.873,0,1.575,0.677,1.575,1.549v16.02c0,0.873-0.702,1.549-1.575,1.549h-15.993c-0.873,0-1.575-0.677-1.575-1.549v-16.02  C108.916,193.341,109.619,192.665,110.491,192.665z"
   style="fill:#000000" />
<path
   id="path173"
   fill="#F4F4F4"
   d="M134.363,190.956c-1.795,0-3.257,1.461-3.257,3.258v16.02c0,1.796,1.461,3.258,3.257,3.258  h15.993c1.796,0,3.284-1.462,3.284-3.258v-16.02c0-1.796-1.487-3.258-3.284-3.258H134.363z M134.363,192.665h15.993  c0.873,0,1.575,0.677,1.575,1.549v16.02c0,0.873-0.702,1.549-1.575,1.549h-15.993c-0.873,0-1.548-0.677-1.548-1.549v-16.02  C132.815,193.341,133.491,192.665,134.363,192.665z"
   style="fill:#000000" />
<path
   id="path175"
   fill="#F4F4F4"
   d="M158.226,190.956c-1.796,0-3.257,1.462-3.257,3.258v16.02c0,1.795,1.461,3.258,3.257,3.258  h16.02c1.796,0,3.257-1.462,3.257-3.258v-16.02c0-1.796-1.461-3.258-3.257-3.258H158.226z M158.226,192.665h16.02  c0.873,0,1.548,0.677,1.548,1.549v16.02c0,0.873-0.675,1.549-1.548,1.549h-16.02c-0.873,0-1.548-0.676-1.548-1.549v-16.02  C156.678,193.34,157.353,192.665,158.226,192.665z"
   style="fill:#000000" />
<path
   id="path177"
   fill="#F4F4F4"
   d="M182.097,190.956c-1.795,0-3.257,1.461-3.257,3.258v16.02c0,1.796,1.461,3.258,3.257,3.258  h16.02c1.796,0,3.258-1.462,3.258-3.258v-16.02c0-1.796-1.461-3.258-3.258-3.258H182.097z M182.097,192.665h16.02  c0.875,0,1.549,0.676,1.549,1.549v16.02c0,0.873-0.675,1.549-1.549,1.549h-16.02c-0.873,0-1.548-0.677-1.548-1.549v-16.02  C180.549,193.341,181.225,192.665,182.097,192.665z"
   style="fill:#000000" />
<path
   id="path179"
   fill="#F4F4F4"
   d="M205.994,190.956c-1.796,0-3.284,1.462-3.284,3.258v16.02c0,1.795,1.487,3.258,3.284,3.258  h15.993c1.796,0,3.257-1.462,3.257-3.258v-16.02c0-1.796-1.461-3.258-3.257-3.258H205.994z M205.994,192.665h15.993  c0.873,0,1.548,0.677,1.548,1.549v16.02c0,0.873-0.675,1.549-1.548,1.549h-15.993c-0.874,0-1.575-0.676-1.575-1.549v-16.02  C204.419,193.34,205.12,192.665,205.994,192.665z"
   style="fill:#000000" />
<path
   id="path181"
   fill="#F4F4F4"
   d="M229.866,190.956c-1.795,0-3.284,1.461-3.284,3.258v16.02c0,1.796,1.488,3.258,3.284,3.258  h15.993c1.796,0,3.285-1.462,3.285-3.258v-16.02c0-1.796-1.488-3.258-3.285-3.258H229.866z M229.866,192.665h15.993  c0.873,0,1.576,0.676,1.576,1.549v16.02c0,0.873-0.704,1.549-1.576,1.549h-15.993c-0.873,0-1.575-0.677-1.575-1.549v-16.02  C228.291,193.341,228.994,192.665,229.866,192.665z"
   style="fill:#000000" />
<path
   id="path183"
   fill="#F4F4F4"
   d="M253.737,190.956c-1.795,0-3.257,1.461-3.257,3.258v16.02c0,1.796,1.462,3.258,3.257,3.258  h15.993c1.796,0,3.284-1.462,3.284-3.258v-16.02c0-1.796-1.487-3.258-3.284-3.258H253.737z M253.737,192.665h15.993  c0.873,0,1.575,0.677,1.575,1.549v16.02c0,0.873-0.702,1.549-1.575,1.549h-15.993c-0.872,0-1.548-0.678-1.548-1.549v-16.02  C252.188,193.341,252.865,192.665,253.737,192.665z"
   style="fill:#000000" />
<path
   id="path185"
   fill="#F4F4F4"
   d="M277.6,190.956c-1.795,0-3.258,1.461-3.258,3.258v16.02c0,1.796,1.462,3.258,3.258,3.258  h15.993c1.796,0,3.284-1.462,3.284-3.258v-16.02c0-1.796-1.487-3.258-3.284-3.258H277.6z M277.6,192.665h15.993  c0.873,0,1.575,0.676,1.575,1.549v16.02c0,0.873-0.703,1.549-1.575,1.549H277.6c-0.873,0-1.549-0.677-1.549-1.549v-16.02  C276.051,193.341,276.728,192.665,277.6,192.665z"
   style="fill:#000000" />
<path
   id="path187"
   fill="#F4F4F4"
   d="M301.472,190.956c-1.796,0-3.258,1.461-3.258,3.258v16.02c0,1.796,1.461,3.258,3.258,3.258  h16.02c1.795,0,3.257-1.462,3.257-3.258v-16.02c0-1.796-1.462-3.258-3.257-3.258H301.472z M301.472,192.665h16.02  c0.873,0,1.548,0.676,1.548,1.549v16.02c0,0.873-0.677,1.549-1.548,1.549h-16.02c-0.873,0-1.549-0.678-1.549-1.549v-16.02  C299.923,193.341,300.599,192.665,301.472,192.665z"
   style="fill:#000000" />
<path
   id="path189"
   fill="#F4F4F4"
   d="M325.343,190.956c-1.796,0-3.258,1.461-3.258,3.258v16.02c0,1.796,1.462,3.258,3.258,3.258  h16.019c1.797,0,3.259-1.462,3.259-3.258v-16.02c0-1.796-1.462-3.258-3.259-3.258H325.343z M325.343,192.665h16.019  c0.873,0,1.55,0.676,1.55,1.549v16.02c0,0.873-0.677,1.549-1.55,1.549h-16.019c-0.874,0-1.55-0.677-1.55-1.549v-16.02  C323.793,193.341,324.469,192.665,325.343,192.665z"
   style="fill:#000000" />
<path
   id="path191"
   fill="#F4F4F4"
   d="M349.24,190.956c-1.796,0-3.284,1.461-3.284,3.258v16.02c0,1.796,1.486,3.258,3.284,3.258  h15.993c1.794,0,3.258-1.462,3.258-3.258v-16.02c0-1.796-1.462-3.258-3.258-3.258H349.24z M349.24,192.665h15.993  c0.872,0,1.548,0.676,1.548,1.549v16.02c0,0.873-0.677,1.549-1.548,1.549H349.24c-0.874,0-1.576-0.678-1.576-1.549v-16.02  C347.664,193.341,348.367,192.665,349.24,192.665z"
   style="fill:#000000" />
<path
   id="path193"
   fill="#F4F4F4"
   d="M373.103,190.956c-1.795,0-3.283,1.461-3.283,3.258v16.02c0,1.796,1.486,3.258,3.283,3.258  h15.993c1.794,0,3.284-1.461,3.284-3.258v-16.02c0-1.796-1.489-3.258-3.284-3.258H373.103z M373.103,192.665h15.993  c0.873,0,1.575,0.677,1.575,1.549v16.02c0,0.873-0.704,1.549-1.575,1.549h-15.993c-0.874,0-1.577-0.677-1.577-1.549v-16.02  C371.525,193.341,372.23,192.665,373.103,192.665z"
   style="fill:#000000" />
<path
   id="path195"
   fill="#F4F4F4"
   d="M396.974,190.956c-1.796,0-3.257,1.461-3.257,3.258v16.02c0,1.796,1.46,3.258,3.257,3.258  h28.488c1.794,0,3.258-1.462,3.258-3.258v-16.02c0-1.796-1.462-3.258-3.258-3.258H396.974z M396.974,192.665h28.488  c0.873,0,1.549,0.676,1.549,1.549v16.02c0,0.873-0.677,1.549-1.549,1.549h-28.488c-0.872,0-1.548-0.677-1.548-1.549v-16.02  C395.426,193.341,396.102,192.665,396.974,192.665z"
   style="fill:#000000" />
<path
   id="path197"
   fill="#F4F4F4"
   d="M96.767,131.953c-1.796,0-3.257,1.461-3.257,3.257v16.02c0,1.795,1.461,3.257,3.257,3.257  h25.685c1.794,0,3.257-1.461,3.257-3.257v-16.02c0-1.796-1.462-3.257-3.257-3.257H96.767z M96.767,133.663h25.685  c0.871,0,1.548,0.675,1.548,1.548v16.02c0,0.873-0.677,1.549-1.548,1.549H96.767c-0.873,0-1.548-0.676-1.548-1.549v-16.02  C95.219,134.337,95.895,133.663,96.767,133.663z"
   style="fill:#000000" />
<path
   id="path199"
   fill="#F4F4F4"
   d="M131.93,131.953c-1.796,0-3.284,1.461-3.284,3.257v16.02c0,1.794,1.488,3.257,3.284,3.257  h25.658c1.795,0,3.284-1.461,3.284-3.257v-16.02c0-1.796-1.489-3.257-3.284-3.257H131.93z M131.93,133.663h25.658  c0.871,0,1.575,0.675,1.575,1.548v16.02c0,0.873-0.704,1.549-1.575,1.549H131.93c-0.873,0-1.576-0.676-1.576-1.549v-16.02  C130.354,134.337,131.058,133.663,131.93,133.663z"
   style="fill:#000000" />
<path
   id="path201"
   fill="#F4F4F4"
   d="M167.069,131.953c-1.796,0-3.257,1.462-3.257,3.257v16.02c0,1.794,1.46,3.257,3.257,3.257  h25.684c1.795,0,3.257-1.461,3.257-3.257v-16.02c0-1.796-1.462-3.257-3.257-3.257H167.069z M167.069,133.663h25.684  c0.872,0,1.548,0.675,1.548,1.548v16.02c0,0.873-0.677,1.549-1.548,1.549h-25.684c-0.874,0-1.549-0.676-1.549-1.549v-16.02  C165.521,134.336,166.197,133.663,167.069,133.663z"
   style="fill:#000000" />
<path
   id="path203"
   fill="#F4F4F4"
   d="M202.227,131.953c-1.796,0-3.285,1.462-3.285,3.257v16.02c0,1.794,1.488,3.257,3.285,3.257  h25.657c1.796,0,3.285-1.461,3.285-3.257v-0.854V135.21c0-1.796-1.489-3.257-3.285-3.257H202.227z M202.227,133.663h25.657  c0.872,0,1.576,0.675,1.576,1.548v16.02c0,0.873-0.703,1.549-1.576,1.549h-25.657c-0.874,0-1.576-0.676-1.576-1.549v-16.02  C200.651,134.336,201.354,133.663,202.227,133.663z"
   style="fill:#000000" />
<path
   id="path205"
   fill="#F4F4F4"
   d="M237.367,131.953c-1.795,0-3.257,1.461-3.257,3.257v16.02c0,1.794,1.461,3.257,3.257,3.257  h25.685c1.795,0,3.257-1.461,3.257-3.257v-16.02c0-1.795-1.461-3.257-3.257-3.257H237.367z M237.367,133.663h25.685  c0.873,0,1.548,0.674,1.548,1.548v16.02c0,0.873-0.676,1.549-1.548,1.549h-25.685c-0.872,0-1.548-0.676-1.548-1.549v-16.02  C235.818,134.337,236.495,133.663,237.367,133.663z"
   style="fill:#000000" />
<path
   id="path207"
   fill="#F4F4F4"
   d="M361.919,131.953c-1.795,0-3.283,1.461-3.283,3.257v16.02c0,1.796,1.488,3.257,3.283,3.257  h25.657c1.797,0,3.257-1.461,3.257-3.257v-16.02c0-1.795-1.46-3.257-3.257-3.257H361.919z M361.919,133.663h25.657  c0.874,0,1.548,0.674,1.548,1.548v16.02c0,0.873-0.674,1.549-1.548,1.549h-25.657c-0.871,0-1.575-0.676-1.575-1.549v-16.02  C360.344,134.338,361.048,133.663,361.919,133.663z"
   style="fill:#000000" />
<path
   id="path209"
   fill="#F4F4F4"
   d="M397.05,131.953c-1.795,0-3.257,1.461-3.257,3.257v16.02c0,1.796,1.462,3.257,3.257,3.257  h25.684c1.796,0,3.258-1.461,3.258-3.257v-16.02c0-1.794-1.46-3.257-3.258-3.257H397.05z M397.05,133.663h25.684  c0.873,0,1.549,0.674,1.549,1.548v16.02c0,0.873-0.676,1.549-1.549,1.549H397.05c-0.872,0-1.548-0.676-1.548-1.549v-16.02  C395.502,134.338,396.18,133.663,397.05,133.663z"
   style="fill:#000000" />
<path
   id="path211"
   fill="#F4F4F4"
   d="M486.845,184.549c-3.623,0-7.254,1.384-10.013,4.135l-24.675,24.675  c-5.514,5.513-5.514,14.481,0,19.997l24.296,24.271c5.516,5.516,14.484,5.513,19.998,0l24.671-24.671  c5.507-5.506,5.515-14.453,0.026-19.972l-0.026-0.026l-24.297-24.269c-2.757-2.758-6.365-4.139-9.986-4.139L486.845,184.549z   M486.845,186.231c3.181,0,6.354,1.228,8.784,3.657l24.297,24.297c4.862,4.862,4.862,12.706,0,17.568l-24.671,24.669  c-4.861,4.862-12.707,4.864-17.567,0l-24.296-24.296c-4.862-4.862-4.86-12.709,0-17.567l24.669-24.671  C480.492,187.457,483.665,186.231,486.845,186.231z"
   style="fill:#000000" />
<g
   id="g213"
   style="fill:#000000">
	<path
   id="path215"
   d="m 486.657,185.882 c -3.104,0 -6.207,1.187 -8.569,3.551 l -12.202,12.201 -0.16,0.16 -0.454,0.427 0.026,0.027 -0.16,0.133 -12.201,12.201 c -4.728,4.729 -4.728,12.413 0,17.142 l 12.201,12.201 0.16,0.134 -0.026,0.026 0.454,0.427 0.16,0.16 12.202,12.201 c 4.727,4.729 12.413,4.729 17.141,0 l 12.199,-12.201 0.16,-0.16 0.428,-0.427 0.16,-0.16 12.202,-12.201 c 4.728,-4.728 4.728,-12.412 0,-17.14 l -12.202,-12.202 -0.16,-0.16 -0.428,-0.427 -0.16,-0.161 -12.199,-12.199 c -2.364,-2.364 -5.467,-3.551 -8.571,-3.551 v -0.002 z m 0,1.709 c 2.664,0 5.332,1.007 7.369,3.044 l 11.586,11.585 -18.957,18.958 -18.955,-18.958 11.586,-11.585 c 2.038,-2.037 4.705,-3.044 7.369,-3.044 z m -20.931,16.607 18.957,18.956 -18.957,18.957 -11.588,-11.587 c -4.073,-4.075 -4.073,-10.662 0,-14.738 l 11.586,-11.594 z m 41.864,0 11.586,11.587 c 4.075,4.074 4.075,10.662 0,14.738 l -11.584,11.593 -18.96,-18.959 18.96,-18.957 z m -20.933,20.906 18.957,18.983 -11.588,11.586 c -4.073,4.077 -10.662,4.077 -14.738,0 l -11.594,-11.61 18.96,-18.959 z"
   inkscape:connector-curvature="0"
   style="fill:#000000" />
</g>
<path
   id="path217"
   fill="#F4F4F4"
   d="M451.628,182.438c-3.129,0-5.687,2.558-5.687,5.687v70.061c0,3.129,2.558,5.687,5.687,5.687  h70.059c3.132,0,5.687-2.558,5.687-5.687v-70.061c0-3.129-2.555-5.687-5.687-5.687H451.628z M451.628,184.146h70.059  c2.207,0,3.979,1.772,3.979,3.978v70.061c0,2.206-1.771,3.979-3.979,3.979h-70.059c-2.204,0-3.979-1.773-3.979-3.979v-70.061  C447.649,185.919,449.424,184.146,451.628,184.146L451.628,184.146z"
   style="fill:#000000" />
<path
   id="path219"
   fill="#F4F4F4"
   d="M77.25,137.584c-0.908,0-1.655,0.75-1.655,1.656v6.968c0,0.905,0.749,1.682,1.655,1.682h9.131  c0.907,0,1.655-0.776,1.655-1.682v-6.968c0-0.906-0.748-1.656-1.655-1.656H77.25z M77.303,139.293h9.024v6.889h-9.024V139.293z"
   style="fill:#000000" />
<path
   id="path221"
   fill="#F4F4F4"
   d="M68.119,222.653c-0.906,0-1.655,0.776-1.655,1.683v2.67c0,0.905,0.75,1.655,1.655,1.655h7.796  c0.905,0,1.655-0.747,1.655-1.655v-2.67c0-0.907-0.748-1.683-1.655-1.683H68.119z"
   style="fill:#000000" />
<path
   id="path223"
   fill="#F4F4F4"
   d="M431.789,222.653c-0.906,0-1.656,0.776-1.656,1.683v2.67c0,0.905,0.751,1.655,1.656,1.655  h7.769c0.906,0,1.656-0.747,1.656-1.655v-2.67c0-0.906-0.748-1.683-1.656-1.683H431.789z"
   style="fill:#000000" />
<path
   id="line233"
   fill="#F4F4F4"
   d="M51.779,110.594v4.486h1.709v-4.486H51.779z"
   style="fill:#000000" />
<path
   id="line235"
   fill="#F4F4F4"
   d="M543.927,110.329v4.699h1.709v-4.699H543.927z"
   style="fill:#000000" />
<path
   id="path237"
   fill="#F4F4F4"
   d="M369.42,44.779c-0.906,0-1.655,0.775-1.655,1.682v14.178c0,0.906,0.749,1.655,1.655,1.655  h0.508c0.905,0,1.654-0.75,1.654-1.655V46.461c0-0.905-0.749-1.682-1.654-1.682H369.42z M369.474,46.488h0.4v14.098h-0.4V46.488z"
   style="fill:#000000" />
<path
   id="path239"
   fill="#F4F4F4"
   d="M474.294,44.779c-0.906,0-1.655,0.777-1.655,1.682v14.178c0,0.905,0.749,1.655,1.655,1.655  h0.508c0.906,0,1.655-0.749,1.655-1.655V46.461c0-0.906-0.749-1.682-1.655-1.682H474.294z M474.348,46.488h0.4v14.098h-0.4V46.488z"
   style="fill:#000000" />
</svg>